<svg width="131" height="171" viewBox="0 0 131 171" fill="none" xmlns="http://www.w3.org/2000/svg">
<path d="M50.3476 46.4603C50.3476 46.4603 50.7553 47.3778 49.4205 48.0146C48.0857 48.6513 45.4719 48.7372 45.4719 48.7372L41.1471 40.4325L44.0131 33.3193C44.0131 33.3193 45.5033 34.4333 46.4345 35.9249C47.3658 37.4179 49.051 44.0538 49.2637 44.1601C49.475 44.2651 50.3476 46.4603 50.3476 46.4603Z" fill="#FF882A"/>
<path d="M36.7486 124.205C36.7486 124.205 36.5972 125.414 36.6395 125.485C36.6818 125.555 40.8253 127.454 42.2188 127.685C43.6122 127.914 47.1953 129.921 48.4661 130.028C49.7382 130.137 50.2235 129.608 50.3394 129.296C50.454 128.984 50.5576 128.106 50.3912 127.454C50.2249 126.802 47.1435 126.138 47.1435 126.138L36.7486 124.205Z" fill="#2F2720"/>
<path d="M43.2536 122.282C43.2536 122.282 47.3344 124.132 48.2111 124.56C49.0878 124.988 50.0081 125.921 50.2713 126.973C50.5344 128.026 50.2304 128.825 49.3796 129.134C48.5288 129.444 44.8829 128.013 44.8052 127.889C44.7275 127.765 39.5423 126.086 39.3528 125.893C39.1633 125.701 36.8181 125.307 36.7472 124.205C36.6763 123.104 38.6451 120.033 38.6451 120.033L43.2536 122.282Z" fill="#D6A94F"/>
<path d="M43.9476 123.459C43.8822 124.22 41.3871 125.184 40.6263 125.119C40.0195 125.067 37.9253 124.888 36.6532 124.151C36.33 123.964 36.0587 123.743 35.8801 123.477C34.9884 122.164 34.9625 118.336 34.2003 114.855C33.4381 111.374 33.0537 101.392 32.8178 100.721C32.5819 100.054 31.9942 97.3685 32.0788 91.837C32.166 86.3014 32.0965 78.2256 33.3781 76.629C33.8772 76.0046 35.3688 75.3679 36.9981 74.8225C39.5546 73.9703 42.4587 73.3418 42.4587 73.3418C42.4587 73.3418 44.0158 80.5967 43.9122 83.2091C43.8058 85.8214 44.1685 94.6852 44.2708 96.2232C44.3757 97.7652 44.1862 102.045 43.8658 103.728C43.5454 105.407 43.3177 114.986 43.3286 116.93C43.3395 118.876 44.0131 122.699 43.9476 123.459Z" fill="#355FA3"/>
<path d="M37.2831 121.537C37.4971 122.011 35.7574 119.374 35.6578 119.228C35.7001 119.433 36.375 122.709 36.39 123.106C36.3968 123.23 36.5032 123.639 36.6545 124.149C36.3314 123.962 36.06 123.741 35.8814 123.475C34.9897 122.162 34.9638 118.334 34.2017 114.853C33.4395 111.372 33.055 101.39 32.8191 100.72C32.5832 100.053 31.9956 97.3668 32.0801 91.8353C32.1674 86.2997 32.0979 78.224 33.3795 76.6274C33.8785 76.0029 35.3701 75.3662 36.9995 74.8208C37.0036 74.8208 37.0022 74.8249 37.0022 74.8249C38.0425 76.7896 36.2632 83.3042 36.2632 83.3042C36.2632 83.3042 35.5242 91.4126 35.5706 91.4167C35.6156 91.4208 37.4412 94.1695 37.4412 94.1695C37.4412 94.1695 38.9942 96.8323 39.0597 97.0137C39.1251 97.1964 38.4761 101.324 38.4761 101.324C38.4761 101.324 38.4284 103.502 38.0548 103.615C37.6853 103.729 36.7704 103.061 36.4786 103.92C36.1828 104.777 36.72 108.12 36.72 108.12L39.1796 109.687L37.1958 110.164L36.7418 112.009L38.1543 112.719C38.1543 112.719 37.3758 113.066 37.189 113.757C37.0063 114.448 37.3976 116.364 37.3976 116.364L39.3732 119.828L37.2681 118.003L35.4342 115.606L35.8365 118.466C35.8365 118.466 37.0608 121.044 37.2831 121.537Z" fill="#6C91C4"/>
<path d="M20.2945 129.653L19.6155 130.184C19.6155 130.184 19.231 131.24 19.4805 131.763C19.73 132.285 20.6572 135.219 21.028 136.047C21.3989 136.873 23.1945 137.909 24.7584 138.22C26.3223 138.531 27.7062 138.178 28.1207 137.8C28.5352 137.424 28.4533 136.297 28.4533 136.297L24.0194 132.886L20.2945 129.653Z" fill="#2F2720"/>
<path d="M25.556 128.189C25.556 128.189 26.4218 131.148 27.3081 132.843C28.1943 134.538 28.7288 136.202 28.3129 136.933C27.8971 137.663 26.3741 137.916 24.9098 137.821C23.4454 137.725 22.4024 136.842 21.632 135.863C20.8617 134.884 20.2318 131.916 20.2318 131.916C20.2318 131.916 19.76 130.198 19.5896 129.446C19.4178 128.697 19.4451 126.658 19.4451 126.658L25.556 128.189Z" fill="#D6A94F"/>
<path d="M37.3662 77.7938C37.1617 80.1935 36.0996 83.6921 36.0437 84.337C35.9892 84.9792 34.0367 89.2277 33.7367 89.9694C33.5936 90.3171 32.9023 91.8796 32.087 93.8212C31.1857 95.9741 30.1386 98.6014 29.5359 100.563C29.0656 102.099 28.8556 104.763 28.7752 107.565C28.7752 107.565 28.7752 107.565 28.7752 107.569C28.6552 111.572 28.7983 115.852 28.7942 117.515C28.786 120.34 27.259 127.22 27.259 127.22C27.259 127.22 26.0592 129.531 25.1007 129.743C24.1394 129.957 21.9647 129.888 20.7376 129.783C20.0709 129.726 19.2365 128.956 18.6243 128.176C18.1075 127.517 17.7517 126.855 17.7735 126.588C17.8239 126.001 17.7517 119.93 17.6903 116.512C17.629 113.091 18.5275 103.275 18.5125 102.744C18.4975 102.212 17.3344 87.5861 17.1299 83.7671C16.9363 80.1676 18.3489 74.9933 18.507 74.4302C18.5166 74.3961 18.522 74.3784 18.522 74.3784C18.522 74.3784 18.5534 74.3811 18.6106 74.3825C18.7824 74.3934 19.1942 74.418 19.7873 74.4548C24.0413 74.7302 37.5394 75.7732 37.3662 77.7938Z" fill="#355FA3"/>
<path d="M29.5359 100.561C29.0656 102.097 28.8556 104.761 28.7752 107.563C28.7752 107.563 28.7752 107.563 28.7752 107.567C28.7329 107.64 27.3599 110.156 27.3885 110.565C27.413 110.981 25.2738 111.915 25.2738 111.915L24.2731 107.004L25.432 101.213L26.7422 94.7286L31.517 91.6035L32.087 93.8219C31.1857 95.972 30.1386 98.5994 29.5359 100.561Z" fill="#6C91C4"/>
<path d="M18.6666 125.074C18.6229 125.578 18.6188 126.921 18.6243 128.172C18.1075 127.513 17.7517 126.851 17.7735 126.583C17.8239 125.997 17.7517 119.926 17.6903 116.507C17.629 113.087 18.5275 103.271 18.5125 102.739C18.4975 102.208 17.3344 87.5819 17.1299 83.7629C16.9363 80.1634 18.3489 74.9891 18.507 74.426C18.5438 74.411 18.5765 74.396 18.6106 74.3783C19.3537 74.036 19.8623 73.8247 19.8623 73.8247L19.7873 74.4505L19.0469 80.6447C19.0469 80.6447 19.0047 88.7095 19.1424 89.0749C19.2842 89.4403 20.4894 96.1362 20.4894 96.1362L20.9271 104.123L18.9569 94.7686C18.9569 94.7686 19.4587 101.998 19.3892 102.814C19.3196 103.631 19.3673 110.645 19.4969 111.186C19.6278 111.727 18.7974 119.368 18.7974 119.368C18.7974 119.368 18.7565 124.019 18.6666 125.074Z" fill="#6C91C4"/>
<path d="M46.9745 44.5755C46.8149 46.4611 45.9519 51.9095 45.8155 53.4883C45.6805 55.0658 44.4848 59.208 43.6585 65.3599C42.82 71.524 43.499 72.4116 42.8691 74.5318C42.2528 76.6397 40.8226 79.3393 35.6333 81.2372C33.8335 81.8903 31.8115 82.0757 29.8277 81.9898C27.3012 81.8794 24.8348 81.3368 22.9737 80.7573C22.0615 80.486 21.2843 80.2024 20.7308 79.9679C18.1293 78.858 16.2191 76.3193 16.515 74.5318C16.8109 72.7443 17.6248 71.7585 17.8089 71.2404C17.982 70.7223 20.6571 63.2274 20.9898 62.3276C21.3348 61.4277 20.9776 57.9509 21.0021 57.5937C21.0266 57.2487 18.5493 44.0955 19.3878 41.9018C20.214 39.708 22.371 38.3268 22.975 37.7964C23.579 37.2537 29.0274 33.4824 29.3723 33.2479C29.7173 33.0134 33.3904 30.6465 33.3904 30.6465L41.0203 32.1013C41.0203 32.1013 43.8685 32.3481 45.7174 35.0722C47.5539 37.7841 47.134 42.7021 46.9745 44.5755Z" fill="#F9551A"/>
<path d="M45.7978 63.8756C45.896 65.6495 45.896 67.1301 45.3928 67.7587C44.2898 69.1412 39.8627 71.5014 39.6254 69.7003C39.4018 67.9128 40.798 44.0878 40.7285 43.0966C40.659 42.1054 41.4961 41.0583 42.306 39.2695C43.1159 37.4956 41.5384 32.9717 41.5384 32.9717C41.5384 32.9717 41.6638 32.6785 42.1533 32.6499C42.4464 32.6213 42.88 32.6922 43.5086 32.9853C44.2626 33.348 45.1283 34.1579 45.8128 35.3182C46.5804 36.5889 47.1394 38.3205 47.1258 40.3602C47.1258 44.2706 46.4972 53.572 45.8278 57.2997C45.6601 58.2637 45.6178 59.353 45.6464 60.4424C45.6574 61.6123 45.7419 62.7998 45.7978 63.8756Z" fill="#C4FF36"/>
<path d="M45.6437 60.4397C45.6574 61.6123 45.7419 62.7998 45.7978 63.8756C45.3642 64.3501 44.9456 64.7687 44.6102 65.0632C44.0103 65.5799 43.4377 65.8458 42.8923 65.8458C42.6687 65.8458 42.4315 65.8035 42.2215 65.7067C41.4116 65.329 41.1184 64.4223 41.1184 63.6956L42.1942 44.2692C42.2637 43.1239 42.516 41.9786 42.9618 40.9029C43.6736 39.1576 44.4984 35.8063 41.9283 32.8449L42.1519 32.6499C42.4451 32.6213 42.8787 32.6922 43.5072 32.9853C44.2612 33.348 45.127 34.1579 45.8114 35.3182C46.44 38.0832 45.6574 40.5838 45.1556 41.8123C44.8066 42.6358 44.6116 43.5016 44.5693 44.396L43.5495 62.7889C44.1767 62.1577 44.9593 61.2359 45.6437 60.4397Z" fill="#99C2D6"/>
<path d="M37.3621 61.4168C36.315 72.6871 35.2679 72.6585 30.0581 73.707C24.8634 74.7677 18.0475 69.6289 18.1184 69.1122C18.1457 68.9308 18.5097 68.0364 18.9706 66.9197C19.3892 65.9421 19.8923 64.7832 20.3109 63.8192C20.814 62.6603 21.2039 61.7659 21.2039 61.7659C21.2039 61.7659 30.5463 65.5508 30.8967 59.3921C31.2457 53.2198 30.4358 45.8313 27.2372 41.6414C24.0535 37.4515 21.7629 38.7781 21.7629 38.7781L20.1431 40.3843C20.2127 40.1893 20.8835 38.695 21.4139 38.0937C21.6798 37.8142 23.1591 36.8502 24.7516 35.859C25.5342 35.3695 26.3577 34.8678 27.0558 34.4478C28.1316 33.792 28.9279 33.3161 28.9279 33.3161C30.1004 32.6044 30.1427 32.9808 30.1427 32.9808C30.1427 32.9808 28.2857 34.4192 29.375 36.3185C30.4644 38.2041 33.6904 40.2425 35.8133 41.5841C37.9225 42.9244 37.6567 43.902 38.187 44.4882C38.7174 45.0773 37.8652 56.1512 37.3621 61.4168Z" fill="#C4FF36"/>
<path d="M37.0976 44.7843C36.9585 43.9049 36.2046 43.3595 34.5425 42.1733C32.9228 40.9993 30.7017 39.4082 28.8583 37.3412C27.4894 35.791 27.4485 35.1065 27.4485 35.037C27.4349 35.1488 27.3367 35.176 27.2808 35.191L27.0572 34.4507C26.3591 34.8693 25.5356 35.3724 24.753 35.8619C24.9902 36.8531 25.661 37.9561 26.7777 39.1996C28.816 41.4902 31.288 43.264 32.9077 44.4366C33.4245 44.7993 34.0244 45.2465 34.3462 45.5124C34.3462 48.6265 33.34 66.1673 32.2656 68.0529C31.9438 68.346 30.1713 68.751 27.4894 68.3188C25.0038 67.9138 21.9593 66.7549 20.8562 64.7152C20.6885 64.3934 20.5072 64.1003 20.3122 63.8208C19.8937 64.7847 19.3905 65.9436 18.972 66.9212C21.039 69.659 25.0747 70.9434 28.3702 71.2365C28.7192 71.2652 29.1937 71.2925 29.7391 71.2925C31.3316 71.2925 33.4682 71.0416 34.4457 69.7981C36.5523 67.1421 37.1249 44.9656 37.0976 44.7843Z" fill="#99C2D6"/>
<path d="M31.652 89.7307C31.2825 90.4083 26.7218 95.0195 26.7218 95.0195L25.2425 89.5343L22.9737 80.7578C24.8348 81.3373 27.2999 81.8799 29.8277 81.9904V82.0149C29.8277 82.0149 32.0215 89.0517 31.652 89.7307Z" fill="#6C91C4"/>
<path d="M29.1365 57.8515C29.0015 58.5918 28.5938 64.1629 28.5938 64.1629L29.9123 73.1616L29.8264 81.9886C27.2999 81.8782 24.8334 81.3355 22.9723 80.756L22.8496 80.2625L21.9374 70.9433L21.4071 62.6344L24.0208 56.927C24.0208 56.927 26.6713 50.0239 28.212 50.1971L30.5912 54.4006L30.3935 56.7675C30.3935 56.7675 29.2728 57.1125 29.1365 57.8515Z" fill="#F09F69"/>
<path d="M32.4701 30.1216C32.4701 30.1216 32.1483 31.0092 31.8402 31.5123C31.532 32.0154 30.5776 32.8471 30.4413 33.0707C30.3049 33.2943 31.4897 35.1036 31.7665 35.5686C32.0433 36.0335 34.612 38.0201 35.9237 38.515C37.2353 39.0099 38.0111 38.8995 38.8919 38.2382C39.7727 37.5769 40.044 34.3919 40.044 34.3919C40.044 34.3919 34.2003 29.2967 32.4701 30.1216Z" fill="#FCC7AA"/>
<path d="M37.2408 38.7755L36.6436 40.7388C36.6436 40.7388 33.8104 39.5458 31.6275 37.8879C29.446 36.2299 29.371 33.2466 29.371 33.2466L30.9594 31.8791L31.8075 31.665C31.8075 31.665 31.3371 33.1594 31.5702 33.8506C31.8034 34.5419 35.3238 38.4687 37.5926 38.0324C39.8613 37.5961 41.0394 36.2572 41.0394 36.2572L39.7973 40.7388L37.2408 38.7755Z" fill="#FF882A"/>
<path d="M33.3495 33.9693C33.3495 33.9693 34.8698 36.6362 35.1493 37.2347C35.4288 37.8333 36.7527 40.1839 36.8481 40.3529C36.9436 40.5234 39.2423 42.0436 39.8341 41.8514C40.4245 41.6591 42.8568 38.7754 42.9714 38.211C43.0859 37.6465 42.955 34.5214 42.955 34.5214C42.955 34.5214 42.0633 33.0762 41.5425 32.9658C41.0216 32.8567 33.3754 32.6044 33.3495 33.9693Z" fill="#FAD3BE"/>
<path d="M46.6731 26.067C46.6731 26.067 45.5047 31.8262 45.3424 32.3416C45.1802 32.8583 43.4963 36.0406 42.8337 36.8969C42.171 37.7531 40.6753 39.0675 40.4531 39.2543C40.2308 39.4411 38.5429 39.5624 38.0821 39.4342C37.6212 39.3061 34.503 36.1851 33.4395 34.1509C32.3774 32.1166 32.271 28.2812 32.511 27.1523C32.751 26.0247 33.3536 21.3658 34.5534 21.115C35.7533 20.8655 46.5627 21.494 46.6731 26.067Z" fill="#FCC7AA"/>
<path d="M45.352 27.043C45.352 27.043 43.7785 27.8801 41.5602 27.6606C39.3419 27.4411 38.9069 26.668 38.3125 26.7362C37.718 26.803 36.6477 28.6546 36.6477 28.6546L35.4683 29.7017L34.2208 30.1843L33.7926 32.4436L33.2854 31.4878C33.2854 31.4878 33.5608 29.3036 33.5145 28.7991C33.4681 28.2946 32.8382 27.3579 32.6746 27.2557C32.511 27.1534 32.0556 28.2919 32.0556 28.2919C32.0556 28.2919 31.7447 27.4411 32.0229 24.1961C32.2997 20.9524 33.0768 18.3987 35.8473 16.9862C38.6179 15.5736 43.3899 16.5703 44.9374 17.762C46.485 18.9536 47.3071 20.7016 47.3262 23.9125C47.3467 27.1234 45.9751 29.4467 45.9751 29.4467C45.9751 29.4467 46.2164 26.9093 46.1223 26.6353C46.0282 26.3653 45.352 27.043 45.352 27.043Z" fill="#4A2727"/>
<path d="M33.0114 30.9792C33.0114 30.9792 32.286 30.9397 32.0243 30.3875C31.7625 29.8353 31.3398 28.0546 31.4312 27.5106C31.5225 26.9666 31.7434 26.698 32.0501 26.7239C32.3569 26.7498 33.5281 28.1023 33.4545 28.5414C33.3809 28.9804 33.4586 30.9683 33.0114 30.9792Z" fill="#FFD6BF"/>
<path d="M43.9762 29.0242C43.9762 29.0242 42.9373 31.1103 42.6223 31.4307C42.3074 31.7525 40.9726 31.8807 40.9726 31.8807C40.9726 31.8807 38.3084 31.5303 37.6471 31.0053C36.9858 30.4804 37.9634 27.5599 39.0664 27.8312C40.1695 28.1026 42.6196 28.6207 43.4349 28.6466C44.2489 28.6711 43.9762 29.0242 43.9762 29.0242Z" fill="#FFD6BF"/>
<path d="M34.4921 27.6104L33.2213 30.7545L33.1395 33.465L33.7286 34.6512L34.1662 31.1308L35.8051 27.8135L34.4921 27.6104Z" fill="#C7C7CE"/>
<path d="M47.753 27.5638C47.4735 28.8346 47.0549 29.7427 46.6772 30.0358C45.6301 30.8184 40.7285 31.4606 36.6504 29.5327C34.5561 28.5551 33.355 26.5303 32.6978 24.7838C32.0556 23.1217 31.9016 21.7119 31.9016 21.7119C31.9575 21.2784 32.0406 20.8734 32.1524 20.4971C32.1524 20.4835 32.1524 20.4835 32.1524 20.4835C33.2554 16.419 36.6068 15.6377 38.4924 15.4973C38.9397 15.455 39.3023 15.4551 39.5396 15.4551H39.7073C40.0849 15.4551 40.3072 15.4837 40.3072 15.4837C42.081 15.5955 45.5169 16.2104 46.8149 18.9468C46.9826 19.3095 47.1367 19.6736 47.2485 20.0362C48.2411 22.7877 48.1716 25.61 47.753 27.5638Z" fill="#FFCB21"/>
<path d="M35.2365 28.626C35.2365 28.626 36.0505 31.8955 39.2219 32.6222C42.3933 33.3503 46.2532 32.6222 47.1313 32.1859C48.0093 31.7496 47.2294 29.2218 47.2294 29.2218C47.2294 29.2218 45.4624 29.7126 41.7824 29.7126C37.9416 29.7126 35.2365 28.626 35.2365 28.626Z" fill="#FFBE24"/>
<path d="M47.543 24.3667C46.9431 25.1629 39.89 27.2436 36.6504 22.4401C33.3959 17.6353 37.2094 15.8902 37.2094 15.8902C37.2094 15.8902 37.7126 15.6952 38.4938 15.4988C38.941 15.4566 39.3037 15.4565 39.541 15.4565C40.8403 15.4565 45.2947 15.7361 46.8176 18.9483C46.9853 19.311 47.1395 19.6751 47.2513 20.0378C47.8225 22.0066 47.8784 23.9331 47.543 24.3667Z" fill="#FFDC42"/>
<path d="M45.9505 25.103C45.9505 25.103 45.3833 20.9336 44.8379 19.4283C44.2925 17.9231 42.94 15.9365 42.94 15.9365C42.94 15.9365 45.6901 17.6395 45.9519 18.7629C46.2123 19.8864 45.9505 25.103 45.9505 25.103Z" fill="#FFA600"/>
<path d="M43.2877 25.5038C43.2877 25.5038 42.8909 20.7808 41.957 18.6429C41.023 16.505 39.541 15.4565 39.541 15.4565L41.5425 15.8711L44.4657 22.177L43.2877 25.5038Z" fill="#FFA600"/>
<path d="M39.6173 24.8712C39.6173 24.8712 38.9247 20.455 38.3166 18.977C37.7085 17.4977 36.435 15.9365 36.435 15.9365L37.5108 15.8711L39.8259 20.2737L39.6173 24.8712Z" fill="#FFA600"/>
<path d="M39.7086 15.4565C38.3956 15.4702 35.2393 15.946 33.899 19.9955C33.2282 22.0338 32.8791 23.6127 32.6978 24.7853C32.0556 23.1232 31.9016 21.7134 31.9016 21.7134C32.6133 16.5746 36.4268 15.6529 38.4938 15.4988C38.941 15.4566 39.3037 15.4565 39.5409 15.4565H39.7086Z" fill="#FFA600"/>
<path d="M32.2328 20.2017L32.3283 19.9141C32.3283 19.9141 33.2186 24.1585 34.7784 25.7782C36.3396 27.3994 39.3828 29.0669 43.6381 28.8515C46.0418 28.7165 47.753 27.5644 47.753 27.5644L47.6957 27.8139C47.6957 27.8139 47.1558 29.0205 46.6731 29.3409C46.1905 29.6614 42.0442 30.264 39.4482 29.3409C36.8508 28.4179 34.8875 27.2835 34.233 26.4982C33.5786 25.7128 32.5751 23.1291 32.5751 23.1291L32.2328 20.2017Z" fill="#FFE342"/>
<path d="M47.6943 27.8132C47.4148 29.084 47.0535 29.7425 46.6772 30.0357C45.6301 30.8183 40.7285 31.4604 36.6504 29.5325C34.5561 28.5549 33.355 26.5302 32.6978 24.7836C32.0556 23.1216 31.9016 21.7118 31.9016 21.7118C31.9575 21.2782 32.1197 20.5774 32.2315 20.1997C32.301 20.4928 33.2391 25.5513 36.0205 27.2147C41.1471 30.2783 47.1367 28.9313 47.6943 27.8132Z" fill="#FFA600"/>
<path d="M36.4364 15.9368C36.4364 15.9368 38.1093 16.9402 38.7965 19.588C39.4837 22.2359 39.6173 24.8714 39.6173 24.8714C39.6173 24.8714 40.389 25.3377 41.6966 25.4195C41.2289 20.1989 41.038 19.3863 40.3563 17.8715C39.6214 16.2381 37.9593 15.5522 37.9593 15.5522L36.4364 15.9368Z" fill="#FFE342"/>
<path d="M43.2877 25.5035C43.2877 25.5035 43.0845 19.1389 41.6966 17.3119C40.3086 15.4849 39.5396 15.4576 39.5396 15.4576C39.5396 15.4576 40.6631 15.3444 41.8902 15.6758C44.1821 17.4428 44.5039 20.0115 44.7929 21.8945C45.0697 23.7051 45.0697 25.3222 45.0697 25.3222C45.0697 25.3222 44.0539 25.5144 43.2877 25.5035Z" fill="#FFE342"/>
<path d="M45.9505 25.103C45.9505 25.103 45.8933 21.7407 45.0711 19.2102C44.2489 16.6782 42.9386 15.9365 42.9386 15.9365C42.9386 15.9365 44.4098 16.2392 45.3179 17.1213C46.2996 18.2066 46.9104 20.1482 47.0412 21.8934C47.1721 23.6386 47.1312 24.6598 47.1312 24.6598C47.1312 24.6598 46.3295 25.0048 45.9505 25.103Z" fill="#FFE342"/>
<path d="M41.4961 34.0224C41.4961 34.0224 40.5172 34.8882 40.149 35.0559C39.7809 35.2236 41.0394 36.2585 41.0394 36.2585L41.7184 36.3171C41.7184 36.3171 41.8697 34.1629 41.9802 33.2562C42.0906 32.3495 41.4961 34.0224 41.4961 34.0224Z" fill="#FFD6BF"/>
<path d="M38.5374 35.1461C38.5374 35.1461 36.9149 36.5682 36.1528 35.8401C35.3906 35.1134 34.4444 33.4418 34.4948 32.5038C34.5453 31.5657 34.6339 30.8799 34.6339 30.8799C34.6339 30.8799 35.2693 31.7157 35.5188 32.2379C35.7683 32.7601 37.4044 34.6362 37.6103 34.6389C37.8148 34.643 39.4114 34.5435 38.5374 35.1461Z" fill="#FFD6BF"/>
<path d="M94.057 109.944C94.057 109.944 97.6129 113.295 98.5769 113.907C99.5408 114.519 99.6935 116.344 99.6295 117.088C99.5654 117.833 98.0002 118.583 96.9476 118.493C95.895 118.403 92.9226 115.455 92.9226 115.455C92.9226 115.455 88.8091 113.47 87.5316 112.388C86.2554 111.307 87.8383 108.793 87.8383 108.793L94.057 109.944Z" fill="#2F2720"/>
<path d="M94.1048 109.382C94.1048 109.382 97.6606 112.733 98.6246 113.345C99.5886 113.957 99.7413 115.782 99.6772 116.526C99.6131 117.271 98.0478 118.021 96.9953 117.931C95.9427 117.841 92.9704 114.893 92.9704 114.893C92.9704 114.893 88.8569 112.908 87.5793 111.826C86.3031 110.745 87.8861 108.231 87.8861 108.231L94.1048 109.382Z" fill="#D6A94F"/>
<path d="M92.2846 111.743C91.7992 111.878 89.3245 111.904 88.1465 111.213C87.7088 110.957 87.1703 110.477 86.6658 109.971C85.8096 109.111 85.0487 108.183 85.0487 108.183C85.0487 108.183 84.4243 98.2944 84.5279 97.0673C84.6329 95.8402 83.7576 81.9303 83.0704 80.3378C82.3832 78.7493 81.0948 74.5159 81.0852 73.9296C81.0852 73.7701 80.9366 72.7297 80.7948 71.294C80.4144 67.4709 80.0599 60.8241 82.5386 60.3919C85.9459 59.8001 93.2717 60.1887 93.2717 60.1887C93.2717 60.1887 95.4369 63.7896 95.7341 68.5848C96.0313 73.3801 94.9583 87.3036 94.8737 91.0613C94.7892 94.8231 94.5888 108.171 94.7088 109.539C94.8301 110.901 92.7659 111.608 92.2846 111.743Z" fill="#355FA3"/>
<path d="M86.0318 106.146C86.6208 107.02 86.6672 109.967 86.6672 109.967V109.971C85.8109 109.111 85.0501 108.183 85.0501 108.183C85.0501 108.183 84.4257 98.2943 84.5293 97.0672C84.6343 95.8401 83.759 81.9302 83.0718 80.3377C82.3846 78.7493 81.0961 74.5158 81.0866 73.9295C81.0866 73.77 80.938 72.7297 80.7962 71.2939C82.1801 71.6348 83.5489 72.3656 83.5489 72.3656C83.5489 72.3656 83.853 78.1085 84.4352 80.9281C85.0174 83.7436 85.77 90.8145 85.7168 92.8133C85.6623 94.8121 86.1231 97.0277 86.1231 97.0277C86.1231 97.0277 85.4223 96.9677 85.6078 97.5131C85.7973 98.0598 86.7108 102.554 87.1267 103.178C87.5439 103.804 88.9264 107.631 88.9264 107.631L86.2172 103.984C86.2172 103.984 85.4401 105.27 86.0318 106.146Z" fill="#6C91C4"/>
<path d="M78.3051 114.428C78.3051 114.428 77.9166 118.459 78.3106 119.022C78.7046 119.585 79.3304 122.598 79.0659 123.105C78.8014 123.613 76.9335 123.762 76.9335 123.762C76.9335 123.762 72.8309 123.191 72.5664 122.154C72.3019 121.115 71.9774 118.703 72.1369 117.878C72.2964 117.053 71.1825 114.573 71.4634 113.359C71.7442 112.146 78.3051 114.428 78.3051 114.428Z" fill="#2F2720"/>
<path d="M78.361 113.778C78.361 113.778 77.9724 117.808 78.3665 118.371C78.7605 118.934 79.3864 121.947 79.1219 122.455C78.8573 122.962 76.9908 123.112 76.9908 123.112C76.9908 123.112 72.8881 122.541 72.6236 121.502C72.3591 120.463 72.0346 118.051 72.1941 117.226C72.3523 116.401 71.2397 113.921 71.5206 112.707C71.7988 111.495 78.361 113.778 78.361 113.778Z" fill="#D6A94F"/>
<path d="M80.2944 90.1121L79.884 110.095C79.884 110.095 79.3141 113.993 78.4988 114.57C77.6861 115.15 72.0101 114.722 72.0101 114.722C72.0101 114.722 71.8492 114.504 71.6106 114.144C70.9412 113.13 69.6786 110.997 69.804 109.532C69.9745 107.542 70.0467 98.4237 70.0236 98.0678C69.9976 97.712 69.3309 84.0543 68.2361 78.9536C67.1385 73.8543 68.3519 61.7128 68.3519 61.7128L74.3307 61.4183L84.0834 60.937C84.0834 60.937 84.0316 69.1149 83.8762 70.9283C83.7208 72.7417 82.3096 74.7978 81.4942 78.1437C80.6775 81.4896 80.2944 90.1121 80.2944 90.1121Z" fill="#355FA3"/>
<path d="M77.9152 78.661C77.5375 79.6891 76.6526 81.7329 76.6526 81.7329L75.8932 85.0842L74.178 84.4789C74.178 84.4789 74.3307 89.6041 74.0484 90.463C73.7662 91.322 73.2849 96.3436 73.2849 96.3436L73.5917 101.023L71.8833 99.6404L71.7388 104.1L70.7966 102.727L70.753 110.104L71.6092 114.143C70.9398 113.129 69.6772 110.997 69.8026 109.531C69.9731 107.542 70.0454 98.4228 70.0222 98.067C69.9963 97.7111 69.3295 84.0534 68.2347 78.9528C67.1371 73.8535 68.3506 61.712 68.3506 61.712L74.3293 61.4175C74.3934 63.599 74.4698 66.4745 74.4725 67.2653C74.4766 68.5865 76.954 73.3777 76.954 73.3777C76.954 73.3777 78.2929 77.633 77.9152 78.661Z" fill="#6C91C4"/>
<path d="M97.5775 32.528C96.8112 35.289 95.2269 42.8098 95.2269 42.8098C95.4696 47.0378 94.0025 50.0647 93.5035 52.3185C93.0031 54.5722 94.0284 58.5876 94.2193 58.9571C94.4061 59.3266 94.9746 61.4522 94.9174 61.624C94.8601 61.7958 90.8025 65.3353 89.2263 66.2175C87.6502 67.0969 80.6134 69.0602 73.8807 66.4506C71.8901 65.6802 70.4926 64.9986 69.5136 64.4273C67.1821 63.0652 67.2148 62.3016 67.2148 62.3016C67.2148 62.3016 68.0629 58.5794 68.1543 58.0395C68.2429 57.5037 69.2859 50.9959 69.35 49.9884C69.4154 48.9794 73.6721 43.0688 72.67 38.2599C72.4982 37.4255 72.2896 36.4752 72.0701 35.4744C71.0189 30.6928 69.6854 24.6827 70.2839 23.9533C71.0052 23.0752 77.5838 19.807 77.5838 19.807C77.5838 19.807 77.5839 19.807 79.3918 19.3148C81.1997 18.8226 86.4354 18.9167 88.5951 19.1008C90.7589 19.2862 97.073 21.8849 98.1965 22.5107C99.3227 23.1393 98.3424 29.7684 97.5775 32.528Z" fill="#325E80"/>
<path d="M76.3704 53.1585L75.57 60.0494L73.878 66.4507L69.515 64.4287C69.515 64.4287 69.515 64.4287 69.5109 64.4287C67.1794 63.0667 67.2121 62.3031 67.2121 62.3031C67.2121 62.3031 68.0602 58.5809 68.1515 58.041C68.2401 57.5052 69.2832 50.9974 69.3473 49.9898C69.4127 48.9809 73.6694 43.0703 72.6673 38.2615C72.4955 37.427 72.2869 36.4767 72.0673 35.4759C72.9086 34.4711 73.439 33.8521 73.439 33.8521C73.439 33.8521 76.8367 43.0063 76.8898 44.127C76.943 45.2519 76.3704 53.1585 76.3704 53.1585Z" fill="#BACEBD"/>
<path d="M91.232 11.6729C91.232 11.6729 90.3525 17.8397 90.3853 18.4901C90.418 19.1405 90.6621 21.4583 90.5325 22.6241C90.403 23.7912 88.3265 26.7335 88.3265 26.7335L87.1662 26.8698C87.1662 26.8698 85.0801 26.3381 84.3384 25.9509C83.5967 25.5637 82.7499 25.4914 82.3205 23.6289C81.891 21.7665 83.339 16.5322 83.3962 15.86C83.4549 15.1892 91.232 11.6729 91.232 11.6729Z" fill="#FCC7AA"/>
<path d="M90.508 20.1714C90.508 20.1714 88.9101 23.3537 88.2951 24.3613C87.6789 25.3689 86.794 26.7718 86.794 26.7718C86.794 26.7718 88.2038 25.9442 88.5487 25.5311C88.8937 25.1193 90.3212 23.34 90.3212 23.34L90.5339 22.6242L90.508 20.1714Z" fill="#FFD6BF"/>
<path d="M90.5326 20.7586C90.5326 20.7586 89.7663 23.1514 88.9591 24.7044C88.152 26.2574 87.1635 26.5451 87.1635 26.5451C87.1635 26.5451 84.997 26.1469 83.9566 25.5143C82.9163 24.8817 82.0205 23.0274 82.0205 23.0274C82.0205 23.0274 81.3797 24.6239 81.4574 24.9253C81.5351 25.2266 81.1479 25.8442 82.7622 26.8695C84.3766 27.8935 85.9923 28.6788 85.9923 28.6788L87.1267 27.0427L88.6633 28.6788C88.6633 28.6788 90.7316 26.8805 91.0765 25.8197C92.4155 21.6953 91.5265 20.2896 90.4616 19.5083C90.5012 20.0796 90.5326 20.7586 90.5326 20.7586Z" fill="#4D98C7"/>
<path d="M88.8773 17.5371C88.8773 17.5371 87.9161 21.547 87.4539 22.4796C86.9917 23.4122 83.5299 25.3388 81.9919 25.3102C81.1575 25.2952 79.8977 24.4253 79.3155 23.3154C78.7333 22.2056 78.1756 19.6491 78.1756 19.6491L79.5363 19.2823L86.0673 19.4173L88.8773 17.5371Z" fill="#FAD3BE"/>
<path d="M89.529 17.8276C89.529 17.8276 88.0742 21.7666 87.5984 22.1674C87.1225 22.5683 82.6791 24.957 81.5542 24.683C80.4294 24.4103 79.7408 23.8513 79.3441 22.6392C78.9473 21.427 78.012 17.9025 77.9697 16.6632C77.9288 15.4224 77.757 13.6418 77.7597 13.26C77.7625 12.8782 77.5484 9.53231 78.192 8.20431C78.8355 6.87495 82.1978 4.39486 83.2013 4.3635C84.2048 4.33214 89.2454 7.7053 89.2972 7.79937C89.3477 7.89072 91.1038 14.0413 89.529 17.8276Z" fill="#FCC7AA"/>
<path d="M89.12 16.0619L88.6755 16.7832L87.9161 16.7177L87.3393 15.1961C87.3393 15.1961 86.5581 13.6568 86.6331 12.7801C86.7081 11.9034 85.421 10.0859 85.1742 10.2113C84.9274 10.3381 82.9122 11.1957 80.9325 10.5849C78.9528 9.97408 78.4946 8.78651 78.4946 8.78651C78.4946 8.78651 77.8893 9.14239 77.8416 9.58279C77.7939 10.0218 77.7407 10.9013 77.7407 10.9013C77.7407 10.9013 77.4884 8.84787 77.6479 6.97722C77.8075 5.10657 79.5227 2.60328 82.4514 1.41162C85.3801 0.218604 89.7581 2.03608 91.5742 3.51542C93.3903 4.99613 93.4708 7.85801 93.1899 9.07012C92.909 10.2822 91.7038 15.0966 91.7038 15.0966C91.7038 15.0966 91.2224 13.4959 90.3948 14.2199C89.5686 14.9466 89.12 16.0619 89.12 16.0619Z" fill="#4A2727"/>
<path d="M89.6995 15.1513C89.6995 15.1513 90.5271 14.0865 91.4106 14.0728C92.2941 14.0592 91.926 15.9721 91.6833 16.392C91.4406 16.8133 90.8884 18.2286 90.388 18.3377C89.8877 18.4468 89.4882 17.6178 89.495 17.5305C89.5018 17.4433 89.4895 15.3885 89.6995 15.1513Z" fill="#FFD6BF"/>
<path d="M85.376 11.9975C85.376 11.9975 85.6923 14.4981 86.3509 15.0544C87.0094 15.6107 87.6434 16.8133 87.6338 16.9305C87.6243 17.0478 86.4245 19.7119 86.4245 19.7119C86.4245 19.7119 84.0098 20.924 83.3022 20.3282C82.5945 19.7324 82.4937 18.9811 82.9927 18.9702C83.4931 18.9607 85.3405 18.2639 85.6909 17.9558C86.0414 17.6477 85.9159 16.3578 85.9159 16.3578L83.2326 15.3762C83.2326 15.3762 80.2685 15.2698 79.3536 14.6031C78.4388 13.9364 78.8942 11.7085 79.1928 11.3213C79.4914 10.934 80.9148 11.4971 81.8692 11.6976C82.8222 11.8966 85.2805 11.3908 85.376 11.9975Z" fill="#FFD6BF"/>
<path d="M93.3358 10.0518C93.3222 10.1077 93.3222 10.15 93.3072 10.1636C93.1954 10.3313 90.8912 11.5598 89.495 11.9648C88.0988 12.3697 85.5573 13.0119 81.2979 12.4529C77.0385 11.9075 76.6895 10.4554 76.6895 10.4554C76.6895 10.4554 76.4658 8.84929 77.2198 4.98118C77.3875 4.11539 77.7638 3.38867 78.2533 2.78875C78.3092 2.70558 78.3515 2.6497 78.3515 2.6497C80.0136 0.667242 82.7786 0.065935 82.7786 0.065935C84.6779 -0.0881347 86.284 0.0932133 87.6393 0.484523C87.6529 0.484523 87.6666 0.498171 87.6816 0.498171C89.7486 1.11309 91.2006 2.22972 92.1087 3.44456C92.1223 3.44456 92.1224 3.4582 92.1224 3.4582C92.2614 3.63954 92.3882 3.83588 92.5 4.01722C93.7271 6.11421 93.4749 9.40966 93.3358 10.0518Z" fill="#F2F0FC"/>
<path d="M81.9264 5.7634C77.2853 5.20575 77.9602 3.29146 78.2533 2.78834C78.3092 2.70517 78.3515 2.64929 78.3515 2.64929C80.0135 0.666831 82.7786 0.0655234 82.7786 0.0655234C87.597 -0.325786 90.613 1.41943 92.1073 3.44552C92.1209 3.44552 92.121 3.45917 92.121 3.45917C93.029 4.9685 86.7367 6.3415 81.9264 5.7634Z" fill="#F2F2F2"/>
<path d="M83.3935 5.88076C83.3935 5.88076 84.8565 2.23354 86.0564 1.57908C87.2562 0.924628 87.8288 0.574211 89.5931 1.29548C89.0219 0.923254 87.7798 0.403769 86.8853 0.500574C85.9923 0.596015 83.065 2.60985 83.3935 5.88076Z" fill="#CFCFE6"/>
<path d="M93.3358 10.0518C92.9581 10.0518 92.7359 10.0518 92.7359 10.0518C92.7359 10.0518 93.2812 2.18882 87.6802 0.499512C89.7472 1.11443 91.1993 2.23111 92.1073 3.44594C92.121 3.44594 92.121 3.45959 92.121 3.45959C92.26 3.64093 92.3869 3.83727 92.4987 4.01861C93.7271 6.11423 93.4749 9.40967 93.3358 10.0518Z" fill="#CFCFE6"/>
<path d="M76.7017 8.67588L76.7249 8.36502C76.7249 8.36502 77.168 9.94255 81.4165 10.507C85.665 11.0701 91.4692 9.63029 92.6254 8.75768C93.4558 8.2982 93.4517 8.08008 93.4517 8.08008L93.6576 8.21094L92.7782 9.75984L82.8059 11.8323L78.0393 10.6979L76.9131 9.30172L76.7017 8.67588Z" fill="#F2F2F2"/>
<path d="M76.7017 8.67597C76.7017 8.67597 76.6376 9.87036 81.0893 10.5984C85.541 11.3252 91.776 10.0449 93.4585 8.47417C93.6576 8.21238 93.6576 8.2124 93.6576 8.2124V10.1908C93.6576 10.1908 91.6642 11.9851 87.4389 12.5564C83.2135 13.129 80.6653 12.5754 78.811 12.1391C76.9567 11.7028 76.6622 10.0449 76.6622 10.0449L76.7017 8.67597Z" fill="#CFCFE6"/>
<path d="M76.6663 9.40283C76.6663 9.40283 73.5249 11.3226 76.4331 12.6765C79.3427 14.0304 82.1337 13.965 83.9553 13.9431C85.7768 13.9213 87.6325 12.4079 87.6325 12.4079C87.6325 12.4079 82.7172 12.6765 79.0305 11.6716C77.1394 11.159 76.9281 10.6518 76.6663 9.40283Z" fill="#EAEAF5"/>
<path d="M89.5945 1.29476C89.5945 1.29476 88.1302 0.247648 86.6249 0.814843C85.1197 1.38204 84.3207 3.12723 83.9566 4.13209C83.5926 5.13559 83.3949 5.88142 83.3949 5.88142C83.3949 5.88142 82.2782 5.81186 81.9264 5.7655C82.3041 3.52126 82.7186 2.38688 83.6567 1.25249C84.5947 0.118099 86.1136 0.154922 86.1136 0.154922C86.1136 0.154922 88.3524 0.291265 89.5945 1.29476Z" fill="#F5F5F5"/>
<path d="M80.3994 5.49113C80.3994 5.49113 81.587 1.65985 82.96 0.837689C84.3343 0.0141655 84.727 0.0305126 84.727 0.0305126L84.2389 0.0141602C84.2389 0.0141602 81.8378 0.379578 81.4165 1.14447C80.9952 1.90528 79.9781 4.34038 80.3994 5.49113Z" fill="#CFCFE6"/>
<path d="M84.2389 0.0127373C84.2389 0.0127373 82.5359 -0.0145411 81.4165 2.32105C80.2971 4.65527 80.3994 5.49108 80.3994 5.49108C80.3994 5.49108 79.3714 5.20065 79.0223 4.96614C79.1846 3.45544 79.9481 1.53843 80.9407 0.72854C81.9333 -0.0799855 83.5108 -0.0118047 84.2389 0.0127373Z" fill="#F5F5F5"/>
<path d="M80.5467 16.8254C80.5467 16.8254 79.8609 18.6511 79.6863 18.8788C79.5118 19.1065 79.5363 19.5946 79.7463 19.7228C79.9563 19.8509 81.1875 19.9205 81.4111 19.6219C81.6347 19.3247 80.9571 18.2134 80.9571 18.2134C80.9571 18.2134 80.7648 16.5936 80.5467 16.8254Z" fill="#FFD6BF"/>
<path d="M53.2136 166.349L42.6864 164.466L98.1842 132.424L114.559 135.111L113.939 131.288L103.412 129.405L103.454 129.381L86.9985 119.88L88.6483 120.152L88.0279 116.328L77.6248 114.469L72.3468 111.421L52.1528 123.08C51.5638 122.31 50.7907 121.597 49.7804 120.976C43.5726 117.161 31.637 118.055 23.1223 122.973C14.6075 127.891 12.7383 134.968 18.946 138.783C19.955 139.403 21.1275 139.886 22.3996 140.26L0.701714 152.787L31.8088 170.746L37.4576 167.485L53.8326 170.172L53.2136 166.349Z" fill="#CCC0BC"/>
<path d="M101.532 65.9912L99.1809 67.3478L88.6483 120.151L90.9975 118.795L101.532 65.9912Z" fill="#B8630F"/>
<path d="M99.1809 67.3481L104.025 70.1459L114.559 135.112L109.715 132.315L99.1809 67.3481Z" fill="#8A4807"/>
<path d="M106.376 68.7891L104.025 70.1457L114.559 135.111L116.908 133.755L106.376 68.7891Z" fill="#B8630F"/>
<path d="M99.1809 67.3482L94.3366 64.5518L83.8039 117.355L88.6483 120.152L99.1809 67.3482Z" fill="#8A4807"/>
<path d="M87.3639 95.9151L87.3489 92.1602L108.587 106.896L108.601 110.653L87.3639 95.9151Z" fill="#7A4006"/>
<path d="M88.5692 91.4233L87.3489 92.1596L108.587 106.896L109.806 106.16L88.5692 91.4233Z" fill="#D6802B"/>
<path d="M109.821 109.915L108.601 110.653L108.587 106.896L109.806 106.16L109.821 109.915Z" fill="#B8630F"/>
<path d="M58.4411 124.726V121.774L130.086 80.4097V83.3615L58.4411 124.726Z" fill="#D47D26"/>
<path d="M40.8062 101.053L38.4556 102.409L27.923 155.212L30.2722 153.855L40.8062 101.053Z" fill="#B8630F"/>
<path d="M38.4556 102.409L43.3 105.206L53.8326 170.171L48.9883 167.375L38.4556 102.409Z" fill="#8A4807"/>
<path d="M45.6505 103.849L43.3 105.206L53.8326 170.171L56.1832 168.815L45.6505 103.849Z" fill="#B8630F"/>
<path d="M38.4556 102.409L33.6113 99.6113L23.0787 152.415L27.923 155.211L38.4556 102.409Z" fill="#8A4807"/>
<path d="M26.6372 130.975L26.6236 127.22L47.8607 141.957L47.8757 145.712L26.6372 130.975Z" fill="#7A4006"/>
<path d="M27.8439 126.484L26.6236 127.22L47.8607 141.958L49.081 141.221L27.8439 126.484Z" fill="#D6802B"/>
<path d="M49.0946 144.976L47.8757 145.712L47.8607 141.957L49.081 141.221L49.0946 144.976Z" fill="#B8630F"/>
<path d="M58.4411 121.774L16.4837 97.5499L88.1288 56.1855L130.086 80.4099L58.4411 121.774Z" fill="#F8C25A"/>
<path d="M62.8859 111.954L33.4927 94.9832L83.6839 66.0059L113.077 82.9754L62.8859 111.954Z" fill="#3581BD"/>
<path d="M71.4565 92.4695L64.747 88.7064L76.8735 81.7051L83.5817 85.4682L71.4565 92.4695ZM66.1582 88.6982L71.4511 91.6651L82.1691 85.4764L76.8776 82.5095L66.1582 88.6982Z" fill="#C2D9EB"/>
<path d="M62.2601 96.8981L53.1359 91.6297L62.2601 86.3613L71.3843 91.6297L62.2601 96.8981ZM54.5307 91.6297L62.2601 96.0909L69.9895 91.6297L62.2601 87.1685L54.5307 91.6297Z" fill="#C2D9EB"/>
<path d="M79.1123 97.336L69.9895 92.0677L79.1123 86.7993L88.2365 92.0677L79.1123 97.336ZM71.3843 92.0677L79.1123 96.5302L86.8417 92.0677L79.1123 87.6065L71.3843 92.0677Z" fill="#C2D9EB"/>
<path d="M82.0219 89.0118L72.8977 83.7435L82.0219 78.4751L91.1447 83.7435L82.0219 89.0118ZM74.2925 83.7421L82.0219 88.2033L89.7499 83.7421L82.0219 79.2795L74.2925 83.7421Z" fill="#C2D9EB"/>
<path d="M64.627 108.509L64.4525 108.408L39.4591 93.9773L81.9415 69.4502L82.116 69.5511L107.109 83.9818L64.627 108.509ZM40.8553 93.9773L64.6284 107.702L105.716 83.9818L81.9442 70.2574L40.8553 93.9773Z" fill="#C2D9EB"/>
<path d="M16.4837 100.502V97.5498L58.4411 121.774V124.726L16.4837 100.502Z" fill="#9F5900"/>
<path d="M36.7663 92.4354L34.3884 92.3836L33.5431 96.3675L31.0453 97.2074L28.0852 97.2252L23.3595 93.5806L34.173 87.3374L36.7663 92.4354Z" fill="#D1BF91"/>
<path d="M36.8386 92.2353C36.8386 92.2994 36.8127 92.3649 36.7609 92.4426C36.4636 92.8816 35.2869 92.5721 35.2869 92.5721L34.4212 91.5891C34.4212 91.5891 34.4089 91.9259 34.3953 92.3908C34.3435 93.2961 34.2794 94.6664 34.2657 94.8995C34.2262 95.2486 34.1621 96.3339 33.5417 96.3734C33.5295 96.3734 33.5295 96.3734 33.5159 96.3734C32.9214 96.3734 32.7142 95.4163 32.7537 95.0031C32.7796 94.6023 32.3146 91.1119 32.3146 91.1119L31.7979 92.7153L31.397 94.4864V94.4987L31.1775 95.5199C31.1775 95.5199 31.1898 96.5547 31.048 97.2133C31.0098 97.3946 30.9444 97.5623 30.8803 97.64C30.5449 98.0273 29.9109 97.5624 29.9109 97.5624L29.7555 97.3687C29.7555 97.3687 29.5482 97.6019 29.3423 97.756C29.3423 97.756 29.3423 97.756 29.3301 97.7682C29.2264 97.8459 29.0969 97.8978 28.9933 97.8978C28.7083 97.8719 28.0498 97.6387 28.0879 97.2256C28.1002 97.0442 28.088 96.8124 28.0757 96.6174C28.0498 96.3979 28.0239 96.2166 28.0239 96.2166C28.0239 96.2166 27.6489 96.372 27.364 96.2943C27.2345 96.2684 27.1308 96.2043 27.0667 96.0748C26.8336 95.6481 26.4464 94.0583 26.4845 93.502C26.5363 92.9457 26.7695 91.964 26.7695 91.8727C26.7695 91.8727 26.7818 91.8345 26.8213 91.7431C26.8213 91.7309 26.8336 91.7173 26.8336 91.7036C26.8472 91.6518 26.8731 91.6 26.8977 91.5359C26.8977 91.5236 26.8977 91.4977 26.9113 91.4841C27.0927 91.0314 27.4281 90.2174 27.6994 89.4021C27.7117 89.3885 27.7116 89.3762 27.7116 89.3626C27.983 88.5745 28.2025 87.785 28.2161 87.346C28.2543 86.1953 28.1002 85.4849 27.6475 84.1146C27.1949 82.7567 23.0582 72.3631 22.6451 71.0051C22.232 69.6348 22.0629 64.6187 21.7016 63.7011C21.4043 62.9512 20.2018 57.1852 19.775 55.1563C19.685 54.716 19.6332 54.4583 19.6332 54.4583C19.6332 54.4583 19.9686 54.2128 20.4349 53.8761C21.3784 53.178 22.8264 52.1309 22.9818 52.1309C23.2532 52.1309 27.713 54.0315 27.713 54.0315C27.713 54.0315 28.2175 58.4655 28.2175 60.4956C28.2175 62.5258 28.1275 64.6978 28.437 66.2875C28.7342 67.8651 30.8544 77.4706 31.2811 79.1899C31.682 80.8969 32.8846 85.1495 33.4395 85.8735C33.9958 86.5975 35.831 88.5881 35.8828 88.9371C35.9469 89.2985 36.1282 90.9673 36.2196 91.1732C36.3082 91.3682 36.8645 91.8209 36.8386 92.2353Z" fill="#FCC7AA"/>
<path d="M28.0839 96.5522C28.0839 96.5522 28.0784 96.5768 28.0675 96.6217C28.0484 96.3981 28.0212 96.2223 28.0212 96.2223C28.0212 96.2223 27.6517 96.3681 27.3572 96.2999V96.2959C27.3572 96.2959 27.758 95.9905 27.6462 95.0988C27.5344 94.2098 27.7989 92.6527 27.7989 92.6527L28.5202 91.082L28.1902 92.8804C28.1902 92.8804 28.2693 93.7285 28.1493 93.8103C28.0252 93.8867 28.0839 96.5522 28.0839 96.5522Z" fill="#FAD3BE"/>
<path d="M31.0453 97.2079C31.0044 97.3987 30.9485 97.5569 30.8735 97.6414C30.5476 98.0273 29.9095 97.5596 29.9095 97.5596L29.7486 97.3688C29.7486 97.3688 29.5523 97.606 29.3341 97.7614L29.7268 93.1598L30.1618 91.165L29.9777 93.3261L29.7922 97.197C29.7922 97.197 30.2558 97.5119 30.6158 97.4901C30.7644 97.4765 30.9157 97.3524 31.0453 97.2079Z" fill="#FAD3BE"/>
<path d="M33.0986 95.7121C33.1695 95.8376 33.3372 96.1416 33.5445 96.368C32.9227 96.4034 32.7141 95.4135 32.7496 95.0072C32.785 94.5968 32.316 91.1119 32.316 91.1119L31.7979 92.7166L31.4025 94.485L31.8293 91.3068L32.4073 90.0879L32.8559 93.0725C32.8532 93.0725 32.92 95.4026 33.0986 95.7121Z" fill="#FAD3BE"/>
<path d="M36.8358 92.2328C36.8331 92.2996 36.8099 92.3678 36.7663 92.4346C36.4636 92.8791 35.2815 92.5723 35.2815 92.5723L34.4226 91.5838C34.4226 91.5838 34.4075 91.922 34.3898 92.3828C34.3871 92.3787 34.3871 92.3787 34.3871 92.3787L34.2371 90.6567L34.173 88.9619L34.7334 91.0521C34.7334 91.0521 35.0783 91.5198 35.5406 91.9438C35.8896 92.2656 36.5413 92.2574 36.8358 92.2328Z" fill="#FAD3BE"/>
<path d="M28.4602 87.8132C28.3047 87.9809 28.0075 88.6272 27.7103 89.3648C27.9816 88.5768 28.2011 87.7874 28.2148 87.3483C28.2529 86.1976 28.0989 85.4872 27.6462 84.1169C27.1936 82.7589 23.0568 72.3654 22.6437 71.0074C22.2306 69.6371 22.0615 64.621 21.7002 63.7034C21.403 62.9535 20.2004 57.1875 19.7736 55.1587L20.484 54.3311C20.484 54.3311 21.7384 60.0971 22.0356 62.2431C22.3192 64.3756 22.4105 65.3327 23.1986 67.2197C23.9744 69.1204 22.5265 68.8095 24.2076 73.373C25.8751 77.9364 27.983 84.4142 29.0301 85.4995C29.6109 85.9126 28.861 87.3606 28.4602 87.8132Z" fill="#FAD3BE"/>
<path d="M28.5992 54.4715C28.5992 54.4715 26.7313 55.3946 24.1571 55.55C21.5829 55.7054 19.7041 55.2146 19.5105 55.1533C19.3169 55.0933 18.0557 48.4055 18.1225 47.6161C18.1893 46.8267 18.327 43.9239 18.9815 42.2141C19.6359 40.503 21.7602 38.7769 21.7602 38.7769C21.7602 38.7769 25.5083 40.4975 26.9944 44.8197C28.4792 49.1404 28.5992 54.4715 28.5992 54.4715Z" fill="#FF882A"/>
<path d="M68.2279 80.417L63.0263 80.5274L59.9518 79.708L51.6416 77.2524L57.1226 74.0879L65.4533 75.6599L68.2279 80.417Z" fill="#D1BF91"/>
<path d="M68.5497 78.9977C68.5497 78.9977 67.7929 77.6615 67.7752 77.0207C67.7575 76.3812 63.4204 74.0879 63.4204 74.0879L62.6078 74.8228L64.7511 78.0351C64.7511 78.0351 67.1521 79.5826 67.2121 79.4653C67.2721 79.3494 68.2279 80.417 68.2279 80.417L68.5497 78.9977Z" fill="#FA9C69"/>
<path d="M68.8564 78.9374L68.6342 79.9477L68.2279 80.4168L68.0179 79.4065C68.0179 79.4065 66.7485 77.1377 66.5876 77.0272C66.439 76.9168 64.8984 75.6965 64.8984 75.6965C64.8984 75.6965 63.1109 75.5983 62.9759 75.7088C62.8286 75.8315 62.3964 76.5228 62.3964 76.5228C62.3964 76.5228 62.6677 78.2121 62.7168 78.2734C62.7291 78.3102 62.9268 78.6675 63.1109 79.037C63.2718 79.3696 63.419 79.7023 63.419 79.8141C63.419 80.0609 63.4436 80.5667 63.025 80.5286C62.6064 80.504 62.3351 80.2941 62.3351 80.2941L61.3493 79.037L60.0431 75.462C60.0431 75.462 58.6374 71.628 58.3538 71.3689C58.0702 71.0976 53.1768 65.033 51.1303 62.6415C49.0837 60.2623 46.5818 54.8384 46.5818 54.8384L45.8292 53.2855C45.9273 52.3366 46.1987 50.4754 46.4577 48.6634C46.6554 48.6511 46.8763 48.6266 47.1108 48.5898C47.9003 48.4916 48.8001 48.3184 49.4164 48.0103C49.7491 47.8494 49.9836 47.6776 50.1308 47.4922C50.7103 48.4166 51.9306 50.3268 52.5959 51.0917C53.5081 52.1143 55.5546 55.542 56.4423 58.0439C57.3421 60.5459 60.4972 67.524 60.7685 68.1403C61.0398 68.7443 62.6909 71.2094 62.9255 71.5543C63.16 71.8993 66.2291 73.8109 66.3518 73.8599C66.4745 73.9213 68.3738 76.8554 68.4106 76.929C68.4501 77.0013 68.8564 78.9374 68.8564 78.9374Z" fill="#FCC7AA"/>
<path d="M63.4204 79.8122C63.4204 80.059 63.4449 80.5648 63.0263 80.5267C62.6077 80.5021 62.3364 80.2921 62.3364 80.2921L61.3507 79.0351L60.0445 75.4601C60.0445 75.4601 58.6387 71.6261 58.3551 71.367C58.0716 71.0957 53.1781 65.0311 51.1316 62.6396C49.0851 60.2604 46.5831 54.8366 46.5831 54.8366L45.8305 53.2836C45.9287 52.3346 46.2 50.4735 46.459 48.6615C46.6567 48.6492 46.8776 48.6247 47.1121 48.5879C47.1858 49.9813 47.3467 52.9645 47.4939 53.544C47.6916 54.3212 48.4551 55.7501 49.0346 56.6377C49.6264 57.5253 51.2407 59.7818 51.5734 60.5208C51.906 61.2598 55.1361 65.9446 55.1361 65.9446C55.1361 65.9446 57.0831 68.4097 57.5644 68.9401C58.0579 69.4582 58.7724 70.9375 59.191 71.5906C59.6218 72.2437 60.868 76.8672 60.868 76.8672L61.9656 78.9382L63.1122 79.0364C63.2731 79.3677 63.4204 79.7004 63.4204 79.8122Z" fill="#FAD3BE"/>
<path d="M100.386 72.0262L96.3599 64.5585L91.941 58.3862L101.898 64.1645L106.413 71.8066L106.818 76.3592L104.974 76.8391L100.386 72.0262Z" fill="#D1BF91"/>
<path d="M77.7557 80.031V66.451L76.3104 63.0083L70.9303 66.451L72.0524 74.374L70.6862 76.8378C70.6862 76.8378 70.2199 80.6282 70.8103 81.4422C71.4007 82.2575 72.8786 84.4145 72.8786 84.4145L73.908 83.7191C73.908 83.7191 75.0165 80.305 77.7557 80.031Z" fill="#D1BF91"/>
<path d="M107.708 74.8629C107.558 75.0442 107.377 74.9869 107.277 75.2433C107.214 75.4042 107.206 75.5692 107.188 75.741C107.168 75.895 107.167 76.1173 107.078 76.2509C107.066 76.2713 106.809 76.4649 106.818 76.3599C106.77 76.6667 106.454 76.9748 106.15 76.7758C105.855 76.5849 105.863 76.1541 105.882 75.8487C105.888 75.7396 105.979 75.3728 105.835 75.3742C105.761 75.3742 105.622 75.55 105.51 75.7068C105.442 75.7996 105.385 75.8868 105.355 75.9196L104.648 75.4178C104.648 75.4178 104.779 73.3508 104.73 72.8845C104.681 72.4182 104.425 71.8197 104.035 70.9239C103.648 70.0322 102.465 69.6559 102.465 69.6559L101.703 70.5939L101.561 72.2601L100.707 73.1722L100.488 73.404C100.488 73.404 99.7931 72.2846 99.7154 71.6138C99.6377 70.9471 100.258 67.8193 100.269 67.6898C100.28 67.5561 101.386 62.8823 101.101 60.5603C100.814 58.2397 98.8987 49.1101 98.9355 48.1447C98.9764 47.1726 96.8944 40.0213 96.5017 39.4118C96.2058 38.9455 96.4472 37.3939 96.574 36.6972C96.6135 36.4845 96.6421 36.3537 96.6421 36.3537L98.9382 35.6883C98.9382 35.6883 101.968 34.8865 102.553 36.3073C102.555 36.3182 102.562 36.325 102.564 36.3359C103.172 37.8221 105.655 45.0266 105.882 47.4549C106.118 49.9022 105.615 59.9277 105.473 61.5979C105.331 63.2599 105.719 65.6814 105.874 66.1791C106.032 66.6768 107.419 69.844 107.483 70.3799C107.554 70.9907 107.626 71.6002 107.698 72.2069C107.775 72.8 107.821 73.3685 107.809 73.9685C107.805 74.218 107.881 74.6516 107.708 74.8629Z" fill="#FCC7AA"/>
<path d="M100.386 72.0256L100.705 73.1723L100.487 73.404C100.487 73.404 99.7918 72.2847 99.714 71.6138C99.6363 70.9471 100.257 67.8193 100.268 67.6898C100.279 67.5562 101.384 62.8823 101.099 60.5604C100.813 58.2398 98.8973 49.1101 98.9341 48.1448C98.975 47.1726 96.8931 40.0213 96.5004 39.4119C96.2045 38.9456 96.4458 37.394 96.5726 36.6973C97.5557 36.94 98.2811 37.1786 98.2811 37.1786C98.2811 37.1786 97.9306 39.7555 98.3178 40.8912C98.7078 42.027 99.6745 46.2182 99.6745 46.2182L102.281 45.6878C102.281 45.6878 100.388 46.6777 100.291 47.2845C100.193 47.898 100.923 51.7552 100.795 53.2482C100.668 54.7357 101.784 61.3661 101.868 61.9033C101.953 62.4405 101.898 64.1598 101.898 64.1598C101.898 64.1598 100.397 69.8181 100.367 70.1699C100.337 70.5244 100.386 72.0256 100.386 72.0256Z" fill="#FAD3BE"/>
<path d="M102.585 69.7012L101.642 71.2923L100.503 72.998L99.5463 74.6055C99.5463 74.6055 99.2695 74.9791 100.532 75.1972C101.795 75.4154 103.733 75.7358 103.939 75.6431C104.145 75.5504 104.699 74.4296 104.699 74.4296L104.727 72.8849L104.498 72.0436L104.033 70.9269C104.033 70.9269 103.923 70.1552 102.585 69.7012Z" fill="#323338"/>
<path d="M78.3119 77.1211C78.3119 77.1211 78.2915 78.854 77.9656 79.6816C77.9656 79.6816 77.9656 79.6816 77.9616 79.6816C77.9056 79.8357 77.8361 79.957 77.7557 80.032C77.2267 80.516 76.8258 79.5112 76.6336 78.6999C76.4345 77.8873 76.6445 75.4331 76.6445 75.4331L75.975 76.5702L75.7623 79.068C75.7623 79.068 75.5346 81.7404 75.4323 82.9266C75.3314 84.1128 74.1453 84.0106 73.9094 83.7215C73.8576 83.6643 73.8249 83.4775 73.803 83.2252C73.7144 82.2708 73.8003 80.3142 73.8003 80.3142C73.8003 80.3142 73.229 80.2652 73.0981 80.2543C72.9686 80.2434 72.0033 79.6312 71.627 79.2876C71.2466 78.9481 70.4599 77.0256 70.2185 76.2103C69.9813 75.3949 69.984 74.8236 70.4122 73.4466C70.8403 72.0695 71.4975 70.5792 71.5356 70.1402C71.5725 69.7012 69.3514 57.9414 69.0828 55.9303C68.8128 53.922 69.1591 51.5168 69.3159 50.3893C69.4727 49.2576 68.2224 42.2127 67.9061 39.7121C67.5898 37.2115 68.262 35.5454 68.262 35.5454C68.262 35.5454 68.4242 35.5481 68.7024 35.5618C69.984 35.6108 73.6872 35.8113 74.5489 36.3935C75.5946 37.1011 75.3683 38.6718 75.7228 41.2637C76.0773 43.8556 75.8359 48.205 75.6928 49.3449C75.5537 50.4779 75.5537 53.0426 75.5578 58.2073C75.5551 63.372 75.8591 68.0828 76.4413 69.5457C77.0235 71.0087 78.5465 74.7528 78.5465 74.7528L78.3119 77.1211Z" fill="#FCC7AA"/>
<path d="M107.708 74.8633C107.558 75.0446 107.377 74.9874 107.277 75.2437C107.214 75.4046 107.206 75.5696 107.188 75.7414C107.168 75.8955 107.167 76.1177 107.078 76.2513C107.066 76.2718 106.809 76.4653 106.818 76.3604C106.77 76.6671 106.454 76.9753 106.15 76.7762C105.855 76.5853 105.863 76.1545 105.882 75.8491C105.888 75.74 105.979 75.3732 105.835 75.3746C105.761 75.3746 105.622 75.5505 105.51 75.7073L105.938 73.2244L105.648 69.9276L106.17 73.0744L105.95 76.1899C105.95 76.1899 106.17 76.4735 106.394 76.4258C106.62 76.3822 106.533 73.2585 106.533 73.2585L106.284 70.2126L106.706 72.7677L106.737 75.5082L106.987 75.1973L107.146 74.6138L106.756 70.1226L107.233 72.3041L107.439 74.2402C107.441 73.9825 107.442 71.9305 107.446 71.6374C107.447 71.3306 106.725 69.7422 106.674 69.2541C106.631 68.7659 104.896 65.7923 104.935 65.3505C104.971 64.9156 105.007 55.6878 105.385 52.8477C105.761 50.0117 105.046 46.4599 104.655 44.7938C104.268 43.129 102.13 36.6717 102.13 36.6717L102.568 36.3418C103.176 37.828 105.659 45.0324 105.886 47.4607C106.122 49.9081 105.619 59.9335 105.477 61.6038C105.336 63.2658 105.723 65.6873 105.878 66.185C106.036 66.6826 107.423 69.8499 107.487 70.3857C107.558 70.9966 107.63 71.606 107.702 72.2128C107.779 72.8059 107.825 73.3744 107.813 73.9743C107.805 74.2184 107.881 74.652 107.708 74.8633Z" fill="#FAD3BE"/>
<path d="M73.7239 77.0654L73.8003 80.3118C73.8003 80.3118 73.229 80.2627 73.0981 80.2518C72.9686 80.2409 72.0033 79.6287 71.627 79.2851C71.2466 78.9456 70.4599 77.0231 70.2185 76.2078C69.9813 75.3925 69.984 74.8212 70.4122 73.4441C70.8403 72.067 71.4975 70.5768 71.5356 70.1377C71.5725 69.6987 69.3514 57.939 69.0828 55.9279C68.8128 53.9195 69.1591 51.5144 69.3159 50.3868C69.4727 49.2552 68.2224 42.2102 67.9061 39.7097C67.5898 37.2091 68.262 35.543 68.262 35.543C68.262 35.543 68.4242 35.5457 68.7024 35.5593C68.6369 36.5819 68.5142 37.5104 68.502 37.9058C68.4474 39.5788 69.4577 46.9087 69.575 47.3136C69.695 47.7226 69.5395 50.5818 69.5 53.6032C69.4645 56.6273 71.5438 68.1348 71.5438 68.1498C71.5424 68.1675 72.3932 70.3286 72.3932 70.3286C72.3932 70.3286 72.1028 70.5413 71.7851 71.1603C71.4674 71.7834 70.4912 75.6433 70.4912 75.6433L71.2384 77.5617L71.4783 76.3169L71.7565 77.7812L72.2882 78.7097L72.5923 76.6755L72.8595 79.2592L73.4976 79.7269L73.7239 77.0654Z" fill="#FAD3BE"/>
<path d="M103.484 36.7875C103.484 36.7875 101.653 38.5736 99.9867 38.9622C98.3192 39.3494 96.5031 39.4149 96.5031 39.4149C96.5031 39.4149 95.8282 36.973 95.7232 36.6539C95.6182 36.3362 98.1965 22.5122 98.1965 22.5122C98.1965 22.5122 99.3404 23.1394 100.516 25.9781C101.692 28.8168 102.888 34.97 103.484 36.7875Z" fill="#4D98C7"/>
<path d="M70.2813 23.9562C70.2813 23.9562 68.0138 26.03 67.5816 30.0549C67.1494 34.0811 67.4303 38.0351 67.4303 38.0351C67.4303 38.0351 70.5103 38.1661 72.3851 38.4578C74.2584 38.751 75.6192 38.3365 75.6192 38.3365C75.6192 38.3365 75.1092 32.4191 74.7138 30.8402C74.3184 29.2614 73.1718 25.7096 72.1096 24.1116C71.2466 22.8163 70.2813 23.9562 70.2813 23.9562Z" fill="#4D98C7"/>
<path d="M77.9629 79.6817C77.907 79.8358 77.8375 79.9571 77.757 80.0321C77.228 80.5161 76.8272 79.5113 76.6349 78.7C76.4359 77.8874 76.6458 75.4332 76.6458 75.4332L75.9764 76.5703L75.7637 79.0682C75.7637 79.0682 75.536 81.7405 75.4337 82.9267C75.3328 84.1129 74.1466 84.0107 73.9107 83.7216C73.8589 83.6644 73.8262 83.4776 73.8044 83.2253C73.9475 83.3685 74.1003 83.4803 74.2366 83.5021C74.6456 83.558 75.176 82.8436 75.176 82.8436L75.585 78.0524L76.0173 75.7618L76.7467 74.0889C76.7467 74.0889 77.0439 74.4079 77.0317 75.2614C77.0153 76.1108 77.0358 77.9393 77.0358 77.9393C77.0358 77.9393 76.9117 78.7232 77.153 79.334C77.3807 79.9108 77.9111 79.7049 77.9629 79.6817Z" fill="#FAD3BE"/>
<path d="M94.327 34.1792L89.4391 34.7027V36.0553L94.327 35.4649V34.1792Z" fill="#4D98C7"/>
<path d="M92.4155 34.3842V31.3423H93.3672V34.2819L92.4155 34.3842Z" fill="#0053D0"/>
<path d="M91.8837 33.3179H90.8366L90.9389 34.5423L91.8837 34.4414V33.3179Z" fill="#FFE342"/>
</svg>
