<svg width="25" height="67" viewBox="0 0 25 67" fill="none" xmlns="http://www.w3.org/2000/svg">
<path d="M1.90196 66.0869C5.33972 67.8821 12.2632 66.9485 17.3669 64.0012C22.4705 61.0546 23.8212 57.2097 20.3835 55.4145C16.9464 53.6193 10.0222 54.5529 4.91857 57.4995C-0.185087 60.4475 -1.5358 64.2918 1.90196 66.0869Z" fill="#CCC0BC"/>
<path d="M20.3001 21.5569C20.3021 21.6102 20.2562 21.6921 20.1729 21.7908C19.7104 22.3592 18.1118 23.5086 17.8173 23.1555C17.7586 23.0848 17.6933 23.0015 17.626 22.9089C17.5148 22.7577 17.3941 22.5864 17.2789 22.4185C17.0616 22.106 16.8617 21.8054 16.7458 21.6768C16.5312 21.4369 15.8848 20.1289 15.6769 19.9916C15.585 19.9323 15.7029 19.4718 15.8795 18.9581C16.1067 18.301 16.4299 17.5574 16.5379 17.4521C16.7318 17.2629 18.1431 17.5974 18.1431 17.5974C18.1431 17.5974 18.9481 19.096 19.22 19.5038C19.3333 19.6731 19.5358 19.9929 19.7357 20.3361C19.7357 20.3361 19.7404 20.3454 19.7477 20.3601C19.9343 20.6786 20.1142 21.0144 20.2148 21.2617C20.2148 21.265 20.2162 21.267 20.2175 21.271C20.2675 21.3916 20.2975 21.4896 20.3001 21.5569Z" fill="#FCC7AA"/>
<path d="M20.0816 23.9746C19.7911 24.8855 19.3839 25.4666 19.0467 26.0324C18.7082 26.5981 17.0763 27.3331 16.9337 27.3078C16.7931 27.2844 16.961 25.9111 17.067 25.5992C17.1723 25.2893 17.1569 22.8825 17.2183 22.5813C17.2276 22.5346 17.2489 22.48 17.2789 22.4193C17.4475 22.0782 17.9013 21.5491 18.1945 21.3125C18.2384 21.2779 18.2871 21.2452 18.3431 21.2112C18.3451 21.2112 18.3451 21.2112 18.3451 21.2099C18.3471 21.2079 18.3471 21.2079 18.3471 21.2079C18.7289 20.9833 19.3319 20.8187 19.3319 20.8187C19.6098 20.7295 19.8897 20.8554 20.0803 21.072C20.1336 21.1299 20.1789 21.1939 20.2169 21.2625C20.2169 21.2659 20.2182 21.2679 20.2195 21.2719C20.2602 21.3458 20.2888 21.4245 20.3062 21.5038C20.4001 21.9296 20.3741 23.0637 20.0816 23.9746Z" fill="#FCC7AA"/>
<path d="M20.0816 23.9745C19.791 24.8854 19.3839 25.4665 19.0467 26.0322C18.7082 26.598 17.0763 27.333 16.9337 27.3077C16.7931 27.2843 16.961 25.911 17.067 25.5991C17.1722 25.2892 17.1569 22.8823 17.2182 22.5812C17.2276 22.5345 17.2489 22.4799 17.2789 22.4192C17.0616 22.1067 16.8617 21.8062 16.7458 21.6776C16.5312 21.4377 15.8848 20.1296 15.6769 19.9923C15.585 19.933 15.7029 19.4726 15.8795 18.9588C16.0548 18.9148 16.1594 18.8889 16.1594 18.8889C16.1594 18.8889 16.316 19.7538 16.7164 20.5348C17.1156 21.3137 17.4161 21.7382 17.4161 21.7382L18.3424 21.2111C18.2931 21.2664 17.6294 21.9901 17.6307 22.2866C17.632 22.3699 17.63 22.6058 17.6254 22.909C17.6174 23.7233 17.5947 25.024 17.5721 25.1346C17.5427 25.2852 17.5314 26.3061 17.5314 26.3061C17.5314 26.3061 18.5509 26.2515 18.8948 25.7091C19.2366 25.1666 19.8757 23.9585 19.8757 23.9585L20.1729 22.9563C20.1729 22.9563 20.1675 22.2533 20.1722 21.7895C20.1729 21.6076 20.1755 21.463 20.1795 21.4124C20.1849 21.3544 20.1402 21.2218 20.0782 21.0698C19.9656 20.7933 19.7937 20.4515 19.7471 20.3588C19.9336 20.6774 20.1136 21.0132 20.2142 21.2604C20.2142 21.2638 20.2155 21.2658 20.2168 21.2698C20.2575 21.3437 20.2862 21.4224 20.3035 21.5016C20.4001 21.9295 20.3741 23.0636 20.0816 23.9745Z" fill="#FAD3BE"/>
<path d="M18.403 17.65C18.403 17.65 18.2151 18.1038 17.6367 18.6396C17.059 19.1753 15.6683 19.9176 15.6683 19.9176C15.6683 19.9176 13.4746 13.44 13.4919 13.25C13.5092 13.0601 14.8513 11.7994 14.8513 11.7994C14.8513 11.7994 15.8142 12.7836 16.146 13.2547C16.4785 13.7258 17.7486 16.4293 17.7486 16.4293L18.403 17.65Z" fill="#FF882A"/>
<path d="M14.7874 56.1243C14.7874 56.1243 18.4844 58.1754 18.5963 58.4986C18.8216 59.1496 18.8802 59.5334 18.565 60.0085C18.2505 60.4837 17.189 60.2838 16.8152 60.2664C16.4413 60.2491 13.5353 58.3786 13.5353 58.3786C13.5353 58.3786 11.9621 58.2147 11.5489 57.7296C11.1358 57.2445 12.5524 55.7358 12.5524 55.7358L14.7874 56.1243Z" fill="#2F2720"/>
<path d="M15.9962 52.8239C15.8196 53.6675 15.8069 56.8661 15.8069 56.8661C15.8069 56.8661 14.9813 57.4511 13.9851 57.4958C13.2341 57.5264 12.5018 57.3725 12.0733 57.2666C11.9334 57.2312 11.8254 57.1999 11.7615 57.1839C11.5029 57.1166 10.8119 55.9738 10.8119 55.9738L10.9845 51.6425C10.9845 51.6425 10.9185 46.9826 10.6233 45.8744C10.3248 44.7656 10.3254 41.106 10.3148 40.9707C10.3115 40.9261 10.0989 40.1924 9.92963 39.1995C9.59911 37.2724 9.42253 34.3677 11.225 33.5987C13.9564 32.4339 17.1243 32.7625 17.1243 32.7625C17.1243 32.7625 17.5268 35.3806 17.4009 37.5096C17.2756 39.6373 17.5501 43.8973 17.111 46.5721C16.6725 49.2442 16.1714 51.979 15.9962 52.8239Z" fill="#355FA3"/>
<path d="M12.3678 55.8705C12.3385 55.9612 12.2059 56.6075 12.074 57.2666C11.934 57.2312 11.8261 57.1999 11.7621 57.1839C11.5036 57.1166 10.8126 55.9738 10.8126 55.9738L10.9851 51.6425C10.9851 51.6425 10.9192 46.9826 10.624 45.8744C10.3255 44.7656 10.3261 41.106 10.3154 40.9707C10.3121 40.9261 10.0996 40.1924 9.9303 39.1995C11.5076 37.4643 12.9589 36.4448 12.9589 36.4448L13.4947 37.1991L12.6197 40.6282C12.6197 40.6282 12.3578 42.546 12.4198 42.8372C12.4818 43.1304 12.5864 45.8751 12.5598 45.9384C12.5311 46.0031 12.4718 48.8651 12.4691 49.1296C12.4678 49.3942 12.2945 52.7759 12.3085 52.9325C12.3245 53.0871 12.4271 55.6779 12.3678 55.8705Z" fill="#6C91C4"/>
<path d="M7.4234 59.8659C7.4234 59.8659 8.30367 61.3779 8.56022 61.7964C8.81676 62.2155 9.72967 63.267 9.64505 63.5616C9.56042 63.8554 9.34052 64.5604 7.97048 64.5245C6.60044 64.4885 5.59024 63.6629 5.32969 63.2004C5.06915 62.7379 4.65667 61.5385 4.62935 61.4745C4.60203 61.4106 4.02829 60.6442 4.02829 60.6442C4.02829 60.6442 3.55051 58.943 4.20088 58.5565C4.85125 58.1694 7.4234 59.8659 7.4234 59.8659Z" fill="#2F2720"/>
<path d="M13.426 38.5391C13.3767 39.0868 12.2519 41.2792 11.5749 41.681C10.8999 42.0821 10.0856 46.4435 10.0676 46.6414C10.0496 46.8373 9.8177 51.867 9.76372 52.4587C9.70975 53.0504 8.81948 58.4899 8.81948 58.4899L8.27773 60.1105C8.27773 60.1105 7.97721 60.7009 6.78376 60.7482C5.58964 60.7956 4.40017 60.2891 4.40017 60.2891L4.10565 59.9166L3.72782 59.4342C3.72782 59.4342 3.71316 56.92 3.80246 55.9345C3.89175 54.9489 4.17695 48.3572 4.29756 47.0232C4.41817 45.6891 4.54878 44.2438 4.42817 43.8793C4.30756 43.5155 4.01036 39.7172 3.90841 38.4071C3.80645 37.0958 3.82644 34.6709 3.99836 34.487C4.03701 34.4463 4.4868 34.3337 5.17182 34.1944C7.54007 33.7046 12.707 32.869 13.2021 33.4454C13.8412 34.1871 13.476 37.9907 13.426 38.5391Z" fill="#355FA3"/>
<path d="M4.10626 59.9161L3.72843 59.4336C3.72843 59.4336 3.71377 56.9194 3.80307 55.9339C3.89236 54.9483 4.17756 48.3567 4.29817 47.0226C4.41878 45.6886 4.54939 44.2432 4.42878 43.8787C4.30817 43.5149 4.01097 39.7166 3.90902 38.4066C3.80706 37.0952 3.82706 34.6703 3.99898 34.4864C4.03763 34.4457 4.48743 34.3331 5.17244 34.1938C4.95188 35.342 4.63736 37.0306 4.60071 37.587C4.54473 38.4412 4.92389 41.5871 4.89657 41.8917C4.86858 42.1995 5.37768 44.847 5.25308 45.5646C5.12847 46.2823 4.60003 50.7769 4.60003 50.7769C4.60003 50.7769 4.30283 55.2962 4.3728 56.4703C4.41545 57.2 4.24353 58.8046 4.10626 59.9161Z" fill="#6C91C4"/>
<path d="M17.3142 32.6493C17.3142 32.6493 16.6559 34.2866 14.6181 34.8777C12.5811 35.4621 9.61377 36.0531 8.35834 35.8072C7.55804 35.6533 5.89015 35.4254 4.75134 35.1429C4.09897 34.9829 3.61253 34.7984 3.56988 34.6071C3.52057 34.3852 3.62518 33.8255 3.77312 33.1544C3.77911 33.1298 3.79177 33.1051 3.79177 33.0805C3.82842 32.9146 3.87174 32.742 3.91505 32.5694C3.96436 32.3295 4.01967 32.0889 4.07498 31.849C4.09963 31.7384 4.12428 31.6278 4.14894 31.5165C4.19825 31.2826 4.24157 31.0614 4.27223 30.8582C4.30888 30.6489 4.32753 30.4583 4.33353 30.3044C4.35219 29.7933 4.33953 28.1074 4.32087 26.4575C4.32087 26.1623 4.31487 25.8665 4.31487 25.5833V25.4047C4.30288 23.946 4.29021 22.7332 4.29021 22.7332C4.29021 22.7332 2.16652 16.5227 2.01259 15.6365C2.00659 15.5998 2.00659 15.5685 2.00659 15.5505C2.04324 15.138 3.99435 13.0517 5.23778 11.9622C5.37305 11.8455 5.53297 11.7343 5.71156 11.6483C5.71156 11.6423 5.71756 11.6423 5.71756 11.6423C7.17622 10.8607 9.85366 10.836 10.4754 10.8973C10.5613 10.9033 10.6846 10.922 10.8385 10.9526C11.5342 11.0699 12.8263 11.3591 13.7619 11.5617C14.3469 11.691 14.7894 11.7956 14.8514 11.8016C15.024 11.8136 16.0701 19.0336 15.9349 20.3017C15.9042 20.5909 15.9042 21.108 15.9229 21.7417C15.9415 22.4433 15.9842 23.2863 16.0335 24.1239C16.0768 24.7823 16.1195 25.4346 16.1568 26.0077C16.2001 26.6907 16.2427 27.2572 16.2674 27.571C16.2734 27.6883 16.28 27.7682 16.28 27.8109C16.286 27.9342 16.3107 28.2107 16.354 28.5492C16.4713 29.4848 16.6739 30.9068 16.6739 30.9068C16.6739 30.9068 16.8525 31.27 17.0184 31.6765C17.1723 32.0456 17.3142 32.4521 17.3142 32.6493Z" fill="#F9551A"/>
<path d="M16.502 27.2204C16.4467 27.3251 16.8358 29.3714 16.7372 29.5007C16.0848 30.307 14.4056 30.9161 14.1537 30.1777C14.1044 30.0298 13.7379 28.0827 13.6273 27.3744C13.578 27.0852 13.5227 26.7526 13.4674 26.3955C12.901 22.7212 11.978 16.0242 11.8794 15.6611C11.7561 15.1873 12.064 14.5962 12.2859 13.648C12.4765 12.8543 11.2211 11.377 10.8392 10.9519C10.7713 10.8779 10.7346 10.8346 10.7346 10.8346C10.7346 10.8346 11.1038 10.8653 11.393 10.8593C11.399 10.8593 11.399 10.8593 11.405 10.8533C11.4976 10.8533 11.5836 10.8473 11.6389 10.8346C11.6515 10.8286 11.6695 10.8286 11.6882 10.8226C11.6942 10.8226 11.6942 10.8226 11.7002 10.8226C11.8354 10.792 12.0387 10.798 12.3279 10.8659C12.7277 10.9706 13.1708 10.8966 13.6146 11.395C13.6639 11.4443 13.7066 11.4996 13.7626 11.561C14.187 12.09 14.5629 12.8224 14.7348 13.7213C15.0919 15.5678 15.8363 19.8212 15.9042 21.7903C15.9102 21.8516 15.9102 21.9075 15.9102 21.9628C15.9102 22.0062 15.9102 22.0555 15.9162 22.1048C15.9349 22.5479 16.0149 23.0217 16.1195 23.5022V23.5081C16.1255 23.5268 16.1255 23.5388 16.1255 23.5574C16.1255 23.7234 16.0022 23.9759 16.0328 24.1239C16.1315 24.5303 16.2361 24.9242 16.3281 25.2933C16.3587 25.4106 16.3834 25.5212 16.414 25.6318C16.5819 26.3402 16.6619 26.9186 16.502 27.2204Z" fill="#C4FF36"/>
<path d="M16.3294 25.2939C16.1635 25.5645 16.0029 25.811 15.8676 25.9836C15.6211 26.2975 15.3692 26.476 15.1046 26.5313C14.994 26.55 14.8767 26.556 14.7661 26.5253C14.3417 26.4207 14.1138 26.0202 14.0458 25.6697C14.0398 25.6637 14.0398 25.6577 14.0398 25.6511L12.7104 16.0988C12.6304 15.5324 12.6424 14.948 12.7597 14.3816C12.9383 13.4647 13.3195 12.2646 11.7875 11.0644L11.3937 10.8612C11.3997 10.8612 11.3997 10.8612 11.4057 10.8552C11.461 10.8432 11.5656 10.8305 11.6889 10.8245C11.6949 10.8245 11.6949 10.8245 11.7009 10.8245C11.8914 10.8119 12.132 10.8185 12.3286 10.8679C12.7284 10.9725 13.2208 11.299 13.664 11.8034C14.2304 13.0835 14.0391 13.9698 13.9165 14.6161C13.8239 15.0533 13.8119 15.4904 13.8732 15.9335L14.9994 24.0085L15.1346 24.9807C15.3812 24.6116 15.855 23.9652 16.1195 23.5101C16.1255 23.5287 16.1255 23.5407 16.1255 23.5594C16.2368 24.1185 16.2061 24.7955 16.3294 25.2939Z" fill="#99C2D6"/>
<path d="M16.4153 25.6325L16.1568 26.0084L14.9193 27.8055L13.6266 27.3744L12.8816 27.1278C12.8816 27.1278 13.1461 26.7953 13.4667 26.3955C13.6572 26.1556 13.8665 25.8971 14.045 25.6692C14.2849 25.3673 14.4822 25.1154 14.5375 25.0348C14.5928 24.9429 14.7774 24.5237 14.9993 24.0073C15.2452 23.4102 15.541 22.6966 15.7256 22.2348C15.8056 22.0255 15.8735 21.8656 15.9042 21.7916C15.9102 21.8529 15.9102 21.9089 15.9102 21.9642C15.9102 22.0075 15.9102 22.0568 15.9162 22.1062C15.9349 22.5493 16.0148 23.0231 16.1194 23.5035V23.5095C16.1254 23.5282 16.1254 23.5402 16.1254 23.5588C16.2361 24.1192 16.2054 24.7962 16.3287 25.2947C16.36 25.4106 16.3846 25.5219 16.4153 25.6325Z" fill="#F09F69"/>
<path d="M11.3929 31.5937C11.0237 31.8089 10.1314 31.9062 9.46041 31.8756C8.09904 31.8136 6.78897 31.7137 5.58286 31.3625C5.06576 31.2026 4.61064 31.024 4.27213 30.858C3.87231 30.6735 3.63175 30.5075 3.62576 30.4396C3.61976 30.347 3.71171 29.8732 3.82899 29.2888C3.93961 28.7717 3.81034 28.0274 3.92162 27.5163C4.05689 26.9072 4.16151 26.4327 4.16151 26.4327C4.16151 26.4327 4.21681 26.4448 4.32143 26.4574C4.93715 26.556 7.22677 26.8392 8.21765 25.879C8.56215 25.5405 8.74674 25.048 8.65478 24.3524C8.23631 21.3178 7.13481 17.7974 5.17704 16.0615C3.22593 14.3316 2.24106 15.1939 2.24106 15.1939L2.01315 15.637L1.81592 16.0309C1.82791 15.9262 1.80392 15.2366 2.00649 14.892C2.10512 14.7321 2.73283 14.1224 3.41585 13.4887C3.74837 13.1748 4.10553 12.855 4.40073 12.5838C4.86252 12.1593 5.20703 11.8514 5.20703 11.8514C5.71147 11.3963 5.76743 11.5742 5.76743 11.5742C5.76743 11.5742 5.74878 11.5989 5.71813 11.6422C5.71813 11.6422 5.71213 11.6422 5.71213 11.6482C5.54621 11.8701 5.12107 12.5898 5.71213 13.2735C6.41981 14.0858 8.18633 14.7688 9.3438 15.2186C10.5006 15.6677 10.4639 16.1728 10.7778 16.4067C11.0917 16.6406 11.732 22.1121 11.9906 24.7222C12.0705 25.5225 12.1319 26.2115 12.1632 26.8086C12.3164 29.3994 12.3904 31.0146 11.3929 31.5937Z" fill="#C4FF36"/>
<path d="M10.2761 16.6533C10.1242 16.2382 9.70501 16.0449 8.78344 15.6258C7.88318 15.2093 6.65041 14.6462 5.55625 13.8159C4.74262 13.1922 4.65666 12.863 4.65 12.829C4.654 12.885 4.60869 12.9077 4.58337 12.9197L4.40412 12.5805C4.10426 12.851 3.75108 13.1742 3.41724 13.4867C3.62714 13.9465 4.05894 14.4197 4.72131 14.9181C5.93208 15.8383 7.30411 16.4654 8.20437 16.8819C8.49024 17.0091 8.82542 17.1697 9.00733 17.2677C9.30453 18.7837 10.488 27.4164 10.1448 28.4366C10.0162 28.6098 9.19192 28.9763 7.84521 29.0216C6.59645 29.0616 5.00451 28.7877 4.27284 27.9008C4.16089 27.7602 4.04428 27.6349 3.92234 27.5176C3.81039 28.0267 3.94099 28.7717 3.83038 29.2875C5.09713 30.4223 6.91896 30.5296 8.55155 30.3583C8.72414 30.3384 8.95803 30.307 9.22324 30.2551C9.99822 30.1031 11.0138 29.7773 11.3709 29.0789C12.1432 27.587 10.3067 16.7386 10.2761 16.6533Z" fill="#99C2D6"/>
<path d="M10.6153 13.5126C10.5166 13.6432 10.3287 13.7358 10.0135 13.7812C9.68635 13.8291 9.22189 13.8278 8.58485 13.7705C7.57665 13.6792 6.15396 12.8216 5.65085 12.4518C5.53158 12.3631 5.46295 12.3025 5.46495 12.2852C5.47294 12.1979 5.7948 11.0797 5.79413 10.7159C5.79346 10.3521 5.58889 9.93691 5.42963 9.3805C5.36566 9.15394 5.1924 8.72747 5.01181 8.305C5.01048 8.303 5.00849 8.301 5.00849 8.301C4.9192 8.0951 4.82857 7.88919 4.74595 7.70727C4.74595 7.70527 4.74461 7.70394 4.74261 7.70194C4.58735 7.34877 4.46606 7.08756 4.46606 7.08756C4.46606 7.08756 5.69284 6.22395 6.31989 6.06402C6.39919 6.0427 6.46915 6.03337 6.52513 6.0387C6.64907 6.05003 6.96493 6.21062 7.36674 6.44651C7.36874 6.44851 7.37007 6.45052 7.37207 6.44852C8.57752 7.15419 10.5593 8.5209 10.5593 8.5209C10.5593 8.5209 10.3954 9.70969 10.3814 10.1162C10.366 10.5226 10.6939 11.4029 10.7825 11.6528C10.8718 11.902 10.8158 13.2434 10.6153 13.5126Z" fill="#FCC7AA"/>
<path d="M17.019 31.6763L15.2524 31.0112C15.2524 31.0112 11.8733 30.8513 10.9991 30.7714C10.9931 30.7714 10.9931 30.7714 10.9871 30.7714C10.1375 30.6974 6.73368 30.7407 6.17993 30.9559C5.93404 31.0545 5.7368 31.2085 5.58287 31.3624C5.38563 31.547 5.27501 31.7256 5.27501 31.7256C5.27501 31.7256 4.77057 33.4121 4.75192 35.1413C4.09955 34.9814 3.61311 34.7968 3.57046 34.6056C3.46584 34.1745 3.65643 33.596 3.77371 33.1529C3.7797 33.1283 3.79237 33.1036 3.79237 33.079C3.80436 33.0483 3.81101 33.0176 3.81701 32.993C3.84766 32.8517 3.87832 32.7098 3.91564 32.5685C3.96495 32.3286 4.02025 32.0881 4.07556 31.8482C4.10022 31.7562 4.15553 31.6269 4.14953 31.5157C4.19884 31.2818 4.24215 31.0606 4.27281 30.8573C3.87299 30.6727 3.63243 30.5068 3.62644 30.4388C3.62044 30.3462 3.7124 29.8724 3.82968 29.288C3.9403 28.7709 3.81102 28.0266 3.9223 27.5155C4.05757 26.9065 4.16219 26.432 4.16219 26.432C4.16219 26.432 4.2175 26.444 4.32212 26.4567C4.32212 26.1615 4.31612 25.8656 4.31612 25.5824V25.4038C4.36543 25.3732 4.41474 25.3358 4.46405 25.2992C4.62398 25.1759 4.70994 24.9607 4.81456 24.7947C5.13441 24.2963 5.45493 23.7979 5.78078 23.3054C6.00268 22.9669 6.22991 22.6284 6.45181 22.2899C6.48246 22.2466 6.6977 22.0007 6.6977 21.9327C6.74101 22.0867 7.43002 24.7761 7.45468 24.8627C7.47933 24.9554 7.73188 25.7617 7.73188 25.7617L8.21833 25.8789L12.1639 26.8085L13.8624 27.2083L16.3553 28.5504C16.4725 29.4859 16.6751 30.908 16.6751 30.908C16.6751 30.908 16.8524 31.2705 17.019 31.6763Z" fill="#F09F69"/>
<path d="M14.6547 28.7723L13.3846 28.8549L13.422 29.2467L19.7004 29.7265L24.4549 27.211L24.4489 26.7985L20.8825 28.1246L14.6547 28.7723Z" fill="#AC7234"/>
<path d="M19.258 26.7419L24.4489 26.7985L19.6018 29.288L13.3846 28.8549L19.258 26.7419Z" fill="#B68E59"/>
<path d="M23.3861 26.7419L19.164 28.9582L14.3169 28.689L18.6829 26.7419H23.3861Z" fill="white"/>
<path d="M23.1089 28.1173L22.9983 27.4662L21.1238 27.5802L20.5814 27.8321L20.5581 27.9374L21.9241 28.034L21.9415 28.5411L21.7169 28.6597H22.0914L23.1089 28.1173Z" fill="#B6BAA1"/>
<path d="M22.0447 27.9114L22.0914 28.6597L23.1089 28.1173L22.9983 27.4662L21.1238 27.5802L20.5814 27.8321L22.0447 27.9114Z" fill="#D0D3C3"/>
<path d="M5.79875 9.53177C5.9147 9.71168 6.13594 11.1737 6.13594 11.1737C6.13594 11.1737 5.84074 11.8987 5.65149 12.4518C5.53221 12.3631 5.46357 12.3025 5.46557 12.2852C5.47357 12.1979 5.79542 11.0797 5.79476 10.7159C5.79409 10.3521 5.58952 9.93691 5.43026 9.3805C5.36629 9.15394 5.19304 8.72747 5.01245 8.30499C5.08575 8.42227 5.6908 9.36318 5.79875 9.53177Z" fill="#FAD3BE"/>
<path d="M10.6153 13.5126C10.5167 13.6432 10.3288 13.7358 10.0136 13.7811C10.0229 13.6992 10.0316 13.6239 10.0376 13.5559C10.0849 13.0308 9.69107 11.862 9.64309 11.5788C9.59512 11.2936 9.58512 10.6026 9.58512 10.6026C9.58512 10.6026 8.32036 10.2674 7.61135 10.1435C6.90101 10.0209 6.50186 9.1446 6.50186 9.1446L5.80419 7.03957C5.80419 7.03957 4.98123 7.02357 4.71668 7.11953C4.59074 7.16618 4.64938 7.43273 4.74333 7.7006C4.58807 7.34743 4.4668 7.08622 4.4668 7.08622C4.4668 7.08622 5.69357 6.22261 6.32061 6.06268C6.64313 6.18729 6.99764 6.3199 7.36814 6.44518C7.37013 6.44718 7.37146 6.44918 7.37346 6.44718C8.57891 7.15286 10.5607 8.51956 10.5607 8.51956C10.5607 8.51956 10.3967 9.70835 10.3828 10.1148C10.3674 10.5213 10.6953 11.4016 10.7839 11.6514C10.8719 11.902 10.8159 13.2434 10.6153 13.5126Z" fill="#FAD3BE"/>
<path d="M2.98816 21.3385C3.19406 21.1099 3.43062 20.95 3.6765 20.9293C4.46947 20.8653 6.62049 22.1961 6.62049 22.1961C6.62049 22.1961 6.90769 23.6654 7.05296 24.6156C7.19822 25.5678 7.11626 26.1216 7.11626 26.1216C7.11626 26.1216 7.19623 26.1376 7.33683 26.1629C7.33683 26.1629 6.77775 26.2022 6.77308 26.2462C6.77442 26.1916 6.81507 25.2933 6.81507 25.2933C6.81507 25.2933 6.97699 23.0157 6.39126 22.1754C5.80486 21.3351 2.98816 21.3385 2.98816 21.3385Z" fill="#FAD3BE"/>
<path d="M18.9175 25.1366L16.7265 23.506C16.7265 23.506 16.3827 23.7319 16.4107 23.8305C16.4387 23.9285 16.8505 24.3336 16.8505 24.3336L18.3645 25.3971C18.3645 25.3971 20.1716 26.0695 18.9175 25.1366Z" fill="#4A2727"/>
<path d="M20.7533 26.7933L20.5734 26.8319L20.5141 27.2571L20.3515 27.341C20.3515 27.341 20.2069 27.8468 20.1143 27.8934C20.0216 27.9401 19.8031 27.9201 19.8031 27.9201C19.8031 27.9201 19.5019 28.3233 19.3273 28.4192C19.1527 28.5132 18.3644 28.5844 18.1691 28.6551C17.9759 28.7257 17.3862 28.9037 17.1016 28.8903C16.8151 28.875 16.5019 28.9243 15.655 28.9023C14.808 28.8803 12.4351 29.6153 10.8685 29.7493C9.30187 29.8832 5.98806 29.684 5.38834 29.4847C4.78861 29.2875 3.62981 26.3695 3.34395 25.7491C3.05941 25.1267 2.46368 23.5414 2.32108 23.0303C2.22379 22.6792 2.52899 21.8436 2.98944 21.3385C3.19535 21.1099 3.4319 20.95 3.67779 20.9293C4.47076 20.8653 6.62177 22.1961 6.62177 22.1961C6.62177 22.1961 6.90897 23.6654 7.05424 24.6156C7.19951 25.5678 7.11754 26.1216 7.11754 26.1216C7.11754 26.1216 7.19751 26.1376 7.33812 26.1629C8.05179 26.2928 10.3101 26.6913 11.3896 26.6967C12.679 26.702 15.9542 26.5907 16.1288 26.4741C16.3053 26.3575 17.5714 25.1594 17.8526 25.1087C18.1325 25.0561 19.6784 25.1734 19.965 25.2873C20.1709 25.3693 20.4921 25.6471 20.658 25.8584C20.6573 25.8617 20.6613 25.8637 20.6627 25.8657C20.728 25.9477 20.7666 26.0196 20.7666 26.0656C20.76 26.2309 20.7533 26.7933 20.7533 26.7933Z" fill="#FCC7AA"/>
<path d="M20.7533 26.7933L20.5734 26.832L20.5141 27.2571L20.3515 27.3411C20.3515 27.3411 20.2069 27.8469 20.1143 27.8935C20.0216 27.9401 19.8031 27.9201 19.8031 27.9201C19.8031 27.9201 19.5019 28.3233 19.3273 28.4193C19.1527 28.5132 18.3644 28.5845 18.1691 28.6551C17.9759 28.7258 17.3862 28.9037 17.1016 28.8904C16.8151 28.8751 16.5019 28.9243 15.655 28.9024C14.808 28.8804 12.4351 29.6154 10.8685 29.7493C9.30187 29.8833 5.98806 29.684 5.38834 29.4848C4.78861 29.2875 3.62981 26.3695 3.34395 25.7491C3.05941 25.1268 2.46368 23.5415 2.32108 23.0304C2.22379 22.6792 2.52899 21.8436 2.98944 21.3385L2.57096 22.6312C2.57096 22.6312 2.98278 23.932 3.65847 25.7138C4.33549 27.4957 4.99385 28.8644 5.27905 29.1249C5.56425 29.3875 8.35432 29.1103 9.20526 29.1269C10.0562 29.1456 14.6261 28.7065 15.9915 28.7258C17.3575 28.7471 17.8086 28.4786 18.0605 28.4432C18.3144 28.4059 19.2646 28.3013 19.2646 28.3013L19.7238 27.9455L19.272 27.7282L18.7662 27.6383L19.4812 27.537L19.993 27.7349L20.1949 27.2818L20.2135 27.0772L19.0481 26.7953L20.1023 26.8466L20.4048 26.9179L20.5161 26.5028L20.3082 26.2036L19.8424 25.985L18.7442 25.9297L20.0443 25.8424L20.6154 26.3795C20.6154 26.3795 20.8219 26.0437 20.662 25.8651C20.7273 25.9471 20.766 26.019 20.766 26.065C20.76 26.2309 20.7533 26.7933 20.7533 26.7933Z" fill="#FAD3BE"/>
<path d="M6.87636 22.4166C6.87636 22.4166 5.6316 22.5245 4.79998 22.6925C3.96837 22.8597 2.2165 23.2089 2.2165 23.2089C2.2165 23.2089 1.34756 20.1303 1.38888 18.7003C1.43019 17.2703 1.82802 15.7037 2.11655 15.3025C2.40442 14.902 3.90573 15.5084 4.13829 15.6177C4.37085 15.727 5.41904 18.7776 5.66359 19.2414C5.90815 19.7038 6.87636 22.4166 6.87636 22.4166Z" fill="#FF882A"/>
<path d="M9.73103 12.8803C9.73103 12.8803 7.37811 12.5644 7.23551 12.5078C7.09291 12.4505 5.70821 11.7375 5.70821 11.7375L5.76618 10.9778C5.76618 10.9778 5.50364 10.9985 5.44033 11.2131C5.37703 11.4276 5.24042 11.9601 5.24042 11.9601C5.24042 11.9601 5.0112 12.6264 7.14955 13.456C7.99183 13.7826 9.79367 14.1364 9.79367 14.1364L10.2821 14.916L10.3168 13.7106L9.73103 12.8803Z" fill="#FF882A"/>
<path d="M10.41 10.4095C10.41 10.4095 10.9571 10.8733 11.1017 11.0632C11.2463 11.2524 11.6661 12.1434 11.6261 12.4192C11.5868 12.6951 11.3603 13.2482 11.3603 13.2482C11.3603 13.2482 10.9958 13.5387 10.9824 13.6847C10.9691 13.8306 10.5899 15.002 10.5899 15.002L10.6153 13.5127L10.7952 12.7324L10.6919 11.6876L10.4767 10.8959L10.41 10.4095Z" fill="#FF882A"/>
<path d="M11.4883 9.22328C11.4883 9.22328 10.7233 9.89297 10.3934 9.92962C10.0642 9.96627 7.86592 9.63509 7.13825 9.51381C6.40992 9.39253 4.97591 7.44343 4.79333 7.27217C4.61008 7.10092 3.94571 4.20625 4.03567 3.93904C4.1263 3.67116 4.73336 2.44705 5.08186 2.1252C5.43104 1.80401 7.4701 1.31557 8.37769 1.65142C9.28527 1.98726 9.95229 3.02879 10.0949 3.28467C10.2375 3.53989 10.4061 4.6034 10.6733 5.05786C10.9412 5.51231 11.2217 6.43123 11.4023 7.24153C11.5836 8.05116 11.5729 9.02071 11.4883 9.22328Z" fill="#FCC7AA"/>
<path d="M5.75816 6.29592L5.93274 6.62444L5.69485 7.00027C5.69485 7.00027 4.71064 6.35989 4.5134 6.58446C4.31682 6.80902 4.664 7.96582 4.664 7.96582L5.16842 8.68216L5.42965 9.38118C5.42965 9.38118 4.05227 7.77858 3.54184 7.08156C3.03141 6.38455 2.59095 5.15378 2.58295 4.27085C2.57429 3.38792 3.45788 1.80199 4.63667 1.13629C5.81613 0.470598 7.01158 0.667173 7.7066 0.906397C8.40161 1.14562 8.97735 1.73801 9.39116 2.04054C9.80497 2.3424 9.86227 2.92347 9.86227 2.92347L8.33964 2.07786L5.9694 2.80086C5.9694 2.80086 5.4623 3.40592 5.50561 3.54186C5.54826 3.67779 6.01671 5.33103 6.01671 5.33103L5.75816 6.29592Z" fill="#4A2727"/>
<path d="M6.00546 8.26377C6.00546 8.26377 6.07809 8.55697 5.79088 8.68558C5.50368 8.81418 5.11253 8.54563 5.11253 8.54563C5.11253 8.54563 4.18229 7.6907 4.10966 7.3975C4.03703 7.1043 4.16696 6.64185 4.51414 6.58454C4.86131 6.5279 5.20249 6.77912 5.48103 7.11296C5.7589 7.44748 5.99813 8.20713 6.00546 8.26377Z" fill="#FFD6BF"/>
<path d="M9.83364 3.73518C9.83364 3.73518 9.3492 4.20962 8.86609 4.30958C8.38298 4.40953 7.53336 4.65209 7.43807 4.73205C7.34278 4.81135 6.82969 5.23982 6.71041 5.46039C6.59113 5.68162 6.58446 6.12208 6.64043 6.23736C6.69641 6.35264 7.48005 6.83442 7.48005 6.83442C7.48005 6.83442 8.38297 6.72581 8.69549 6.56655C9.00801 6.40729 9.17727 6.85241 9.13529 7.06964C9.09331 7.28621 8.67951 7.87794 7.93851 7.94325C7.19752 8.00855 6.31992 7.1023 6.22129 7.09297C6.12267 7.08431 5.88279 6.32332 5.88279 6.32332C5.88279 6.32332 6.152 5.29979 6.15466 5.26714C6.158 5.23448 5.77816 3.69985 5.88945 3.32403C6.00073 2.9482 8.07311 2.35248 8.23304 2.28984C8.39296 2.22587 9.50979 2.67966 9.83364 3.73518Z" fill="#FFD6BF"/>
<path d="M10.3294 5.85688C10.3294 5.85688 9.8729 5.5337 9.68632 5.36577C9.49907 5.19785 9.639 5.593 9.60768 5.73693C9.57636 5.88087 9.39911 6.2387 9.4984 6.35131C9.59768 6.46393 10.0075 6.08211 10.0075 6.08211C10.0075 6.08211 10.428 6.14941 10.448 6.01147C10.468 5.87354 10.3294 5.85688 10.3294 5.85688Z" fill="#FFD6BF"/>
<path d="M7.81928 36.8505C7.81928 36.8505 6.92169 38.7736 6.43458 39.0562C5.94747 39.338 5.38306 39.364 5.38306 39.364L6.12671 38.1073L7.81928 36.8505Z" fill="#6C91C4"/>
<path d="M10.2727 2.60018C8.45691 2.39694 7.38607 3.12328 5.85944 4.05885C5.16375 4.48332 4.13623 5.60347 3.53917 6.2805C3.25597 6.61301 3.07139 6.84024 3.07139 6.84024C2.81884 6.80359 2.62825 6.64966 2.48032 6.43376C1.95123 5.66411 2.00654 4.05151 2.00654 3.73166C2.00654 3.38715 2.43101 2.24834 2.43767 2.24234C2.44367 2.23035 2.45034 2.21769 2.45633 2.2057C2.45633 2.2057 2.45633 2.2057 2.46233 2.2057C2.66557 1.83653 2.95477 1.46071 3.36058 1.1162C3.72375 0.802342 4.18553 0.519131 4.75194 0.297899C5.74282 -0.0899231 6.6724 -0.0466049 7.41073 0.13198C8.31564 0.347215 8.94336 0.76569 9.05397 0.870309C9.34917 1.15351 9.64503 1.55332 9.86027 1.89783C10.1068 2.28632 10.2727 2.60018 10.2727 2.60018Z" fill="#FFCB21"/>
<path d="M7.41067 0.131945C7.39202 0.143939 7.37403 0.162599 7.35537 0.17526C7.35537 0.17526 6.66569 0.175262 5.82274 0.439807C4.97313 0.71035 4.27811 1.54796 3.9516 1.78785C3.62508 2.02774 2.64686 2.20633 2.46228 2.20633C2.66552 1.83717 2.95472 1.46133 3.36053 1.11682C3.7237 0.802968 4.18548 0.519767 4.75189 0.298535C5.74277 -0.0892872 6.67235 -0.0466401 7.41067 0.131945Z" fill="#FFDC42"/>
<path d="M3.2413 6.37181C2.9581 6.70432 3.07139 6.84092 3.07139 6.84092C2.81884 6.80427 2.62825 6.65034 2.48032 6.43444C1.95123 5.66479 2.00654 4.05221 2.00654 3.73235C2.00654 3.38784 2.43101 2.24903 2.43767 2.24303C2.64691 1.86121 2.97609 1.40742 3.36058 1.11688C3.36058 1.11688 2.6529 2.36031 2.58494 3.51112C2.53562 4.29276 2.84748 5.64547 3.2413 6.37181Z" fill="#FFB800"/>
<path d="M10.2728 2.60026C8.45694 2.39702 7.3861 3.12336 5.85946 4.05893C4.83193 4.68664 3.07141 6.84098 3.07141 6.84098C2.81886 6.80433 2.62828 6.6504 2.48035 6.4345C2.67759 6.01003 3.3233 4.98183 5.435 3.29527C8.05113 1.20223 9.86029 1.89791 9.86029 1.89791C10.1068 2.2864 10.2728 2.60026 10.2728 2.60026Z" fill="#FFA600"/>
<path d="M5.78223 4.10475C5.78223 4.10475 6.77044 3.55767 7.06631 3.55767C7.52943 3.55767 10.5567 2.67407 10.6427 2.53014C10.7293 2.3862 10.0703 2.23894 10.0703 2.23894C10.0703 2.23894 9.29595 2.07834 8.33439 2.4535C7.3735 2.828 5.78223 4.10475 5.78223 4.10475Z" fill="#FFBE24"/>
<path d="M5.2098 0.866329C5.2098 0.866329 3.71515 0.518482 2.89486 1.58199C2.72827 1.80922 2.72827 1.80923 2.72827 1.80923C2.72827 1.80923 2.76691 1.572 3.03612 1.31079C3.30533 1.04891 3.80578 0.423865 5.2098 0.866329Z" fill="#FFA600"/>
<path d="M6.22261 0.329845C6.22261 0.329845 5.51094 0.0992831 4.99318 0.211898C4.75195 0.298525 4.75195 0.298528 4.75195 0.298528C4.75195 0.298528 4.94054 0.182577 5.07247 0.129935C5.28438 0.0439744 5.84612 0.098618 6.22261 0.329845Z" fill="#FFA600"/>
</svg>
