<svg width="122" height="124" viewBox="0 0 122 124" fill="none" xmlns="http://www.w3.org/2000/svg">
<path d="M121.742 79.1629V88.1835L59.8867 124.008L0.866211 89.9876L1.12394 80.967L62.7218 45.1423L121.742 79.1629Z" fill="#BF7D5A"/>
<path d="M121.742 79.1631V88.1837L59.8867 124.008V114.988L121.742 79.1631Z" fill="#BF7D5A"/>
<path d="M59.8867 114.987V124.008L0.866211 89.9875L1.12394 80.9669L59.8867 114.987Z" fill="#AA6256"/>
<path d="M121.742 79.163L59.8868 114.988L1.12402 80.9672L62.7219 45.1425L121.742 79.163Z" fill="#DBA660"/>
<path d="M25.093 21.4307V80.9667L12.9796 87.9254L0.866211 80.9667L1.12394 21.4307L13.2373 14.4719L25.093 21.4307Z" fill="#C9CEE2"/>
<path d="M25.0929 21.4309V80.9669L12.9795 87.9257L13.2372 28.3897L25.0929 21.4309Z" fill="#C9CEE2"/>
<path d="M13.2373 28.3897L12.9796 87.9257L0.866211 80.9669L1.12394 21.4309L13.2373 28.3897Z" fill="#B0B8CF"/>
<path d="M25.0931 21.4307L13.2374 28.3894L1.12402 21.4307L13.2374 14.4719L25.0931 21.4307Z" fill="#E3E7F0"/>
<path d="M15.042 1.06976V17.5646C15.042 18.08 15.042 18.08 14.5265 18.3378C14.0111 18.5955 12.9801 18.5955 12.4647 18.3378C12.2069 18.08 11.9492 18.08 11.9492 17.8223V1.3275L15.042 1.06976Z" fill="#111D33"/>
<path d="M14.7843 0.55449C15.2998 0.812221 15.2998 1.58542 14.7843 1.84315C14.0111 2.10088 13.2379 2.10088 12.4647 1.84315C11.9493 1.58542 11.9493 0.812221 12.4647 0.55449C13.2379 0.296758 14.0111 0.296758 14.7843 0.55449Z" fill="#4C5C75"/>
<path d="M21.7432 4.9359V21.4307C21.7432 21.6884 21.4854 21.9462 21.2277 21.9462C20.7122 22.2039 19.6813 22.2039 19.1659 21.9462C18.9081 21.6884 18.6504 21.4307 18.6504 21.4307V4.9359H21.7432Z" fill="#1D2943"/>
<path d="M21.2277 4.42056C21.7432 4.6783 21.7432 5.45149 21.2277 5.70922C20.7123 5.96695 19.6814 5.96695 19.1659 5.70922C18.6504 5.45149 18.6504 4.6783 19.1659 4.42056C19.6814 3.9051 20.7123 3.9051 21.2277 4.42056Z" fill="#4C5C75"/>
<path d="M7.8252 5.45163V21.9465C7.8252 22.2042 7.56747 22.4619 7.30974 22.4619C6.79427 22.7196 5.76335 22.7196 5.24788 22.4619C4.73242 22.4619 4.73242 22.2042 4.73242 21.9465V5.45163H7.8252Z" fill="#1D2943"/>
<path d="M7.30978 4.93596C7.82524 5.19369 7.82524 5.96689 7.30978 6.22462C6.79432 6.48235 5.76339 6.48235 5.24793 6.22462C4.73246 5.96689 4.73246 5.19369 5.24793 4.93596C5.76339 4.4205 6.79432 4.4205 7.30978 4.93596Z" fill="#4C5C75"/>
<path d="M14.2686 9.31764V25.8125C14.2686 26.0702 14.0108 26.3279 13.7531 26.3279C13.2376 26.5857 12.2067 26.5857 11.6912 26.3279C11.4335 26.0702 11.1758 25.8125 11.1758 25.8125V9.31764H14.2686Z" fill="#1D2943"/>
<path d="M14.0109 8.54422C14.5263 8.80195 14.5263 9.57515 14.0109 9.83288C13.2377 10.3483 12.4645 10.3483 11.6913 9.83288C11.1758 9.57515 11.1758 8.80195 11.6913 8.54422C12.4645 8.28649 13.2377 8.28649 14.0109 8.54422Z" fill="#4C5C75"/>
<path d="M62.9796 20.9154L51.1239 27.8742L50.8662 52.1009L62.9796 59.0597L74.8353 52.1009L75.093 27.8742L62.9796 20.9154Z" fill="#E3E7F0"/>
<path d="M75.0929 27.8744L74.8351 52.1012L62.9795 59.0599L63.2372 34.8332L75.0929 27.8744Z" fill="#C9CEE2"/>
<path d="M63.2373 34.8332L62.9796 59.0599L50.8662 52.1012L51.1239 27.8744L63.2373 34.8332Z" fill="#B0B8CF"/>
<path d="M75.0931 27.8742L63.2374 34.8329L51.124 27.8742L62.9797 20.9154L75.0931 27.8742Z" fill="#E3E7F0"/>
<path d="M65.042 7.51341V24.0082C65.042 24.266 64.7843 24.5237 64.5265 24.5237C64.0111 24.7814 62.9801 24.7814 62.4647 24.5237C62.2069 24.266 61.9492 24.0082 61.9492 24.0082V7.51341H65.042Z" fill="#111D33"/>
<path d="M64.5266 6.74034C65.042 6.99807 65.042 7.77127 64.5266 8.029C64.0111 8.28673 62.9802 8.28673 62.4647 8.029C61.9493 7.77127 61.9493 6.99807 62.4647 6.74034C62.9802 6.48261 64.0111 6.48261 64.5266 6.74034Z" fill="#4C5C75"/>
<path d="M71.7432 11.1219V27.6168C71.7432 27.8745 71.4854 28.1322 71.2277 28.1322C70.7122 28.39 69.6813 28.39 69.1659 28.1322C68.9081 27.8745 68.6504 27.6168 68.6504 27.6168V11.1219H71.7432Z" fill="#1D2943"/>
<path d="M71.2277 10.6063C71.7432 10.864 71.7432 11.6372 71.2277 11.895C70.7123 12.1527 69.6814 12.1527 69.1659 11.895C68.6504 11.6372 68.6504 10.864 69.1659 10.6063C69.6814 10.3486 70.7123 10.3486 71.2277 10.6063Z" fill="#4C5C75"/>
<path d="M57.8252 11.6375V28.1323C57.8252 28.39 57.5675 28.6478 57.3097 28.6478C56.7943 28.9055 55.7634 28.9055 55.2479 28.6478C54.9902 28.39 54.7324 28.1323 54.7324 28.1323V11.6375H57.8252Z" fill="#1D2943"/>
<path d="M57.3098 11.1218C57.8252 11.3795 57.8252 12.1527 57.3098 12.4105C56.7943 12.6682 55.7634 12.6682 55.2479 12.4105C54.7325 12.1527 54.7325 11.3795 55.2479 11.1218C55.7634 10.6063 56.5366 10.6063 57.3098 11.1218Z" fill="#4C5C75"/>
<path d="M64.2686 15.5036V31.9984C64.2686 32.2561 64.0108 32.5138 63.7531 32.5138C63.2376 32.7716 62.2067 32.7716 61.6912 32.5138C61.4335 32.2561 61.1758 31.9984 61.1758 31.9984V15.5036H64.2686Z" fill="#1D2943"/>
<path d="M63.7531 14.9879C64.2686 15.2456 64.2686 16.0188 63.7531 16.2765C63.2377 16.5343 62.2067 16.5343 61.6913 16.2765C61.1758 16.0188 61.1758 15.2456 61.6913 14.9879C62.2067 14.4724 63.2377 14.4724 63.7531 14.9879Z" fill="#4C5C75"/>
<path d="M109.887 47.9773L97.7734 54.936V79.1628L109.629 86.1216L121.742 79.1628L122 54.936L109.887 47.9773Z" fill="#E3E7F0"/>
<path d="M122 54.9359L121.742 79.1627L109.629 86.1214L109.887 61.8947L122 54.9359Z" fill="#C9CEE2"/>
<path d="M109.887 61.8947L109.629 86.1214L97.7734 79.1627V54.9359L109.887 61.8947Z" fill="#B0B8CF"/>
<path d="M122 54.936L109.887 61.8948L97.7734 54.936L109.887 47.9773L122 54.936Z" fill="#E3E7F0"/>
<path d="M111.949 34.5751V51.0699C111.949 51.3277 111.691 51.5854 111.434 51.5854C110.918 51.8431 109.887 51.8431 109.372 51.5854C109.114 51.3276 108.856 51.0699 108.856 51.0699V34.5751H111.949Z" fill="#111D33"/>
<path d="M111.434 33.802C111.949 34.0598 111.949 34.833 111.434 35.0907C110.918 35.3484 109.887 35.3484 109.372 35.0907C108.856 34.833 108.856 34.0598 109.372 33.802C109.887 33.5443 110.661 33.5443 111.434 33.802Z" fill="#4C5C75"/>
<path d="M118.393 38.441V54.9358C118.393 55.1936 118.135 55.4513 117.877 55.4513C117.362 55.709 116.331 55.709 115.815 55.4513C115.558 55.1936 115.3 54.9358 115.3 54.9358V38.441H118.393Z" fill="#1D2943"/>
<path d="M117.877 37.6679C118.393 37.9257 118.393 38.6988 117.877 38.9566C117.362 39.2143 116.331 39.2143 115.815 38.9566C115.3 38.6988 115.3 37.9257 115.815 37.6679C116.331 37.4102 117.362 37.4102 117.877 37.6679Z" fill="#4C5C75"/>
<path d="M104.475 38.9566V55.4514C104.475 55.7092 104.217 55.9669 103.959 55.9669C103.444 56.2246 102.413 56.2246 101.897 55.9669C101.64 55.7092 101.382 55.4514 101.382 55.4514V38.9566H104.475Z" fill="#1D2943"/>
<path d="M103.959 38.1835C104.475 38.4413 104.475 39.2145 103.959 39.4722C103.444 39.7299 102.413 39.7299 101.897 39.4722C101.382 39.2145 101.382 38.4413 101.897 38.1835C102.413 37.9258 103.444 37.9258 103.959 38.1835Z" fill="#4C5C75"/>
<path d="M111.176 42.5648V59.0596C111.176 59.3174 110.918 59.5751 110.66 59.5751C110.145 59.8328 109.114 59.8328 108.598 59.5751C108.083 59.5751 107.825 59.3174 107.825 59.3174V42.8225L111.176 42.5648Z" fill="#1D2943"/>
<path d="M110.66 42.0495C111.176 42.3072 111.176 43.0804 110.66 43.3382C110.145 43.5959 109.114 43.5959 108.599 43.3382C108.083 43.0804 108.083 42.3072 108.599 42.0495C109.114 41.7918 109.887 41.7918 110.66 42.0495Z" fill="#4C5C75"/>
<path d="M74.0615 99.5233L65.0409 104.678L33.5977 86.6368V84.5749L42.6183 79.1625L74.0615 97.4615V99.5233Z" fill="#B0B8CF"/>
<path d="M33.5977 84.575V86.6369L65.0409 104.678V102.616L33.5977 84.575Z" fill="#B0B8CF"/>
<path d="M65.041 102.616V104.678L74.0616 99.5234V97.4615L65.041 102.616Z" fill="#C9CEE2"/>
<path d="M33.5977 84.5749L65.0409 102.616L74.0615 97.4615L42.6183 79.1625L33.5977 84.5749Z" fill="#E3E7F0"/>
<path d="M75.8662 94.3689L66.8456 99.5235L35.4023 81.2246V79.1627L44.6807 74.0081L75.8662 92.307V94.3689Z" fill="#C9CEE2"/>
<path d="M35.4023 79.1631V81.225L66.8456 99.5239V97.4621L35.4023 79.1631Z" fill="#B0B8CF"/>
<path d="M66.8457 97.462V99.5239L75.8663 94.3693V92.3074L66.8457 97.462Z" fill="#C9CEE2"/>
<path d="M35.4023 79.1627L66.8456 97.4617L75.8662 92.307L44.6807 74.0081L35.4023 79.1627Z" fill="#E3E7F0"/>
<path d="M91.5879 85.8638L82.5673 91.0185L51.124 72.7195V70.6577L60.1446 65.503L91.5879 83.802V85.8638Z" fill="#C9CEE2"/>
<path d="M51.124 70.6575V72.7194L82.5673 91.0183V88.9565L51.124 70.6575Z" fill="#B0B8CF"/>
<path d="M82.5674 88.9565V91.0183L91.588 85.8637V83.8018L82.5674 88.9565Z" fill="#C9CEE2"/>
<path d="M51.124 70.6577L82.5673 88.9566L91.5879 83.802L60.1446 65.503L51.124 70.6577Z" fill="#E3E7F0"/>
</svg>
