<svg width="39" height="58" viewBox="0 0 39 58" fill="none" xmlns="http://www.w3.org/2000/svg">
<path d="M36.2807 43.704C35.032 42.623 31.4048 41.3664 31.4048 41.3664C31.0558 41.1846 30.619 41.1882 30.3671 41.3584C30.3512 41.3749 30.3287 41.3883 30.3128 41.4048L29.0549 42.54L26.8485 41.7025C26.8485 41.7025 26.8174 41.6982 26.768 41.7031L23.921 40.6947C21.3278 38.7676 16.6293 38.1363 12.8972 39.3069C10.3833 38.5462 7.30023 38.4913 4.69665 39.3215C0.629613 40.6185 -0.719768 43.574 1.68251 45.9238C4.07503 48.2633 9.28404 49.1179 13.3438 47.8448C15.8577 48.6055 18.9407 48.6604 21.5443 47.8302C24.9117 46.7565 26.408 44.5458 25.4625 42.4833L28.1021 43.4002L26.7124 44.6538C26.3714 44.957 26.6966 45.4584 27.3029 45.5792C27.3029 45.5792 31.4609 46.5876 32.8468 46.6888C34.0693 46.7791 34.9588 46.7193 35.6304 46.5839C36.1849 46.4723 36.593 46.31 36.9169 46.1435C37.6532 45.6628 37.2701 44.558 36.2807 43.704Z" fill="#CCC0BC"/>
<path d="M21.9835 27.4284C21.9835 27.4284 21.8512 28.4264 22.0043 29.6251C22.0238 29.7776 19.7319 28.2111 19.7246 27.9793C19.7173 27.7475 19.8612 26.4615 19.8612 26.4615L21.0044 26.4524L21.6541 26.6086L21.9835 27.4284Z" fill="#FAC5A8"/>
<path d="M21.8402 26.5799C21.8402 26.5799 21.7999 26.6677 21.5028 26.7446C21.3406 26.7867 21.1027 26.8251 20.7531 26.8453C20.4987 26.8599 20.2895 26.8648 20.1199 26.8666C19.6264 26.8697 19.458 26.8306 19.458 26.8306C19.458 26.8306 18.6943 21.7845 18.6705 20.9976C18.6467 20.2094 18.5674 18.261 19.1921 16.215C19.3372 15.7373 19.4788 15.112 19.6069 14.4343C20.0309 12.2059 20.3359 9.40892 20.3359 9.40892L20.8214 8.47681C20.8214 8.47681 22.0519 8.57441 22.7363 9.81703C22.8705 10.061 22.9327 10.3844 22.9431 10.762C22.9431 10.762 22.9431 10.7632 22.9425 10.765C22.984 12.3139 22.1702 14.7448 22.058 16.0393C21.9189 17.6473 22.244 19.6903 22.1379 20.6639C22.0311 21.6381 21.8402 26.5799 21.8402 26.5799Z" fill="#FF862A"/>
<path d="M19.5977 23.2705C19.8363 24.2965 20.0363 26.0741 20.1193 26.8672C19.6258 26.8702 19.4574 26.8312 19.4574 26.8312C19.4574 26.8312 18.6937 21.7851 18.6699 20.9981C18.6461 20.21 18.5668 18.2616 19.1915 16.2155C19.3366 15.7379 19.4782 15.1126 19.6063 14.4349C20.9325 13.0483 22.1702 12.3522 21.9866 13.0068C21.7578 13.8212 19.9882 16.1112 19.9882 16.1112C19.9882 16.1112 19.5544 17.1824 19.2537 18.3903C18.9517 19.5987 19.2823 21.9223 19.5977 23.2705Z" fill="#B87A56"/>
<path d="M21.8402 26.5799C21.8402 26.5799 21.7999 26.6677 21.5028 26.7446C21.4248 26.0138 21.3552 25.2354 21.3784 25.0219C21.4254 24.5894 21.7401 19.5872 21.7401 19.5872L21.1136 18.9583C21.1136 18.9583 21.5358 19.1022 21.4443 18.3873C21.3516 17.6705 21.7542 15.9874 21.7804 15.7465C21.806 15.5098 22.9102 10.9023 22.9425 10.7656C22.984 12.3145 22.1702 14.7454 22.0579 16.0399C21.9189 17.6479 22.244 19.6909 22.1379 20.6645C22.0311 21.6381 21.8402 26.5799 21.8402 26.5799Z" fill="#B87A56"/>
<path d="M16.6092 41.2561C16.6092 41.2561 16.2139 41.369 16.1462 41.7887C16.0785 42.2084 16.1212 42.6604 16.1255 42.7873C16.1297 42.9141 16.2609 43.3003 17.4218 43.2796C18.5827 43.2588 18.5564 43.024 19.1609 43.1758C19.7649 43.3277 19.7972 43.7444 20.5482 43.9555C21.2991 44.1659 22.8437 44.2141 23.3085 44.0079C23.7734 43.8017 23.9051 43.3887 23.8783 43.1264C23.8514 42.8641 24.0247 42.3297 23.2469 42.1486C22.4691 41.9668 20.309 41.6947 20.309 41.6947L16.6092 41.2561Z" fill="#3E362F"/>
<path d="M18.9297 40.0988C18.9297 40.0988 19.7167 40.8345 20.3206 40.987C20.9245 41.1389 22.3892 41.5165 22.8052 41.7385C23.2213 41.9606 23.8319 42.3711 23.8508 42.6426C23.8801 43.0623 23.4561 43.8315 22.3276 43.7333C21.199 43.6351 20.1486 43.2953 19.4641 42.8982C18.7791 42.5004 16.9752 42.706 16.5964 42.5011C16.2176 42.2961 16.2346 42.0051 16.2651 41.55C16.295 41.0956 16.3689 40.0402 16.3859 40.0121C16.403 39.9835 18.9297 40.0988 18.9297 40.0988Z" fill="#524B45"/>
<path d="M19.8606 40.4501C19.8606 40.4501 19.8326 40.8057 19.1774 40.9753C19.1774 40.9808 19.1774 40.9808 19.1774 40.9808C19.0591 41.0089 18.923 41.0314 18.7595 41.0485C18.3472 41.0937 17.1466 40.8735 16.8526 40.7771C16.7117 40.7319 16.2841 40.5605 16.1822 40.5099C15.9449 40.3915 15.8095 40.2781 15.8095 40.2781C15.8095 40.2781 15.7241 37.8666 15.3849 35.3375C15.0463 32.8083 15.114 31.3064 15.097 30.2907C15.097 30.0876 15.1927 29.89 15.3507 29.7033C15.9833 28.9749 18.1733 28.3088 18.5064 28.2978C18.8224 28.2868 19.3195 27.9476 19.5849 28.6534C19.6526 28.8285 19.7032 29.0713 19.7319 29.4044C19.7374 29.4947 19.749 29.5965 19.7545 29.7094C19.8399 31.7188 19.8606 40.4501 19.8606 40.4501Z" fill="#2A5294"/>
<path d="M19.5422 29.4054C19.5422 29.4054 18.9066 30.462 18.0568 30.5803C17.5236 30.656 16.3176 30.7786 15.8168 30.6474C15.5209 30.5699 15.2671 30.4522 15.0994 30.2893C14.6492 29.8513 11.6412 26.1772 11.6412 26.1772C11.6412 26.1772 9.27487 23.2783 8.96132 22.7299C8.94119 22.6957 8.93021 22.6701 8.92716 22.6555C8.88262 22.4029 11.4045 19.4413 13.1449 19.3833C14.8853 19.3247 15.5813 20.5912 16.0974 21.3537C16.6122 22.1174 19.4653 28.1481 19.5837 28.6435C19.5837 28.6465 19.5855 28.6478 19.5855 28.6508C19.7002 29.1419 19.5422 29.4054 19.5422 29.4054Z" fill="#2A5294"/>
<path d="M16.1828 40.5098C15.9455 40.3914 15.8101 40.278 15.8101 40.278C15.8101 40.278 15.7247 37.8665 15.3855 35.3374C15.0469 32.8082 15.1147 31.3063 15.0976 30.2906C14.6462 29.8502 11.6424 26.1748 11.6424 26.1748C11.6424 26.1748 9.27123 23.279 8.96072 22.7312C9.33345 21.9351 10.8463 21.4099 12.3482 23.6908C12.3482 23.6908 13.4944 27.5297 14.9054 29.1328C15.0805 29.3359 15.8052 30.0375 15.9297 30.218C15.9297 30.218 15.8369 31.8706 15.7918 32.0573C15.7296 32.3507 15.6899 34.0386 16.0517 36.1841C16.2438 37.3187 16.0755 39.1323 16.1828 40.5098Z" fill="#6C8FC2"/>
<path d="M19.86 40.4501C19.86 40.4501 19.8326 40.8039 19.1762 40.9772C19.131 40.4562 19.1628 39.5723 19.2164 39.3222C19.2793 39.0294 18.9358 33.1652 18.8584 32.2965C18.7833 31.451 18.6967 30.2273 18.6534 30.184C18.6516 30.1828 18.3819 30.328 19.1561 29.9071C19.4086 29.7692 19.5953 29.5862 19.7313 29.4026C19.7404 29.4965 19.7478 29.5978 19.7514 29.7082C19.8375 31.7195 19.86 40.4501 19.86 40.4501Z" fill="#BCCCE3"/>
<path d="M4.64418 41.9585C4.64418 41.9585 4.37212 42.0293 4.35016 42.3099C4.32881 42.5905 4.26902 42.9669 4.27329 43.0132C4.27756 43.0596 4.64296 43.5555 4.96201 43.727C5.28105 43.8984 6.01673 44.7634 6.0448 44.8396C6.07286 44.9159 6.69143 45.9413 8.40499 46.0365C10.1192 46.1323 10.3748 45.3752 10.3748 45.3752C10.3748 45.3752 10.4785 44.7481 10.2192 44.5371C9.95994 44.326 6.79208 43.1737 6.79208 43.1737L4.64418 41.9585Z" fill="#3E362F"/>
<path d="M7.58326 40.9464C7.58326 40.9464 8.12374 42.1 9.17726 43.0632C10.2308 44.0264 10.3034 44.6181 10.2131 44.9463C10.1228 45.2739 9.60245 45.7833 8.60506 45.6832C7.60767 45.5832 6.85307 45.1367 6.39128 44.6846C5.92949 44.2326 5.47258 43.6537 5.02055 43.112C4.56852 42.5703 4.5063 42.8094 4.4337 42.2177C4.41296 42.0481 4.61549 41.7138 4.6832 41.521C4.85096 41.0397 5.02666 40.7134 5.02666 40.7134L7.58326 40.9464Z" fill="#524B45"/>
<path d="M12.4263 24.9951C11.9309 25.6313 11.4569 25.1781 11.183 25.1336C11.1287 25.1244 11.0641 25.2178 11.0641 25.2178C11.0641 25.2178 10.4144 27.9946 9.44936 31.4906C8.4843 34.9867 8.17258 40.6129 7.89807 41.3377C7.77241 41.6713 7.60525 41.8135 7.38442 41.8568C7.12577 41.9105 6.68106 41.9294 6.25526 41.8568C5.85264 41.7879 4.96445 41.5646 4.68811 41.3816C4.42092 41.2053 4.25744 40.9539 4.27391 40.5733C4.30868 39.7992 4.16471 37.8404 4.19766 35.3137C4.22938 32.7875 4.95409 31.7218 4.97117 31.3369C4.98825 30.9508 4.77962 24.1618 4.90711 22.1072C5.03339 20.0527 5.94842 19.2529 5.94842 19.2529C5.94842 19.2529 6.15522 19.3005 6.49806 19.3798C8.1439 19.7623 12.9259 20.9024 12.9161 21.2032C12.9064 21.5674 13.0204 24.232 12.4263 24.9951Z" fill="#355FA1"/>
<path d="M11.0976 25.0769C11.0976 25.0769 10.4144 27.9953 9.44996 31.4913C8.4849 34.9874 8.17318 40.6136 7.89867 41.3383C7.773 41.672 7.60587 41.8142 7.38504 41.8575C7.66809 40.6679 7.60709 39.0599 7.71079 37.8502C7.75776 37.3024 8.49407 34.6 8.55812 34.2041C8.85154 32.4112 9.3054 31.2565 9.50427 30.3176C9.70496 29.3776 10.6151 25.3496 11.0976 25.0769Z" fill="#6C8FC2"/>
<path d="M4.68872 41.3816C4.42153 41.2053 4.25805 40.9539 4.27452 40.5733C4.30929 39.7992 4.16532 37.8404 4.19827 35.3137C4.22999 32.7875 4.95468 31.7218 4.97176 31.3369C4.98884 30.9508 4.78023 24.1618 4.90772 22.1072C5.034 20.0527 5.94903 19.2529 5.94903 19.2529C5.94903 19.2529 6.15583 19.3005 6.49867 19.3798C5.90328 20.3296 5.33229 21.3227 5.26397 21.7327C5.11939 22.616 5.22677 25.2074 5.34755 26.7782C5.46834 28.3478 5.56288 29.9003 5.34571 31.5004C4.84427 33.3116 4.58562 35.7053 4.63808 37.7336C4.67163 38.9878 4.75033 40.7374 4.68872 41.3816Z" fill="#6C8FC2"/>
<path d="M17.897 6.16974C17.897 6.16974 16.1846 6.31188 14.321 7.00243C12.4574 7.69358 11.8785 7.81254 11.2178 8.85385C10.5571 9.89455 8.79785 14.6479 8.02921 15.8417C7.26058 17.0349 5.56594 19.0217 5.36829 19.3286C5.17064 19.6354 4.87783 20.5358 4.85038 20.7884C4.82293 21.0409 4.29097 22.3494 5.89778 23.5103C7.50458 24.6706 8.93814 25.247 12.3878 25.2397C14.3783 25.0555 15.441 23.5109 15.4709 23.4042C15.5008 23.298 16.3768 22.1908 16.3847 22.2042C16.3933 22.2171 16.1419 20.6127 16.4671 20.046C16.7928 19.4793 17.2131 19.306 17.4029 19.0712C17.5926 18.8363 18.1605 18.3141 18.327 17.4564C19.5922 16.226 20.6116 14.9138 21.5724 13.6316C22.5332 12.3493 22.7265 10.8395 22.4837 9.62492C21.7712 6.06665 17.897 6.16974 17.897 6.16974Z" fill="#F7551A"/>
<path d="M22.0018 10.599C21.5279 11.5757 18.5015 15.8605 18.5015 15.8605C18.5015 15.8605 18.9529 17.1531 18.654 17.4075C18.3551 17.6674 17.2144 19.7055 16.8929 19.8122C16.5653 19.9196 16.5256 21.89 16.5256 21.89C16.5256 21.89 16.0852 24.995 12.3872 25.2378C8.68927 25.4806 5.07671 24.1483 5.07671 24.1483C5.07671 24.1483 5.06511 24.1257 5.04864 24.0751C4.94128 23.7987 4.55757 22.7318 4.59112 21.6081C4.63626 20.3039 5.29144 18.8929 5.34756 18.7569C5.40369 18.616 8.97171 14.5849 8.97171 14.5849L9.02845 14.7655L9.64397 16.7072C9.64397 16.7072 11.7162 17.9718 12.7264 16.7072C13.7427 15.4316 14.8548 12.5072 14.8151 10.2489C14.7755 7.99056 12.7264 7.60136 12.7264 7.60136L14.3186 7.00293C14.3186 7.00293 16.012 7.99117 16.1139 10.5313C16.2158 13.066 14.2173 16.6004 14.2173 16.6004L17.1698 15.7025C17.1698 15.7025 20.2181 11.5873 20.331 10.3959C20.4438 9.19902 19.7271 8.39196 19.7271 8.39196L20.8336 7.86123C20.8336 7.86123 22.4819 9.62787 22.0018 10.599Z" fill="#355FA1"/>
<path d="M9.02904 14.7655L8.96133 16.2223C8.96133 16.2223 6.46572 18.3281 6.35287 18.469C6.23452 18.6099 5.35915 19.9989 5.21274 21.3141C5.06023 22.6355 5.21274 24.1935 5.21274 24.1935C5.15601 24.1593 5.09988 24.1257 5.04925 24.0751C4.94189 23.7988 4.55818 22.7318 4.59173 21.6082C4.63687 20.3039 5.29203 18.893 5.34816 18.7569C5.40428 18.616 8.97232 14.585 8.97232 14.585L9.02904 14.7655Z" fill="#6C8FC2"/>
<path d="M8.92595 21.4326C8.92595 21.4326 7.62048 22.7734 6.79695 22.8204C5.97341 22.8674 5.34631 23.037 5.34631 23.037L7.13612 22.039L8.92595 21.4326Z" fill="#6C8FC2"/>
<path d="M13.5322 17.9195C13.5322 17.9195 12.6752 20.1101 12.777 20.3096C12.8313 20.4151 14.6968 20.9324 14.6968 20.9324C14.6968 20.9324 16.5183 19.5385 16.5933 19.4805C16.7532 19.3567 17.6792 16.913 17.6548 16.7287C17.6304 16.5451 13.6689 17.4437 13.5322 17.9195Z" fill="#4275C9"/>
<path d="M14.1099 17.467C14.1099 17.467 13.5408 17.6603 13.4517 17.8635C13.3626 18.0666 13.2724 18.3954 13.3108 18.5113C13.3492 18.6278 15.3166 18.6968 15.3806 18.6461C15.4453 18.5949 17.4364 17.5871 17.5053 17.4047C17.5743 17.223 17.8689 16.6239 17.792 16.5958C17.7152 16.5684 16.7379 16.7319 14.1099 17.467Z" fill="#6597EB"/>
<path d="M7.61013 16.7335L31.1815 37.6818L32.612 40.9771L6.5066 17.9011C6.34312 17.7529 6.23514 17.5534 6.20586 17.3448L6.20403 17.3301C6.1412 16.8848 6.44621 16.5151 6.88787 16.5005L6.98486 16.4974C7.2063 16.4907 7.43262 16.5761 7.61013 16.7335Z" fill="#5F3418"/>
<path d="M16.389 24.7529L30.7557 37.5207L31.6274 39.5295L15.7168 25.4648C15.6167 25.3745 15.5514 25.2531 15.5331 25.1256L15.5319 25.1164C15.4935 24.845 15.6795 24.6199 15.9486 24.6107L16.0077 24.6089C16.1432 24.6046 16.281 24.6565 16.389 24.7529Z" fill="#8E4A20"/>
<path d="M21.9835 27.4285C21.9835 27.4285 22.2489 27.789 22.2983 28.1276C22.3477 28.4661 22.3886 28.6808 22.4837 28.9212C22.6057 29.2305 22.8705 30.1022 22.8614 30.2431C22.8522 30.384 22.8601 30.7275 22.6759 30.9062C22.4917 31.085 22.1977 30.6122 22.2123 30.5792C22.2269 30.5457 22.2471 29.9869 22.2471 29.9869L21.3229 28.604C21.3229 28.604 21.8865 27.4388 21.9835 27.4285Z" fill="#FAC5A8"/>
<path d="M12.9661 14.6179C12.9661 14.6179 12.6422 16.3809 12.6361 16.4352C12.63 16.4895 12.1481 17.7321 12.1261 17.9303C12.1048 18.1286 13.966 21.233 13.966 21.233L14.8456 22.278L16.0522 22.6117L15.4715 23.4047C15.4715 23.4047 14.7712 24.2593 14.4058 24.4893C14.0404 24.7193 10.6364 21.7283 10.6364 21.7283L9.40482 17.1239C9.40482 17.1239 11.2904 13.4582 12.9661 14.6179Z" fill="#B87A56"/>
<path d="M17.9915 25.4427C17.9494 25.5055 17.8854 25.5464 17.8152 25.5738C17.6536 25.6379 17.4663 25.6293 17.4663 25.6293C17.4663 25.6293 16.6562 25.4811 16.4842 25.8276C16.3121 26.1723 16.8874 27.2569 16.8874 27.2569L17.2436 28.3421L17.4175 28.5434C17.4175 28.5434 17.3461 28.5825 17.2461 28.6166C17.2449 28.6166 17.2418 28.616 17.24 28.6172C17.1808 28.6374 17.1119 28.6544 17.0399 28.6599C16.8429 28.6752 16.4567 28.4269 16.4567 28.4269L16.1791 27.959C16.1791 27.959 16.2353 28.1109 15.7308 28.056C15.2257 28.0011 15.1195 27.7455 15.1195 27.7455C15.1195 27.7455 14.8103 27.6869 14.6998 27.4692C14.6791 27.4289 14.6437 27.3783 14.598 27.3197C14.39 27.0574 13.9782 26.6462 13.8684 26.3937C13.7342 26.0826 12.9149 24.8668 12.9149 24.8668L14.576 24.147C14.576 24.147 14.8292 24.3953 15.0122 24.4983C15.1952 24.6033 16.6464 24.6765 16.6464 24.6765L17.6768 24.9345C17.6768 24.9345 17.7744 25.0004 17.8653 25.0925C17.969 25.195 18.0647 25.3335 17.9915 25.4427Z" fill="#FAC5A8"/>
<path d="M19.9308 29.6343C19.9308 29.6343 19.9875 29.3988 19.874 29.2268C19.7606 29.0548 19.5416 29.0267 19.4037 29.2841C19.2659 29.5422 19.1207 29.6922 19.2878 29.8075C19.4556 29.9228 19.8795 29.9814 19.8795 29.9814C19.8795 29.9814 19.713 30.1626 19.9741 30.3907C20.2352 30.6183 20.514 30.6122 20.514 30.6122C20.514 30.6122 20.5298 30.9446 20.8342 31.1093C21.1386 31.274 21.4418 30.8812 21.4418 30.8812C21.4418 30.8812 21.4808 30.6055 21.2619 30.5542C21.0429 30.5024 20.7214 30.4206 20.7214 30.4206C20.7214 30.4206 20.7604 30.0034 20.578 29.8868C20.3956 29.7703 20.0461 29.8441 20.0461 29.8441L19.9308 29.6343Z" fill="#FAC5A8"/>
<path d="M21.9585 30.9485C21.9585 30.9485 21.6474 30.7063 21.5272 30.8222C21.407 30.9381 21.4162 31.201 21.4162 31.201C21.4162 31.201 21.5693 31.6305 21.6944 31.6347C21.8194 31.639 22.0396 31.6323 22.0396 31.6323L21.9689 31.3011L21.9585 30.9485Z" fill="#FAC5A8"/>
<path d="M18.3777 4.54958C18.3777 4.54958 18.066 5.51342 17.5688 6.05513C17.0716 6.59683 16.0846 6.39186 15.8467 7.01103C15.6088 7.6296 16.633 9.50542 17.9232 10.1691C19.2134 10.8328 19.6319 9.8934 20.0418 9.14734C20.4517 8.40128 20.7086 6.82376 20.7086 6.82376C20.7086 6.82376 21.321 1.42809 18.3777 4.54958Z" fill="#FAC5A8"/>
<path d="M25.152 4.33908C25.152 4.33908 25.2325 5.05342 24.736 5.92392C24.2394 6.79443 23.8252 7.13848 23.7825 7.1946C23.7398 7.25072 23.6959 8.54764 23.6855 8.64402C23.6751 8.7404 22.9547 8.56411 22.9547 8.56411L22.5051 9.20829C22.5051 9.20829 21.7987 9.99523 21.4052 10.0373C21.0112 10.0794 19.5203 8.91975 19.3385 8.46162C19.1573 8.00411 20.0339 6.88288 20.2657 6.4278C20.4975 5.97272 19.5648 4.82466 19.8015 4.32749C20.0376 3.83032 23.3695 0.605116 25.152 4.33908Z" fill="#FAC5A8"/>
<path d="M19.3202 8.3938C19.3202 8.3938 18.8931 9.08252 18.8931 9.25271C18.8925 9.42291 18.3039 10.1372 18.3002 10.1732C18.2965 10.2092 19.5489 10.7717 19.9003 10.7857C20.2517 10.7997 20.6567 11.0993 21.4089 10.5612C22.161 10.0226 21.9042 9.47171 21.9042 9.47171L20.3084 8.50177L19.3202 8.3938Z" fill="#F8D1BC"/>
<path d="M16.4561 28.4272L16.1785 27.9593C16.1785 27.9593 16.2347 28.1112 15.7302 28.0563C15.2251 28.0014 15.1189 27.7458 15.1189 27.7458C15.1189 27.7458 14.8096 27.6872 14.6992 27.4694C14.6785 27.4292 14.6431 27.3786 14.5974 27.32L14.8109 27.3956L14.8889 27.4042L15.208 27.4755L15.4849 27.8111L15.8821 28.0002L16.0486 27.9203L15.6887 27.1772L16.0163 27.442L16.4561 28.4272Z" fill="#FAC5A8"/>
<path d="M16.9313 25.4778L17.8158 25.5742C17.6542 25.6382 17.4669 25.6297 17.4669 25.6297C17.4669 25.6297 16.6568 25.4814 16.4848 25.8279C16.3127 26.1726 16.888 27.2572 16.888 27.2572L17.2442 28.3425L17.4181 28.5438C17.4181 28.5438 17.3467 28.5828 17.2467 28.617C17.2455 28.617 17.2424 28.6164 17.2406 28.6176C17.1399 28.656 16.9917 27.9423 16.9917 27.9423L16.2231 26.4514L16.1133 25.7871L16.9313 25.4778Z" fill="#FAC5A8"/>
<path d="M17.9915 25.4428C17.9494 25.5056 17.8854 25.5465 17.8152 25.574C17.8305 25.3958 17.8475 25.236 17.8646 25.092C17.9689 25.1951 18.0647 25.3336 17.9915 25.4428Z" fill="#FAC5A8"/>
<path d="M24.4529 5.1753C24.4529 5.1753 23.2188 4.5543 22.9834 4.93007C22.7479 5.30585 22.2513 6.17635 21.9793 6.32886C21.7072 6.48137 21.1686 6.3984 20.9868 6.50638C20.8044 6.61435 20.6256 6.69183 20.6256 6.69183L20.3975 6.44171C20.3975 6.44171 20.9581 5.98603 20.0431 5.78899C19.128 5.59195 19.4233 6.0086 18.7748 5.92807C18.127 5.84755 18.044 5.6133 17.9586 5.4974C17.8732 5.3821 18.4253 2.32771 19.4275 1.39071C20.4298 0.453713 23.253 0.335978 24.3321 1.70609C25.4113 3.07682 25.7419 5.18079 25.5339 5.52302C25.3265 5.86646 25.6474 4.81905 24.4529 5.1753Z" fill="#4A2727"/>
<path d="M15.064 25.0751C14.7755 25.8333 14.0459 26.0444 13.7439 26.0816C13.689 26.0871 13.6481 26.0889 13.6268 26.0865C13.4822 26.0706 12.5775 24.7316 10.5474 22.7045C8.51783 20.6762 7.56864 18.8937 7.60585 18.5521C7.64306 18.2086 8.94852 12.9325 9.54146 11.3355C10.1356 9.74027 11.3117 7.98828 12.0072 7.98706C12.702 7.98523 14.0373 8.59648 13.9538 10.5394C13.869 12.4836 13.1644 14.4314 12.3775 15.7881C11.5917 17.1435 11.0147 18.2483 11.0147 18.2483C11.3874 19.0188 15.0359 23.9551 15.0359 23.9551C15.0359 23.9551 15.4038 24.1826 15.064 25.0751Z" fill="#FF862A"/>
<path d="M13.7445 26.0816C13.6896 26.0871 13.6488 26.0889 13.6274 26.0865C13.4828 26.0706 12.5782 24.7316 10.548 22.7045C8.51846 20.6762 7.56925 18.8937 7.60646 18.5521C7.64367 18.2086 8.94913 12.9325 9.54207 11.3355C10.1362 9.74027 11.3124 7.98828 12.0078 7.98706C10.8671 8.54035 9.3853 12.6135 9.09127 13.6395C8.79724 14.6644 7.71018 18.0622 8.01092 18.8662C8.31166 19.6684 11.1098 22.9119 11.8297 23.8471C12.3671 24.548 13.3065 25.5991 13.7445 26.0816Z" fill="#B87A56"/>
<path d="M20.0851 6.14023C20.0851 6.14023 20.3334 5.46798 19.8454 5.4814C19.3574 5.49543 19.2311 6.1506 19.2134 6.31286C19.1957 6.47513 19.2323 7.19679 19.638 7.10711C20.0431 7.01744 20.0858 6.48672 20.0803 6.46781C20.0742 6.44951 20.0851 6.14023 20.0851 6.14023Z" fill="#FFD4BD"/>
<path d="M24.7988 5.46191C24.7988 5.46191 23.9222 5.46679 23.7258 5.34479C23.5293 5.22278 23.4537 4.9135 22.876 5.60771C22.2983 6.30191 22.4923 6.22261 22.2343 6.441C21.9768 6.65939 21.3314 6.47028 21.0203 6.64597C20.7092 6.82165 20.4786 7.597 20.6269 8.08074C20.7745 8.5651 22.0348 8.47177 22.3307 8.18445C22.6265 7.89713 22.3886 7.84405 22.0952 7.72083C21.8018 7.5976 21.4541 7.44083 21.7761 7.16571C22.0982 6.89059 23.0743 6.72344 23.425 6.77041C23.7758 6.81799 23.9411 6.80823 24.0711 6.70392C24.1998 6.60144 24.7988 5.46191 24.7988 5.46191Z" fill="#FFD4BD"/>
<path d="M23.6141 7.45877C23.6141 7.45877 23.5544 8.30122 23.5135 8.38357C23.4726 8.46592 22.8223 8.44518 22.7924 8.30488C22.7619 8.16457 23.1786 7.85895 23.253 7.76195C23.3274 7.66496 23.5592 7.33921 23.6184 7.30017C23.6764 7.26051 23.6141 7.45877 23.6141 7.45877Z" fill="#FFD4BD"/>
<path d="M38.1998 45.2862C37.8283 45.41 37.3805 45.507 36.8205 45.507C36.1416 45.507 35.2955 45.3612 34.2072 44.9519C32.9731 44.4883 29.5783 42.2416 29.5783 42.2416C29.072 41.9451 28.9909 41.2552 29.438 40.9697L34.1803 37.8982C34.2017 37.8823 34.2285 37.8713 34.2505 37.8549C34.5579 37.7097 34.9618 37.8116 35.2046 38.119C35.2046 38.119 38.0015 40.5384 38.6805 42.1604C39.2185 43.4433 39.0892 44.8824 38.1998 45.2862Z" fill="#89979F"/>
<path d="M33.4434 41.7202L34.9832 41.8746L34.7513 40.998L30.7008 37.2097C30.7008 37.2097 30.4391 37.0578 29.9157 37.5233C29.3923 37.9887 29.7784 38.4896 29.7784 38.4896L33.4434 41.7202Z" fill="#C2C9CD"/>
<path d="M30.6258 37.2932C30.6258 37.2932 29.92 37.5403 29.8498 37.7873C29.7797 38.0344 33.9431 41.4566 33.9431 41.4566L34.6312 41.6488L34.5427 41.1388L30.6258 37.2932Z" fill="#D3D8DB"/>
<path d="M18.4753 15.65C18.5027 15.8556 18.3551 16.0758 18.1465 16.1417C17.9378 16.2076 17.7463 16.0947 17.7194 15.8891C17.692 15.6836 17.8396 15.4633 18.0482 15.3975C18.2569 15.3316 18.4478 15.4444 18.4753 15.65Z" fill="#FF882A"/>
<path d="M13.9422 16.492C13.9696 16.6976 13.822 16.9178 13.6134 16.9837C13.4048 17.0496 13.2132 16.9368 13.1864 16.7312C13.1589 16.5256 13.3065 16.3054 13.5152 16.2395C13.7238 16.1736 13.9153 16.2865 13.9422 16.492Z" fill="#FF882A"/>
<path d="M38.1998 45.2862C37.8283 45.41 37.3805 45.507 36.8205 45.507C36.1416 45.507 35.2955 45.3612 34.2072 44.9519C32.9731 44.4883 29.5783 42.2416 29.5783 42.2416C29.072 41.9451 28.9909 41.2552 29.438 40.9697C29.438 40.9697 32.8005 43.1682 34.0724 43.6477C35.3443 44.1272 37.6508 44.8006 37.6185 42.8772C37.5861 40.9587 34.2505 37.8549 34.2505 37.8549C34.5579 37.7097 34.9618 37.8116 35.2046 38.119C35.2046 38.119 38.0015 40.5384 38.6805 42.1604C39.2185 43.4433 39.0892 44.8824 38.1998 45.2862Z" fill="#C2C9CD"/>
<path d="M32.9072 44.1405L32.5071 43.7209C32.5071 43.7209 32.2344 43.2267 32.3119 43.1444C32.3893 43.062 32.612 42.7918 32.612 42.7918L32.9658 42.427L33.5423 42.2391L34.6299 41.7804L35.1064 41.2393L35.5535 40.8043L37.1054 40.3511L37.3763 40.5811C37.3769 40.5798 34.6245 44.4779 32.9072 44.1405Z" fill="#919191"/>
<path d="M37.3006 40.1335C37.3006 40.1335 37.2268 40.3135 36.859 40.5099C36.6802 40.6051 36.2825 40.4764 36.0769 40.7686C35.4474 41.6623 35.4474 41.6623 35.4474 41.6623L34.4829 42.1564L33.5185 42.415L32.7901 43.1147C32.7901 43.1147 32.8365 44.0078 32.9066 44.1408C32.9774 44.2738 34.5177 44.6733 34.6293 44.7673C34.7409 44.8612 35.3058 45.0729 35.3058 45.0729L36.5527 45.1906L37.4232 45.1669C37.4232 45.1669 37.6587 45.3785 38.176 44.9552C38.6933 44.5318 38.6933 44.7197 38.6933 44.7197V43.4496L38.7171 42.6981L38.6811 41.7532L38.2181 41.0541L37.3006 40.1335Z" fill="#4A2F20"/>
<path d="M37.2122 40.4629C37.2122 40.4629 37.0591 40.5568 36.6003 40.8039C36.1416 41.051 36.1416 41.051 36.1416 41.051L35.8592 41.4158L35.4828 41.9568L34.8593 42.3094L34.0004 42.5211C34.0004 42.5211 34.1767 42.5327 35.0704 42.5797C35.9641 42.6266 35.9641 42.6266 35.9641 42.6266L35.329 43.1439C35.329 43.1439 35.035 43.2379 35.1643 43.4142C35.2937 43.5905 36.4344 43.6613 36.4344 43.6613L35.0582 43.9791L33.4587 43.391L33.4941 43.9083C33.4941 43.9083 35.2821 44.3201 35.376 44.4256C35.4699 44.5318 34.6586 44.7196 35.8347 44.6843C37.0109 44.6489 36.9169 44.6959 36.9169 44.6959L37.9521 44.1901L38.1284 43.6375C38.1284 43.6375 38.8812 43.1549 38.3755 43.1549C37.8698 43.1549 37.4934 43.1549 37.4934 43.1549L37.602 42.6754L37.3 42.1667C37.3 42.1667 36.2465 41.8257 37.0932 41.7787C37.9399 41.7317 37.8222 41.5908 37.9399 41.7317C38.0577 41.8727 38.4573 42.5077 38.4573 42.5077L38.55 41.7317L37.8222 40.9759L37.3751 40.5788L37.2122 40.4629Z" fill="#5A3C2D"/>
<path d="M25.296 57.015H22.9431H19.627L17.6554 56.7307L15.5533 55.5308L11.4069 54.0954L10.6749 52.0835L12.2073 49.9423L12.9149 49.2689L16.4561 48.7424L22.0049 48.0232L27.6092 49.2689L25.296 57.015Z" fill="#CCC0BC"/>
<path d="M23.9381 44.2986C23.7361 44.3059 23.5336 44.3218 23.3323 44.337C23.2756 44.3413 23.2146 44.3474 23.1713 44.3846C23.0913 44.4529 23.1139 44.578 23.1127 44.6835C23.1072 45.0818 22.6832 45.324 22.316 45.479C21.9488 45.6339 21.5211 45.8621 21.4974 46.2598C21.4839 46.4861 21.6139 46.7069 21.5797 46.9308C21.5205 47.3176 20.9007 47.5872 20.6409 47.8684C20.342 48.1917 20.0735 48.5602 19.6685 48.7597C19.5245 48.8304 19.3696 48.8762 19.2232 48.9427C18.5772 49.2367 18.1617 49.9498 18.1733 50.6593C18.1752 50.7624 18.1837 50.8722 18.1343 50.9631C18.0867 51.0503 17.9958 51.1028 17.9098 51.1522C17.2717 51.5207 16.655 51.9361 16.073 52.3881C15.6118 52.7456 15.61 53.2818 15.1647 53.6472C15.0866 53.7113 14.9969 53.7729 14.9615 53.868C14.9048 54.0205 15.0183 54.1907 15.1604 54.2694C15.3026 54.3481 15.4703 54.3658 15.6253 54.4152C16.0535 54.5519 16.3609 54.9148 16.7111 55.1967C17.3766 55.7329 18.23 55.9885 19.0786 56.0855C19.9277 56.1819 20.7855 56.1306 21.6395 56.1178C22.0812 56.1111 22.5301 56.1154 22.9535 56.2404C23.5519 56.4173 24.1229 56.704 24.7164 56.8968C25.3734 57.1103 26.0969 57.028 26.7783 57.0719C27.3054 57.106 27.8355 57.211 28.3577 57.1329C28.8799 57.0548 29.4143 56.7364 29.5436 56.2239C29.6021 55.9915 29.5735 55.739 29.6662 55.5175C29.8132 55.1662 30.2183 55.0015 30.5934 54.9368C30.9686 54.8721 31.3669 54.866 31.7006 54.6824C32.2179 54.3981 32.4467 53.7649 32.9249 53.419C33.2318 53.1976 33.6143 53.1134 33.9565 52.9506C34.2981 52.7877 34.6281 52.4894 34.6293 52.1105C34.6306 51.5566 34.0272 51.3987 33.7668 51.0088C33.3764 50.4244 33.0616 49.7516 32.7053 49.1409C32.6266 49.0061 32.5467 48.8695 32.4314 48.7646C32.318 48.6609 32.1764 48.5931 32.0343 48.534C30.8118 48.0277 29.3118 48.0136 28.4022 47.0522C28.0008 46.6283 27.7684 46.0628 27.3499 45.6553C27.0992 45.4106 26.7918 45.2337 26.488 45.0587C25.9938 44.775 25.4906 44.4871 24.9336 44.3669C24.606 44.2967 24.2723 44.2864 23.9381 44.2986Z" fill="#4A2F20"/>
<path d="M26.3098 56.6673C26.685 56.8503 27.1285 56.8424 27.5366 56.8607C27.8099 56.8729 28.0362 56.7167 28.29 56.6435C28.5321 56.5734 28.7902 56.6685 28.9939 56.4818C29.0257 56.4532 29.0543 56.4172 29.0598 56.3751C29.0635 56.3446 29.0549 56.3123 29.0671 56.2842C29.0751 56.2659 29.0909 56.2519 29.1044 56.2372C29.1788 56.1585 29.205 56.0371 29.1702 55.9347C29.1611 55.9072 29.1464 55.8798 29.1227 55.8633C29.0928 55.8425 29.0537 55.8419 29.0171 55.8425C28.9451 55.8432 28.7932 55.8743 28.731 55.8352C28.6853 55.8065 28.6639 55.7071 28.6328 55.6626C28.5382 55.5259 28.3918 55.4332 28.2631 55.332C28.0148 55.1367 27.7641 54.7292 27.7654 54.4047C27.7666 54.1802 27.8678 53.9838 27.9892 53.8795C28.1106 53.7758 28.2503 53.7465 28.3864 53.7197C28.6115 53.6745 29.4521 54.3675 29.6772 54.3224C29.4374 53.9027 29.2245 53.4427 29.0421 52.9522C29.2453 52.7924 29.449 52.6326 29.6528 52.4734C29.3441 51.8127 28.9146 51.3064 28.4345 51.0355C28.9884 50.9172 29.5472 50.7989 30.1036 50.8837C30.7978 50.9892 31.4584 51.4077 32.1112 51.8115C32.2393 51.8908 32.3777 51.9713 32.5107 51.9164C32.6437 51.8615 32.7535 51.6084 32.6888 51.4107C32.6602 51.3229 32.6053 51.2674 32.5528 51.2173C32.357 51.0307 32.1551 50.8611 31.9483 50.7092C32.0068 50.6268 32.0648 50.5439 32.1234 50.4615C31.8598 50.1882 31.6963 49.7197 31.4554 49.3952C31.1083 48.9273 30.6318 48.8022 30.1829 48.8321C30.0121 48.8437 29.8376 48.8736 29.6729 48.7998C29.5545 48.7467 29.4484 48.6424 29.338 48.5552C28.9854 48.2782 28.5919 48.1794 28.2052 48.0836C28.2735 47.9775 28.1728 47.8103 28.0862 47.7487C27.6214 47.4169 27.1565 47.0844 26.6923 46.752C26.6197 46.7001 26.5416 46.6397 26.5063 46.5244C26.4739 46.4207 26.4843 46.2969 26.4703 46.1828C26.4282 45.8394 26.1927 45.6753 25.9896 45.5673C25.6467 45.3849 25.3289 45.1311 24.9653 45.1269C24.5347 45.1214 24.104 45.1744 23.6788 45.2842C23.7514 45.3391 23.8246 45.3934 23.8972 45.4483C23.9692 45.502 24.0466 45.5655 24.079 45.6832C24.1198 45.8333 24.0698 46.0102 24.0009 46.1303C23.763 46.5433 23.3646 46.5195 23.02 46.4646C23.1115 46.4701 23.203 46.4762 23.2945 46.4823C23.0846 46.4512 22.876 46.3933 22.6716 46.3097C22.6582 46.3042 22.6448 46.2987 22.6314 46.2926C22.6094 46.5439 22.5966 46.8392 22.7095 47.013C22.7711 47.1076 22.8577 47.1436 22.9401 47.1735C23.1975 47.268 23.4574 47.3467 23.7178 47.409C23.6062 47.4248 23.4946 47.4413 23.3829 47.4571C23.4592 47.451 23.5068 47.5981 23.5086 47.7237C23.5104 47.8488 23.4879 47.9787 23.5129 48.0971C23.5659 48.3478 23.7746 48.3655 23.9173 48.4911C23.9405 48.5113 23.9631 48.5369 23.9759 48.5747C24.0381 48.7577 23.8191 48.9535 23.8728 49.1426C23.5952 48.9121 23.2951 48.7553 22.987 48.6809C22.901 48.8083 23.0273 49.0304 23.0151 49.2189C23.0108 49.286 22.9876 49.3458 22.9791 49.4111C22.948 49.6435 23.0926 49.8326 23.2243 49.9314C23.3561 50.0302 23.5135 50.1364 23.5488 50.367C23.6635 51.1167 22.6966 50.7385 22.5106 50.6488C22.7888 51.2863 23.1249 51.8566 23.5031 52.3355C23.2615 52.599 23.0194 52.8626 22.7778 53.1261C22.7095 53.2005 22.6375 53.2823 22.6058 53.4067C22.524 53.7282 22.7546 54.0204 22.9529 54.1479C23.3951 54.4334 23.8636 54.6097 24.3376 54.6701C24.3498 55.0745 24.3681 55.5083 24.5206 55.8273C24.7055 56.2134 25.03 56.3184 25.3265 56.3964C25.407 56.4178 25.4509 56.3952 25.4759 56.3501C25.892 56.3068 26.3556 56.2696 26.7734 56.2854C26.6392 56.4343 26.4825 56.5636 26.3098 56.6673Z" fill="#5A3C2D"/>
<path d="M21.2795 56.5654C21.2082 56.566 21.1197 56.5776 21.0953 56.6447C21.0746 56.7014 21.1142 56.7612 21.1551 56.8057C21.4113 57.0864 21.7816 57.2401 22.1549 57.3108C22.4349 57.3639 22.7204 57.3743 23.0053 57.3847C23.3231 57.3962 23.6416 57.4078 23.9594 57.4194C23.9216 57.1846 23.3658 56.6374 23.1944 56.5691C22.7137 56.3763 21.8005 56.5654 21.2795 56.5654Z" fill="#4A2F20"/>
<path d="M35.0143 52.9134C34.8459 52.9226 34.7288 53.0171 34.5696 53.0964C34.4231 53.169 33.9443 53.2611 33.998 53.5045C34.0224 53.6174 34.1645 53.6516 34.2792 53.6595C34.4537 53.6717 34.6287 53.6741 34.8032 53.668C35.1015 53.657 35.6261 52.983 35.1082 52.9171C35.0753 52.9128 35.0442 52.9116 35.0143 52.9134Z" fill="#5A3C2D"/>
<path d="M37.9125 53.5451C37.76 53.2779 37.1146 53.3255 36.8919 53.4737C36.5955 53.6714 36.5503 54.0405 36.9627 54.0801C37.2689 54.1094 37.5788 54.0978 37.882 54.0472C37.9015 54.0441 37.9223 54.0398 37.9369 54.0264C37.9546 54.0106 37.9595 53.9862 37.9631 53.9624C37.9863 53.8215 37.9833 53.6689 37.9125 53.5451Z" fill="#4A2F20"/>
<path d="M29.4874 57.1632C29.4325 57.1882 29.3734 57.2169 29.3453 57.27C29.3014 57.3517 29.352 57.4585 29.4313 57.5073C29.51 57.5561 29.6076 57.5609 29.7003 57.5628C30.0938 57.5689 30.486 57.5304 30.8777 57.492C30.9332 57.4865 30.9936 57.4792 31.0345 57.4414C31.0747 57.4042 31.0875 57.3468 31.0979 57.2931C31.3096 56.225 29.9059 56.9723 29.4874 57.1632Z" fill="#4A2F20"/>
</svg>
