<svg width="72" height="64" viewBox="0 0 72 64" fill="none" xmlns="http://www.w3.org/2000/svg">
<path d="M72 44.6L65.55 48.35L59.7 44.9L42.3 54.95L46.5 57.5V59.45L40.2 63.2L34.2 59.75L30.9 61.55L24.45 57.95V56L26.1 54.95L22.65 56.9L16.35 53.15V51.2L18 50.3L17.85 50.15L14.55 52.25L8.1 48.5V46.55L15 42.5L6.45 47.45L0 43.85V41.75L40.2 18.5L46.5 22.25V24.2L43.35 26L48.3 23.15L54.75 26.9V28.85L51.45 30.8L56.55 27.95L62.85 31.55V33.5L59.55 35.45L59.7 35.6L64.65 32.6L70.95 36.35V38.3L67.65 40.25L72 42.65V44.6Z" fill="#DBA660"/>
<path d="M10.95 46.1001L40.2 63.2001V61.2501L14.25 46.1001H10.95Z" fill="#BF7D5A"/>
<path d="M40.2 61.2502V63.2002L46.5 59.4502V57.5002L40.2 61.2502Z" fill="#AA6256"/>
<path d="M15 39.2002V46.1002H14.25L40.2 61.2502L46.5 57.5002L15 39.2002Z" fill="#DBA660"/>
<path d="M36.45 31.4001L65.55 48.3501V46.4001L39.75 31.4001H36.45Z" fill="#BF7D5A"/>
<path d="M65.55 46.4001V48.3502L72 44.6002V42.6501L65.55 46.4001Z" fill="#AA6256"/>
<path d="M40.5 24.3501V31.4001H39.75L65.55 46.4001L72 42.6501L40.5 24.3501Z" fill="#DBA660"/>
<path d="M46.5 22.25V24.2L6.45001 47.45V45.5L46.5 22.25Z" fill="#BF7D5A"/>
<path d="M6.45 45.5V47.45L0 43.85V41.75L6.45 45.5Z" fill="#AA6256"/>
<path d="M46.5 22.25L6.45 45.5L0 41.75L40.2 18.5L46.5 22.25Z" fill="#DBA660"/>
<path d="M54.75 26.8999V28.8499L14.55 52.2499V50.1499L54.75 26.8999Z" fill="#BF7D5A"/>
<path d="M14.55 50.1498V52.2498L8.10001 48.4998V46.5498L14.55 50.1498Z" fill="#AA6256"/>
<path d="M54.75 26.8999L14.55 50.1499L8.10001 46.5499L48.3 23.1499L54.75 26.8999Z" fill="#DBA660"/>
<path d="M62.85 31.55V33.5L22.65 56.9V54.95L62.85 31.55Z" fill="#BF7D5A"/>
<path d="M22.65 54.95V56.9L16.35 53.15V51.2L22.65 54.95Z" fill="#AA6256"/>
<path d="M62.85 31.55L22.65 54.95L16.35 51.2L56.55 27.95L62.85 31.55Z" fill="#DBA660"/>
<path d="M70.95 36.3501V38.3001L30.9 61.5501V59.6001L70.95 36.3501Z" fill="#BF7D5A"/>
<path d="M30.9 59.6V61.55L24.45 57.95V56L30.9 59.6Z" fill="#AA6256"/>
<path d="M70.95 36.3501L30.9 59.6001L24.45 56.0001L64.65 32.6001L70.95 36.3501Z" fill="#DBA660"/>
<path d="M64.2 15.95V33.05L27.15 54.65L4.95001 41.9L5.10001 24.65L42.15 3.19995L64.2 15.95Z" fill="#C9CEE2"/>
<path d="M64.2 15.95V33.05L27.15 54.65V37.55L64.2 15.95Z" fill="#C9CEE2"/>
<path d="M27.15 37.5499V54.6499L4.95001 41.8999L5.10001 24.6499L27.15 37.5499Z" fill="#B0B8CF"/>
<path d="M64.2 15.95L27.15 37.55L5.10001 24.65L42.15 3.19995L64.2 15.95Z" fill="#E3E7F0"/>
<path opacity="0.5" d="M46.95 26.15L36.6 18.95L49.95 11L58.35 19.55L46.95 26.15Z" fill="#C9CEE2"/>
<path opacity="0.5" d="M30.15 35.7501L19.8 28.7001L33 20.6001L41.55 29.1501L30.15 35.7501Z" fill="#C9CEE2"/>
<path d="M54.9 1.10005L53.85 0.800049L42.15 7.70005L51.75 44.6001L52.8 44.75L64.5 38L54.9 1.10005Z" fill="#D3D9E5"/>
<path d="M37.05 10.7L25.2 17.45L34.95 54.35L35.85 54.65L47.7 47.75L38.1 11L37.05 10.7Z" fill="#D3D9E5"/>
<path d="M52.8 44.75L51.75 44.6L42.15 7.69995L43.05 7.99995L52.8 44.75Z" fill="#9EA9C9"/>
<path d="M43.05 8.00005L42.15 7.70005L53.85 0.800049L54.9 1.10005L43.05 8.00005Z" fill="#B0B8CF"/>
<path d="M54.9 1.1001L64.5 38.0001L52.8 44.7501L43.05 8.0001L54.9 1.1001Z" fill="#D3D9E5"/>
<path d="M35.85 54.65L34.95 54.35L25.2 17.45L26.25 17.75L35.85 54.65Z" fill="#9EA9C9"/>
<path d="M26.25 17.75L25.2 17.4499L37.05 10.7L38.1 11L26.25 17.75Z" fill="#B0B8CF"/>
<path d="M38.1 11L47.7 47.75L35.85 54.65L26.25 17.75L38.1 11Z" fill="#D3D9E5"/>
</svg>
