<svg width="47" height="68" viewBox="0 0 47 68" fill="none" xmlns="http://www.w3.org/2000/svg">
<path d="M27.9628 16.937V51.7236L25.7806 52.9926L16.4382 58.4307L0 68V16.27L27.9564 0L27.9628 16.937Z" fill="#D7D3C2"/>
<path d="M20.6702 46.8214V55.622L14.1907 59.3924V50.594L20.6702 46.8214Z" fill="#0D9E35"/>
<path d="M13.7427 50.8531V59.6538L7.26245 63.4249V54.6265L13.7427 50.8531Z" fill="#1FAB46"/>
<path d="M27.5978 42.7891V51.5897L21.1183 55.3608V46.5624L27.5978 42.7891Z" fill="#1FAB46"/>
<path d="M6.75072 54.9421V63.7427L0.270508 67.5132V58.7147L6.75072 54.9421Z" fill="#25C952"/>
<path d="M20.6702 37.5551V46.3557L14.1907 50.1261V41.3277L20.6702 37.5551Z" fill="#25C952"/>
<path d="M13.7427 41.5866V50.3872L7.26245 54.1584V45.3599L13.7427 41.5866Z" fill="#1FAB46"/>
<path d="M27.5978 33.5226V42.3232L21.1183 46.0944V37.2959L27.5978 33.5226Z" fill="#1FAB46"/>
<path d="M6.75072 45.6756V54.4762L0.270508 58.2467V49.4482L6.75072 45.6756Z" fill="#0D9E35"/>
<path d="M13.7427 32.321V41.1217L7.26245 44.8921V36.0937L13.7427 32.321Z" fill="#0D9E35"/>
<path d="M27.5978 24.257V33.0576L21.1183 36.828V28.0296L27.5978 24.257Z" fill="#0D9E35"/>
<path d="M6.75072 36.4093V45.2099L0.270508 48.9804V40.1819L6.75072 36.4093Z" fill="#25C952"/>
<path d="M44.7116 66.6208C44.7116 66.6208 44.1225 67.4238 42.4198 67.3523C40.7171 67.2807 30.2417 65.4291 30.2417 65.4291C30.2417 65.4291 23.3592 62.9491 22.3493 62.8332C21.3394 62.7101 16.4381 58.4307 16.4381 58.4307L25.7805 52.9919L25.7741 56.2613L33.932 61.6866L43.3975 63.4215L44.7116 66.6208Z" fill="#CCC0BC"/>
<path d="M25.8457 31.1549L25.7813 52.9926L16.4389 58.4314C16.4389 58.4314 16.0896 46.5961 16.0632 46.0979C16.0374 45.5926 16.0632 44.5054 16.0632 44.5054C16.0632 44.5054 9.686 36.8142 9.3038 36.4127C8.91516 36.0047 6.97339 31.5114 6.97339 31.5114L8.48215 29.9382L15.4097 34.8331L17.2548 28.8245L18.3814 26.0017L15.7396 24.2603L14.1164 21.3953L20.1228 23.9497L25.8457 31.1549Z" fill="#919191"/>
<path d="M33.7587 55.3887L34.4215 56.0357C34.4215 56.0357 34.5296 56.5596 34.5296 56.6985C34.5296 56.8373 34.1037 57.4686 33.6464 57.6382C33.189 57.8078 31.7719 57.8386 31.7719 57.8386L30.077 57.4686C30.077 57.4686 30.8579 56.312 31.4634 56.0665C32.0689 55.821 33.7587 55.3887 33.7587 55.3887Z" fill="#2F2720"/>
<path d="M33.6464 54.3869C33.6464 54.3869 34.3758 55.6502 34.4216 56.0352C34.4681 56.4203 33.6207 56.9592 33.1118 57.1138C32.6036 57.2677 30.1845 56.8826 30.0148 56.8826C29.8452 56.8826 29.8445 55.0031 29.8445 55.0031L33.6464 54.3869Z" fill="#D6A94F"/>
<path d="M35.7463 47.9473C35.5151 48.711 34.317 50.1088 34.317 50.1088L33.1339 52.1071C33.1339 52.1071 33.2076 52.3104 33.3135 52.601C33.5612 53.2981 33.977 54.4962 33.9441 54.6272C33.8976 54.8119 32.9049 55.7366 32.5799 55.7366C32.4983 55.7366 32.3251 55.7216 32.1083 55.6994C31.8141 55.67 31.4462 55.6257 31.1299 55.5884C30.7527 55.5419 30.4535 55.5033 30.4535 55.5033L25.5171 50.277L24.4986 49.1977L23.1287 47.7483C23.1287 47.7483 21.2485 46.0843 21.1261 44.5133C21.0875 44.0158 21.1705 43.5742 21.3279 43.197C21.6679 42.3818 22.3579 41.8679 22.9219 41.7405C23.7442 41.5559 28.9211 42.0476 28.9211 42.0476C28.9211 42.0476 35.9317 41.9402 35.586 45.1517C35.586 45.1517 35.6196 45.3235 35.6597 45.5861C35.7613 46.226 35.9109 47.4055 35.7463 47.9473Z" fill="#355FA3"/>
<path d="M30.4313 45.7044C30.4313 45.7044 27.758 49.5665 25.5171 50.2765L24.4986 49.1971L23.1287 47.7478C23.1287 47.7478 21.2485 46.0837 21.1261 44.5127C21.0875 44.0153 21.1705 43.5737 21.3279 43.1965C21.3652 43.2688 21.4167 43.3296 21.4868 43.3718C21.9728 43.671 23.2432 43.165 24.2381 43.3718C25.2322 43.5787 30.4313 45.7044 30.4313 45.7044Z" fill="#6C91C4"/>
<path d="M41.863 60.5649C41.863 60.5649 43.0805 60.5191 43.3882 60.5649C43.6967 60.6114 44.2665 60.7553 44.2665 60.7553C44.2665 60.7553 44.2815 63.2303 44.5742 63.5846C44.8669 63.9389 45.4216 65.8491 45.4216 65.8491C45.4216 65.8491 45.252 66.6042 44.7131 66.6193C44.1741 66.635 43.7268 66.635 43.6423 66.542C43.5579 66.4496 42.9259 64.7398 42.4327 64.4928C41.9396 64.2466 40.7844 63.3835 40.7844 63.3835L41.863 60.5649Z" fill="#D6A94F"/>
<path d="M42.9566 60.4949C42.9566 60.4949 42.9566 60.4949 42.6552 60.565C42.5736 60.5836 42.4928 60.6516 42.4183 60.7554C42.2244 61.0288 42.0784 61.5542 42.0784 62.0902C42.0784 62.451 42.0726 63.098 42.0504 63.6691C42.0283 64.2682 41.9875 64.7821 41.9152 64.795C41.7785 64.8172 39.652 65.3497 39.3507 65.4177C39.0494 65.4864 34.7285 65.1643 33.9892 65.072C33.2498 64.9796 28.5353 64.1701 28.0973 64.0549C27.6571 63.9383 26.6408 62.9677 26.3409 62.6206C26.0396 62.2749 24.9767 58.2539 24.8379 56.4052C24.7047 54.6381 24.3662 49.6902 24.3369 49.2637C24.3347 49.2436 24.3347 49.2343 24.3347 49.2343L24.4972 49.1971L32.7188 47.3591L33.9205 47.0907L34.4508 49.2336C34.4508 49.2336 34.4007 49.6308 34.3156 50.1082C34.2118 50.7037 34.0529 51.423 33.8718 51.637C33.7458 51.7902 33.5318 52.1659 33.3114 52.6004C32.9693 53.2717 32.6071 54.0812 32.5091 54.4176C32.4539 54.6137 32.2908 55.1219 32.1061 55.6988C31.7676 56.7509 31.3539 58.0227 31.3539 58.0227L31.5607 58.5774L37.4326 59.7112C37.4326 59.7112 41.4299 59.7112 41.5 59.7112C41.5702 59.7112 42.9566 60.4949 42.9566 60.4949Z" fill="#355FA3"/>
<path d="M43.789 61.0582C43.789 61.0582 43.2808 61.5821 43.4189 62.5061C43.5578 63.4301 44.2506 64.7864 44.2506 64.7864C44.2506 64.7864 44.5276 66.512 44.713 66.6201C44.8976 66.7282 45.5912 66.0654 45.7451 65.9115C45.8989 65.7577 46.1301 64.8179 46.1301 64.6483C46.1301 64.4786 45.5289 63.2769 45.4989 63.2311C45.4681 63.1846 45.0673 61.9371 45.0673 61.552C45.0673 61.1663 44.5126 59.9338 43.789 61.0582Z" fill="#2F2720"/>
<path d="M42.0512 63.669C42.029 64.2681 41.9882 64.782 41.916 64.7949C41.7793 64.8171 39.6528 65.3496 39.3515 65.4176C39.0502 65.4863 34.7293 65.1642 33.99 65.0719C33.2506 64.9795 28.5361 64.17 28.0981 64.0548C27.6579 63.9381 26.6416 62.9676 26.3417 62.6205C26.0404 62.2748 24.9775 58.2538 24.8387 56.4051C24.7055 54.638 24.367 49.6901 24.3376 49.2635L25.3783 49.5334L25.593 54.3109C25.593 54.3109 26.2715 56.1596 26.4877 56.2598C26.7024 56.3614 27.0109 59.8871 27.0109 59.8871V62.322L28.2126 63.1852L31.4792 63.8931L35.1766 64.5401L38.2271 64.2939L42.0512 63.669Z" fill="#6C91C4"/>
<path d="M42.9565 60.4949C42.9565 60.4949 42.9565 60.4949 42.6552 60.565C42.5736 60.5836 42.4927 60.6516 42.4183 60.7554C41.0742 60.3467 38.3143 60.6666 37.3638 60.5335C36.2544 60.3804 35.1766 59.6088 33.6456 59.3633C32.1147 59.1178 31.6931 59.3318 31.6602 59.3318C31.6251 59.3318 29.8451 60.1635 29.8451 60.1635C29.8451 60.1635 30.3389 59.4871 30.8006 59.0856C31.263 58.6841 31.2944 56.5584 31.2944 56.2585C31.2944 56.1125 31.2128 55.8333 31.1298 55.5871C31.0432 55.3302 30.9545 55.1104 30.9545 55.1104C30.9545 55.1104 31.263 54.7404 31.4168 54.4319C31.5721 54.1249 31.7869 53.6926 31.7869 53.6926V53.0456C31.7869 53.0456 33.0201 51.6592 33.3894 50.8898C33.7594 50.1189 32.8032 48.5787 32.8032 48.5787C32.7273 48.1056 32.7016 47.7026 32.7202 47.3584C32.8197 45.5376 34.1638 45.4266 35.6597 45.5834C35.7613 46.2247 35.9109 47.4042 35.7463 47.946C35.5151 48.7097 34.317 50.1075 34.317 50.1075C34.2132 50.703 34.0543 51.4223 33.8732 51.6363C33.7472 51.7895 33.5332 52.1652 33.3128 52.5997C33.5604 53.2968 33.9763 54.4949 33.9434 54.6259C33.8968 54.8106 32.9041 55.7353 32.5792 55.7353C32.4976 55.7353 32.3244 55.7202 32.1075 55.6981C31.769 56.7502 31.3553 58.022 31.3553 58.022L31.5621 58.5767L37.434 59.7104C37.434 59.7104 41.4313 59.7104 41.5015 59.7104C41.5702 59.7112 42.9565 60.4949 42.9565 60.4949Z" fill="#6C91C4"/>
<path d="M17.4144 22.091L16.932 31.1543L8.33752 31.0333L8.81993 21.9722L17.4144 22.091Z" fill="#25C952"/>
<path d="M25.8327 27.2872L24.7234 26.9865C24.7234 26.9865 22.2505 25.4842 20.9565 23.7744C19.87 22.7809 18.8071 22.1339 18.8071 22.1339L17.3513 21.3251C17.3513 21.3251 15.2485 20.9093 15.2135 20.9207C15.1791 20.9322 14.2079 20.8513 14.1735 20.8513C14.1392 20.8513 14.0461 20.9093 14.0461 20.9093C14.0461 20.9093 13.9538 21.071 13.9881 21.187C14.0225 21.3022 14.1155 21.3953 14.1155 21.3953L14.5664 21.557C14.5664 21.557 14.4856 21.7302 15.1097 21.9271C15.7338 22.1232 17.3628 22.8747 17.4208 22.909C17.4787 22.9434 17.4208 23.3249 17.4208 23.3249L17.0744 23.5095L16.1496 23.4866C16.1496 23.4866 15.6293 23.579 15.5835 23.6255C15.537 23.672 15.4103 24.0707 15.4103 24.0707C15.4103 24.0707 15.7452 24.2496 16.0229 24.2038C16.3007 24.1573 16.8317 24.2847 16.8317 24.2847C16.8317 24.2847 17.5596 24.5853 18.0914 24.5738C18.6232 24.5624 18.6346 24.3655 18.8887 24.3892C19.1428 24.4121 20.079 26.1341 20.8491 27.2893C21.6192 28.4445 23.0371 30.0778 23.1752 30.2317C23.3141 30.3855 26.7496 31.1564 28.0594 31.1564C29.3684 31.1542 29.4608 28.0573 25.8327 27.2872Z" fill="#FCC7AA"/>
<path d="M14.565 21.5951C14.5665 21.5793 14.5672 21.5657 14.5658 21.5557C14.5658 21.5557 14.56 21.57 14.565 21.5951Z" fill="#FCC7AA"/>
<path d="M17.166 21.7752L17.4666 21.7172L14.0462 20.9084C14.0462 20.9084 14.0283 20.9414 14.0111 20.9865C14.9029 21.1876 17.166 21.7752 17.166 21.7752Z" fill="#FAD3BE"/>
<path d="M15.1211 21.544L17.5131 22.1682L15.1096 21.4517L14.1162 21.3937L14.5671 21.5555C14.56 21.4932 15.1211 21.544 15.1211 21.544Z" fill="#FAD3BE"/>
<path d="M17.4208 23.3234L17.1252 23.4808C17.2282 23.4959 17.3048 23.508 17.3048 23.508C17.3048 23.508 17.6283 23.3692 17.6863 23.2883C17.7443 23.2074 18.0442 23.0457 18.0442 23.0457C18.0442 23.0457 17.0965 22.5375 16.831 22.4215C16.5655 22.3063 14.7139 21.7559 14.7139 21.7559C14.7947 21.8067 14.9193 21.8647 15.109 21.9248C15.7331 22.1209 17.3621 22.8725 17.42 22.9068C17.478 22.9426 17.4208 23.3234 17.4208 23.3234Z" fill="#FAD3BE"/>
<path d="M25.8327 27.2871L24.7234 26.9865C24.7234 26.9865 22.2505 25.4841 20.9565 23.7743C20.5728 23.4228 20.1928 23.1165 19.8607 22.8653C19.8693 22.8753 20.8183 23.994 20.8298 24.0291C20.8412 24.0634 21.2456 25.1964 21.2456 25.1964L22.02 25.9014L22.0544 26.8405L22.632 28.5496C22.632 28.5496 23.4637 29.2059 23.5682 29.3212C23.6719 29.4364 23.4529 29.8415 23.4529 29.8415L22.9219 29.4021C22.9219 29.4021 21.9628 28.5009 21.5348 27.9577C21.1075 27.4145 20.0096 25.5078 19.9516 25.3811C19.8936 25.2537 19.7669 24.792 19.9051 24.5952C20.0439 24.3991 19.7898 24.1794 19.7898 24.1794L18.9811 24.067L17.8717 24.2946C17.8717 24.2946 17.0049 24.1443 16.8088 24.0405C16.6127 23.9367 16.1503 24.1214 15.7545 24.0405C15.532 23.9947 15.4761 23.9367 15.469 23.8952C15.4368 23.9883 15.4103 24.0699 15.4103 24.0699C15.4103 24.0699 15.7452 24.2488 16.0229 24.203C16.3006 24.1565 16.8317 24.2839 16.8317 24.2839C16.8317 24.2839 17.5596 24.5845 18.0914 24.573C18.6232 24.5616 18.6346 24.3647 18.8887 24.3884C19.1428 24.4113 20.079 26.1333 20.8491 27.2885C21.6192 28.4437 23.0371 30.077 23.1752 30.2309C23.3141 30.3847 26.7496 31.1556 28.0594 31.1556C29.3684 31.1542 29.4608 28.0572 25.8327 27.2871Z" fill="#FAD3BE"/>
<path d="M25.301 36.346C25.301 36.346 25.0219 36.749 24.6833 37.2264C24.2303 37.8641 23.6699 38.6349 23.5296 38.7494C23.2819 38.9491 21.7567 40.2288 21.1262 40.659C20.4942 41.0913 18.5066 42.4612 17.5504 42.3395C16.5963 42.2157 15.3781 40.7978 14.3002 39.7514C13.2223 38.7029 10.3143 34.4973 10.3143 34.4973C10.3143 34.4973 8.53432 32.9033 8.41909 32.8554C8.30243 32.811 7.29898 31.4576 7.29898 31.4576L6.97332 30.5923L7.05491 30.1635C7.05491 30.1635 6.82373 29.6332 6.82373 29.5273C6.82373 29.5108 6.83089 29.4958 6.84234 29.4829C6.89602 29.4163 7.06636 29.4013 7.06636 29.4013L6.97403 28.9726C6.97403 28.9726 6.98692 28.9468 7.00696 28.9081V28.906C7.05849 28.8044 7.15654 28.6154 7.20665 28.5582C7.27536 28.4787 7.64467 28.8931 7.64467 28.8931C7.64467 28.8931 7.65183 28.8745 7.66471 28.8452C7.6869 28.7915 7.72913 28.6992 7.78281 28.6161C7.8143 28.566 7.9009 28.5553 7.99538 28.561C8.14139 28.5682 8.30243 28.6161 8.30243 28.6161L9.9665 30.3833C9.9665 30.3833 10.5212 30.7418 10.7302 30.8342C10.937 30.9265 11.4588 31.1541 11.4588 31.1541C11.6878 31.2149 11.8396 31.8383 11.8396 31.8383C11.8396 31.8383 12.3241 33.2727 12.4408 33.4688C12.5188 33.6019 12.8845 34.0643 13.2839 34.5574L13.286 34.5595C13.2882 34.5631 13.2989 34.5746 13.3154 34.5946C13.495 34.8165 13.6811 35.0441 13.85 35.2474C13.9238 35.3361 14.044 35.4585 14.1957 35.6002C15.1942 36.5357 17.594 38.4137 17.594 38.4137C17.594 38.4137 18.0099 37.9979 18.1265 37.8462C18.1859 37.7703 18.6368 37.2915 19.0691 36.8384C19.0763 36.8291 19.0806 36.8255 19.0806 36.8255C19.4943 36.3911 19.8829 35.986 19.8829 35.986L25.301 36.346Z" fill="#FCC7AA"/>
<path d="M35.9575 46.2382C35.7807 46.5438 35.4958 46.9103 35.1566 47.2975C34.5181 48.0375 33.7036 48.852 33.1131 49.4704C32.2099 50.4209 29.0457 51.969 26.6422 51.5754C26.4726 51.5417 26.3166 51.5009 26.1742 51.4602C24.6869 50.9985 24.4972 50.0953 24.4972 50.0953L23.7027 45.7293L23.6619 45.4981L22.9219 38.4024L23.1259 34.41L23.2683 31.5586V31.0361C23.2683 31.0361 24.5988 29.3656 24.7012 29.2096C24.8028 29.0464 25.462 28.2927 25.462 28.2927C25.462 28.2927 26.9421 26.5542 27.567 26.1269C27.9678 25.8485 28.5246 25.4613 28.9862 25.2101C29.2511 25.0676 29.4887 24.9789 29.6447 24.9789C30.0863 24.9789 31.6344 25.1421 32.4218 26.1262C33.2091 27.1039 33.9019 30.1049 33.8747 33.0859C33.8546 36.067 33.5762 36.9695 34.0171 38.1512C34.1323 38.4632 34.3363 38.9048 34.574 39.3801C35.2188 40.697 36.102 42.3339 36.0748 42.5372C36.0255 42.8156 36.4599 45.3621 35.9575 46.2382Z" fill="#F9551A"/>
<path d="M29.2891 25.1564C29.2891 25.1564 30.6754 25.1277 30.6754 26.7124C30.6754 28.297 30.0248 35.1308 29.9826 36.0992C29.9404 37.0675 29.5625 42.6123 29.5625 42.6123L30.6761 41.6976C30.6761 41.6976 30.7892 34.9776 30.9875 33.957C31.1857 32.9364 31.6667 26.7124 31.6381 26.5427C31.6095 26.3731 31.3346 25.4112 30.8078 25.1564C30.2789 24.9016 29.3456 24.845 29.2891 25.1564Z" fill="#355FA3"/>
<path d="M35.9575 46.2382C35.7807 46.5438 35.4958 46.9103 35.1566 47.2975C34.5181 48.0375 33.7036 48.852 33.1132 49.4704C32.2099 50.4209 29.0457 51.969 26.6423 51.5754C26.4726 51.5418 26.3166 51.501 26.1742 51.4602C24.6869 50.9985 24.4972 50.0953 24.4972 50.0953L23.7028 45.7293C23.8996 45.6613 24.1036 45.6549 24.314 45.7086C26.1334 46.1774 28.4695 45.199 28.8904 44.5069C29.3048 43.8076 29.2368 41.9331 31.097 40.4057C32.9707 38.8848 33.8131 39.3801 33.8131 39.3801H34.574C35.2188 40.697 36.1021 42.3339 36.0749 42.5372C36.0255 42.8156 36.4599 45.3622 35.9575 46.2382Z" fill="#355FA3"/>
<path d="M35.9554 46.2368C35.78 46.5417 35.493 46.9082 35.1552 47.2982L35.3306 46.7364C35.3306 46.7364 34.992 45.5383 34.8074 45.1281C34.6206 44.718 35.4844 43.5564 35.4844 43.5564C35.4844 43.5564 35.1144 41.5545 35.0851 41.3992C35.0536 41.246 34.005 40.9075 34.005 40.9075L33.6465 42.5401L32.8091 43.6917C32.8184 43.6766 32.8277 43.6623 32.8348 43.6494C33.3287 42.7863 33.1955 40.4752 33.1955 40.4752V39.2699C33.1955 39.2699 32.8348 38.7188 32.497 37.4362C32.157 36.1529 31.9108 33.2656 31.9108 33.2656L32.8355 35.4493C32.8355 35.4493 33.3587 35.0535 33.3587 34.9984C33.3587 34.9433 33.3294 33.728 33.2979 33.2664C33.2664 32.804 32.867 29.7242 32.867 29.4021C32.867 29.0822 32.1885 26.5807 31.7877 26.1262C31.5587 25.8657 30.1422 25.5272 28.9871 25.2151C29.2533 25.0727 29.4881 24.9782 29.647 24.9782C30.085 24.9782 31.6345 25.1464 32.4204 26.1262C33.2063 27.1039 33.8991 30.1086 33.8755 33.0903C33.8533 36.0706 33.5756 36.9724 34.0158 38.1505C34.4538 39.3279 36.1179 42.2638 36.0713 42.5415C36.0241 42.817 36.4621 45.3586 35.9554 46.2368Z" fill="#F09F69"/>
<path d="M29.8308 25.6805C29.8308 25.6805 29.3577 26.4663 28.2834 26.7677C27.5384 26.9745 26.3961 27.5643 25.7634 27.9085C25.4821 28.0617 25.301 28.1655 25.301 28.1655C25.301 28.1655 25.3826 26.953 24.8852 26.4778C24.6969 26.2989 24.4929 26.0992 24.3104 25.9174C24.0127 25.6218 23.7765 25.3813 23.7765 25.3813C23.7765 25.3813 26.6072 21.3825 27.6235 21.2565C28.6406 21.1291 29.4257 21.8442 29.4257 21.8442C29.4257 21.8442 29.2189 23.519 29.4036 24.4566C29.5882 25.392 29.8308 25.6805 29.8308 25.6805Z" fill="#FCC7AA"/>
<path d="M25.301 28.1655C25.301 28.1655 25.3826 26.953 24.8852 26.4778C24.6969 26.2989 24.4929 26.0992 24.3104 25.9174C24.5344 25.9417 24.7248 25.956 24.7578 25.9467C24.8501 25.9224 25.4291 25.8079 25.3826 25.8544C25.3361 25.9009 25.394 26.6403 25.4513 26.7898C25.4935 26.8972 25.6732 27.5406 25.7641 27.9085C25.4821 28.0617 25.301 28.1655 25.301 28.1655Z" fill="#FAD3BE"/>
<path d="M27.5176 22.4459C27.5176 22.4459 26.0304 24.4013 25.9015 24.8357C25.7727 25.2773 24.9918 26.2006 24.863 26.2142C24.8294 26.2142 24.727 26.207 24.591 26.187C24.1902 26.1326 23.4845 26.0174 23.3485 26.0038C23.1653 25.9837 23.0229 25.6237 22.8189 25.1277C22.6085 24.6324 22.2284 23.6612 22.2284 23.5188C22.2284 23.3828 22.2284 23.0843 22.2284 23.0843C22.2284 23.0843 22.2076 23.0843 22.174 23.0779C22.0244 23.0507 21.6372 22.9691 21.6372 22.7315C21.6372 22.4466 21.8476 21.9034 21.8476 21.9034C21.8476 21.9034 21.8684 20.2056 21.9357 20.0088C22.0037 19.812 22.2821 18.3111 22.2821 18.3111C22.2821 18.3111 23.4294 17.4759 25.7247 18.2367C28.0272 19.0032 27.5176 22.4459 27.5176 22.4459Z" fill="#FCC7AA"/>
<path d="M25.7741 49.2637C25.7741 49.2637 25.9551 50.2084 26.1734 51.4581C24.6833 50.9993 24.4929 50.0975 24.4929 50.0975L23.6612 45.4975L22.9219 38.4018L23.1237 34.408C24.7083 34.2935 26.7861 35.1903 26.7861 35.1903C26.7861 35.1903 26.2407 37.117 25.9337 37.5787C25.6252 38.041 23.9611 39.8898 23.9611 40.0744C23.9611 40.2591 24.9467 42.2617 25.0097 43.0325C25.0705 43.8019 25.102 44.7997 25.3017 45.534C25.5007 46.2683 25.7741 49.2637 25.7741 49.2637Z" fill="#F09F69"/>
<path d="M29.3435 23.9818C29.3435 23.9818 28.7208 24.3175 28.5941 24.4098C28.4667 24.5021 27.9242 24.5945 27.9242 24.5945L26.7225 23.6583C26.7225 23.6583 26.0526 22.4909 25.2667 22.4566C24.4808 22.4222 24.1459 22.9075 24.1459 22.9075L24.0879 23.3928L23.5797 23.3699L23.0716 21.9484L22.4016 21.1282L22.5748 19.2909L22.1819 18.8608L21.6387 18.6432C21.6387 18.6432 22.2742 17.4644 22.6557 17.1874C23.0372 16.9104 24.5968 15.8819 25.8908 15.9628C27.1849 16.0436 29.1495 16.9448 29.5883 17.4765C30.0277 18.0083 30.0277 20.5735 29.9583 21.1275C29.8889 21.6822 29.473 23.2654 29.473 23.2654L29.3435 23.9818Z" fill="#4A2727"/>
<path d="M25.7054 23.624C25.7054 23.624 25.5666 24.3984 25.4048 24.5946C25.243 24.7914 24.9775 24.5946 24.9775 24.5946L24.8587 23.9382L24.7649 23.2962C24.7649 23.2962 24.4722 22.5948 24.6812 22.5383C24.8895 22.4824 25.578 22.4338 25.7054 23.624Z" fill="#FFD6BF"/>
<path d="M24.5917 26.187C24.1909 26.1326 23.4852 26.0174 23.3492 26.0038C23.166 25.9838 23.0236 25.6238 22.8196 25.1278C22.6092 24.6325 22.2291 23.6612 22.2291 23.5188C22.2291 23.3828 22.2291 23.0844 22.2291 23.0844L22.4603 23.2676C22.4603 23.2676 22.4331 23.3148 22.4603 23.6004C22.4803 23.8853 22.9899 25.2094 22.9899 25.2094L23.4451 25.8206C23.4451 25.8206 23.9275 25.875 24.314 25.9158C24.4014 26.0038 24.4966 26.099 24.5917 26.187Z" fill="#FAD3BE"/>
<path d="M7.06633 29.4021L6.974 28.9734C6.974 28.9734 6.98688 28.9476 7.00692 28.9089C7.12359 29.299 7.60384 29.7592 7.60384 29.7592L8.47631 30.8851L8.66097 31.3546L8.13062 30.7684L7.06633 29.4021Z" fill="#FAD3BE"/>
<path d="M8.71538 30.2209C8.71538 30.2209 7.93881 29.2833 7.66541 28.8452C7.68759 28.7915 7.72982 28.6992 7.7835 28.6162C7.81499 28.5661 7.9016 28.5554 7.99607 28.5611C7.97389 28.6885 7.95385 28.8216 7.961 28.8903C7.97603 29.0435 8.29954 29.4744 8.29954 29.4744L9.30156 30.7297L9.25719 30.7777L8.71538 30.2209Z" fill="#FAD3BE"/>
<path d="M24.6833 37.2257C24.2303 37.8634 23.6699 38.6342 23.5296 38.7487C23.2819 38.9484 21.7567 40.2281 21.1261 40.6583C20.4942 41.0906 18.5066 42.4605 17.5504 42.3388C16.5963 42.215 15.3781 40.7971 14.3002 39.7507C13.2223 38.7022 10.3143 34.4966 10.3143 34.4966C10.3143 34.4966 8.53432 32.9026 8.41909 32.8547C8.30243 32.8103 7.29898 31.4569 7.29898 31.4569L6.97332 30.5916L7.05491 30.1628C7.05491 30.1628 6.82373 29.6325 6.82373 29.5266C6.82373 29.5101 6.83089 29.4951 6.84234 29.4822L6.93682 29.7577L7.34335 30.4362L8.05335 31.3753L8.40836 32.0703L7.57668 30.9129L7.1365 30.6137L7.08282 30.6674L7.35981 31.3144L8.01399 32.1246L9.03104 33.1245C9.03104 33.1245 10.2793 34.08 10.3401 34.158C10.4031 34.2339 13.7141 38.5641 13.7305 38.6249C13.7455 38.6879 16.8568 41.7841 16.9198 41.8307C16.9806 41.8772 17.8445 41.9989 18.0292 41.953C18.2138 41.9072 21.2185 40.1673 21.4955 39.9361C21.7725 39.7049 22.0258 38.967 22.0258 38.967L22.9205 36.8392C22.9219 36.8399 23.8753 36.9007 24.6833 37.2257Z" fill="#FAD3BE"/>
<path d="M19.0685 36.84C18.9668 36.966 18.1459 37.9809 17.9519 38.2171C17.7451 38.4719 17.2011 39.2692 17.2011 39.2692L17.3156 38.4153C17.3156 38.4153 15.4447 36.923 15.0046 36.485C14.8271 36.3054 14.5093 35.9561 14.1951 35.6011C15.1935 36.5365 17.5934 38.4146 17.5934 38.4146C17.5934 38.4146 18.0092 37.9988 18.1259 37.847C18.1853 37.7712 18.6362 37.2923 19.0685 36.84Z" fill="#FAD3BE"/>
<path d="M24.5345 30.6125C24.5345 30.6125 23.2977 30.8158 22.743 31.432C22.1883 32.0482 20.6788 34.4517 20.4476 34.7909C20.2165 35.1302 19.3383 36.3004 19.3075 36.3469C19.2767 36.3934 19.6926 37.3947 20.6481 38.1191C21.6036 38.8434 22.743 39.3515 23.2211 39.3823C23.6985 39.4131 26.4104 36.1315 26.4104 36.1315C26.4104 36.1315 27.4117 33.9435 27.1963 32.8649C26.9801 31.7856 27.3738 31.1643 24.5345 30.6125Z" fill="#FF882A"/>
<path d="M24.3098 29.7178C24.3098 29.7178 25.2718 29.2017 27.3653 30.334C29.4588 31.4656 33.1956 40.4744 33.1956 40.4744L33.9292 39.8682C33.9292 39.8682 30.0535 31.409 29.1202 30.3905C28.1862 29.3721 26.5458 28.7408 26.0082 28.8302C25.4707 28.9197 25.0012 28.8302 25.0012 28.8302L24.3098 29.7178Z" fill="#355FA3"/>
</svg>
