<svg width="65" height="65" viewBox="0 0 65 65" fill="none" xmlns="http://www.w3.org/2000/svg">
<path d="M57.875 41L37 53L7.125 35.75V30.375L37 47.625L57.875 35.625V41Z" fill="#E3E7F0"/>
<path d="M7.125 30.375V35.75L37 53V47.625L7.125 30.375Z" fill="#C9CEE2"/>
<path d="M37 47.625V53L57.875 41V35.625L37 47.625Z" fill="#E3E7F0"/>
<path d="M62.5 34.25L37.75 48.5L2.5 28V26.25L27.25 12L62.5 32.5V34.25Z" fill="#E3E7F0"/>
<path d="M2.5 26.25V28L37.75 48.5V46.75L2.5 26.25Z" fill="#B0B8CF"/>
<path d="M37.75 46.75V48.5L62.5 34.25V32.5L37.75 46.75Z" fill="#C9CEE2"/>
<path d="M2.5 26.25L37.75 46.75L62.5 32.5L27.25 12L2.5 26.25Z" fill="#E3E7F0"/>
<path d="M6.125 26.25L27.25 14L58.875 32.5L37.75 44.625L6.125 26.25Z" fill="#9EA9C9"/>
<path d="M6.125 26.25L9.125 28L27.25 17.625V14L6.125 26.25Z" fill="#C9CEE2"/>
<path d="M27.25 14V17.625L55.875 34.25L58.875 32.5L27.25 14Z" fill="#B0B8CF"/>
<path d="M55.625 34.375C49.625 37.875 60 31.875 39.75 43.5L38.75 44.125L37.75 44.625L6.625 26.625C6.75 26.5 7 26.375 7.125 26.125C7.25 26 7.5 25.875 7.625 25.75C7.75 25.625 7.875 25.5 8.125 25.5C9.25 24.875 10.375 24.5 11.625 24.5C12.25 24.5 12.875 24.625 13.375 24.375C14.625 24 15.5 22.375 16.75 22.25C17.25 22.25 17.625 22.375 18.125 22.25C19.125 22 19.625 20.875 20.25 20C21 18.875 22.375 18.375 23.625 17.75C24.75 17.25 26 16.75 27.125 16.625C27.375 16.625 27.625 16.625 27.875 16.5C28.375 16.5 28.75 16.5 29.25 16.625C31.25 17.125 32.75 19 34.875 19.5C35.75 19.75 36.75 19.75 37.5 20.25C38.625 21 39 22.5 40.125 23.125C41 23.625 42 23.375 42.875 23.75C44.375 24.5 44.875 26.375 46.375 27.125C46.75 27.375 47.25 27.5 47.375 27.875C47.5 28.25 47.375 28.75 47.5 29.125C47.625 29.375 47.75 29.5 48 29.75C48.625 30.25 49.375 30.625 50 30.875C50.625 31.125 51.25 31.375 52 31.5C53.375 31.875 54.875 32.625 55.25 33.875C55.5 34.25 55.5 34.25 55.625 34.375Z" fill="#4C5C75"/>
<path d="M43 41.625C42.875 41.75 40.5 43.125 40.625 43L39.75 43.5L38.75 44.125L37.75 44.625L6.625 26.625C6.75 26.5 7 26.375 7.125 26.125C7.25 26 7.5 25.875 7.625 25.75C7.75 25.625 7.875 25.5 8.125 25.5L11 27.125L12.5 28C33.75 40 -0.500001 20.625 32.375 39.25C35.5 40.875 39.125 41.875 43 41.625Z" fill="#445268"/>
<path d="M33.1249 24.25C33.2499 24.125 33.3749 24.125 33.4999 24.125C34.1249 24.125 33.8749 25 33.9999 25.25C33.9999 25.875 34.4999 25.75 34.8749 26.125C35.2499 26.5 35.1249 27.125 34.7499 27.5C33.8749 28.25 32.3749 27.875 31.6249 27.25C30.8749 26.75 30.1249 25.5 30.7499 25C31.2499 24.5 32.3749 24.875 33.1249 24.25Z" fill="#1D2943"/>
<path d="M24.3749 26.875C24.1249 26.5 24.3749 26 23.9999 25.75C23.8749 25.625 23.6249 25.625 23.4999 25.625C22.8749 25.625 22.1249 25.25 21.6249 25.625C21.4999 25.75 21.7499 26 21.8749 26.25C22.8749 27.625 22.9999 28 23.3749 28.25C23.7499 28.5 24.1249 28.625 24.4999 28.5C24.7499 28.375 25.2499 28.125 25.2499 27.75C25.1249 27.375 24.4999 27.25 24.3749 26.875Z" fill="#1D2943"/>
<path d="M25 20.5C24.875 20.625 24.625 20.625 24.625 20.75C23.75 21.75 27.5 22.875 27.5 21.125C27.5 20.625 27.25 20.25 26.875 20C26.125 19.625 25.625 20.125 25 20.5Z" fill="#1D2943"/>
<path d="M42 34C42.375 33.5 41.125 32.875 40.375 32.75C40.5 32.5 40.375 32.125 40.125 32C39.5 31.5 38.75 32.125 38.125 32.25C37.75 32.375 36.875 32.25 36.625 32.875C36.625 33.125 36.75 33.375 36.75 33.625C37.125 34.25 37.25 34.5 37.375 34.75C38.125 35.625 39.75 35.625 40.75 34.125C41 34.125 41.875 34.25 42 34Z" fill="#1D2943"/>
<path d="M41.25 42.625L40.5 43C40.25 43 40.125 43 40.125 43C40 43.25 39.875 43.375 39.625 43.5L38.75 44.125H38.625C38 44.25 37.25 44.125 36.875 43.5C36.75 43.375 36.375 42.75 36.25 42.375C36.125 42.125 36 41.875 36.125 41.625C36.25 41 37.125 41.125 37.5 41C38.125 40.875 38.875 40.25 39.5 40.75C39.75 41 39.875 41.375 39.75 41.5C40.25 41.75 41.25 42.25 41.25 42.625Z" fill="#1D2943"/>
<path d="M31.125 36C31 36 30.875 36.125 30.75 36.25C30.625 36.375 30.75 36.5 30.875 36.625C31.5 37.25 33.25 37 33.125 35.875C33.125 35.5 32.875 35.25 32.5 35.125C31.75 34.875 31.875 35.625 31.125 36Z" fill="#1D2943"/>
<path d="M17.875 31.125C17.75 31.125 17.625 31.25 17.5 31.375C17.375 31.5 17.5 31.625 17.625 31.75C18.25 32.375 20 32.125 19.875 31C19.875 30.625 19.625 30.375 19.25 30.25C18.5 30 18.625 30.75 17.875 31.125Z" fill="#1D2943"/>
<path d="M25.8748 32.875C24.9998 32.875 24.6248 34.125 25.1248 34.5C25.3748 34.625 25.9998 34.75 26.3748 34.625C26.6248 34.5 26.8748 34.125 26.7498 33.875C26.6248 33.25 26.3748 33 25.8748 32.875Z" fill="#1D2943"/>
<path d="M51.7498 34.375C50.8748 34.375 50.4998 35.625 50.9998 36C51.2498 36.125 51.8748 36.25 52.2498 36.125C52.4998 36 52.7498 35.625 52.6248 35.375C52.4998 34.75 52.2498 34.5 51.7498 34.375Z" fill="#1D2943"/>
<path d="M32.125 21.625C31.125 21.625 30.375 22.375 30.375 23.375C30.375 22.375 29.625 21.625 28.625 21.625C29.625 21.625 30.375 20.875 30.375 19.875C30.375 20.375 30.625 20.75 30.875 21.125C31.25 21.5 31.625 21.625 32.125 21.625Z" fill="white"/>
</svg>
