<svg width="36" height="68" viewBox="0 0 36 68" fill="none" xmlns="http://www.w3.org/2000/svg">
<path d="M24.5736 63.7851C22.0879 65.2204 19.0548 67.4567 19.0548 67.4567C19.0548 67.4567 12.4247 66.1666 10.855 65.933C8.4344 65.5726 6.14124 64.8443 4.24271 63.7481C-1.38914 60.4964 -1.41791 55.2414 4.179 52.0102C9.77592 48.7791 18.878 48.7956 24.5098 52.0472C30.1417 55.2982 30.1698 60.5539 24.5736 63.7851Z" fill="#CCC0BC"/>
<path d="M11.5552 53.4441C11.5552 53.4441 11.3113 53.6298 11.2784 53.7044C11.2455 53.7791 11.2257 54.343 11.2366 54.4999C11.2483 54.6561 11.5812 55.1419 12.3966 55.3988C13.2119 55.6557 13.8977 55.7057 14.6774 55.8832C15.4578 56.0606 16.1881 56.3696 17.9085 56.4573C19.1637 56.5211 20.0489 55.7407 20.0537 55.5166C20.0557 55.4269 20.1058 54.5252 20.0475 54.3272C19.9893 54.1292 19.3076 53.7524 18.8211 53.7366C18.3347 53.7209 11.5552 53.4441 11.5552 53.4441Z" fill="#362E27"/>
<path d="M4.70312 57.3454C4.70312 57.3454 4.38043 57.3022 4.35303 57.8208C4.32631 58.3395 4.31328 58.5855 4.31328 58.5855C4.31328 58.5855 4.34136 59.0418 4.89153 59.4604C5.4417 59.879 5.98913 61.5843 7.21005 62.103C8.43028 62.6216 10.2075 62.1948 10.9023 61.8282C11.597 61.4617 11.6505 61.1787 11.6505 61.1787L11.6045 60.3189L11.1661 59.9489L4.70312 57.3454Z" fill="#362E27"/>
<path d="M15.3249 52.3123C15.3249 52.3123 16.1936 52.3445 16.2847 52.5967C16.3752 52.8481 16.6924 52.9947 16.6924 52.9947C16.6924 52.9947 19.0472 53.4428 19.4549 53.8539C19.8625 54.265 19.9297 54.7103 19.5138 55.2084C19.0979 55.7065 18.0257 55.8326 17.0809 55.7572C16.1361 55.6818 14.7555 55.2454 13.9285 55.1502C13.1016 55.0549 12.2856 54.7521 11.745 54.4123C11.2037 54.0718 11.3463 53.5305 11.3463 53.5305C11.3463 53.5305 11.4086 52.5624 11.4792 52.5007C11.5491 52.4398 13.8717 52.0157 15.3249 52.3123Z" fill="#524B45"/>
<path d="M4.59898 56.599C4.59898 56.599 4.48182 57.3465 4.46949 57.5801C4.45716 57.8138 4.34344 58.0022 4.62503 58.329C4.90662 58.6558 5.6637 59.5917 5.81717 59.8856C5.97064 60.1796 6.80309 61.406 8.37001 61.5135C9.93692 61.6218 11.0585 61.0565 11.2627 60.6249C11.4668 60.194 10.916 59.554 10.7413 59.415C10.5666 59.2759 9.29424 58.0138 9.22367 57.8672C9.15311 57.7206 9.14009 56.9793 9.01402 56.9073C8.88864 56.8361 4.84905 56.053 4.59898 56.599Z" fill="#524B45"/>
<path d="M13.6428 53.7969C13.0543 53.8393 12.5425 53.7489 12.1307 53.6023C11.4463 53.3625 11.0297 52.9726 10.9653 52.7986C10.8632 52.5204 10.472 48.8145 10.5028 46.3412C10.5357 43.8664 10.6385 42.8188 10.5549 42.3667C10.4748 41.935 10.25 39.2253 10.3192 37.5933C10.3199 37.5152 10.324 37.4378 10.3295 37.3644C10.4316 35.7715 9.91978 29.5449 12.6556 29.4154C15.3913 29.286 15.9901 29.8889 15.9901 29.8889C15.9901 29.8889 16.6938 33.8168 16.5136 36.1668C16.3313 38.5155 15.7894 44.803 15.7688 45.1922C15.7483 45.5813 15.6469 52.023 15.6709 52.3156C15.6948 52.6116 15.2084 53.6838 13.6428 53.7969Z" fill="#355FA3"/>
<path d="M11.9204 41.0747C11.8628 41.9681 11.7258 45.0026 11.6539 46.168C11.5991 47.0635 12.0012 50.7701 12.1307 53.6025C11.4463 53.3627 11.0297 52.9728 10.9653 52.7988C10.8632 52.5206 10.472 48.8147 10.5028 46.3414C10.5357 43.8666 10.6385 42.819 10.5549 42.3668C10.4748 41.9352 10.25 39.2255 10.3192 37.5935C11.5436 36.402 12.8029 35.5244 13.4339 35.5387C13.4339 35.5387 13.1441 37.5901 13.0276 38.3245C12.9118 39.0597 11.9779 40.1806 11.9204 41.0747Z" fill="#BABABA"/>
<path d="M12.8371 37.496C12.5 38.7259 11.2428 38.9129 10.9845 39.757C10.7248 40.6011 10.152 43.3595 10.1308 43.7671C10.1096 44.1762 9.96226 45.8904 9.85058 46.1384C9.74096 46.3851 9.51761 50.5069 9.31412 51.4133C9.11063 52.3184 9.22025 57.0869 9.112 57.276C9.00511 57.4658 7.6506 58.0249 6.2077 58.027C5.87061 58.0277 5.58491 57.9742 5.34579 57.8913C4.55994 57.6207 4.2708 57.0369 4.27286 56.9897C4.27628 56.9321 4.14885 55.2487 4.18448 54.5677C4.2201 53.888 3.80627 48.0177 3.86177 47.4936C3.91727 46.9709 3.94056 45.4519 3.99812 44.714C4.05704 43.9761 4.10364 42.6922 4.12625 42.2646C4.14885 41.8371 3.53771 39.7385 3.50003 39.3267C3.46371 38.9163 2.92997 36.0607 2.9334 34.8911C2.93545 33.7216 3.07248 32.228 3.07248 32.228L7.16689 31.4175L11.3257 30.5933C11.3257 30.5933 13.4469 30.6837 13.6572 32.6165C13.8696 34.5479 13.1749 36.2662 12.8371 37.496Z" fill="#355FA3"/>
<path d="M10.6364 33.0611L13.2215 34.6903C13.2215 34.6903 13.9258 36.8122 14.0484 37.4425C14.1718 38.0729 16.2567 39.313 16.2567 39.313C16.2567 39.313 16.7061 35.827 16.3738 33.9778C16.0415 32.1279 11.9745 30.1218 11.9745 30.1218C11.9745 30.1218 9.95267 31.6682 10.6364 33.0611Z" fill="#B3B3B3"/>
<path d="M7.95685 33.9443C7.97466 33.9313 7.99317 33.9176 8.01098 33.9039C8.14938 33.797 8.296 33.6675 8.47071 33.6764C8.38506 34.1451 7.9274 34.437 7.51289 34.672C7.26282 34.8138 7.00451 34.9577 6.72018 34.9974C6.55643 35.02 6.39064 35.007 6.22552 35.0022C5.76921 34.9892 5.31017 35.0419 4.85797 34.981C4.54075 34.9385 4.21599 34.8316 3.96523 34.6274C3.81587 34.5055 3.71517 34.289 3.55347 34.1965C3.54936 34.6041 3.73023 35.0803 3.81245 35.4818C3.97003 36.2471 4.12007 37.0138 4.25984 37.7825C4.43318 38.7362 4.59351 39.6927 4.71272 40.6546C4.80247 41.374 4.90319 42.1235 4.83742 42.8491C4.6538 44.8668 4.11049 47.0607 4.24409 48.9784C4.36262 50.6734 5.28001 55.146 5.34647 57.8927C4.56061 57.6221 4.2715 57.0384 4.27355 56.9911C4.27698 56.9335 4.14954 55.2502 4.18517 54.5691C4.2208 53.8895 3.80697 48.0192 3.86246 47.495C3.91796 46.9723 3.94126 45.4533 3.99881 44.7154C4.05773 43.9775 4.10431 42.6936 4.12692 42.2661C4.14953 41.8385 3.53838 39.7399 3.5007 39.3282C3.46439 38.9178 2.93067 36.0621 2.93409 34.8926C2.93546 34.4623 2.83543 33.7792 3.06084 33.4031C3.54249 33.6285 3.99333 33.9882 4.38318 34.3472C4.43799 34.3979 4.49485 34.4513 4.56542 34.4767C4.63325 34.5014 4.70723 34.4979 4.77917 34.4938C5.29851 34.4671 5.81716 34.4404 6.3365 34.413C6.6085 34.3986 6.88257 34.3849 7.14703 34.3205C7.4389 34.2499 7.715 34.1204 7.95685 33.9443Z" fill="#BABABA"/>
<path d="M35.1933 31.5154V58.0653L19.0555 67.4565V40.9087L22.5298 38.8868L35.1905 31.5168L35.1933 31.5154Z" fill="#B6AE8E"/>
<path d="M19.0541 40.9094V67.4558L13.2249 64.0767V37.5303L19.0541 40.9094Z" fill="#885E4A"/>
<path d="M35.1933 31.519L22.5298 38.887L21.6638 39.3919L19.0554 40.9088V40.9102H19.0534L16.3423 39.3385L13.2242 37.5304L29.3641 28.1392L35.1905 31.5169L35.1933 31.519Z" fill="#F2D9BD"/>
<path d="M19.8208 36.841L25.7445 33.394L23.0334 31.823L17.1097 35.2699L19.8208 36.841Z" fill="#D45E26"/>
<path d="M19.4124 37.0788L18.5464 37.5837L15.9381 39.1006V39.102H15.936L13.2249 37.5303L16.7027 35.5071L19.4124 37.0788Z" fill="#F47B5A"/>
<path d="M32.2095 27.7554V29.7656L26.2857 33.2091V31.2016L32.2095 27.7554Z" fill="#D44827"/>
<path d="M35.1933 31.5161V33.5256L29.2709 36.9726V34.9644L35.1933 31.5161Z" fill="#D44827"/>
<path d="M28.8612 35.2007V37.2109L22.9381 40.6571V38.6497L28.8612 35.2007Z" fill="#D44827"/>
<path d="M22.5298 38.887V40.8965L19.0554 42.919V40.9102L21.6638 39.3919L22.5298 38.887Z" fill="#D44827"/>
<path d="M35.1933 33.9326V35.9421L31.7778 37.929V35.9216L35.1933 33.9326Z" fill="#D44827"/>
<path d="M31.3688 36.158V38.1682L25.4457 41.6144V39.607L31.3688 36.158Z" fill="#D44827"/>
<path d="M24.9778 39.8953V41.9048L19.0554 45.351V43.3436L24.9778 39.8953Z" fill="#D44827"/>
<path d="M35.1933 36.3833V38.3928L29.2709 41.8391V39.8316L35.1933 36.3833Z" fill="#D44827"/>
<path d="M28.8612 40.0681V42.0783L22.9381 45.5246V43.5164L28.8612 40.0681Z" fill="#D44827"/>
<path d="M22.5298 43.7542V45.763L19.0554 47.7862V45.7774L22.5298 43.7542Z" fill="#D44827"/>
<path d="M35.1933 38.7998V40.8086L31.7778 42.7962V40.7888L35.1933 38.7998Z" fill="#D44827"/>
<path d="M31.3688 41.0251V43.0354L25.4457 46.4816V44.4735L31.3688 41.0251Z" fill="#D44827"/>
<path d="M24.9778 44.762V46.7722L19.0554 50.2184V48.211L24.9778 44.762Z" fill="#D44827"/>
<path d="M35.1933 41.25V43.2602L29.2709 46.7065V44.699L35.1933 41.25Z" fill="#D44827"/>
<path d="M28.8612 44.9353V46.9448L22.9381 50.3911V48.3836L28.8612 44.9353Z" fill="#D44827"/>
<path d="M22.5298 48.6213V50.6302L19.0554 52.6534V50.6439L22.5298 48.6213Z" fill="#D44827"/>
<path d="M35.1933 43.6663V45.6758L31.7778 47.6634V45.6552L35.1933 43.6663Z" fill="#D44827"/>
<path d="M31.3688 45.8923V47.9018L25.4457 51.3488V49.3406L31.3688 45.8923Z" fill="#D44827"/>
<path d="M24.9778 49.6292V51.6387L19.0554 55.0856V53.0775L24.9778 49.6292Z" fill="#D44827"/>
<path d="M35.1933 46.1172V48.1267L29.2709 51.5736V49.5655L35.1933 46.1172Z" fill="#D44827"/>
<path d="M28.8612 49.8018V51.812L22.9381 55.2582V53.2508L28.8612 49.8018Z" fill="#D44827"/>
<path d="M22.5298 53.488V55.4976L19.0554 57.5208V55.5113L22.5298 53.488Z" fill="#D44827"/>
<path d="M35.1933 48.5334V50.543L31.7778 52.5299V50.5224L35.1933 48.5334Z" fill="#D44827"/>
<path d="M31.3688 50.759V52.7692L25.4457 56.2155V54.208L31.3688 50.759Z" fill="#D44827"/>
<path d="M24.9778 54.4963V56.5059L19.0554 59.9521V57.9447L24.9778 54.4963Z" fill="#D44827"/>
<path d="M35.1933 50.9844V52.9939L29.2709 56.4401V54.4327L35.1933 50.9844Z" fill="#D44827"/>
<path d="M28.8612 54.6689V56.6792L22.9381 60.1254V58.1173L28.8612 54.6689Z" fill="#D44827"/>
<path d="M22.5298 58.3552V60.3641L19.0554 62.3873V60.3784L22.5298 58.3552Z" fill="#D44827"/>
<path d="M35.1933 53.4009V55.4097L31.7778 57.3973V55.3898L35.1933 53.4009Z" fill="#D44827"/>
<path d="M31.3688 55.6262V57.6364L25.4457 61.0827V59.0745L31.3688 55.6262Z" fill="#D44827"/>
<path d="M24.9778 59.363V61.3732L19.0554 64.8195V62.812L24.9778 59.363Z" fill="#D44827"/>
<path d="M35.1933 55.8511V57.8613L29.2709 61.3075V59.3001L35.1933 55.8511Z" fill="#D44827"/>
<path d="M28.8612 59.5364V61.5459L22.9381 64.9928V62.9847L28.8612 59.5364Z" fill="#D44827"/>
<path d="M22.5298 63.2224V65.2312L19.0554 67.2545V65.245L22.5298 63.2224Z" fill="#D44827"/>
<path d="M26.2857 31.2024V33.2092L23.5746 31.6374V29.6313L26.2857 31.2024Z" fill="#A41B00"/>
<path d="M19.0554 40.9086V42.9147L16.3443 41.3437V39.3369L19.0554 40.9086Z" fill="#A41B00"/>
<path d="M19.0555 45.7773V47.7834L16.3444 46.2123V44.2056L19.0555 45.7773Z" fill="#A41B00"/>
<path d="M19.0555 48.2117V50.2184L16.3444 48.6467V46.6406L19.0555 48.2117Z" fill="#A41B00"/>
<path d="M19.0555 50.6467V52.6535L16.3444 51.0818V49.0757L19.0555 50.6467Z" fill="#A41B00"/>
<path d="M19.0555 53.0788V55.0856L16.3444 53.5139V51.5071L19.0555 53.0788Z" fill="#A41B00"/>
<path d="M19.0555 55.5112V57.5179L16.3444 55.9462V53.9395L19.0555 55.5112Z" fill="#A41B00"/>
<path d="M19.0555 57.9448V59.9515L16.3444 58.3798V56.373L19.0555 57.9448Z" fill="#A41B00"/>
<path d="M19.0555 60.3783V62.3844L16.3444 60.8134V58.8066L19.0555 60.3783Z" fill="#A41B00"/>
<path d="M19.0555 62.8119V64.818L16.3444 63.247V61.2402L19.0555 62.8119Z" fill="#A41B00"/>
<path d="M19.0555 65.2449V67.2516L16.3444 65.6806V63.6738L19.0555 65.2449Z" fill="#A41B00"/>
<path d="M19.0555 43.3437V45.3505L16.3444 43.7787V41.772L19.0555 43.3437Z" fill="#A41B00"/>
<path d="M15.936 39.102V41.1081L13.2249 39.5371V37.5303L15.936 39.102Z" fill="#A41B00"/>
<path d="M15.936 43.9706V45.9767L13.2249 44.4057V42.3989L15.936 43.9706Z" fill="#A41B00"/>
<path d="M15.936 46.405V48.4118L13.2249 46.8408V44.834L15.936 46.405Z" fill="#A41B00"/>
<path d="M15.936 48.8401V50.8468L13.2249 49.2751V47.269L15.936 48.8401Z" fill="#A41B00"/>
<path d="M15.936 51.2722V53.279L13.2249 51.7073V49.7012L15.936 51.2722Z" fill="#A41B00"/>
<path d="M15.936 53.7043V55.7111L13.2249 54.1394V52.1333L15.936 53.7043Z" fill="#A41B00"/>
<path d="M15.936 56.1381V58.1449L13.2249 56.5732V54.5664L15.936 56.1381Z" fill="#A41B00"/>
<path d="M15.936 58.5717V60.5778L13.2249 59.0068V57L15.936 58.5717Z" fill="#A41B00"/>
<path d="M15.936 61.0053V63.0114L13.2249 61.4404V59.4336L15.936 61.0053Z" fill="#A41B00"/>
<path d="M15.936 63.4382V65.445L13.2249 63.874V61.8672L15.936 63.4382Z" fill="#A41B00"/>
<path d="M15.936 41.537V43.5438L13.2249 41.9721V39.9653L15.936 41.537Z" fill="#A41B00"/>
<path d="M26.2857 31.2023L32.2095 27.7554L29.4977 26.1843L23.5746 29.6313L26.2857 31.2023Z" fill="#F47B5A"/>
<path d="M29.2695 34.963L35.1933 31.5161L32.4822 29.9443L26.5584 33.392L29.2695 34.963Z" fill="#F47B5A"/>
<path d="M22.9382 38.6498L28.8619 35.2021L26.1508 33.6311L20.2271 37.078L22.9382 38.6498Z" fill="#F47B5A"/>
<path d="M22.5298 38.8869L21.6638 39.3919L19.0554 40.9088V40.9102H19.0534L16.3423 39.3384L19.8201 37.3159L22.5298 38.8869Z" fill="#F47B5A"/>
<path d="M25.086 32.8768C24.8421 32.7042 24.6208 32.4637 24.3509 32.3281C24.1803 32.2424 23.9515 32.1547 23.8432 31.9869C23.7356 31.8211 23.7219 31.6642 23.5596 31.5168C23.5596 31.5168 16.8911 35.3968 16.8507 35.4208C16.7301 35.4914 16.5417 35.6393 16.5629 35.7962C16.5876 35.9826 16.8685 36.0943 17.0281 36.0792C17.0699 36.1333 17.024 36.2094 17.0158 36.2772C17.0014 36.3957 17.1097 36.4964 17.2227 36.5348C17.3357 36.5732 17.4591 36.5725 17.5721 36.6095C17.6557 36.6369 17.7318 36.6849 17.792 36.7486C17.829 36.7869 17.8606 36.8322 17.9051 36.8623C17.9544 36.8959 18.0147 36.9089 18.0736 36.9144C18.4203 36.9493 18.7574 36.7609 19.1014 36.8075C19.559 36.8698 19.9126 36.815 20.3593 36.948C20.6347 37.0302 20.8875 37.1172 21.1691 37.0603C21.4829 36.9973 21.7967 36.9315 22.1105 36.8678C22.2386 36.8418 22.3681 36.815 22.4887 36.7643C22.5716 36.7294 22.6511 36.6835 22.7381 36.6616C23.0327 36.5876 23.5445 36.8411 23.7706 36.6061C23.8001 36.5752 23.8247 36.5382 23.8624 36.517C23.9015 36.4951 23.948 36.4951 23.9926 36.4951C24.4715 36.4971 24.9511 36.4992 25.4307 36.5012C25.5026 36.5012 25.5773 36.5012 25.6451 36.4766C25.7123 36.4519 25.7691 36.4046 25.8212 36.356C25.985 36.2039 26.1281 36.0299 26.2439 35.8387C26.3125 35.7263 26.3748 35.6051 26.479 35.5249C26.7489 35.318 27.2216 35.4393 27.3991 35.1488C27.5389 34.9199 27.3717 34.6014 27.4916 34.3616C27.4032 34.2745 27.2682 34.2663 27.1483 34.2327C27.0291 34.1999 26.9003 34.1046 26.9209 33.9827C26.9339 33.9039 27.0051 33.8491 27.0764 33.8141C27.1785 33.7641 27.2915 33.7394 27.3943 33.6908C27.4971 33.6422 27.5944 33.5613 27.6176 33.4496C26.8523 33.2742 26.0802 33.316 25.343 33.0214C25.2539 32.9858 25.169 32.9351 25.086 32.8768Z" fill="#95A1AD"/>
<path d="M25.0765 32.6993C25.0532 32.6836 25.0306 32.6678 25.008 32.6521C24.7956 32.5027 24.6407 32.2978 24.4002 32.1759C24.2413 32.0957 24.0282 32.0142 23.9275 31.858C23.8275 31.7031 23.8144 31.5579 23.6637 31.4202C22.8703 31.8813 22.0776 32.343 21.2842 32.8048C20.138 33.4715 18.9917 34.1388 17.8455 34.8061C17.7653 34.8527 17.679 34.8945 17.603 34.9473C17.4118 35.0788 17.4097 35.2631 17.3248 35.468C17.4831 35.4625 17.6441 35.4358 17.8017 35.418C17.779 35.5399 17.7557 35.6646 17.7784 35.7866C17.801 35.9085 17.8804 36.0277 17.9997 36.0606C18.0435 36.073 18.0901 36.073 18.136 36.073C18.3655 36.0723 18.5944 36.0723 18.8239 36.0716C18.8369 36.1045 18.8499 36.138 18.8629 36.1709C19.2295 36.1709 19.596 36.1709 19.9633 36.1702C20.0701 36.323 20.2305 36.4381 20.4093 36.4909C20.4381 36.4991 20.4682 36.5066 20.4984 36.5053C20.5217 36.5039 20.5443 36.4977 20.5669 36.4923C20.7683 36.4374 20.969 36.3833 21.1705 36.3285C21.2047 36.3196 21.239 36.31 21.2732 36.3004C21.7823 36.162 22.2187 35.8736 22.7621 35.8715C22.7374 35.9352 22.7751 36.0092 22.8313 36.0483C22.8875 36.0873 22.9573 36.099 23.0252 36.1093C23.2382 36.1435 23.4671 36.175 23.661 36.0812C23.7274 36.049 23.7863 36.0031 23.8521 35.9702C24.0864 35.8523 24.3653 35.9092 24.6263 35.9332C24.8648 35.9551 25.1059 35.9469 25.3423 35.9092C25.4505 35.8921 25.5684 35.8612 25.6287 35.7708C25.6979 35.6667 25.665 35.5283 25.6794 35.4043C25.715 35.0973 26.0418 34.9048 26.3481 34.8651C26.6543 34.8253 26.9668 34.8883 27.2737 34.85C27.2799 34.7342 27.2854 34.6177 27.2915 34.5019C27.1333 34.454 26.9743 34.4067 26.816 34.3594C26.7927 34.3526 26.7688 34.3443 26.753 34.3265C26.7352 34.306 26.7331 34.2765 26.7331 34.2491C26.7331 33.9264 26.9373 33.6126 27.2326 33.4818C27.199 33.4968 26.8071 33.3488 26.7276 33.342C26.5358 33.3249 26.3426 33.3358 26.1514 33.3091C25.7643 33.2522 25.3964 32.9172 25.0765 32.6993Z" fill="#C7C7CE"/>
<path d="M23.2711 24.3765L20.2928 26.3421L20.2277 27.5898L21.7474 28.5366L25.0717 26.2832L24.538 24.5594L23.2711 24.3765Z" fill="#FFE39F"/>
<path d="M27.2025 25.041L27.3155 27.0471L21.5967 30.8222L21.4836 28.8175L27.2025 25.041Z" fill="#D44827"/>
<path d="M21.4829 28.818L21.596 30.8214L18.7999 29.4052L18.6869 27.4019L21.4829 28.818Z" fill="#A41B00"/>
<path d="M21.4829 28.818L27.2025 25.0422L24.4071 23.6267L18.6868 27.4018L21.4829 28.818Z" fill="#F47B5A"/>
<path d="M25.4046 25.5116C25.4012 25.5849 25.343 25.8001 25.282 26.0104C25.2135 26.2502 25.1402 26.4818 25.1402 26.4818C25.1402 26.4818 25.0936 26.5325 25.0408 26.5907C25.0408 26.5921 25.0388 26.5935 25.0388 26.5955C24.9826 26.6579 24.9223 26.7284 24.9107 26.7524C24.9018 26.7689 24.8394 26.8299 24.764 26.8977C24.6428 27.0039 24.4914 27.1299 24.4914 27.1299C24.4914 27.1299 24.4913 27.1313 24.49 27.1327L24.2824 27.4026C24.2824 27.4026 24.1227 27.4691 24.0063 27.4677C23.9672 27.4705 23.9316 27.4622 23.911 27.441C23.8932 27.4246 23.885 27.3978 23.8857 27.3636C23.8829 27.2354 23.9782 27.0251 23.9782 27.0251C23.9782 27.0251 23.8062 27.0066 23.7254 26.8853C23.6445 26.7641 23.6123 26.0604 23.6123 26.0604C23.6123 26.0604 23.5616 25.922 23.3143 25.4411C23.0663 24.9601 22.4764 24.4894 22.4764 24.4894C22.4764 24.4894 21.9543 24.1516 21.5918 23.8694L21.5905 23.868C21.4528 23.759 21.3376 23.6597 21.2856 23.5898C21.0944 23.3363 20.4538 23.0876 19.7687 22.6526C19.0822 22.2175 17.9003 21.2199 17.7174 20.9952C17.5344 20.7718 16.6869 19.8202 15.9052 18.9418C15.1673 18.1108 14.2334 17.5071 14.3239 16.1403C14.328 16.0594 14.3369 15.9759 14.3492 15.8875C14.5767 14.3397 16.3176 14.3918 16.3176 14.3918C16.3176 14.3918 18.4929 16.9899 19.126 17.5599C19.7591 18.1293 21.9461 21.0418 22.3996 21.6687C22.8545 22.2976 23.6493 23.3027 23.798 23.4384C23.9473 23.5727 24.1221 23.5912 24.3043 23.6597C24.4845 23.7269 24.8387 23.8824 24.9285 24.0139C25.0189 24.1455 25.4122 25.3561 25.4046 25.5116Z" fill="#FCC7AA"/>
<path d="M21.3027 23.1231C21.3027 23.1231 21.4945 23.6575 21.5898 23.8679C21.4521 23.7589 21.337 23.6596 21.2849 23.5897C21.0937 23.3362 20.4531 23.0875 19.768 22.6524C19.0815 22.2174 17.8996 21.2198 17.7167 20.9951C17.5338 20.7717 16.6862 19.8201 15.9045 18.9417C15.1666 18.1106 14.2327 17.507 14.3232 16.1402L14.6185 15.9497L15.5763 16.839L16.3896 18.7903L17.1549 19.1829L17.4303 20.1517C17.4303 20.1517 18.4511 21.5117 18.9074 21.7289C19.3631 21.9502 21.3027 23.1231 21.3027 23.1231Z" fill="#FAD3BE"/>
<path d="M22.5216 24.1715L22.4839 24.8963L21.1766 25.7589C21.1766 25.7589 21.1842 25.1546 21.2198 24.932C21.2554 24.7093 21.522 23.7193 21.5706 23.5267C21.6199 23.3342 21.6199 23.3342 21.6199 23.3342C21.6199 23.3342 21.9762 23.041 22.1776 23.1102C22.3784 23.1794 22.8032 23.4452 22.5216 24.1715Z" fill="#FFD6BF"/>
<path d="M17.3371 15.079C17.3371 15.079 17.5249 15.9594 16.6883 16.5527C15.8517 17.1454 15.3605 17.588 14.9227 17.7599C14.4849 17.9319 11.14 10.3234 11.4141 9.80478C11.6882 9.28613 12.1582 8.99905 12.4425 9.02646C12.7268 9.05455 13.3003 9.27927 14.0868 10.1391C14.8734 10.999 15.7387 12.8413 16.119 13.5223C16.4992 14.2034 17.3371 15.079 17.3371 15.079Z" fill="#FF882A"/>
<path d="M21.8878 33.1302C21.8878 33.1302 25.7966 34.1765 25.9439 34.6458C26.0912 35.1151 21.5226 35.705 20.9923 35.6742C20.462 35.6433 21.0643 32.8994 21.8878 33.1302Z" fill="#8D8E96"/>
<path d="M20.6895 34.5587C20.6902 34.5759 20.6916 34.5937 20.7018 34.6074C20.7155 34.6238 20.7388 34.6266 20.7594 34.6279C21.5041 34.6807 22.255 34.6437 22.9916 34.5183C23.1211 34.4964 23.2841 34.4293 23.2718 34.2984C22.5716 34.2038 21.8693 34.1189 21.1664 34.0442C21.1938 33.4844 21.2164 33.4509 21.2438 32.8904C21.2472 32.824 20.7635 32.7466 20.7176 32.813C20.6251 32.9466 20.7244 32.9774 20.7128 33.1405C20.6799 33.6119 20.6717 34.086 20.6895 34.5587Z" fill="#A5A6AC"/>
<path d="M20.236 32.4541L20.1873 32.4534L18.3689 32.4226L18.5669 32.7309C18.5669 32.7309 18.8396 33.2838 18.9136 33.338C19.1013 33.4757 19.622 33.4263 19.8433 33.4448C20.2914 33.4818 20.9862 33.5017 21.0588 32.8899C21.1102 32.4644 20.3401 32.4555 20.236 32.4541Z" fill="#4A4C58"/>
<path d="M17.4885 30.7522C17.4885 30.7522 17.7701 31.5161 18.001 31.7621C18.2319 32.0081 18.632 32.5555 18.8033 32.6425C18.9746 32.7295 19.2665 32.6473 19.2487 32.5685C19.2309 32.4897 19.2178 31.7977 19.1322 31.7635C19.0465 31.7292 18.212 30.9064 18.1257 30.8817C18.0387 30.8577 17.4885 30.7522 17.4885 30.7522Z" fill="#FFD6BF"/>
<path d="M16.2676 30.8131C16.2422 30.8768 16.0963 30.9734 15.8661 31.0885C15.6654 31.1879 15.4036 31.3051 15.1042 31.4277C13.7963 31.9669 11.8073 32.6438 11.4476 32.7829C11.3339 32.8247 11.0646 32.9199 10.6981 33.0398C10.6775 33.046 10.6577 33.0535 10.6357 33.0604C9.25724 33.5153 6.63795 34.3142 5.85141 34.3032C5.37661 34.2971 4.67846 34.0902 4.0728 33.8435C3.97003 33.8017 3.86999 33.7592 3.77407 33.7161C3.36779 33.5324 3.03412 33.342 2.89093 33.2001C2.83954 33.1501 2.81283 33.107 2.81488 33.0727C2.81968 32.9761 2.8368 32.7301 2.85873 32.4376C2.85873 32.4362 2.85873 32.4362 2.85873 32.4342C2.90052 31.8374 2.96013 31.0467 2.96766 30.9173C2.97726 30.7227 2.61893 27.8958 2.90257 27.3258C3.18417 26.7557 2.93821 26.2556 2.91217 25.2792C2.9108 25.1984 2.89641 25.0579 2.87311 24.8682C2.86078 24.7702 2.8464 24.6578 2.82927 24.5352V24.5338C2.81694 24.4434 2.8046 24.3488 2.79021 24.246C2.78884 24.2399 2.78884 24.2337 2.78678 24.2276C2.78061 24.1858 2.77444 24.1419 2.76828 24.1001C2.75594 24.011 2.74156 23.9192 2.72786 23.8247C2.66894 23.4088 2.60454 22.9929 2.53945 22.5771C2.52095 22.4524 2.50039 22.3263 2.48189 22.2016C2.44284 21.9536 2.4038 21.6987 2.36338 21.4383C2.31336 21.1239 2.2654 20.8073 2.21538 20.4915C2.19346 20.3497 2.17153 20.2078 2.1503 20.066C2.13454 19.9728 2.12084 19.879 2.10645 19.7872C2.07836 19.6022 2.0489 19.4151 2.02081 19.2308C1.97901 18.9554 1.93652 18.6807 1.89473 18.4052C1.57203 16.2888 1.31852 14.4554 1.398 14.2327C1.58161 13.7113 2.18729 12.278 2.87585 11.4374C3.56305 10.5946 5.39099 9.1716 6.7462 8.59813C8.10278 8.02467 11.2359 8.13224 12.7391 9.10308C14.2437 10.0746 14.7466 13.6757 15.0802 15.5071C15.4139 17.3371 15.3482 18.9705 15.3482 18.9705C15.3482 18.9705 15.3543 20.8436 15.3577 22.5949V22.6058C15.3625 23.8816 15.3639 25.0888 15.3612 25.4546C15.355 26.3234 16.1772 29.5806 16.2286 29.7395C16.2765 29.8971 16.4026 30.4486 16.2676 30.8131Z" fill="#F9551A"/>
<path d="M16.4965 30.4817C16.4636 30.8216 16.1025 31.1984 15.9997 31.2991C15.9826 31.3176 15.9716 31.3272 15.9716 31.3272C15.9716 31.3272 13.3647 32.7598 12.3411 32.9688C12.1122 33.0154 11.6696 33.1558 11.0873 33.3346C9.24149 33.9013 5.9816 34.8468 3.57539 34.3815C3.35409 34.3411 3.13964 34.2863 2.93409 34.2178C2.93409 34.2178 2.9156 33.8129 2.89025 33.2011C2.88134 32.9736 2.86969 32.7153 2.85736 32.4378C2.85736 32.4364 2.85736 32.4364 2.85736 32.4344C2.78542 30.6386 2.68951 28.0536 2.71417 27.4863C2.75323 26.5956 2.70937 24.8821 2.70937 24.8821C2.70937 24.8821 2.76693 24.8773 2.87107 24.8684C3.40206 24.8184 5.13545 24.6615 6.37692 24.5587C6.98601 24.5073 7.46562 24.4326 7.83765 24.3237C8.37206 24.1661 8.68655 23.9421 8.85441 23.6276C9.13805 23.0918 8.38576 21.4954 10.4946 21.1063C12.6035 20.7171 14.9884 19.3242 14.9884 19.3242C14.9884 19.3242 15.2707 19.5393 15.2707 20.1327C15.2707 20.7075 15.3242 22.2648 15.3557 22.5951V22.606C15.3571 22.6122 15.3571 22.6184 15.3571 22.6245C15.3571 22.8972 15.5235 25.6385 15.5235 25.844C15.5242 26.0509 16.5355 30.0843 16.4965 30.4817Z" fill="#355FA3"/>
<path d="M15.1584 20.3107C15.1584 20.3107 14.8884 12.7303 12.82 10.4022C10.7522 8.07412 8.27682 7.85693 8.27682 7.85693L7.40327 8.79557C7.40327 8.79557 9.94034 9.24639 11.4751 10.7592C13.3243 12.5823 13.9094 20.7602 13.9094 20.7602L15.1584 20.3107Z" fill="#4275C9"/>
<path d="M14.9117 19.5798C14.9405 19.7949 14.7856 20.0258 14.5671 20.095C14.3485 20.1642 14.1478 20.0457 14.1197 19.8299C14.0909 19.6148 14.2458 19.3839 14.4643 19.3147C14.6829 19.2455 14.8836 19.364 14.9117 19.5798Z" fill="#FF882A"/>
<path d="M15.9997 31.299C15.9826 31.3175 15.9716 31.327 15.9716 31.327C15.9716 31.327 13.3647 32.7597 12.3411 32.9686C12.1122 33.0152 11.6696 33.1557 11.0873 33.3345L10.6981 33.0399L9.56762 32.1883L4.45441 29.299L3.65076 28.5159L3.6117 29.2538L5.46981 30.7549L3.89945 30.2055L4.79974 31.6354L3.72064 31.4051C3.81245 31.4367 3.88233 32.5233 3.89809 32.6357C3.93852 32.9131 3.91522 33.1324 3.8748 33.4126C3.86521 33.475 3.85767 33.5359 3.83574 33.5935C3.81998 33.6353 3.79669 33.6764 3.77339 33.7168C3.75763 33.7449 3.74188 33.7744 3.72955 33.8038C3.6535 33.9888 3.60211 34.1841 3.57539 34.3814C3.35408 34.341 3.13963 34.2862 2.93409 34.2176C2.93409 34.2176 2.91559 33.8127 2.89024 33.2009C2.83886 33.1509 2.81214 33.1077 2.8142 33.0735C2.819 32.9769 2.83612 32.7309 2.85805 32.4383C2.85805 32.437 2.85805 32.437 2.85805 32.4349C2.78611 30.6392 2.69018 28.0541 2.71484 27.4868C2.75389 26.5962 2.71005 24.8826 2.71005 24.8826C2.71005 24.8826 2.7676 24.8778 2.87174 24.8689C3.40272 24.8189 5.13613 24.662 6.37761 24.5592C6.9867 24.5078 7.46631 24.4332 7.83834 24.3242C7.91028 24.6716 7.95961 24.8819 7.95961 24.8819L15.1782 30.0171L15.8654 31.09L15.9997 31.299Z" fill="#BABABA"/>
<path d="M10.853 9.83708C10.853 9.83708 10.7104 11.4478 10.5583 11.7418C10.4062 12.0357 9.69986 12.3207 8.60843 12.1172C7.51769 11.9137 6.76676 11.3581 6.05833 10.9313C5.34989 10.5044 5.04159 10.0591 5.07927 9.89531C5.11695 9.73157 5.91376 9.2273 6.2118 8.56066C6.50983 7.89402 6.74964 5.35284 6.66399 4.76362C6.57767 4.1744 8.08635 3.35291 9.4258 4.07299C10.7659 4.79307 10.853 9.83708 10.853 9.83708Z" fill="#FCC7AA"/>
<path d="M7.88219 9.17513C7.88219 9.17513 8.1302 10.0939 8.38371 10.4584C8.63721 10.8229 9.30658 11.2545 9.43128 11.3943C9.55598 11.5341 10.1925 12.0349 10.8872 12.1685C11.5819 12.3021 11.7416 12.0006 11.9129 11.6382C12.0842 11.2758 12.4706 10.024 12.2986 9.40603C12.1266 8.78803 7.88219 9.17513 7.88219 9.17513Z" fill="#FAD3BE"/>
<path d="M19.1096 33.5058C19.0904 33.6607 18.9931 33.8504 18.9164 34.0025C18.8417 34.1546 18.534 34.0697 18.4176 34.0635C18.3011 34.0574 18.1545 33.8751 18.1545 33.8751C18.1545 33.8751 17.99 34.043 17.8037 34.0471C17.618 34.0512 17.4337 34.0279 17.4337 34.0279C17.4337 34.0279 17.2008 34.2156 17.109 34.2684C17.0185 34.3232 16.7013 34.2471 16.7013 34.2471L16.4348 34.1272C16.4348 34.1272 16.3916 34.206 16.2244 34.2485C16.0552 34.291 15.6558 34.2903 15.6558 34.2903C15.6558 34.2903 15.3899 34.1499 15.207 33.7504C15.0234 33.351 14.8041 32.5 14.6171 32.3548C14.4301 32.2082 13.81 31.7375 13.3003 31.623C12.7898 31.5073 9.92594 30.3549 8.60362 29.7293C7.2813 29.1052 5.21424 27.8363 4.79836 27.367C4.38453 26.8963 2.33048 22.5778 2.02834 21.6467C1.94338 21.385 1.87967 20.9075 1.86665 20.3566C1.83582 18.9438 2.14687 17.0556 3.33491 17.157C4.98541 17.2981 6.80514 19.7715 7.06138 21.9496C7.31899 24.1262 7.27172 25.0204 7.47795 25.1683C7.68555 25.315 10.9824 27.4958 12.0149 28.2707C13.0454 29.0469 16.3382 30.5926 16.4834 30.5912C16.63 30.5899 17.4413 30.7378 17.6722 30.7892C17.9037 30.8406 18.2593 31.8834 18.2593 31.8834C18.2593 31.8834 18.6567 32.6638 18.8513 32.8501C19.013 33.005 19.0972 33.2516 19.1103 33.4188C19.1123 33.4517 19.1123 33.4811 19.1096 33.5058Z" fill="#FCC7AA"/>
<path d="M19.1096 33.5059C19.0904 33.6607 18.9931 33.8505 18.9164 34.0026C18.8417 34.1547 18.5341 34.0698 18.4176 34.0636C18.3011 34.0574 18.1545 33.8752 18.1545 33.8752C18.1545 33.8752 17.9901 34.0431 17.8037 34.0472C17.618 34.0513 17.4337 34.028 17.4337 34.028C17.4337 34.028 17.2008 34.2157 17.109 34.2685C17.0185 34.3233 16.7013 34.2472 16.7013 34.2472L16.4348 34.1273C16.4348 34.1273 16.3916 34.2061 16.2245 34.2486C16.0552 34.2911 15.6558 34.2904 15.6558 34.2904C15.6558 34.2904 15.3899 34.1499 15.207 33.7505C15.0234 33.3511 14.8041 32.5001 14.6171 32.3549C14.4301 32.2083 13.81 31.7376 13.3003 31.6231C12.7898 31.5073 9.92594 30.3549 8.60362 29.7294C7.2813 29.1053 5.21424 27.8364 4.79836 27.3671C4.38454 26.8964 2.33049 22.5779 2.02834 21.6468C1.94338 21.3851 1.87967 20.9075 1.86665 20.3567C4.3914 20.752 6.76814 21.5831 6.76814 21.5831C6.76814 21.5831 5.95488 22.2216 5.48624 22.2305C5.01829 22.2374 3.25818 22.7252 3.25818 22.7252C3.25818 22.7252 4.2297 25.017 4.57433 25.8926C4.91827 26.7682 5.62396 27.8001 7.50946 28.6394C9.39634 29.4787 14.3752 31.9411 14.637 32.15C14.8987 32.359 15.4537 33.6758 15.4537 33.6758L15.8579 34.1445C15.8579 34.1445 16.3163 33.9739 16.3738 33.9766C16.4314 33.9793 16.8685 33.8464 16.8685 33.8464L17.0309 33.7176L17.7879 33.7574C17.7879 33.7574 17.7736 33.6409 17.801 33.5114C17.8284 33.3819 18.2737 33.4518 18.2737 33.4518C18.2737 33.4518 18.5073 33.8149 18.7074 33.6895C18.9109 33.5628 19.1068 33.4175 19.1068 33.4175H19.1082C19.1123 33.4518 19.1123 33.4812 19.1096 33.5059Z" fill="#FAD3BE"/>
<path d="M23.8857 24.5464L24.368 26.1482C24.368 26.1482 24.0741 26.9903 24.0056 27.4671C23.9665 27.4699 23.9309 27.4617 23.9103 27.4404C23.8925 27.424 23.8843 27.3973 23.885 27.363L23.9775 27.0245L24.2447 26.2401L23.8857 24.5464Z" fill="#FAD3BE"/>
<path d="M24.5386 24.5586L24.9004 25.7268C24.9004 25.7268 24.8209 26.4092 24.7647 26.897C24.6435 27.0032 24.492 27.1292 24.492 27.1292L24.7442 26.0316L24.5386 24.5586Z" fill="#FAD3BE"/>
<path d="M25.2813 26.0103C25.2128 26.2501 25.1395 26.4817 25.1395 26.4817C25.1395 26.4817 25.0929 26.5324 25.0402 26.5906L25.1128 25.4964L24.9716 24.4646L25.2553 25.5711C25.2553 25.5711 25.2676 25.7616 25.2813 26.0103Z" fill="#FAD3BE"/>
<path d="M7.29639 21.9228C7.29639 21.9228 6.56808 22.0605 5.35538 22.1331C4.14268 22.2065 1.67824 22.3695 1.52271 22.3613C1.36718 22.3531 1.17535 18.197 1.02119 17.0357C0.867719 15.8744 1.21577 13.3195 2.44218 13.3442C3.66926 13.3695 5.51982 13.388 6.26937 16.5856C7.01891 19.7831 7.29639 21.9228 7.29639 21.9228Z" fill="#FF882A"/>
<path d="M13.353 2.85197C13.353 2.85197 13.8491 3.24799 13.847 4.59361C13.845 5.93854 13.8874 6.42841 13.7408 6.62504C13.5942 6.82168 13.3517 7.16973 13.2859 7.49791C13.2201 7.8261 13.1879 8.80858 13.1879 8.80858C13.1879 8.80858 13.3338 9.37177 12.9406 9.43891C12.7282 9.77874 12.7241 9.85617 12.7241 9.85617L12.5404 10.0124L12.4432 10.5728C12.4432 10.5728 12.3082 11.1018 12.0848 11.2751C11.8615 11.4484 11.4154 11.5909 10.8694 11.4066C10.3233 11.2223 9.21135 10.6763 8.67762 10.259C8.1439 9.84109 7.67253 8.79283 7.58277 8.45711C7.49302 8.1207 7.03398 6.6545 7.03398 6.6545C7.03398 6.6545 6.70991 5.57473 6.7661 5.06156C6.82228 4.5477 8.64406 2.51831 8.64406 2.51831L13.353 2.85197Z" fill="#FCC7AA"/>
<path d="M13.4126 4.87927C13.4126 4.87927 12.8316 5.35887 11.9999 5.42259C11.1681 5.4863 10.1952 5.20814 10.1397 5.33146C10.0842 5.45547 9.78071 6.10567 9.62724 6.24338C9.47377 6.38178 8.86742 6.61267 8.80301 6.72641C8.73861 6.84014 8.52827 7.50131 8.52827 7.50131L8.09594 7.36153C8.09594 7.36153 8.22749 5.79942 7.40189 5.93165C6.5763 6.06388 6.58591 6.59212 6.58591 6.59212C6.58591 6.59212 6.36049 6.5236 6.32555 6.44413C6.29061 6.36397 5.98777 5.45137 5.87952 4.53602C5.77127 3.62067 5.65 2.96431 6.15974 1.66528C6.66949 0.366253 8.06512 0.023677 8.89825 0.00175251C9.73138 -0.0194868 11.9067 0.159342 11.9067 0.159342L11.3469 0.402564C11.3469 0.402564 12.054 0.543706 12.7206 0.968493C13.3873 1.39328 13.8621 2.2497 13.969 2.6971C14.0752 3.1445 14.0053 3.07598 14.0053 3.07598C14.0053 3.07598 14.1827 3.57956 14.1519 3.92829C14.1204 4.27772 14.0937 5.05604 14.0937 5.05604L13.8463 4.48258C13.8456 4.48463 13.5312 4.76143 13.4126 4.87927Z" fill="#4A2727"/>
<path d="M7.9144 6.62573C7.9144 6.62573 7.56086 5.92482 7.02782 5.80629C6.49478 5.68777 6.42764 6.10639 6.38105 6.37702C6.33446 6.64765 6.84625 7.55135 6.87914 7.65686C6.91271 7.76237 7.06482 7.95901 7.35874 8.05904C7.65267 8.15907 7.77462 7.93571 7.77462 7.93571C7.77462 7.93571 7.84519 7.21358 7.84793 7.14917C7.85204 7.08409 7.9144 6.62573 7.9144 6.62573Z" fill="#FFD6BF"/>
<path d="M12.8693 5.3313C12.8693 5.3313 12.9214 6.07467 12.8775 6.42341C12.833 6.77215 12.6939 6.94686 12.6939 6.94686C12.6939 6.94686 10.509 7.30039 10.2281 7.286C9.94718 7.27161 9.96912 7.59706 9.95816 7.80466C9.9472 8.01225 10.6954 8.62271 10.9146 8.64738C11.1345 8.67204 11.6237 8.76248 11.6237 8.76248C11.6237 8.76248 11.1297 9.51614 10.7803 9.48531C10.4309 9.45379 9.8136 9.27771 9.68685 8.99885C9.5601 8.71932 8.77012 7.66489 8.80918 7.41961C8.84823 7.17433 9.2374 6.68788 9.42444 6.59401C9.61148 6.50015 10.1932 5.55534 10.3857 5.60467C10.5775 5.65332 12.2116 5.89174 12.8693 5.3313Z" fill="#FFD6BF"/>
<path d="M12.5151 6.52223C12.5315 6.56196 12.5946 7.59172 12.5946 7.59172C12.5946 7.59172 12.389 8.5427 12.3075 8.60368C12.2267 8.66466 12.165 9.07711 12.165 9.07711C12.165 9.07711 12.9529 9.44366 13.0214 9.12164C13.0899 8.79963 12.748 7.35673 12.7707 6.80998C12.7946 6.26393 12.5151 6.52223 12.5151 6.52223Z" fill="#FFD6BF"/>
<path d="M10.853 22.0009C10.853 22.0009 10.1945 15.5873 8.12678 13.2592C6.83597 11.806 5.38621 11.175 4.47909 10.9064C3.93303 10.7447 3.20405 11.0749 3.20405 11.0749L2.87243 11.386L2.44903 12.0067C2.44903 12.0067 3.19583 11.7388 3.86932 11.9622C4.7374 12.2499 5.91788 12.7645 6.78184 13.6161C8.63103 15.4393 9.60394 22.4503 9.60394 22.4503L10.853 22.0009Z" fill="#4275C9"/>
<path d="M10.5604 21.2145C10.5892 21.4303 10.4343 21.6605 10.2158 21.7297C9.99722 21.7989 9.79645 21.6804 9.76768 21.4646C9.7389 21.2494 9.89376 21.0185 10.1123 20.9493C10.3316 20.8808 10.5316 20.9994 10.5604 21.2145Z" fill="#FF882A"/>
<path d="M10.2685 23.004C10.2685 23.004 10.4001 25.6514 10.6351 25.8727C10.7598 25.9898 13.3551 26.3858 13.3551 26.3858C13.3551 26.3858 14.8542 24.5599 14.9152 24.4839C15.046 24.3215 14.8624 21.3713 14.7315 21.1603C14.6014 20.9492 10.1788 22.4346 10.2685 23.004Z" fill="#4275C9"/>
<path d="M10.7385 22.4132C10.7385 22.4132 10.1384 22.7017 10.1384 22.9483C10.1384 23.195 10.2055 23.5882 10.3172 23.7191C10.4282 23.85 12.9049 23.7129 12.957 23.6465C13.0091 23.58 14.9288 22.1844 14.9151 21.9651C14.9014 21.7452 14.9405 21.0149 14.8295 20.9909C14.7185 20.9662 13.5963 21.2656 10.7385 22.4132Z" fill="#6597EB"/>
</svg>
