<svg width="169" height="223" viewBox="0 0 169 223" fill="none" xmlns="http://www.w3.org/2000/svg">
<path d="M64.7654 60.8406C64.7654 60.8406 65.2972 62.0376 63.5559 62.8682C61.8145 63.6989 58.4048 63.811 58.4048 63.811L52.7628 52.977L56.5016 43.6976C56.5016 43.6976 58.4457 45.1508 59.6606 47.0967C60.8754 49.0444 63.0738 57.7012 63.3513 57.8399C63.627 57.9769 64.7654 60.8406 64.7654 60.8406Z" fill="#FF882A"/>
<path d="M47.0248 162.263C47.0248 162.263 46.8273 163.84 46.8825 163.933C46.9376 164.024 52.343 166.501 54.1609 166.802C55.9787 167.101 60.653 169.719 62.3108 169.859C63.9703 170.002 64.6035 169.312 64.7547 168.904C64.9041 168.497 65.0392 167.351 64.8222 166.501C64.6052 165.651 60.5854 164.785 60.5854 164.785L47.0248 162.263Z" fill="#2F2720"/>
<path d="M55.5109 159.753C55.5109 159.753 60.8344 162.167 61.9781 162.725C63.1218 163.284 64.3225 164.5 64.6657 165.873C65.009 167.246 64.6124 168.289 63.5025 168.692C62.3926 169.096 57.6364 167.23 57.535 167.069C57.4336 166.907 50.6693 164.715 50.4221 164.465C50.1748 164.214 47.1155 163.7 47.023 162.263C46.9305 160.825 49.4989 156.82 49.4989 156.82L55.5109 159.753Z" fill="#D6A94F"/>
<path d="M56.4162 161.29C56.3309 162.282 53.0759 163.54 52.0834 163.455C51.2919 163.387 48.5598 163.154 46.9003 162.192C46.4787 161.948 46.1248 161.66 45.8918 161.313C44.7285 159.6 44.6947 154.606 43.7004 150.065C42.7061 145.524 42.2046 132.502 41.8969 131.627C41.5892 130.757 40.8225 127.253 40.9328 120.037C41.0466 112.816 40.9559 102.28 42.6279 100.198C43.2789 99.3829 45.2248 98.5523 47.3503 97.8408C50.6853 96.7291 54.4739 95.9092 54.4739 95.9092C54.4739 95.9092 56.5052 105.374 56.37 108.781C56.2313 112.189 56.7044 123.753 56.8378 125.759C56.9747 127.771 56.7275 133.354 56.3095 135.549C55.8915 137.74 55.5945 150.235 55.6087 152.772C55.6229 155.31 56.5016 160.297 56.4162 161.29Z" fill="#355FA3"/>
<path d="M47.722 158.782C48.0013 159.401 45.7317 155.961 45.6018 155.771C45.657 156.037 46.5374 160.311 46.557 160.829C46.5659 160.991 46.7046 161.525 46.9021 162.19C46.4805 161.946 46.1265 161.658 45.8935 161.311C44.7303 159.598 44.6965 154.604 43.7022 150.063C42.7079 145.522 42.2063 132.5 41.8986 131.625C41.5909 130.755 40.8243 127.251 40.9346 120.035C41.0484 112.814 40.9577 102.278 42.6297 100.196C43.2807 99.381 45.2265 98.5503 47.3521 97.8389C47.3574 97.8389 47.3556 97.8442 47.3556 97.8442C48.7128 100.407 46.3916 108.906 46.3916 108.906C46.3916 108.906 45.4275 119.484 45.488 119.489C45.5467 119.494 47.9284 123.08 47.9284 123.08C47.9284 123.08 49.9543 126.554 50.0397 126.79C50.1251 127.029 49.2784 132.413 49.2784 132.413C49.2784 132.413 49.2162 135.255 48.7288 135.403C48.2468 135.55 47.0533 134.679 46.6726 135.799C46.2867 136.918 46.9875 141.28 46.9875 141.28L50.1962 143.323L47.6082 143.946L47.0159 146.352L48.8586 147.279C48.8586 147.279 47.843 147.731 47.5993 148.633C47.361 149.534 47.8714 152.033 47.8714 152.033L50.4487 156.553L47.7025 154.171L45.3101 151.045L45.8349 154.776C45.8349 154.776 47.4321 158.14 47.722 158.782Z" fill="#6C91C4"/>
<path d="M25.5597 169.37L24.6739 170.062C24.6739 170.062 24.1723 171.44 24.4978 172.122C24.8233 172.803 26.0328 176.631 26.5166 177.71C27.0004 178.788 29.3429 180.14 31.3831 180.546C33.4232 180.951 35.2286 180.49 35.7693 179.998C36.31 179.507 36.2033 178.038 36.2033 178.038L30.419 173.587L25.5597 169.37Z" fill="#2F2720"/>
<path d="M32.4236 167.46C32.4236 167.46 33.5531 171.32 34.7092 173.531C35.8653 175.742 36.5626 177.913 36.0201 178.867C35.4776 179.818 33.4908 180.149 31.5805 180.025C29.6702 179.9 28.3095 178.748 27.3046 177.47C26.2996 176.193 25.4778 172.321 25.4778 172.321C25.4778 172.321 24.8624 170.08 24.6401 169.1C24.416 168.122 24.4516 165.463 24.4516 165.463L32.4236 167.46Z" fill="#D6A94F"/>
<path d="M47.8306 101.717C47.5638 104.847 46.1782 109.411 46.1052 110.252C46.0341 111.09 43.487 116.633 43.0957 117.6C42.9089 118.054 42.0071 120.092 40.9435 122.625C39.7678 125.433 38.4017 128.861 37.6156 131.421C37.0019 133.423 36.728 136.899 36.6231 140.554C36.6231 140.554 36.6231 140.554 36.6231 140.559C36.4666 145.782 36.6533 151.365 36.648 153.535C36.6373 157.22 34.6451 166.195 34.6451 166.195C34.6451 166.195 33.0799 169.21 31.8295 169.486C30.5756 169.765 27.7386 169.676 26.1377 169.539C25.268 169.465 24.1794 168.46 23.3808 167.442C22.7067 166.583 22.2425 165.719 22.2709 165.37C22.3367 164.605 22.2425 156.685 22.1624 152.226C22.0824 147.763 23.2545 134.958 23.235 134.265C23.2154 133.571 21.6982 114.491 21.4314 109.509C21.1788 104.813 23.0215 98.0632 23.2278 97.3286C23.2403 97.2841 23.2474 97.261 23.2474 97.261C23.2474 97.261 23.2883 97.2645 23.363 97.2663C23.5871 97.2805 24.1243 97.3126 24.898 97.3606C30.4475 97.7199 48.0564 99.0805 47.8306 101.717Z" fill="#355FA3"/>
<path d="M37.6156 131.418C37.0019 133.421 36.728 136.896 36.6231 140.552C36.6231 140.552 36.6231 140.552 36.6231 140.557C36.568 140.653 34.7768 143.935 34.8141 144.468C34.8461 145.011 32.0554 146.229 32.0554 146.229L30.7499 139.822L32.2617 132.268L33.971 123.809L40.2 119.732L40.9435 122.626C39.7678 125.431 38.4017 128.859 37.6156 131.418Z" fill="#6C91C4"/>
<path d="M23.436 163.396C23.379 164.054 23.3737 165.806 23.3808 167.437C22.7067 166.578 22.2425 165.713 22.2709 165.365C22.3367 164.6 22.2425 156.68 22.1624 152.22C22.0824 147.758 23.2545 134.953 23.235 134.259C23.2154 133.566 21.6982 114.486 21.4314 109.504C21.1788 104.808 23.0215 98.0578 23.2278 97.3232C23.2759 97.3036 23.3185 97.2841 23.363 97.261C24.3324 96.8145 24.9958 96.5388 24.9958 96.5388L24.898 97.3552L23.9322 105.436C23.9322 105.436 23.8771 115.957 24.0567 116.433C24.2417 116.91 25.814 125.645 25.814 125.645L26.385 136.065L23.8148 123.861C23.8148 123.861 24.4694 133.292 24.3787 134.357C24.2879 135.423 24.3502 144.572 24.5191 145.278C24.6899 145.984 23.6067 155.952 23.6067 155.952C23.6067 155.952 23.5533 162.019 23.436 163.396Z" fill="#6C91C4"/>
<path d="M60.3649 58.3826C60.1568 60.8425 59.0309 67.9501 58.853 70.0098C58.6769 72.0677 57.117 77.4713 56.0391 85.4967C54.9452 93.5382 55.831 94.6961 55.0092 97.4619C54.2053 100.212 52.3395 103.734 45.5698 106.209C43.222 107.061 40.5841 107.303 37.9962 107.191C34.7003 107.047 31.4827 106.339 29.0548 105.583C27.8648 105.229 26.851 104.859 26.1288 104.554C22.7351 103.106 20.2432 99.7938 20.6292 97.4619C21.0151 95.1301 22.077 93.8441 22.3171 93.1682C22.543 92.4923 26.0328 82.7149 26.4668 81.541C26.9168 80.367 26.4508 75.8314 26.4828 75.3653C26.5148 74.9153 23.2829 57.7565 24.3768 54.8946C25.4547 52.0327 28.2686 50.2308 29.0565 49.5389C29.8445 48.831 36.9521 43.9112 37.4021 43.6053C37.8521 43.2993 42.6439 40.2115 42.6439 40.2115L52.5974 42.1094C52.5974 42.1094 56.3131 42.4313 58.7249 45.9851C61.1208 49.5229 60.573 55.9386 60.3649 58.3826Z" fill="#F9551A"/>
<path d="M58.8299 83.5596C58.9579 85.8737 58.9579 87.8053 58.3016 88.6253C56.8627 90.4289 51.0873 93.5078 50.7778 91.1582C50.4861 88.8263 52.3075 57.7456 52.2168 56.4525C52.126 55.1594 53.2181 53.7934 54.2747 51.4598C55.3312 49.1457 53.2733 43.244 53.2733 43.244C53.2733 43.244 53.4369 42.8616 54.0754 42.8243C54.4579 42.7869 55.0235 42.8794 55.8435 43.2618C56.8271 43.735 57.9565 44.7915 58.8494 46.3052C59.8508 47.9629 60.5801 50.2218 60.5623 52.8827C60.5623 57.984 59.7423 70.1182 58.869 74.9811C58.6502 76.2386 58.5951 77.6597 58.6324 79.0809C58.6467 80.607 58.7569 82.1563 58.8299 83.5596Z" fill="#C4FF36"/>
<path d="M58.6289 79.0773C58.6467 80.607 58.757 82.1563 58.8299 83.5596C58.2643 84.1786 57.7182 84.7247 57.2807 85.1089C56.498 85.783 55.751 86.1298 55.0395 86.1298C54.7478 86.1298 54.4384 86.0747 54.1644 85.9484C53.1079 85.4557 52.7254 84.2729 52.7254 83.3248L54.1288 57.9822C54.2195 56.4881 54.5486 54.994 55.1303 53.5907C56.0587 51.3139 57.1348 46.9419 53.782 43.0786L54.0737 42.8243C54.4561 42.7869 55.0217 42.8794 55.8417 43.2618C56.8253 43.735 57.9548 44.7915 58.8477 46.3052C59.6677 49.9123 58.6467 53.1744 57.9921 54.777C57.5368 55.8513 57.2824 56.9808 57.2273 58.1476L55.8969 82.142C56.7151 81.3185 57.736 80.1161 58.6289 79.0773Z" fill="#99C2D6"/>
<path d="M47.8252 80.3526C46.4592 95.0551 45.0931 95.0178 38.2968 96.3856C31.52 97.7694 22.6284 91.0656 22.7209 90.3915C22.7565 90.1549 23.2314 88.9881 23.8326 87.5313C24.3786 86.256 25.035 84.7441 25.581 83.4866C26.2374 81.9747 26.7461 80.8079 26.7461 80.8079C26.7461 80.8079 38.9336 85.7455 39.3907 77.7112C39.8461 69.6591 38.7895 60.0205 34.6167 54.5546C30.4635 49.0887 27.4753 50.8193 27.4753 50.8193L25.3622 52.9146C25.4529 52.6603 26.3281 50.7109 27.02 49.9265C27.3668 49.5618 29.2967 48.3043 31.3742 47.0112C32.3951 46.3727 33.4695 45.7181 34.3802 45.1703C35.7835 44.3147 36.8223 43.6939 36.8223 43.6939C38.352 42.7655 38.4071 43.2564 38.4071 43.2564C38.4071 43.2564 35.9845 45.1329 37.4057 47.6106C38.8268 50.0705 43.0352 52.7297 45.8046 54.4799C48.5562 56.2283 48.2094 57.5036 48.9013 58.2684C49.5932 59.0368 48.4815 73.4833 47.8252 80.3526Z" fill="#C4FF36"/>
<path d="M47.4801 58.6543C47.2987 57.5071 46.3151 56.7956 44.1469 55.2482C42.0338 53.7167 39.1363 51.641 36.7315 48.9446C34.9457 46.9222 34.8924 46.0293 34.8924 45.9386C34.8746 46.0844 34.7466 46.12 34.6736 46.1395L34.3819 45.1737C33.4713 45.7198 32.3969 46.3761 31.376 47.0146C31.6855 48.3077 32.5605 49.7467 34.0173 51.3689C36.6764 54.357 39.9012 56.6711 42.0142 58.2008C42.6883 58.6739 43.471 59.2573 43.8908 59.6042C43.8908 63.6667 42.5781 86.5494 41.1765 89.0093C40.7567 89.3917 38.4444 89.92 34.9458 89.3562C31.7032 88.8279 27.7314 87.316 26.2925 84.6551C26.0737 84.2353 25.8372 83.8529 25.5828 83.4883C25.0368 84.7458 24.3804 86.2577 23.8344 87.533C26.5309 91.1046 31.7957 92.7801 36.0948 93.1625C36.5501 93.1999 37.1691 93.2355 37.8806 93.2355C39.9581 93.2355 42.7453 92.9082 44.0206 91.286C46.7687 87.8212 47.5157 58.8909 47.4801 58.6543Z" fill="#99C2D6"/>
<path d="M40.3761 117.289C39.8941 118.173 33.9444 124.188 33.9444 124.188L32.0145 117.033L29.0548 105.583C31.4827 106.339 34.6985 107.047 37.9962 107.191V107.223C37.9962 107.223 40.8581 116.403 40.3761 117.289Z" fill="#6C91C4"/>
<path d="M37.0944 75.7013C36.9183 76.6671 36.3865 83.9348 36.3865 83.9348L38.1065 95.674L37.9944 107.189C34.6986 107.045 31.4809 106.337 29.053 105.581L28.8929 104.937L27.703 92.7801L27.0111 81.9409L30.4208 74.4953C30.4208 74.4953 33.8785 65.4898 35.8885 65.7157L38.9922 71.1994L38.7344 74.2872C38.7344 74.2872 37.2723 74.7372 37.0944 75.7013Z" fill="#F09F69"/>
<path d="M41.4433 39.5264C41.4433 39.5264 41.0235 40.6843 40.6215 41.3407C40.2195 41.997 38.9745 43.082 38.7966 43.3737C38.6187 43.6654 40.1644 46.0257 40.5254 46.6322C40.8865 47.2388 44.2376 49.8303 45.9486 50.476C47.6597 51.1217 48.6718 50.9776 49.8208 50.1149C50.9699 49.2523 51.3238 45.0972 51.3238 45.0972C51.3238 45.0972 43.7004 38.4503 41.4433 39.5264Z" fill="#FCC7AA"/>
<path d="M47.6669 50.8158L46.8878 53.377C46.8878 53.377 43.1917 51.8207 40.3441 49.6579C37.4982 47.495 37.4003 43.6032 37.4003 43.6032L39.4725 41.8192L40.5789 41.5399C40.5789 41.5399 39.9652 43.4893 40.2694 44.3911C40.5735 45.2929 45.1661 50.4156 48.1258 49.8464C51.0855 49.2772 52.6223 47.5305 52.6223 47.5305L51.0019 53.377L47.6669 50.8158Z" fill="#FF882A"/>
<path d="M42.5905 44.5458C42.5905 44.5458 44.5738 48.025 44.9384 48.8058C45.303 49.5867 47.0301 52.6531 47.1546 52.8736C47.2791 53.096 50.278 55.0792 51.05 54.8284C51.8201 54.5776 54.9933 50.8157 55.1427 50.0794C55.2921 49.343 55.1214 45.2662 55.1214 45.2662C55.1214 45.2662 53.9581 43.3808 53.2786 43.2367C52.5992 43.0944 42.6243 42.7654 42.5905 44.5458Z" fill="#FAD3BE"/>
<path d="M59.9718 34.2365C59.9718 34.2365 58.4475 41.7497 58.2358 42.422C58.0241 43.0961 55.8275 47.2476 54.963 48.3646C54.0986 49.4816 52.1474 51.1962 51.8575 51.4399C51.5675 51.6836 49.3656 51.8419 48.7644 51.6747C48.1632 51.5075 44.0953 47.4361 42.708 44.7823C41.3224 42.1285 41.1836 37.1251 41.4967 35.6523C41.8097 34.1814 42.5959 28.1037 44.1611 27.7764C45.7264 27.4509 59.8277 28.2708 59.9718 34.2365Z" fill="#FCC7AA"/>
<path d="M58.2483 35.5103C58.2483 35.5103 56.1957 36.6024 53.3017 36.316C50.4078 36.0297 49.8405 35.0211 49.065 35.1101C48.2894 35.1972 46.8932 37.6127 46.8932 37.6127L45.3546 38.9787L43.7271 39.6083L43.1686 42.5556L42.5069 41.3088C42.5069 41.3088 42.8662 38.4593 42.8058 37.8012C42.7453 37.1431 41.9235 35.9212 41.7101 35.7878C41.4966 35.6544 40.9026 37.1395 40.9026 37.1395C40.9026 37.1395 40.497 36.0296 40.8599 31.7964C41.221 27.5649 42.2348 24.2334 45.8491 22.3907C49.4634 20.548 55.6887 21.8482 57.7075 23.4028C59.7263 24.9574 60.7989 27.2377 60.8238 31.4265C60.8505 35.6153 59.0611 38.6461 59.0611 38.6461C59.0611 38.6461 59.376 35.336 59.2532 34.9784C59.1305 34.6263 58.2483 35.5103 58.2483 35.5103Z" fill="#4A2727"/>
<path d="M42.1494 40.6452C42.1494 40.6452 41.2032 40.5936 40.8617 39.8732C40.5202 39.1529 39.9688 36.8299 40.088 36.1202C40.2071 35.4105 40.4952 35.0601 40.8954 35.0939C41.2956 35.1277 42.8235 36.8922 42.7275 37.4649C42.6314 38.0376 42.7329 40.6309 42.1494 40.6452Z" fill="#FFD6BF"/>
<path d="M56.4536 38.0948C56.4536 38.0948 55.0982 40.8161 54.6873 41.2341C54.2764 41.6539 52.5351 41.8211 52.5351 41.8211C52.5351 41.8211 49.0596 41.364 48.1969 40.6792C47.3343 39.9944 48.6096 36.1845 50.0485 36.5384C51.4875 36.8924 54.6838 37.5683 55.7474 37.6021C56.8093 37.6341 56.4536 38.0948 56.4536 38.0948Z" fill="#FFD6BF"/>
<path d="M44.0811 36.2502L42.4233 40.3519L42.3166 43.8879L43.085 45.4354L43.656 40.8428L45.7939 36.5153L44.0811 36.2502Z" fill="#C7C7CE"/>
<path d="M61.3805 36.1896C61.0159 37.8473 60.4698 39.032 59.9771 39.4144C58.6111 40.4354 52.2167 41.2731 46.8967 38.758C44.1646 37.4827 42.5976 34.8414 41.7403 32.5629C40.9026 30.3947 40.7016 28.5555 40.7016 28.5555C40.7745 27.9899 40.883 27.4617 41.0289 26.9707C41.0289 26.953 41.0289 26.9529 41.0289 26.9529C42.4678 21.6507 46.8398 20.6315 49.2997 20.4483C49.8831 20.3931 50.3563 20.3932 50.6657 20.3932H50.8845C51.3772 20.3932 51.6671 20.4305 51.6671 20.4305C53.9812 20.5764 58.4635 21.3785 60.1568 24.9483C60.3756 25.4215 60.5765 25.8964 60.7224 26.3695C62.0173 29.9589 61.9266 33.6408 61.3805 36.1896Z" fill="#FFCB21"/>
<path d="M45.0522 37.5752C45.0522 37.5752 46.1141 41.8405 50.2513 42.7885C54.3885 43.7383 59.424 42.7885 60.5694 42.2193C61.7149 41.6501 60.6975 38.3524 60.6975 38.3524C60.6975 38.3524 58.3923 38.9928 53.5917 38.9928C48.5811 38.9928 45.0522 37.5752 45.0522 37.5752Z" fill="#FFBE24"/>
<path d="M61.1066 32.0187C60.324 33.0575 51.1228 35.7717 46.8967 29.5054C42.651 23.2374 47.626 20.9607 47.626 20.9607C47.626 20.9607 48.2823 20.7063 49.3015 20.4502C49.8849 20.395 50.3581 20.395 50.6675 20.395C52.3626 20.395 58.1735 20.7597 60.1603 24.9502C60.3791 25.4234 60.5801 25.8983 60.726 26.3714C61.4713 28.9398 61.5442 31.4531 61.1066 32.0187Z" fill="#FFDC42"/>
<path d="M59.0291 32.9792C59.0291 32.9792 58.2892 27.54 57.5777 25.5763C56.8662 23.6127 55.1018 21.0211 55.1018 21.0211C55.1018 21.0211 58.6894 23.2427 59.0309 24.7083C59.3706 26.174 59.0291 32.9792 59.0291 32.9792Z" fill="#FFA600"/>
<path d="M55.5553 33.5021C55.5553 33.5021 55.0378 27.3408 53.8194 24.5518C52.601 21.7628 50.6675 20.395 50.6675 20.395L53.2786 20.9358L57.0921 29.1622L55.5553 33.5021Z" fill="#FFA600"/>
<path d="M50.7671 32.6767C50.7671 32.6767 49.8636 26.9156 49.0703 24.9875C48.277 23.0576 46.6157 21.0211 46.6157 21.0211L48.0191 20.9357L51.0393 26.679L50.7671 32.6767Z" fill="#FFA600"/>
<path d="M50.8863 20.395C49.1734 20.4128 45.0558 21.0336 43.3074 26.3163C42.4322 28.9754 41.9769 31.0351 41.7403 32.5648C40.9026 30.3966 40.7016 28.5574 40.7016 28.5574C41.6301 21.8536 46.605 20.6512 49.3015 20.4502C49.8849 20.395 50.3581 20.395 50.6675 20.395H50.8863Z" fill="#FFA600"/>
<path d="M41.1338 26.5849L41.2583 26.2096C41.2583 26.2096 42.4198 31.7466 44.4546 33.8597C46.4912 35.9745 50.4612 38.1499 56.0124 37.8688C59.1482 37.6927 61.3805 36.1898 61.3805 36.1898L61.3058 36.5153C61.3058 36.5153 60.6015 38.0894 59.9718 38.5074C59.3421 38.9254 53.9332 39.7116 50.5466 38.5074C47.1582 37.3032 44.5969 35.8234 43.7431 34.7989C42.8894 33.7743 41.5803 30.4037 41.5803 30.4037L41.1338 26.5849Z" fill="#FFE342"/>
<path d="M61.304 36.5153C60.9394 38.173 60.468 39.0322 59.9771 39.4146C58.6111 40.4355 52.2167 41.2733 46.8967 38.7582C44.1646 37.4829 42.5976 34.8415 41.7403 32.5631C40.9026 30.3948 40.7016 28.5557 40.7016 28.5557C40.7745 27.9901 40.9861 27.0758 41.132 26.5831C41.2227 26.9655 42.4465 33.5645 46.075 35.7345C52.7628 39.7312 60.5765 37.9738 61.304 36.5153Z" fill="#FFA600"/>
<path d="M46.6175 21.0214C46.6175 21.0214 48.7999 22.3305 49.6963 25.7847C50.5928 29.2389 50.7671 32.677 50.7671 32.677C50.7671 32.677 51.7739 33.2854 53.4796 33.3921C52.8695 26.5815 52.6205 25.5215 51.7312 23.5453C50.7725 21.4145 48.6043 20.5198 48.6043 20.5198L46.6175 21.0214Z" fill="#FFE342"/>
<path d="M55.5553 33.5021C55.5553 33.5021 55.2903 25.1992 53.4796 22.8158C51.6689 20.4324 50.6657 20.3968 50.6657 20.3968C50.6657 20.3968 52.1314 20.2491 53.7322 20.6813C56.7222 22.9865 57.1419 26.3376 57.519 28.7939C57.8801 31.156 57.8801 33.2655 57.8801 33.2655C57.8801 33.2655 56.5549 33.5163 55.5553 33.5021Z" fill="#FFE342"/>
<path d="M59.0291 32.9792C59.0291 32.9792 58.9544 28.593 57.8819 25.2917C56.8093 21.9887 55.1 21.0211 55.1 21.0211C55.1 21.0211 57.0192 21.416 58.2038 22.5668C59.4845 23.9826 60.2813 26.5154 60.452 28.7922C60.6228 31.0689 60.5694 32.4011 60.5694 32.4011C60.5694 32.4011 59.5236 32.8511 59.0291 32.9792Z" fill="#FFE342"/>
<path d="M53.2182 44.6153C53.2182 44.6153 51.9411 45.7447 51.4608 45.9635C50.9806 46.1823 52.6223 47.5323 52.6223 47.5323L53.5081 47.6088C53.5081 47.6088 53.7056 44.7985 53.8496 43.6157C53.9937 42.4329 53.2182 44.6153 53.2182 44.6153Z" fill="#FFD6BF"/>
<path d="M49.3584 46.0809C49.3584 46.0809 47.2418 47.936 46.2475 46.9862C45.2532 46.0382 44.0188 43.8575 44.0846 42.6338C44.1505 41.4101 44.2661 40.5154 44.2661 40.5154C44.2661 40.5154 45.0949 41.6057 45.4204 42.287C45.7459 42.9682 47.8803 45.4156 48.1489 45.4192C48.4157 45.4245 50.4986 45.2947 49.3584 46.0809Z" fill="#FFD6BF"/>
<path d="M121.786 143.658C121.786 143.658 126.425 148.03 127.683 148.828C128.94 149.627 129.139 152.007 129.056 152.978C128.972 153.949 126.93 154.927 125.557 154.81C124.184 154.693 120.306 150.847 120.306 150.847C120.306 150.847 114.94 148.257 113.274 146.847C111.609 145.436 113.674 142.156 113.674 142.156L121.786 143.658Z" fill="#2F2720"/>
<path d="M121.848 142.925C121.848 142.925 126.487 147.297 127.745 148.095C129.002 148.894 129.202 151.274 129.118 152.245C129.034 153.216 126.992 154.195 125.619 154.077C124.246 153.96 120.369 150.114 120.369 150.114C120.369 150.114 115.002 147.524 113.336 146.114C111.671 144.703 113.736 141.424 113.736 141.424L121.848 142.925Z" fill="#D6A94F"/>
<path d="M119.474 146.005C118.841 146.181 115.612 146.215 114.076 145.313C113.505 144.979 112.802 144.353 112.144 143.693C111.027 142.571 110.035 141.361 110.035 141.361C110.035 141.361 109.22 128.46 109.355 126.86C109.492 125.259 108.35 107.113 107.454 105.035C106.557 102.963 104.876 97.4402 104.864 96.6754C104.864 96.4673 104.67 95.1101 104.485 93.2372C103.989 88.2497 103.526 79.5787 106.76 79.0148C111.205 78.2429 120.762 78.7498 120.762 78.7498C120.762 78.7498 123.586 83.4473 123.974 89.7029C124.362 95.9585 122.962 114.122 122.852 119.025C122.741 123.932 122.48 141.345 122.636 143.129C122.795 144.906 120.102 145.829 119.474 146.005Z" fill="#355FA3"/>
<path d="M111.317 138.704C112.085 139.844 112.146 143.688 112.146 143.688V143.693C111.029 142.571 110.036 141.361 110.036 141.361C110.036 141.361 109.222 128.461 109.357 126.86C109.494 125.259 108.352 107.113 107.455 105.035C106.559 102.963 104.878 97.4404 104.866 96.6755C104.866 96.4674 104.672 95.1103 104.487 93.2373C106.292 93.682 108.078 94.6354 108.078 94.6354C108.078 94.6354 108.475 102.127 109.234 105.805C109.994 109.478 110.975 118.703 110.906 121.31C110.835 123.918 111.436 126.808 111.436 126.808C111.436 126.808 110.522 126.73 110.764 127.441C111.011 128.155 112.203 134.017 112.745 134.832C113.29 135.648 115.093 140.641 115.093 140.641L111.559 135.883C111.559 135.883 110.545 137.56 111.317 138.704Z" fill="#6C91C4"/>
<path d="M101.237 149.508C101.237 149.508 100.73 154.765 101.244 155.5C101.758 156.235 102.575 160.165 102.23 160.827C101.885 161.489 99.4478 161.684 99.4478 161.684C99.4478 161.684 94.0958 160.939 93.7507 159.586C93.4056 158.23 92.9823 155.084 93.1904 154.008C93.3985 152.932 91.9453 149.696 92.3118 148.113C92.6782 146.53 101.237 149.508 101.237 149.508Z" fill="#2F2720"/>
<path d="M101.31 148.659C101.31 148.659 100.803 153.917 101.317 154.652C101.831 155.386 102.648 159.317 102.303 159.979C101.958 160.64 99.5225 160.836 99.5225 160.836C99.5225 160.836 94.1705 160.091 93.8254 158.735C93.4803 157.38 93.057 154.234 93.2651 153.157C93.4714 152.081 92.02 148.846 92.3865 147.263C92.7493 145.682 101.31 148.659 101.31 148.659Z" fill="#D6A94F"/>
<path d="M103.832 117.786L103.297 143.855C103.297 143.855 102.553 148.94 101.49 149.692C100.43 150.45 93.025 149.892 93.025 149.892C93.025 149.892 92.8151 149.607 92.5039 149.138C91.6305 147.814 89.9834 145.032 90.1471 143.12C90.3694 140.525 90.4637 128.629 90.4335 128.165C90.3997 127.701 89.5299 109.884 88.1016 103.23C86.6698 96.5775 88.2528 80.7384 88.2528 80.7384L96.0523 80.3542L108.775 79.7263C108.775 79.7263 108.708 90.3948 108.505 92.7604C108.302 95.1261 106.461 97.8084 105.397 102.173C104.332 106.538 103.832 117.786 103.832 117.786Z" fill="#355FA3"/>
<path d="M100.728 102.848C100.236 104.189 99.0814 106.855 99.0814 106.855L98.0907 111.227L95.8531 110.437C95.8531 110.437 96.0523 117.123 95.6841 118.244C95.3159 119.364 94.6881 125.915 94.6881 125.915L95.0883 132.02L92.8596 130.216L92.671 136.034L91.442 134.243L91.3851 143.866L92.5021 149.136C91.6287 147.813 89.9817 145.031 90.1453 143.119C90.3676 140.524 90.4619 128.628 90.4317 128.163C90.3979 127.699 89.5281 109.882 88.0998 103.228C86.668 96.5759 88.251 80.7367 88.251 80.7367L96.0505 80.3525C96.1341 83.1984 96.2337 86.9497 96.2373 87.9813C96.2426 89.7048 99.4745 95.9551 99.4745 95.9551C99.4745 95.9551 101.221 101.506 100.728 102.848Z" fill="#6C91C4"/>
<path d="M126.379 42.6658C125.379 46.2676 123.312 56.0788 123.312 56.0788C123.629 61.5945 121.715 65.5432 121.064 68.4833C120.411 71.4235 121.749 76.6617 121.998 77.1437C122.242 77.6257 122.983 80.3987 122.909 80.6228C122.834 80.8469 117.541 85.4644 115.484 86.6152C113.428 87.7624 104.248 90.3237 95.4653 86.9193C92.8684 85.9144 91.0453 85.0251 89.7682 84.2798C86.7267 82.5029 86.7694 81.5068 86.7694 81.5068C86.7694 81.5068 87.8757 76.651 87.9949 75.9467C88.1105 75.2477 89.4712 66.758 89.5548 65.4436C89.6401 64.1273 95.1932 56.4167 93.8858 50.1433C93.6617 49.0548 93.3896 47.815 93.1033 46.5095C91.7319 40.2717 89.9923 32.4313 90.7731 31.4797C91.7141 30.3342 100.296 26.0707 100.296 26.0707C100.296 26.0707 100.296 26.0707 102.655 25.4286C105.013 24.7865 111.843 24.9092 114.661 25.1493C117.484 25.3912 125.721 28.7814 127.186 29.5978C128.656 30.4178 127.377 39.0657 126.379 42.6658Z" fill="#325E80"/>
<path d="M98.7132 69.5789L97.6691 78.5684L95.4618 86.9193L89.77 84.2815C89.77 84.2815 89.77 84.2815 89.7647 84.2815C86.7231 82.5046 86.7658 81.5086 86.7658 81.5086C86.7658 81.5086 87.8721 76.6527 87.9913 75.9484C88.1069 75.2494 89.4676 66.7597 89.5512 65.4453C89.6366 64.1291 95.1896 56.4185 93.8823 50.1451C93.6582 49.0565 93.3861 47.8168 93.0997 46.5112C94.1971 45.2004 94.8891 44.3928 94.8891 44.3928C94.8891 44.3928 99.3215 56.3349 99.3909 57.797C99.4602 59.2644 98.7132 69.5789 98.7132 69.5789Z" fill="#BACEBD"/>
<path d="M118.101 15.4589C118.101 15.4589 116.954 23.5038 116.996 24.3523C117.039 25.2007 117.357 28.2245 117.188 29.7452C117.019 31.2678 114.31 35.1062 114.31 35.1062L112.797 35.284C112.797 35.284 110.075 34.5904 109.108 34.0852C108.14 33.5801 107.036 33.4858 106.475 31.0561C105.915 28.6265 107.804 21.7981 107.879 20.9212C107.955 20.0461 118.101 15.4589 118.101 15.4589Z" fill="#FCC7AA"/>
<path d="M117.156 26.5458C117.156 26.5458 115.072 30.6972 114.27 32.0117C113.466 33.3261 112.311 35.1564 112.311 35.1564C112.311 35.1564 114.15 34.0767 114.6 33.5378C115.05 33.0006 116.913 30.6794 116.913 30.6794L117.19 29.7456L117.156 26.5458Z" fill="#FFD6BF"/>
<path d="M117.188 27.3122C117.188 27.3122 116.189 30.4338 115.136 32.4597C114.083 34.4856 112.793 34.8609 112.793 34.8609C112.793 34.8609 109.967 34.3415 108.61 33.5162C107.253 32.6909 106.084 30.2719 106.084 30.2719C106.084 30.2719 105.248 32.3547 105.349 32.7478C105.451 33.1409 104.946 33.9467 107.052 35.2842C109.158 36.62 111.265 37.6445 111.265 37.6445L112.745 35.5101L114.75 37.6445C114.75 37.6445 117.448 35.2985 117.898 33.9147C119.645 28.5342 118.485 26.7003 117.096 25.6812C117.147 26.4264 117.188 27.3122 117.188 27.3122Z" fill="#4D98C7"/>
<path d="M115.029 23.109C115.029 23.109 113.775 28.3401 113.172 29.5567C112.569 30.7733 108.053 33.2867 106.047 33.2493C104.958 33.2297 103.315 32.0949 102.555 30.6471C101.796 29.1992 101.068 25.8642 101.068 25.8642L102.843 25.3857L111.363 25.5618L115.029 23.109Z" fill="#FAD3BE"/>
<path d="M115.879 23.488C115.879 23.488 113.981 28.6266 113.361 29.1495C112.74 29.6725 106.943 32.7887 105.476 32.4311C104.008 32.0754 103.11 31.3462 102.593 29.7649C102.075 28.1837 100.855 23.5858 100.8 21.969C100.746 20.3504 100.522 18.0274 100.526 17.5294C100.529 17.0313 100.25 12.6665 101.09 10.934C101.929 9.19981 106.315 5.96441 107.624 5.9235C108.934 5.88259 115.509 10.283 115.577 10.4058C115.643 10.5249 117.934 18.5486 115.879 23.488Z" fill="#FCC7AA"/>
<path d="M115.346 21.1846L114.766 22.1256L113.775 22.0402L113.023 20.0552C113.023 20.0552 112.004 18.0471 112.101 16.9034C112.199 15.7597 110.52 13.3887 110.198 13.5523C109.876 13.7177 107.247 14.8365 104.665 14.0397C102.082 13.2428 101.484 11.6936 101.484 11.6936C101.484 11.6936 100.695 12.1578 100.632 12.7324C100.57 13.3051 100.501 14.4524 100.501 14.4524C100.501 14.4524 100.172 11.7736 100.38 9.33328C100.588 6.89293 102.826 3.62727 106.646 2.0727C110.467 0.516359 116.178 2.88734 118.547 4.81721C120.916 6.74885 121.021 10.4823 120.655 12.0636C120.289 13.6448 118.716 19.9254 118.716 19.9254C118.716 19.9254 118.088 17.8372 117.009 18.7817C115.931 19.7297 115.346 21.1846 115.346 21.1846Z" fill="#4A2727"/>
<path d="M116.102 19.9964C116.102 19.9964 117.181 18.6072 118.334 18.5895C119.486 18.5717 119.006 21.0671 118.69 21.615C118.373 22.1646 117.653 24.0109 117 24.1531C116.347 24.2954 115.826 23.214 115.835 23.1002C115.844 22.9864 115.828 20.3059 116.102 19.9964Z" fill="#FFD6BF"/>
<path d="M110.461 15.8825C110.461 15.8825 110.874 19.1446 111.733 19.8703C112.592 20.596 113.419 22.1648 113.407 22.3178C113.394 22.4707 111.829 25.9462 111.829 25.9462C111.829 25.9462 108.679 27.5275 107.756 26.7502C106.833 25.9729 106.701 24.9929 107.352 24.9787C108.005 24.9662 110.415 24.0573 110.872 23.6553C111.329 23.2533 111.166 21.5707 111.166 21.5707L107.665 20.29C107.665 20.29 103.798 20.1513 102.605 19.2816C101.411 18.4118 102.006 15.5054 102.395 15.0003C102.785 14.4951 104.642 15.2297 105.887 15.4912C107.13 15.7509 110.337 15.091 110.461 15.8825Z" fill="#FFD6BF"/>
<path d="M120.845 13.344C120.828 13.417 120.828 13.4721 120.808 13.4899C120.662 13.7087 117.656 15.3113 115.835 15.8396C114.013 16.3678 110.698 17.2056 105.141 16.4763C99.5848 15.7648 99.1295 13.8705 99.1295 13.8705C99.1295 13.8705 98.8377 11.7752 99.8213 6.72913C100.04 5.59967 100.531 4.65163 101.17 3.86901C101.242 3.76051 101.298 3.6876 101.298 3.6876C103.466 1.1014 107.073 0.31697 107.073 0.31697C109.551 0.115979 111.646 0.352556 113.414 0.863037C113.432 0.863037 113.45 0.880841 113.469 0.880841C116.166 1.68303 118.06 3.13973 119.245 4.72453C119.262 4.72453 119.262 4.74234 119.262 4.74234C119.444 4.9789 119.609 5.23504 119.755 5.4716C121.356 8.20721 121.027 12.5063 120.845 13.344Z" fill="#F2F0FC"/>
<path d="M105.961 7.75023C99.9067 7.02275 100.787 4.52547 101.17 3.86914C101.242 3.76064 101.298 3.68773 101.298 3.68773C103.466 1.10153 107.073 0.317097 107.073 0.317097C113.359 -0.193385 117.293 2.08333 119.243 4.72645C119.261 4.72645 119.261 4.74426 119.261 4.74426C120.445 6.71326 112.236 8.50439 105.961 7.75023Z" fill="#F2F2F2"/>
<path d="M107.875 7.90312C107.875 7.90312 109.784 3.14515 111.349 2.29138C112.914 1.43762 113.661 0.98048 115.963 1.9214C115.218 1.43582 113.597 0.758131 112.43 0.884418C111.265 1.00893 107.447 3.63606 107.875 7.90312Z" fill="#CFCFE6"/>
<path d="M120.845 13.3443C120.353 13.3443 120.063 13.3443 120.063 13.3443C120.063 13.3443 120.774 3.0866 113.467 0.882812C116.164 1.685 118.058 3.14176 119.243 4.72656C119.261 4.72656 119.261 4.74436 119.261 4.74436C119.442 4.98093 119.607 5.23707 119.753 5.47363C121.356 8.20746 121.027 12.5065 120.845 13.3443Z" fill="#CFCFE6"/>
<path d="M99.1454 11.5495L99.1757 11.1439C99.1757 11.1439 99.7537 13.2019 105.296 13.9383C110.838 14.6729 118.41 12.7945 119.919 11.6562C121.002 11.0568 120.997 10.7722 120.997 10.7722L121.265 10.9429L120.118 12.9635L107.109 15.6671L100.89 14.1873L99.4212 12.3659L99.1454 11.5495Z" fill="#F2F2F2"/>
<path d="M99.1454 11.5494C99.1454 11.5494 99.0619 13.1076 104.869 14.0574C110.677 15.0054 118.811 13.3352 121.005 11.2862C121.265 10.9447 121.265 10.9447 121.265 10.9447V13.5255C121.265 13.5255 118.665 15.8663 113.153 16.6116C107.64 17.3586 104.316 16.6365 101.897 16.0673C99.4781 15.4981 99.0939 13.3352 99.0939 13.3352L99.1454 11.5494Z" fill="#CFCFE6"/>
<path d="M99.0992 12.4976C99.0992 12.4976 95.0011 15.0019 98.795 16.7682C102.591 18.5344 106.232 18.4491 108.608 18.4206C110.984 18.3921 113.405 16.4178 113.405 16.4178C113.405 16.4178 106.993 16.7682 102.183 15.4573C99.7164 14.7885 99.4407 14.1268 99.0992 12.4976Z" fill="#EAEAF5"/>
<path d="M115.965 1.91977C115.965 1.91977 114.054 0.553762 112.091 1.29369C110.127 2.03362 109.085 4.31031 108.61 5.62119C108.135 6.9303 107.877 7.90328 107.877 7.90328C107.877 7.90328 106.42 7.81252 105.961 7.75205C106.454 4.82434 106.995 3.34448 108.218 1.86462C109.442 0.384758 111.424 0.432796 111.424 0.432796C111.424 0.432796 114.344 0.610661 115.965 1.91977Z" fill="#F5F5F5"/>
<path d="M103.969 7.39459C103.969 7.39459 105.518 2.39651 107.31 1.32396C109.103 0.249641 109.615 0.270966 109.615 0.270966L108.978 0.249634C108.978 0.249634 105.846 0.726338 105.296 1.72418C104.747 2.71668 103.42 5.89338 103.969 7.39459Z" fill="#CFCFE6"/>
<path d="M108.978 0.247818C108.978 0.247818 106.756 0.212232 105.296 3.25911C103.836 6.30421 103.969 7.39457 103.969 7.39457C103.969 7.39457 102.628 7.01569 102.173 6.70976C102.384 4.73898 103.38 2.23815 104.675 1.18161C105.97 0.126857 108.028 0.215801 108.978 0.247818Z" fill="#F5F5F5"/>
<path d="M104.161 22.1807C104.161 22.1807 103.267 24.5624 103.039 24.8594C102.811 25.1565 102.843 25.7932 103.117 25.9604C103.391 26.1276 104.997 26.2184 105.289 25.8289C105.581 25.4411 104.697 23.9914 104.697 23.9914C104.697 23.9914 104.446 21.8784 104.161 22.1807Z" fill="#FFD6BF"/>
<path d="M68.5041 217.241L54.7709 214.785L127.17 172.984L148.532 176.49L147.723 171.503L133.99 169.046L134.045 169.014L112.578 156.62L114.73 156.974L113.921 151.987L100.35 149.561L93.4643 145.585L67.1203 160.795C66.3519 159.79 65.3434 158.86 64.0254 158.05C55.9271 153.074 40.3565 154.239 29.2486 160.654C18.1408 167.07 15.7022 176.303 23.8005 181.28C25.1168 182.089 26.6464 182.719 28.3059 183.206L0 199.549L40.5806 222.978L47.9497 218.723L69.3117 222.229L68.5041 217.241Z" fill="#CCC0BC"/>
<path d="M131.537 86.3193L128.471 88.0891L114.73 156.974L117.795 155.204L131.537 86.3193Z" fill="#B8630F"/>
<path d="M128.471 88.0896L134.79 91.7395L148.532 176.49L142.213 172.842L128.471 88.0896Z" fill="#8A4807"/>
<path d="M137.857 89.9692L134.79 91.7391L148.532 176.49L151.597 174.72L137.857 89.9692Z" fill="#B8630F"/>
<path d="M128.471 88.0895L122.151 84.4414L108.411 153.326L114.73 156.974L128.471 88.0895Z" fill="#8A4807"/>
<path d="M113.055 125.356L113.035 120.458L140.742 139.682L140.759 144.582L113.055 125.356Z" fill="#7A4006"/>
<path d="M114.627 119.497L113.035 120.458L140.742 139.682L142.332 138.721L114.627 119.497Z" fill="#D6802B"/>
<path d="M142.351 143.62L140.759 144.582L140.742 139.682L142.332 138.721L142.351 143.62Z" fill="#B8630F"/>
<path d="M75.3236 162.942V159.091L168.788 105.129V108.98L75.3236 162.942Z" fill="#D47D26"/>
<path d="M52.3181 132.058L49.2517 133.828L35.5114 202.711L38.5761 200.941L52.3181 132.058Z" fill="#B8630F"/>
<path d="M49.2517 133.828L55.5713 137.476L69.3117 222.227L62.992 218.579L49.2517 133.828Z" fill="#8A4807"/>
<path d="M58.6378 135.707L55.5713 137.476L69.3117 222.227L72.3781 220.457L58.6378 135.707Z" fill="#B8630F"/>
<path d="M49.2517 133.829L42.9321 130.179L29.1917 199.063L35.5114 202.712L49.2517 133.829Z" fill="#8A4807"/>
<path d="M33.8341 171.094L33.8163 166.195L61.521 185.421L61.5406 190.319L33.8341 171.094Z" fill="#7A4006"/>
<path d="M35.4082 165.235L33.8163 166.195L61.521 185.421L63.1129 184.461L35.4082 165.235Z" fill="#D6802B"/>
<path d="M63.1307 189.359L61.5406 190.319L61.521 185.421L63.1129 184.46L63.1307 189.359Z" fill="#B8630F"/>
<path d="M75.3236 159.091L20.5882 127.489L114.053 73.5276L168.788 105.129L75.3236 159.091Z" fill="#F8C25A"/>
<path d="M81.1221 146.281L42.7773 124.142L108.254 86.3394L146.599 108.477L81.1221 146.281Z" fill="#3581BD"/>
<path d="M92.3029 120.862L83.55 115.953L99.3695 106.819L108.121 111.728L92.3029 120.862ZM85.3909 115.942L92.2958 119.812L106.278 111.739L99.3749 107.869L85.3909 115.942Z" fill="#C2D9EB"/>
<path d="M80.3057 126.639L68.4027 119.766L80.3057 112.893L92.2086 119.766L80.3057 126.639ZM70.2223 119.766L80.3057 125.586L90.389 119.766L80.3057 113.946L70.2223 119.766Z" fill="#C2D9EB"/>
<path d="M102.29 127.21L90.389 120.337L102.29 113.464L114.193 120.337L102.29 127.21ZM92.2086 120.337L102.29 126.159L112.373 120.337L102.29 114.517L92.2086 120.337Z" fill="#C2D9EB"/>
<path d="M106.086 116.351L94.1829 109.478L106.086 102.605L117.987 109.478L106.086 116.351ZM96.0025 109.477L106.086 115.296L116.167 109.477L106.086 103.655L96.0025 109.477Z" fill="#C2D9EB"/>
<path d="M83.3935 141.786L83.1658 141.655L50.5608 122.829L105.981 90.8323L106.209 90.9639L138.814 109.789L83.3935 141.786ZM52.3822 122.829L83.3952 140.733L136.996 109.789L105.984 91.8853L52.3822 122.829Z" fill="#C2D9EB"/>
<path d="M20.5882 131.34V127.49L75.3236 159.091V162.942L20.5882 131.34Z" fill="#9F5900"/>
<path d="M47.0479 120.818L43.9459 120.75L42.8431 125.947L39.5845 127.043L35.723 127.066L29.5581 122.312L43.6649 114.167L47.0479 120.818Z" fill="#D1BF91"/>
<path d="M47.1421 120.556C47.1421 120.64 47.1084 120.725 47.0408 120.826C46.6531 121.399 45.118 120.995 45.118 120.995L43.9886 119.713C43.9886 119.713 43.9726 120.152 43.9548 120.759C43.8872 121.94 43.8036 123.727 43.7858 124.032C43.7342 124.487 43.6506 125.903 42.8413 125.954C42.8253 125.954 42.8253 125.954 42.8075 125.954C42.032 125.954 41.7617 124.706 41.8133 124.167C41.8471 123.644 41.2405 119.09 41.2405 119.09L40.5664 121.182L40.0434 123.493V123.509L39.7571 124.841C39.7571 124.841 39.7731 126.191 39.5881 127.05C39.5383 127.287 39.4529 127.505 39.3693 127.607C38.9318 128.112 38.1047 127.505 38.1047 127.505L37.9019 127.253C37.9019 127.253 37.6316 127.557 37.363 127.758C37.363 127.758 37.363 127.758 37.347 127.774C37.2118 127.875 37.0428 127.943 36.9076 127.943C36.5359 127.909 35.6768 127.605 35.7266 127.066C35.7426 126.829 35.7266 126.527 35.7106 126.273C35.6768 125.986 35.643 125.75 35.643 125.75C35.643 125.75 35.1539 125.953 34.7821 125.851C34.6132 125.817 34.478 125.734 34.3944 125.565C34.0902 125.008 33.5851 122.934 33.6349 122.208C33.7024 121.483 34.0066 120.202 34.0066 120.083C34.0066 120.083 34.0226 120.033 34.0742 119.914C34.0742 119.898 34.0902 119.88 34.0902 119.862C34.108 119.795 34.1418 119.727 34.1738 119.644C34.1738 119.628 34.1738 119.594 34.1916 119.576C34.4282 118.985 34.8657 117.924 35.2197 116.86C35.2357 116.842 35.2357 116.826 35.2357 116.808C35.5896 115.78 35.876 114.75 35.8938 114.178C35.9436 112.676 35.7426 111.75 35.1521 109.962C34.5615 108.191 29.1651 94.6317 28.6261 92.8602C28.0872 91.0726 27.8666 84.5288 27.3953 83.3318C27.0075 82.3535 25.4387 74.8315 24.882 72.1848C24.7646 71.6103 24.697 71.2741 24.697 71.2741C24.697 71.2741 25.1346 70.954 25.7429 70.5146C26.9737 69.6039 28.8627 68.2379 29.0654 68.2379C29.4194 68.2379 35.2374 70.7174 35.2374 70.7174C35.2374 70.7174 35.8956 76.5017 35.8956 79.1501C35.8956 81.7986 35.7782 84.632 36.1819 86.7059C36.5697 88.7639 39.3355 101.295 39.8923 103.538C40.4152 105.765 41.984 111.312 42.7079 112.257C43.4336 113.201 45.8277 115.798 45.8953 116.253C45.9789 116.725 46.2155 118.902 46.3347 119.17C46.4503 119.425 47.1759 120.015 47.1421 120.556Z" fill="#FCC7AA"/>
<path d="M35.7213 126.188C35.7213 126.188 35.7142 126.22 35.6999 126.279C35.675 125.987 35.6395 125.757 35.6395 125.757C35.6395 125.757 35.1574 125.948 34.7732 125.859V125.853C34.7732 125.853 35.2962 125.455 35.1503 124.292C35.0045 123.132 35.3495 121.101 35.3495 121.101L36.2904 119.052L35.86 121.398C35.86 121.398 35.9632 122.504 35.8066 122.611C35.6448 122.711 35.7213 126.188 35.7213 126.188Z" fill="#FAD3BE"/>
<path d="M39.5845 127.043C39.5312 127.292 39.4582 127.499 39.3604 127.609C38.9353 128.112 38.1029 127.502 38.1029 127.502L37.893 127.253C37.893 127.253 37.6369 127.563 37.3523 127.765L37.8646 121.762L38.432 119.16L38.1919 121.979L37.9499 127.029C37.9499 127.029 38.5547 127.44 39.0243 127.411C39.2181 127.394 39.4156 127.232 39.5845 127.043Z" fill="#FAD3BE"/>
<path d="M42.2633 125.092C42.3557 125.256 42.5745 125.652 42.8449 125.948C42.0338 125.994 41.7616 124.702 41.8079 124.172C41.8541 123.637 41.2423 119.091 41.2423 119.091L40.5664 121.184L40.0505 123.491L40.6073 119.345L41.3614 117.755L41.9466 121.648C41.9431 121.648 42.0302 124.688 42.2633 125.092Z" fill="#FAD3BE"/>
<path d="M47.1386 120.553C47.1351 120.64 47.1048 120.729 47.0479 120.816C46.653 121.396 45.1109 120.996 45.1109 120.996L43.9904 119.706C43.9904 119.706 43.9708 120.147 43.9477 120.749C43.9441 120.743 43.9441 120.743 43.9441 120.743L43.7484 118.497L43.6648 116.286L44.3959 119.013C44.3959 119.013 44.8459 119.623 45.4488 120.176C45.9042 120.596 46.7544 120.585 47.1386 120.553Z" fill="#FAD3BE"/>
<path d="M36.2122 114.788C36.0094 115.006 35.6217 115.85 35.2339 116.812C35.5879 115.784 35.8742 114.754 35.892 114.181C35.9418 112.68 35.7408 111.753 35.1503 109.966C34.5598 108.194 29.1633 94.6352 28.6243 92.8637C28.0854 91.0761 27.8648 84.5323 27.3935 83.3353C27.0057 82.357 25.4369 74.835 24.8802 72.1883L25.8069 71.1086C25.8069 71.1086 27.4433 78.6306 27.831 81.4303C28.201 84.2121 28.3202 85.4608 29.3482 87.9225C30.3603 90.402 28.4714 89.9965 30.6645 95.9497C32.8398 101.903 35.5896 110.353 36.9557 111.769C37.7134 112.308 36.7351 114.197 36.2122 114.788Z" fill="#FAD3BE"/>
<path d="M36.3936 71.292C36.3936 71.292 33.9568 72.4962 30.5986 72.699C27.2405 72.9017 24.7895 72.2614 24.5369 72.1814C24.2843 72.1031 22.639 63.3787 22.7262 62.3488C22.8133 61.319 22.993 57.5321 23.8468 55.3017C24.7005 53.0694 27.4717 50.8176 27.4717 50.8176C27.4717 50.8176 32.3613 53.0623 34.3 58.7008C36.237 64.3374 36.3936 71.292 36.3936 71.292Z" fill="#FF882A"/>
<path d="M88.0909 105.138L81.3053 105.283L77.2944 104.214L66.4533 101.01L73.6036 96.8818L84.4713 98.9326L88.0909 105.138Z" fill="#D1BF91"/>
<path d="M88.5107 103.287C88.5107 103.287 87.5235 101.544 87.5004 100.708C87.4773 99.8736 81.8193 96.8818 81.8193 96.8818L80.7593 97.8405L83.5553 102.031C83.5553 102.031 86.6876 104.05 86.7658 103.897C86.8441 103.746 88.0909 105.138 88.0909 105.138L88.5107 103.287Z" fill="#FA9C69"/>
<path d="M88.9109 103.209L88.621 104.527L88.0909 105.138L87.817 103.82C87.817 103.82 86.1611 100.861 85.9512 100.717C85.7573 100.573 83.7474 98.9806 83.7474 98.9806C83.7474 98.9806 81.4156 98.8525 81.2395 98.9966C81.0474 99.1567 80.4836 100.058 80.4836 100.058C80.4836 100.058 80.8375 102.262 80.9015 102.342C80.9175 102.39 81.1754 102.856 81.4156 103.338C81.6254 103.772 81.8176 104.206 81.8176 104.352C81.8176 104.674 81.8496 105.334 81.3035 105.284C80.7575 105.252 80.4035 104.978 80.4035 104.978L79.1175 103.338L77.4135 98.6746C77.4135 98.6746 75.5797 93.673 75.2097 93.3351C74.8398 92.9811 68.4561 85.0695 65.7863 81.9497C63.1165 78.8459 59.8526 71.7703 59.8526 71.7703L58.8708 69.7444C58.9989 68.5065 59.3528 66.0785 59.6908 63.7147C59.9487 63.6987 60.2368 63.6667 60.5428 63.6186C61.5726 63.4906 62.7465 63.2647 63.5505 62.8627C63.9845 62.6528 64.2904 62.4287 64.4825 62.1868C65.2385 63.3927 66.8304 65.8847 67.6984 66.8825C68.8883 68.2165 71.5581 72.6881 72.7161 75.952C73.89 79.2159 78.0059 88.3192 78.3598 89.1231C78.7138 89.9111 80.8678 93.1269 81.1737 93.5769C81.4796 94.0269 85.4834 96.5207 85.6435 96.5847C85.8036 96.6647 88.2813 100.492 88.3293 100.588C88.3809 100.683 88.9109 103.209 88.9109 103.209Z" fill="#FCC7AA"/>
<path d="M81.8193 104.35C81.8193 104.672 81.8513 105.332 81.3053 105.282C80.7592 105.25 80.4053 104.976 80.4053 104.976L79.1193 103.336L77.4153 98.6727C77.4153 98.6727 75.5815 93.6711 75.2115 93.3331C74.8415 92.9792 68.4579 85.0676 65.7881 81.9478C63.1183 78.844 59.8544 71.7684 59.8544 71.7684L58.8725 69.7425C59.0006 68.5045 59.3546 66.0766 59.6925 63.7127C59.9504 63.6967 60.2386 63.6647 60.5445 63.6167C60.6406 65.4345 60.8504 69.3262 61.0425 70.0822C61.3004 71.096 62.2965 72.9601 63.0525 74.118C63.8244 75.2759 65.9304 78.2196 66.3644 79.1837C66.7984 80.1477 71.0121 86.2593 71.0121 86.2593C71.0121 86.2593 73.552 89.4752 74.1799 90.1671C74.8238 90.843 75.7558 92.7728 76.3019 93.6248C76.8639 94.4768 78.4897 100.508 78.4897 100.508L79.9215 103.21L81.4174 103.338C81.6272 103.77 81.8193 104.204 81.8193 104.35Z" fill="#FAD3BE"/>
<path d="M130.043 94.1924L124.79 84.4505L119.026 76.3984L132.015 83.9364L137.905 93.906L138.433 99.845L136.028 100.471L130.043 94.1924Z" fill="#D1BF91"/>
<path d="M100.52 104.635V86.9196L98.635 82.4285L91.6163 86.9196L93.0802 97.2555L91.2979 100.47C91.2979 100.47 90.6896 105.414 91.4598 106.476C92.23 107.54 94.158 110.354 94.158 110.354L95.501 109.447C95.501 109.447 96.947 104.993 100.52 104.635Z" fill="#D1BF91"/>
<path d="M139.594 97.8937C139.399 98.1303 139.162 98.0555 139.032 98.3899C138.951 98.5998 138.94 98.8151 138.917 99.0392C138.89 99.2402 138.888 99.5301 138.773 99.7044C138.757 99.7311 138.422 99.9836 138.433 99.8467C138.371 100.247 137.958 100.649 137.561 100.389C137.177 100.14 137.188 99.5781 137.213 99.1797C137.22 99.0374 137.339 98.5589 137.151 98.5607C137.054 98.5607 136.873 98.7901 136.727 98.9947C136.638 99.1156 136.564 99.2295 136.524 99.2722L135.603 98.6176C135.603 98.6176 135.774 95.9212 135.71 95.3129C135.646 94.7045 135.311 93.9237 134.803 92.7551C134.298 91.5918 132.755 91.1009 132.755 91.1009L131.761 92.3246L131.576 94.4982L130.461 95.6882L130.176 95.9905C130.176 95.9905 129.269 94.5302 129.168 93.6551C129.066 92.7853 129.876 88.705 129.89 88.536C129.904 88.3617 131.347 82.2645 130.975 79.2354C130.601 76.208 128.102 64.298 128.15 63.0387C128.204 61.7705 125.488 52.4413 124.975 51.6462C124.589 51.0379 124.904 49.0138 125.07 48.1049C125.121 47.8274 125.159 47.6567 125.159 47.6567L128.154 46.7887C128.154 46.7887 132.106 45.7428 132.869 47.5961C132.873 47.6104 132.882 47.6193 132.883 47.6335C133.677 49.5723 136.916 58.9709 137.213 62.1387C137.52 65.3314 136.864 78.41 136.679 80.5889C136.494 82.7571 136.999 85.9161 137.202 86.5653C137.408 87.2145 139.217 91.3464 139.301 92.0454C139.393 92.8423 139.488 93.6373 139.582 94.4288C139.682 95.2026 139.742 95.9443 139.726 96.7269C139.721 97.0524 139.82 97.618 139.594 97.8937Z" fill="#FCC7AA"/>
<path d="M130.043 94.1923L130.459 95.6881L130.175 95.9905C130.175 95.9905 129.267 94.5302 129.166 93.6551C129.065 92.7853 129.874 88.705 129.888 88.536C129.902 88.3617 131.345 82.2644 130.973 79.2354C130.6 76.208 128.101 64.298 128.149 63.0387C128.202 61.7705 125.486 52.4413 124.974 51.6462C124.588 51.0379 124.903 49.0138 125.068 48.1049C126.35 48.4215 127.297 48.7327 127.297 48.7327C127.297 48.7327 126.84 52.0944 127.345 53.5761C127.853 55.0577 129.114 60.5254 129.114 60.5254L132.515 59.8335C132.515 59.8335 130.045 61.1248 129.918 61.9163C129.79 62.7167 130.744 67.7486 130.577 69.6963C130.411 71.6368 131.866 80.2865 131.976 80.9873C132.087 81.6881 132.015 83.931 132.015 83.931C132.015 83.931 130.057 91.3125 130.018 91.7714C129.979 92.2339 130.043 94.1923 130.043 94.1923Z" fill="#FAD3BE"/>
<path d="M132.912 91.1592L131.681 93.2349L130.196 95.46L128.947 97.5571C128.947 97.5571 128.586 98.0445 130.233 98.3291C131.88 98.6136 134.41 99.0316 134.678 98.9107C134.947 98.7897 135.669 97.3277 135.669 97.3277L135.706 95.3124L135.407 94.215L134.801 92.7582C134.801 92.7582 134.657 91.7515 132.912 91.1592Z" fill="#323338"/>
<path d="M101.246 100.839C101.246 100.839 101.219 103.1 100.794 104.18C100.794 104.18 100.794 104.18 100.789 104.18C100.716 104.381 100.625 104.539 100.52 104.637C99.8302 105.268 99.3073 103.957 99.0565 102.899C98.7968 101.839 99.0707 98.6372 99.0707 98.6372L98.1974 100.121L97.9199 103.379C97.9199 103.379 97.6229 106.865 97.4895 108.413C97.3579 109.96 95.8104 109.827 95.5027 109.45C95.4351 109.375 95.3925 109.131 95.364 108.802C95.2484 107.557 95.3604 105.005 95.3604 105.005C95.3604 105.005 94.6152 104.941 94.4444 104.927C94.2754 104.912 93.0161 104.114 92.5252 103.666C92.029 103.223 91.0027 100.715 90.6878 99.6511C90.3784 98.5874 90.3819 97.8422 90.9404 96.0457C91.4989 94.2492 92.3563 92.3052 92.4061 91.7324C92.4541 91.1597 89.5566 75.8185 89.2062 73.195C88.854 70.575 89.3058 67.4374 89.5103 65.9664C89.7149 64.4901 88.0838 55.2997 87.6712 52.0376C87.2585 48.7755 88.1354 46.6019 88.1354 46.6019C88.1354 46.6019 88.3471 46.6055 88.71 46.6233C90.3819 46.6873 95.2128 46.9488 96.3369 47.7083C97.7012 48.6314 97.4059 50.6804 97.8684 54.0617C98.3308 57.443 98.016 63.117 97.8292 64.604C97.6478 66.082 97.6478 69.4277 97.6531 76.1654C97.6496 82.903 98.0462 89.0484 98.8057 90.9569C99.5652 92.8654 101.552 97.7497 101.552 97.7497L101.246 100.839Z" fill="#FCC7AA"/>
<path d="M139.594 97.8937C139.399 98.1302 139.162 98.0555 139.032 98.3899C138.951 98.5998 138.94 98.815 138.917 99.0392C138.89 99.2402 138.888 99.5301 138.773 99.7044C138.757 99.7311 138.422 99.9836 138.433 99.8466C138.371 100.247 137.958 100.649 137.561 100.389C137.177 100.14 137.188 99.5781 137.213 99.1796C137.22 99.0373 137.339 98.5589 137.15 98.5607C137.054 98.5607 136.873 98.7901 136.727 98.9947L137.286 95.7557L136.907 91.4549L137.588 95.56L137.302 99.6243C137.302 99.6243 137.588 99.9943 137.88 99.932C138.175 99.8751 138.061 95.8002 138.061 95.8002L137.737 91.8266L138.287 95.1599L138.328 98.735L138.653 98.3294L138.862 97.5681L138.353 91.7092L138.975 94.5551L139.244 97.0808C139.246 96.7446 139.248 94.0677 139.253 93.6853C139.255 93.2851 138.312 91.2129 138.246 90.5762C138.189 89.9394 135.927 86.0601 135.977 85.4838C136.025 84.9164 136.071 72.8783 136.564 69.1733C137.054 65.4737 136.122 60.8402 135.612 58.6666C135.107 56.4949 132.318 48.071 132.318 48.071L132.889 47.6406C133.682 49.5794 136.921 58.9779 137.218 62.1458C137.526 65.3385 136.869 78.4171 136.684 80.596C136.5 82.7642 137.005 85.9232 137.207 86.5724C137.414 87.2216 139.223 91.3535 139.306 92.0525C139.399 92.8493 139.493 93.6444 139.587 94.4359C139.687 95.2096 139.747 95.9513 139.731 96.734C139.721 97.0523 139.82 97.618 139.594 97.8937Z" fill="#FAD3BE"/>
<path d="M95.2608 100.766L95.3604 105.001C95.3604 105.001 94.6152 104.937 94.4444 104.923C94.2754 104.909 93.0161 104.11 92.5252 103.662C92.029 103.219 91.0027 100.711 90.6878 99.6475C90.3784 98.5839 90.3819 97.8386 90.9404 96.0421C91.4989 94.2456 92.3563 92.3016 92.4061 91.7288C92.4541 91.1561 89.5566 75.815 89.2062 73.1914C88.854 70.5714 89.3058 67.4338 89.5103 65.9629C89.7149 64.4866 88.0838 55.2961 87.6712 52.034C87.2585 48.7719 88.1354 46.5984 88.1354 46.5984C88.1354 46.5984 88.3471 46.6019 88.71 46.6197C88.6246 47.9537 88.4645 49.165 88.4485 49.6808C88.3773 51.8633 89.6953 61.4255 89.8483 61.9537C90.0048 62.4873 89.8021 66.2172 89.7505 70.1588C89.7042 74.1039 92.4167 89.1159 92.4167 89.1355C92.4149 89.1586 93.5248 91.9779 93.5248 91.9779C93.5248 91.9779 93.146 92.2553 92.7315 93.0628C92.3171 93.8757 91.0436 98.9111 91.0436 98.9111L92.0183 101.414L92.3313 99.7898L92.6942 101.7L93.3878 102.911L93.7845 100.258L94.1331 103.628L94.9656 104.238L95.2608 100.766Z" fill="#FAD3BE"/>
<path d="M134.084 48.2222C134.084 48.2222 131.695 50.5522 129.522 51.0592C127.346 51.5643 124.977 51.6497 124.977 51.6497C124.977 51.6497 124.097 48.4641 123.96 48.0479C123.823 47.6334 127.186 29.5994 127.186 29.5994C127.186 29.5994 128.679 30.4175 130.212 34.1208C131.747 37.824 133.307 45.8512 134.084 48.2222Z" fill="#4D98C7"/>
<path d="M90.7697 31.4828C90.7697 31.4828 87.8117 34.1882 87.2478 39.4388C86.684 44.6913 87.0504 49.8495 87.0504 49.8495C87.0504 49.8495 91.0685 50.0203 93.5142 50.4009C95.9581 50.7833 97.7332 50.2426 97.7332 50.2426C97.7332 50.2426 97.068 42.5231 96.5522 40.4634C96.0363 38.4037 94.5405 33.7702 93.1549 31.6856C92.029 29.9959 90.7697 31.4828 90.7697 31.4828Z" fill="#4D98C7"/>
<path d="M100.791 104.18C100.718 104.381 100.627 104.539 100.522 104.637C99.832 105.268 99.3091 103.957 99.0583 102.899C98.7986 101.839 99.0725 98.6373 99.0725 98.6373L98.1992 100.121L97.9217 103.379C97.9217 103.379 97.6247 106.865 97.4913 108.413C97.3596 109.96 95.8122 109.827 95.5045 109.45C95.4369 109.375 95.3942 109.132 95.3657 108.802C95.5525 108.989 95.7517 109.135 95.9296 109.164C96.4632 109.236 97.1551 108.304 97.1551 108.304L97.6887 102.054L98.2526 99.066L99.2042 96.8835C99.2042 96.8835 99.5919 97.2997 99.5759 98.4132C99.5545 99.5213 99.5812 101.907 99.5812 101.907C99.5812 101.907 99.4194 102.929 99.7342 103.726C100.031 104.478 100.723 104.21 100.791 104.18Z" fill="#FAD3BE"/>
<path d="M122.138 44.8198L115.762 45.5028V47.2672L122.138 46.4971V44.8198Z" fill="#4D98C7"/>
<path d="M119.645 45.0866V41.1183H120.886V44.9531L119.645 45.0866Z" fill="#0053D0"/>
<path d="M118.951 43.6956H117.585L117.718 45.2928L118.951 45.1612V43.6956Z" fill="#FFE342"/>
</svg>
