<svg width="52" height="46" viewBox="0 0 52 46" fill="none" xmlns="http://www.w3.org/2000/svg">
<path d="M35.0588 28.4353L39.511 31.0054L35.0588 33.5755L30.6072 31.0054L35.0588 28.4353Z" fill="#4EB9F2"/>
<path d="M44.6939 28.5085L49.1455 31.0787L44.6939 33.6488L40.2417 31.0787L44.6939 28.5085Z" fill="#4EB9F2"/>
<path d="M39.94 31.2529L44.3916 33.8231L39.94 36.3938L35.4879 33.8231L39.94 31.2529Z" fill="#339DD6"/>
<path d="M35.1856 33.998L39.6378 36.5682L35.1856 39.1383L30.734 36.5682L35.1856 33.998Z" fill="#2C87B8"/>
<path d="M30.4317 36.7424L34.8839 39.3125L30.4317 41.8833L25.9802 39.3125L30.4317 36.7424Z" fill="#4EB9F2"/>
<path d="M25.6779 39.4873L30.1301 42.0574L25.6779 44.6275L21.2263 42.0574L25.6779 39.4873Z" fill="#2C87B8"/>
<path d="M47.0705 32.6255L51.5227 35.1956L47.0705 37.7663L42.6189 35.1956L47.0705 32.6255Z" fill="#339DD6"/>
<path d="M42.3167 35.3699L46.7689 37.9406L42.3167 40.5107L37.8651 37.9406L42.3167 35.3699Z" fill="#2C87B8"/>
<path d="M37.5628 38.115L42.015 40.6851L37.5628 43.2558L33.1107 40.6851L37.5628 38.115Z" fill="#4EB9F2"/>
<path d="M32.809 40.8591L37.2606 43.4299L32.809 46L28.3568 43.4299L32.809 40.8591Z" fill="#2C87B8"/>
<path d="M33.2098 30.8827C33.2098 30.8827 33.4826 31.9258 32.8751 32.1981C32.267 32.4703 30.0898 32.8861 30.0898 32.8861L27.3514 34.6474C27.3514 34.6474 27.5047 35.4208 27.1417 35.8053C26.7788 36.1899 21.7437 34.8289 21.7437 34.8289C21.7437 34.8289 20.519 33.6547 20.5647 32.8128C20.6098 31.9715 20.5635 31.5677 20.5635 31.5677L20.9241 30.316L15.666 29.5192L15.1835 30.316C15.1835 30.316 12.4163 30.9734 12.0906 30.8827C11.7649 30.7919 0.334854 26.678 0.0175698 26.1721C-0.299714 25.6661 3.77691 23.2853 4.43732 23.2967C5.09772 23.3081 8.81679 21.4026 10.4044 21.6748C11.992 21.947 22.6391 25.6997 22.7917 25.7586C22.9443 25.8175 30.4281 28.5204 30.4281 28.5204L33.2098 30.8827Z" fill="#CCC0BC"/>
<path d="M19.7781 26.814L19.4542 26.7749C19.4542 26.7749 19.4025 27.4311 19.4025 27.4594C19.4025 27.4876 19.3635 27.9539 20.0761 28.1612C20.7888 28.3685 21.6565 28.4851 22.3296 28.55C23.0032 28.6149 25.464 29.9489 26.1376 29.9489C26.8112 29.9489 27.4848 29.0554 27.5365 28.8348C27.5882 28.6149 27.459 27.9154 27.459 27.9154L24.3372 27.6733L19.7781 26.814Z" fill="#2F2720"/>
<path d="M19.7264 25.8297C19.7264 25.8297 19.4542 26.5551 19.4542 26.775C19.4542 26.9949 19.6483 27.552 19.6483 27.552C19.6483 27.552 20.7492 28.0573 21.9925 28.1475C23.2358 28.2382 24.726 29.0098 24.7579 29.0771C24.7897 29.145 26.1634 29.5572 26.3058 29.5194C26.4483 29.4815 27.0774 29.1186 27.2511 28.6522C27.4247 28.1859 27.4584 27.9137 27.4584 27.9137C27.4584 27.9137 25.9561 27.1626 25.917 27.1367C25.878 27.1109 24.7513 26.0359 24.7513 26.0359C24.7513 26.0359 23.4689 25.1165 23.3656 25.1165C23.2622 25.1171 19.7264 25.8297 19.7264 25.8297Z" fill="#D6A94F"/>
<path d="M25.7879 21.5492C25.2236 23.2961 24.0981 26.386 24.0001 26.6005C23.9953 26.6113 23.9875 26.624 23.9797 26.6378C23.925 26.7327 23.8072 26.8788 23.6732 27.0278C23.4683 27.2591 23.2255 27.4959 23.1246 27.5518C22.9503 27.6479 21.844 27.7074 21.2221 27.6479C21.2095 27.6461 21.1975 27.6449 21.1848 27.6431C20.9469 27.6059 20.6488 27.4208 20.367 27.2032C20.3622 27.2002 20.361 27.1984 20.361 27.1984V27.1966C19.9007 26.8409 19.4921 26.404 19.4921 26.404C19.4921 26.404 19.492 26.258 19.4951 26.0669C19.4969 26.0002 19.4981 25.9269 19.5011 25.8542C19.5089 25.618 19.5245 25.3693 19.5492 25.2497C19.557 25.2184 19.5708 25.18 19.5912 25.1379C19.736 24.8272 20.1759 24.2708 20.2114 24.1512C20.2486 24.016 20.6572 23.0834 20.7366 22.5858C20.8159 22.0883 21.6674 19.684 21.6674 19.684C21.6674 19.684 22.3158 19.3403 20.3075 19.0362C18.2992 18.7333 15.4238 18.9382 14.6853 18.8992C13.9468 18.8601 14.0387 16.7233 14.0123 16.5929C14.0123 16.5929 14.2779 15.7582 14.9011 14.9157C15.5789 13.9939 16.6822 13.0613 18.3251 13.1935C18.4663 13.2043 18.6081 13.2181 18.7481 13.2367C19.8051 13.3581 20.7967 13.6129 21.6596 13.905C23.2141 14.4302 24.3517 15.0768 24.6984 15.2913C25.2627 15.6428 26.307 16.1308 26.6135 16.8657C26.9446 17.6637 26.3521 19.7994 25.7879 21.5492Z" fill="#355FA3"/>
<path d="M23.4563 23.2265C23.0801 23.7439 22.889 24.8321 22.889 24.8321L24.5554 22.7355C24.5271 22.807 23.621 25.0731 23.4563 25.4541C23.371 25.653 23.669 26.177 23.9803 26.6385C23.8403 26.8812 23.2917 27.4605 23.1252 27.5525C22.9509 27.6486 21.8446 27.7081 21.2227 27.6486C21.2101 27.6468 21.1981 27.6456 21.1855 27.6438C20.7828 27.4419 20.4193 27.2334 20.3676 27.2039C20.3628 27.2009 20.3616 27.1991 20.3616 27.1991V27.1973L20.0245 26.1716L19.4963 26.0676L19.4013 26.049L19.5023 25.8549L19.7138 25.4541L19.5924 25.1386C19.7372 24.8279 20.1771 24.2715 20.2126 24.1519C20.2498 24.0167 20.6585 23.0841 20.7378 22.5865C20.8171 22.0889 21.6686 19.6847 21.6686 19.6847C21.6686 19.6847 22.317 19.3409 20.3087 19.0369C18.3004 18.734 15.4251 18.9389 14.6865 18.8999C13.948 18.8608 14.04 16.724 14.0135 16.5936C14.0135 16.5936 14.2791 15.7589 14.9023 14.9164C16.026 14.3101 17.6611 13.6527 18.7493 13.238C19.8063 13.3594 20.7979 13.6142 21.6608 13.9063C21.6001 14.4002 21.4541 15.0516 21.3453 15.1964C21.1897 15.4031 20.4656 15.9067 20.3616 16.2378C20.2576 16.5689 20.1531 16.7768 20.1266 17.2167C20.102 17.6566 21.2816 18.2533 21.6884 18.4336C22.0958 18.6156 23.4557 19.2887 23.4557 19.2887L22.4329 20.2243L22.2773 21.1804L23.8054 19.7952L24.9574 18.85C24.8949 18.9353 22.8963 21.6743 22.7178 21.8918C22.5357 22.1124 23.3349 21.8918 23.3349 21.8918L24.7104 20.4292C24.6846 20.4989 23.8265 22.7151 23.4563 23.2265Z" fill="#6C91C4"/>
<path d="M25.7879 21.5494C25.2236 23.2962 24.0981 26.3861 24.0001 26.6007C23.9953 26.6115 23.9875 26.6241 23.9797 26.6379C23.925 26.7329 23.8072 26.8789 23.6732 27.0279C23.6192 26.9131 23.6342 26.79 23.6498 26.7743C23.6762 26.7479 25.0692 22.5775 25.0692 22.5775L25.8413 19.0351L25.515 19.2094L25.0692 19.0351C25.0692 19.0351 25.6971 18.4072 25.9814 18.0701C26.2656 17.733 26.6141 16.8652 26.6141 16.8652C26.9446 17.6639 26.3521 19.7995 25.7879 21.5494Z" fill="#6C91C4"/>
<path d="M33.4634 27.2863C33.4261 27.3668 33.3888 27.4323 33.3792 27.4528C33.3762 27.4576 33.3744 27.4588 33.3744 27.4588L32.9766 27.4558C32.9766 27.4558 32.86 27.4654 32.7525 27.4558C32.7212 27.4528 32.6732 27.442 32.6233 27.4275C32.5067 27.3951 32.3733 27.3482 32.3733 27.3482C32.3733 27.3482 32.3264 27.4137 32.1744 27.35C32.1726 27.35 32.1714 27.3482 32.1696 27.3482C32.0139 27.2797 31.4311 26.445 31.383 26.3471C31.3349 26.2491 31.0429 25.531 31.0429 25.531C31.0429 25.531 31.0429 25.5311 31.0411 25.5293C31.0224 25.5196 30.8734 25.4331 30.8097 25.2787C30.7412 25.1122 30.0045 23.8208 29.9161 23.5582C29.829 23.2956 29.9161 22.7921 29.7809 22.3925C29.6439 21.9947 28.0028 19.624 27.7012 19.2064C27.3995 18.7882 26.167 16.9914 25.9339 16.5924C25.7007 16.1928 24.8072 13.8444 24.3793 12.8637C23.9521 11.883 23.5633 10.7173 23.5633 10.7173C23.5633 10.7173 26.4218 10.3771 26.7079 10.933C26.7157 10.9486 26.7247 10.9654 26.7343 10.9841C27.0498 11.6042 28.0148 13.5175 28.4505 14.3101C28.8964 15.1262 29.9131 18.4913 29.9786 18.653C30.0423 18.8146 31.1384 21.4382 31.3902 21.7819C31.6438 22.1238 32.5049 23.128 32.6461 23.3101C32.7891 23.4921 33.0938 24.8911 33.0938 24.8911C33.0938 24.8911 33.1713 25.1615 33.2104 25.2504C33.2494 25.3375 33.5307 26.7269 33.5799 26.8717C33.6076 26.957 33.5313 27.1469 33.4634 27.2863Z" fill="#FCC7AA"/>
<path d="M33.9333 24.6668C33.9333 24.6668 33.9561 24.814 33.8642 24.8873C33.7717 24.96 33.4526 24.963 33.3799 24.9534C33.3071 24.9438 32.9766 24.8513 32.8697 24.7395C32.7627 24.6277 32.3012 24.0592 32.3012 24.0592C32.3012 24.0592 31.8932 24.04 31.8109 23.9962C31.7285 23.9523 30.9804 23.6368 30.7809 23.525C30.582 23.4133 30.4798 23.0635 30.46 22.9133C30.4402 22.7631 30.4312 22.2138 30.6787 22.1021C30.9263 21.9903 31.5236 22.1796 31.7376 22.3593C31.9515 22.5389 32.6702 23.2624 32.6942 23.3159C32.7183 23.3694 32.9856 23.9036 33.1846 24.1512C33.3835 24.3988 33.5631 24.4961 33.6268 24.5153C33.6905 24.5346 33.9609 24.5208 33.9333 24.6668Z" fill="#FCC7AA"/>
<path d="M31.0435 23.5744C31.0435 23.5744 30.8211 23.4782 30.6192 23.3586C30.6841 23.5792 31.0825 23.992 31.2039 24.1086C31.3253 24.2252 31.9082 24.3952 32.0152 24.4144C32.1221 24.4337 32.3505 24.3856 32.3505 24.3856L32.982 25.0364L33.2104 25.2503L33.0692 24.8585C33.0692 24.8585 32.7489 24.546 32.5356 24.2594C32.3216 23.9728 32.2784 23.8904 32.2784 23.8904C32.2784 23.8904 32.0644 23.9782 31.7928 23.9049C31.5194 23.8316 31.0435 23.5744 31.0435 23.5744Z" fill="#FAD3BE"/>
<path d="M32.4418 27.3206C32.4418 27.3206 32.5379 27.3825 32.6239 27.4276C32.5073 27.3951 32.3739 27.3483 32.3739 27.3483C32.3739 27.3483 32.327 27.4138 32.175 27.3501C32.1876 27.2521 32.1936 27.1728 32.1936 27.1728L32.035 26.5605L31.5296 25.5022L31.2574 25.3466H31.3926L31.5867 25.1165V25.328L31.7327 25.6483L32.193 26.5034L32.4418 27.3206Z" fill="#FAD3BE"/>
<path d="M32.714 26.5603L32.9766 27.4556C32.9766 27.4556 32.86 27.4652 32.7525 27.4556C32.7339 27.3781 32.5241 26.5993 32.5241 26.5993L32.193 25.9497L32.044 25.502L31.8589 25.3951L31.9148 25.347L32.193 25.2893L32.2862 25.7352L32.714 26.5603Z" fill="#FAD3BE"/>
<path d="M33.4634 27.2863C33.4261 27.3668 33.3888 27.4323 33.3792 27.4528C33.2627 27.207 33.0932 26.8434 33.0932 26.8434L32.8847 26.0568L32.4616 25.2985L32.2862 25.2504L32.336 25.1164L32.4917 24.9578L32.5289 25.1909L32.8396 25.7347L33.1503 26.6878L33.4634 27.2863Z" fill="#FAD3BE"/>
<path d="M31.1378 25.544L31.0417 25.5302C31.023 25.5206 30.874 25.4341 30.8103 25.2796C30.7418 25.1132 30.0051 23.8218 29.9168 23.5592C29.8296 23.2966 29.9168 22.793 29.7815 22.3934C29.6445 21.9956 28.0034 19.625 27.7018 19.2074C27.4001 18.7891 26.1676 16.9924 25.9345 16.5934C25.7013 16.1938 24.8078 13.8454 24.3799 12.8647C23.9527 11.884 23.5639 10.7182 23.5639 10.7182C23.5639 10.7182 26.4224 10.3781 26.7085 10.934C26.7163 10.9496 26.7253 10.9664 26.7349 10.985C26.5889 11.3534 26.387 11.7758 26.2037 11.854C25.8666 11.997 25.0517 12.0451 24.9604 12.1821C24.869 12.3203 24.8174 12.8503 25.0115 13.1814C25.2056 13.5125 25.9098 15.4414 25.9098 15.4414C25.9098 15.4414 26.3978 16.1283 26.6045 16.0634C26.8112 15.9997 27.0582 15.8302 27.0582 15.8302C27.0582 15.8302 26.8112 16.7767 26.8761 17.0351C26.9416 17.2947 27.9127 18.8877 28.1585 19.2885C28.4043 19.6911 29.3243 21.3623 29.4282 21.5173C29.531 21.6729 29.9456 22.4625 30.1403 22.397C30.3344 22.3333 29.9973 22.8634 29.9973 23.0064C29.9973 23.1494 29.9336 23.5117 30.3608 24.2106C30.7881 24.9095 31.1378 25.544 31.1378 25.544Z" fill="#FAD3BE"/>
<path d="M26.8046 10.9792C26.8046 10.9792 26.539 11.6595 25.8654 11.7628C25.1917 11.8662 24.2074 11.5687 24.1492 11.5363C24.0909 11.5038 23.4563 10.918 23.3848 10.7978C23.3139 10.6776 23.3391 7.29442 23.3391 7.17124C23.3391 7.04805 26.1238 5.59804 26.292 7.17124C26.4603 8.74443 26.8034 10.6878 26.8034 10.6878V10.9792H26.8046Z" fill="#FF882A"/>
<path d="M4.74017 21.0757C4.74017 21.0757 4.61037 20.7777 4.43551 20.6485C4.26064 20.5187 3.69096 20.726 3.54794 20.7783C3.40492 20.8306 3.14653 21.3738 3.08163 21.6719C3.01673 21.9699 3.21083 22.7727 3.08163 23.0576C2.95183 23.3424 2.99089 24.2492 3.08163 24.5214C3.17237 24.7936 3.29015 25.811 4.06654 26.1313C4.84292 26.4515 5.28339 24.7936 5.28339 24.7936L4.74017 21.0757Z" fill="#2F2720"/>
<path d="M5.89272 21.542C5.89272 21.542 5.05084 21.0756 4.86936 20.9332C4.68788 20.7908 4.16989 20.7776 4.16989 20.7776C4.16989 20.7776 3.7168 21.143 3.50949 21.3875C3.30217 21.6321 3.40613 23.2383 3.31539 23.5755C3.22465 23.9126 3.50949 25.1943 3.50949 25.1943C3.50949 25.1943 3.87184 25.9064 4.01486 26.0879C4.15728 26.2694 5.23231 26.3727 5.23231 26.3727L5.76353 26.1528C5.76353 26.1528 6.04836 26.166 6.04836 25.6216C6.04836 25.0771 5.89272 21.542 5.89272 21.542Z" fill="#D6A94F"/>
<path d="M13.4517 27.4588C13.4348 27.886 12.9355 29.1575 12.3309 29.4562C12.1849 29.5307 12.0311 29.5445 11.8773 29.4766C11.0895 29.1239 9.31255 27.8043 8.92436 27.5711C8.53557 27.338 6.08803 26.3278 6.08803 26.3278C6.08803 26.3278 5.81581 26.0556 5.52977 25.7576C5.52977 25.7558 5.52798 25.7558 5.52798 25.7558C5.25456 25.4697 4.97032 25.1602 4.90302 25.0467C4.76601 24.8135 4.43671 23.9182 4.43671 23.2968C4.43671 22.6755 4.78464 21.9183 5.21369 21.607C5.63974 21.2964 6.53511 21.3739 6.74002 21.4905C6.94674 21.607 7.89318 22.3642 8.20265 22.5973C8.33785 22.7001 9.01869 23.1135 9.73859 23.5438C10.6586 24.0954 11.6441 24.6765 11.6441 24.6765C11.6441 24.6765 11.8334 24.9115 12.09 25.2456C12.629 25.9498 13.4637 27.1018 13.4517 27.4588Z" fill="#355FA3"/>
<path d="M16.7405 29.1798C16.3968 30.0577 15.1505 30.3113 14.6175 30.3113C13.9552 30.3113 12.1879 29.7098 11.8773 29.4766C11.0895 29.1239 9.31256 27.8043 8.92437 27.5711C8.53558 27.338 6.08805 26.3278 6.08805 26.3278C6.08805 26.3278 5.81582 26.0556 5.52979 25.7576C5.57786 25.7762 6.34584 26.0827 6.74064 26.2828C7.14926 26.4913 8.85587 27.4053 9.37506 27.6721C9.89605 27.9413 11.5402 29.0289 11.7156 29.172C11.7697 29.217 12.0077 29.3258 12.331 29.4562C13.0322 29.7362 14.1355 30.1154 14.6625 30.143C15.3914 30.1821 16.1888 30.0301 16.7405 29.1798Z" fill="#6C91C4"/>
<path d="M12.09 25.2454C11.5894 25.8518 10.9044 26.5026 10.9044 26.5026C10.9044 26.5026 9.35161 25.1427 9.24765 24.7028C9.14489 24.2612 8.20325 23.251 8.20325 23.251L6.74063 22.2156L5.21429 21.6063C5.64034 21.2956 6.53571 21.3731 6.74063 21.4897C6.94734 21.6063 7.89378 22.3635 8.20325 22.5966C8.51272 22.8298 11.6447 24.6764 11.6447 24.6764C11.6447 24.6764 11.8334 24.9113 12.09 25.2454Z" fill="#6C91C4"/>
<path d="M16.7411 29.1809C16.398 30.0571 15.1516 30.3131 14.618 30.3131C13.954 30.3131 12.1849 29.7091 11.8748 29.4748C11.831 29.4423 11.7769 29.339 11.7168 29.1701C11.5972 28.8763 11.4554 28.4028 11.298 27.8529L10.9386 26.6174C10.9278 26.5796 10.917 26.5411 10.9008 26.5033V26.4979C10.5961 25.4691 10.2692 24.4457 9.97536 23.9397C9.89904 23.8147 9.82271 23.6784 9.73558 23.5425C9.65926 23.4176 9.57755 23.2866 9.49643 23.1507C9.45857 23.0852 9.42011 23.0258 9.38225 22.9603C9.27889 22.7914 9.17013 22.6225 9.06677 22.4429C8.84383 22.0835 8.61488 21.6971 8.39735 21.2999C8.28858 21.104 8.18523 20.9027 8.08187 20.696C8.01637 20.571 7.95687 20.4454 7.90219 20.3204C7.8475 20.2117 7.79342 20.1029 7.74956 19.9935C7.66242 19.803 7.5807 19.6071 7.50439 19.4112C7.23758 18.7202 7.09637 18.2136 7.03628 17.8002C6.93292 17.147 7.02005 16.739 7.118 16.2654C7.15585 16.0641 7.80906 15.9662 8.75069 15.9331H8.81077C9.86658 15.9007 11.2763 15.944 12.5935 16.0095C13.6439 16.0641 14.6403 16.129 15.3475 16.1837C15.9953 16.2324 16.4033 16.2654 16.4033 16.2654C16.4033 16.2654 16.3601 16.614 16.3108 17.0821C16.2399 17.7407 16.142 18.6499 16.1095 19.1613C16.0548 20.032 15.6684 20.5001 15.8481 20.9466C16.0332 21.3931 16.5993 26.972 16.8114 28.4472C16.8498 28.729 16.8228 28.9736 16.7411 29.1809Z" fill="#355FA3"/>
<path d="M24.8841 8.13214C24.8156 8.61167 24.5301 9.11945 24.2165 9.56472C23.7712 10.1981 23.2574 10.7119 23.1835 10.8435C23.0579 11.0658 22.8752 11.2431 22.624 11.5742C22.3668 11.8999 21.4769 12.63 21.1458 13.0296C20.9463 13.2694 20.6434 13.8402 20.364 14.3024C20.1753 14.6106 20.0046 14.8732 19.8844 14.9531C19.5822 15.1472 18.3377 15.4441 17.744 15.741C17.1563 16.0318 16.1059 17.3334 15.9575 17.4878C15.8144 17.6422 13.1145 20.1078 12.1386 19.7599C11.6874 19.594 11.0083 19.5141 10.4032 19.469C10.0607 19.4402 9.74699 19.4234 9.51263 19.4119C9.27887 19.4005 9.12444 19.3891 9.10161 19.3723C9.02169 19.3152 8.71943 18.3736 8.71943 18.3736L7.86913 19.0814C7.86913 19.0814 7.7892 18.9444 7.46952 18.6133C7.14983 18.2882 6.82414 17.3063 6.75023 16.5468C6.6703 15.7878 7.26401 14.2519 7.40102 13.9839C7.50979 13.7669 8.81077 12.4311 9.66708 11.5405C9.90083 11.3008 10.0949 11.0953 10.2265 10.9523C10.8599 10.2618 13.412 7.48136 14.7364 6.55114C16.0548 5.62092 18.7151 4.72435 19.6285 4.61619C20.5419 4.50802 21.4096 4.61619 21.4096 4.61619C21.4096 4.61619 24.1894 5.62633 24.5548 5.90636C24.9243 6.19119 25.0613 6.97898 24.8841 8.13214Z" fill="#F9551A"/>
<path d="M11.4073 9.68372C11.4073 9.68372 16.5806 6.19121 18.1454 5.82105C19.7102 5.45088 20.4475 4.85657 21.7083 5.26038C22.969 5.6648 24.1077 5.67381 24.1077 5.67381C24.1077 5.67381 22.4642 4.66547 20.3616 4.8794C18.2596 5.09333 15.3578 6.37868 15.3578 6.37868L12.9409 8.12255L11.4073 9.68372Z" fill="#355FA3"/>
<path d="M21.1085 10.2555C21.1085 10.2555 21.1854 8.75925 19.8298 8.25869C18.4741 7.75813 13.4517 7.63555 13.4517 7.63555C13.4517 7.63555 14.2899 6.77323 14.993 6.37963C15.6961 5.98603 19.0402 6.53587 19.9247 7.17164C20.8093 7.80741 22.0838 9.6372 22.0273 10.3505C21.9702 11.0638 19.2355 14.2751 19.2355 14.2751L21.2095 10.2609L21.1085 10.2555Z" fill="#355FA3"/>
<path d="M20.361 14.3047C20.2631 14.4682 20.1651 14.6202 20.0834 14.7344C20.0563 14.7722 20.0341 14.7999 20.0071 14.8269C19.9638 14.887 19.9199 14.9303 19.8821 14.9519C19.8058 15.0006 19.6754 15.0553 19.5065 15.1154C19.2944 15.1917 19.033 15.2734 18.7662 15.3605C18.494 15.4477 18.2217 15.5402 17.9934 15.6328C17.9009 15.6706 17.8191 15.7037 17.7428 15.7415C17.634 15.7962 17.5091 15.8888 17.3727 15.9975C17.2423 16.1117 17.1004 16.2427 16.9592 16.3839C16.7255 16.6177 16.4911 16.8737 16.3114 17.0804C16.1372 17.2817 16.0014 17.4397 15.9575 17.4884C15.9082 17.5377 15.5711 17.8477 15.1138 18.2233C15.0537 18.278 14.9888 18.3267 14.9233 18.3813C14.6619 18.5881 14.3789 18.8056 14.085 19.0075C13.8945 19.1379 13.6987 19.2635 13.5082 19.3723C13.4589 19.4047 13.4102 19.4323 13.3609 19.454C12.9361 19.6823 12.5389 19.8241 12.2504 19.7863C12.2342 19.7917 12.2234 19.7863 12.218 19.7809C12.1909 19.7755 12.1633 19.7701 12.1363 19.7592C12.0816 19.7376 12.0221 19.7214 11.962 19.7046C11.837 19.6667 11.6952 19.6336 11.5486 19.6066C11.2547 19.5519 10.9392 19.5141 10.6286 19.487C10.5523 19.4816 10.4759 19.4762 10.4002 19.4708C10.0571 19.4384 9.74701 19.4221 9.51266 19.4107C9.2789 19.3999 9.12087 19.3891 9.09923 19.3729C9.02292 19.3128 8.71825 18.3711 8.71825 18.3711L8.04884 18.9264L7.86916 19.079C7.86916 19.079 7.78743 18.9432 7.46654 18.6109C7.31991 18.4583 7.16188 18.1536 7.03689 17.7997C6.89507 17.4079 6.78632 16.9452 6.74846 16.5479C6.72142 16.2757 6.7755 15.9056 6.86804 15.53C7.0369 14.8552 7.31451 14.1581 7.40164 13.9838C7.5104 13.7663 8.81139 12.4329 9.66589 11.5399L9.80171 11.5075L9.91047 11.4858C9.91047 11.4858 9.05597 12.8793 9.15392 13.4238C9.24105 13.9682 11.5269 15.3942 11.5269 15.3942C11.5269 15.3942 12.0167 15.7043 12.5936 16.0095C13.0941 16.2763 13.6602 16.5485 14.0141 16.5918C14.2864 16.6303 14.6403 16.5209 14.9774 16.3689C15.1024 16.3088 15.228 16.2493 15.3476 16.1838C15.794 15.9386 16.142 15.6832 16.142 15.6832L20.361 14.3047Z" fill="#355FA3"/>
<path d="M24.318 7.83887C24.318 7.83887 24.2694 8.74263 24.2147 9.56408C23.7682 10.2011 23.2568 10.7124 23.1859 10.8434C23.0609 11.0664 22.8758 11.2406 22.6199 11.573C22.3693 11.9053 21.4769 12.6288 21.1446 13.032C20.9433 13.2711 20.6386 13.8432 20.361 14.3059L16.1426 15.6832C16.1426 15.6832 15.5819 16.0966 14.978 16.3689L15.2664 15.9224C15.2664 15.9224 14.9726 14.3931 14.9179 14.1479C14.8686 13.9027 15.2664 10.4468 15.2664 10.4468C15.2664 10.4468 19.1039 13.2826 19.4849 12.9671C19.8659 12.6516 20.4812 11.7857 20.4812 11.7857C20.4812 11.7857 20.7264 10.7136 20.9054 10.0604C21.0689 9.47275 20.7636 8.72702 20.6987 8.56898C20.7534 8.63448 20.9163 8.81415 21.1885 8.7811C21.5262 8.73783 22.5111 9.16208 22.8867 8.7811C23.2676 8.39952 24.318 7.83887 24.318 7.83887Z" fill="#F09F69"/>
<path d="M20.361 14.3047C20.263 14.4681 20.1651 14.6202 20.0834 14.7343C20.0563 14.7722 20.0341 14.7999 20.007 14.8269C19.9638 14.887 19.9199 14.9302 19.8821 14.9519C19.8057 15.0005 19.6753 15.0552 19.5065 15.1153C19.2944 15.1916 19.033 15.2734 18.7662 15.3605C18.4939 15.4476 18.2217 15.5402 17.9934 15.6327C17.9008 15.6706 17.8191 15.7036 17.7428 15.7415C17.634 15.7962 17.509 15.8887 17.3726 15.9975C17.2362 16.1062 17.095 16.2427 16.9592 16.3839C16.4911 16.8466 16.05 17.391 15.9575 17.4889C15.9082 17.5382 15.5711 17.8483 15.1138 18.2239C15.0537 18.2785 14.9888 18.3272 14.9233 18.3819C14.6619 18.5886 14.3789 18.8061 14.085 19.0081C13.8945 19.1385 13.6986 19.2641 13.5081 19.3728C13.4589 19.4053 13.4102 19.4329 13.3609 19.4545C12.9307 19.6883 12.5334 19.8355 12.2504 19.7869C12.2342 19.7923 12.2234 19.7869 12.218 19.7814C12.1909 19.7814 12.1633 19.7706 12.1416 19.7652C12.087 19.7436 12.0221 19.7219 11.962 19.7051C11.837 19.6673 11.6952 19.6342 11.5485 19.6072C11.2547 19.5525 10.9392 19.5146 10.6286 19.4876C10.5522 19.4768 10.4759 19.4714 10.4056 19.466C10.5691 19.466 11.6627 19.3572 11.9079 19.0411C12.1639 18.7094 12.6915 18.3338 12.9529 18.0779C13.2089 17.8273 14.2971 17.4247 14.2971 17.4247L14.9774 16.3688C15.5819 16.0966 16.1419 15.6832 16.1419 15.6832L20.361 14.3047Z" fill="#6C91C4"/>
<path d="M20.4836 5.54939C20.4836 5.54939 20.5064 4.76581 20.9565 4.6913C21.4066 4.61679 23.8451 8.30521 23.8709 8.55099C23.8968 8.79736 22.8476 9.94992 22.5495 9.79428C22.2515 9.63864 22.067 9.53167 22.067 9.53167L21.5394 7.47534L20.4836 5.54939Z" fill="#FCC7AA"/>
<path d="M30.4918 25.3518L34.944 27.9219L29.0719 31.9084L24.6197 29.3383L30.4918 25.3518Z" fill="#2C87B8"/>
<path d="M27.7697 3.26642C27.7697 3.26642 27.6922 5.18935 27.4975 5.80168C27.3034 6.41401 26.4579 7.02635 26.4579 7.10447C26.4579 7.18198 26.691 7.99803 26.6628 8.15367C26.6333 8.30931 26.1562 8.33876 26.1081 8.33876C26.0601 8.33876 25.9525 8.33876 25.9525 8.33876C25.9525 8.33876 24.8691 9.3507 24.5476 9.44684C24.535 9.45165 24.5241 9.45285 24.5151 9.45466C24.2429 9.4841 22.8253 8.87176 22.6997 8.78462C22.5724 8.69749 22.067 9.53217 22.067 9.53217C22.067 9.53217 21.7978 9.42941 21.4577 9.00036C21.4577 8.99855 21.4577 8.99856 21.4577 8.99856C21.2666 8.75579 21.052 8.40965 20.8531 7.91991C20.2997 6.56003 20.4643 5.65505 20.483 5.54989C20.5034 5.44293 20.9012 5.11182 20.9012 5.11182C20.9012 5.11182 22.0778 2.37285 22.5627 2.05316C23.0477 1.73287 26.2061 2.3344 26.2061 2.3344L27.7697 3.26642Z" fill="#FCC7AA"/>
<path d="M26.2638 5.5295C26.2638 5.5295 25.4189 5.41293 25.2536 5.45199C25.0884 5.49105 24.6708 6.62738 24.3697 6.66644C24.0687 6.7055 23.5633 6.60815 23.4665 6.66644C23.3692 6.72472 22.8254 7.53115 22.8254 7.53115L22.5243 7.11353C22.5243 7.11353 22.9618 6.3167 22.6313 5.89906C22.3008 5.48142 21.7377 5.29695 21.5334 5.37447C21.3291 5.45199 21.0574 5.85039 21.0574 5.85039C21.0574 5.85039 20.7372 5.29635 20.6981 5.06319C20.659 4.83004 20.659 4.0915 20.8435 3.24662C21.028 2.40173 21.7761 0.322568 23.8259 0.0311238C25.8756 -0.260321 27.6922 1.53701 27.9445 3.66426C28.0419 5.27712 27.6141 5.74463 27.6141 5.74463C27.6141 5.74463 27.1381 5.73622 26.8857 5.74463C26.6334 5.75305 26.2638 5.5295 26.2638 5.5295Z" fill="#4A2727"/>
<path d="M22.4071 5.9958C22.4071 5.9958 22.3488 5.56856 21.8435 5.58779C21.3381 5.60702 21.3772 5.98619 21.3675 6.57869C21.3579 7.17119 21.9793 7.21026 21.9991 7.15197C22.0183 7.09368 22.1836 6.9092 22.1932 6.76318C22.2034 6.61775 22.3879 6.37498 22.4071 5.9958Z" fill="#FFD6BF"/>
<path d="M27.0023 5.91839C27.0023 5.91839 26.3125 5.89916 26.2055 5.91839C26.0985 5.93762 25.6412 6.03136 25.4772 6.23927C25.3131 6.44659 25.0223 6.89969 25.0704 6.95798C25.1178 7.01627 26.3028 6.87084 26.4681 6.80234C26.6333 6.73443 27.0702 6.25851 27.0702 6.25851L27.2451 5.82104L27.0023 5.91839Z" fill="#FFD6BF"/>
<path d="M26.274 7.53126C26.274 7.53126 25.9922 8.03123 25.9051 8.02882C25.8173 8.02642 25.8113 8.0703 25.9279 8.2061C26.0445 8.34191 26.5751 8.17245 26.5751 8.17245L26.5264 7.881C26.5264 7.881 26.3804 7.46276 26.274 7.53126Z" fill="#FFD6BF"/>
<path d="M24.5476 9.44625C24.535 9.45106 24.5241 9.45226 24.5151 9.45406C24.2429 9.48351 22.8253 8.87118 22.6998 8.78404C22.5724 8.69691 22.067 9.53158 22.067 9.53158C22.067 9.53158 21.7978 9.42881 21.4577 8.99976C21.4577 8.99796 21.4577 8.99796 21.4577 8.99796C21.4577 8.99796 21.7858 8.65305 21.8879 8.44753C21.9841 8.25464 21.933 8.04971 21.9282 8.02808C21.9733 8.06413 22.6775 8.62179 22.7424 8.73055C22.8079 8.84112 23.6546 9.15781 23.8709 9.22932C24.041 9.28761 24.3036 9.39457 24.5476 9.44625Z" fill="#FAD3BE"/>
<path d="M16.6822 15.5973C16.6822 15.5973 18.0811 18.1362 18.5083 18.7708C18.9356 19.4053 19.8682 20.7267 19.9848 20.9599C20.1014 21.1931 20.4379 22.1647 20.9691 22.9676C21.5003 23.7704 23.0933 26.6848 23.8054 27.5916C24.5175 28.4984 24.7897 29.1197 24.958 29.5344C25.1262 29.949 25.515 30.8816 25.6058 31.0366C25.6965 31.1923 26.1628 31.3605 26.2145 31.3473C26.2662 31.3341 27.0822 32.1766 27.173 32.2799C27.2637 32.3833 27.7042 32.4356 27.7042 32.4356C27.7042 32.4356 28.2095 33.0575 28.3387 33.135C28.4685 33.2126 28.8183 33.0053 28.8183 33.0053V32.733C28.8183 32.733 28.9607 32.6165 28.9739 32.4873C28.9871 32.3575 28.3778 31.0625 28.3003 30.9717C28.2228 30.881 27.8598 30.0001 27.8598 30.0001L27.8081 29.5854C27.8081 29.5854 27.9764 30.0518 28.3393 30.3108C28.7023 30.5697 28.9739 30.479 28.9739 30.479C28.9739 30.479 29.168 30.3366 29.0646 30.181C28.9613 30.0253 28.65 29.7146 28.5983 29.6113C28.5467 29.5079 28.1194 28.7177 27.9896 28.5621C27.8598 28.4064 26.6424 27.746 26.3185 27.5387C25.9946 27.3314 25.8005 27.2665 25.5932 26.9042C25.3858 26.5412 23.8835 23.0703 23.6372 22.4484C23.3914 21.8264 22.8343 20.7778 22.6138 20.5705C22.3939 20.3632 21.9143 18.5761 21.8885 18.3814C21.8627 18.1873 21.3963 16.6327 20.7359 15.5186C20.0755 14.4045 18.7673 14.1455 18.7673 14.1455L16.6822 15.5973Z" fill="#FCC7AA"/>
<path d="M20.7366 15.5192C20.6705 15.4074 20.5966 15.3071 20.519 15.2115L20.3616 15.1953L21.4841 17.1189C21.2888 16.6051 21.0322 16.0186 20.7366 15.5192Z" fill="#FAD3BE"/>
<path d="M22.6144 20.571C22.6144 20.571 22.6793 20.6564 22.7905 20.8C22.7214 20.6948 22.6607 20.6137 22.6144 20.571Z" fill="#FCC7AA"/>
<path d="M21.9216 19.586C21.9378 19.6846 22.4185 20.3155 22.5687 20.5108C22.3344 20.1383 21.9131 18.5633 21.8891 18.3812C21.8747 18.2742 21.7263 17.7526 21.4853 17.1199L21.6301 18.0789C21.6301 18.0789 21.9023 19.4701 21.9216 19.586Z" fill="#FAD3BE"/>
<path d="M27.5365 28.8342L27.5485 29.5223L28.0407 30.4273C27.9445 30.2049 27.8604 30 27.8604 30L27.8087 29.5854C27.8087 29.5854 27.977 30.0517 28.34 30.3107C28.7029 30.5697 28.9751 30.4789 28.9751 30.4789C28.6386 30.4657 28.4439 30.2716 28.3075 30.1755C28.1711 30.0793 27.8478 29.4556 27.8478 29.4556L27.5365 28.8342Z" fill="#FAD3BE"/>
<path d="M28.8189 32.8238V32.7331C28.8189 32.7331 28.8207 32.7313 28.8219 32.7307C28.364 32.1466 27.5804 31 27.5485 30.9586C27.5089 30.9069 27.1219 30.3108 27.1219 30.3108L26.8755 30.4274L27.1736 30.7513C27.1736 30.7513 28.5599 32.5648 28.8189 32.8238Z" fill="#FAD3BE"/>
<path d="M26.1472 31.0883C26.1568 31.0492 26.1959 30.9327 26.4777 31.0979C26.7595 31.2632 27.459 32.3929 27.459 32.3929C27.5858 32.4211 27.7054 32.435 27.7054 32.435C27.7054 32.435 28.2108 33.0569 28.3399 33.1344C28.3706 33.1525 28.4132 33.1543 28.4601 33.1476C28.3688 33.0888 28.2769 33.0016 28.2234 32.8886C28.1068 32.6423 26.5654 30.7386 26.5264 30.6478C26.4873 30.5571 26.1508 30.6478 26.1508 30.6478C26.1508 30.6478 25.8401 30.8293 25.7103 30.6995C25.5811 30.5697 25.244 29.8835 25.1731 29.6689C25.1022 29.4544 25.1731 28.9118 25.1731 28.9118C25.1731 28.9118 24.9526 28.9893 24.318 28.0339C23.6828 27.0778 21.6307 23.6466 21.4943 23.3581C21.3579 23.0697 20.1549 21.3583 20.212 21.1792C20.269 21.0001 20.4643 21.1984 20.5617 21.1984C20.659 21.1984 21.4943 21.8907 21.4943 21.8907V21.684C21.4943 21.684 20.6975 20.8679 20.6392 20.7772C20.5809 20.6864 20.0755 20.6348 20.0371 20.6059C19.998 20.5771 18.774 18.6145 18.0553 17.6038C17.3366 16.5936 16.9712 15.3948 16.9712 15.3948L16.6822 15.5961C16.6822 15.5961 18.0811 18.135 18.5083 18.7695C18.9356 19.4041 19.8682 20.7255 19.9848 20.9587C20.1014 21.1918 20.4385 22.1635 20.9691 22.9663C21.5003 23.7691 23.0933 26.6836 23.8054 27.5904C24.5181 28.4972 24.7897 29.1185 24.958 29.5331C25.1262 29.9478 25.515 30.8804 25.6058 31.0354C25.6965 31.1911 26.1628 31.3593 26.2145 31.3461C26.2379 31.3401 26.4176 31.5089 26.6153 31.7054C26.3665 31.393 26.143 31.1057 26.1472 31.0883Z" fill="#FAD3BE"/>
<path d="M20.879 15.6098C20.879 15.6098 20.5941 16.4775 19.3244 16.5815C18.0553 16.6848 16.6431 16.0635 16.41 15.6879C16.1768 15.3123 15.3866 12.6569 15.2574 12.2422C15.1282 11.8276 15.1408 10.377 15.5038 9.61264C15.8661 8.84828 17.6539 7.86397 19.2859 8.56344C20.918 9.26291 21.1644 10.5453 21.0995 11.1798C21.0346 11.8144 20.6566 13.8479 20.6777 14.0035C20.6975 14.1592 20.879 15.6098 20.879 15.6098Z" fill="#FF882A"/>
<path d="M11.7607 26.7751C11.7607 26.8021 11.298 27.8525 11.298 27.8525L10.9386 26.617L10.9062 26.5028H10.9008V26.4974C10.5961 25.4687 10.2692 24.4453 9.97537 23.9393C9.89905 23.8143 9.82273 23.6779 9.73559 23.5421C9.65928 23.4171 9.58297 23.2861 9.49644 23.1503C9.45858 23.0848 9.42012 23.0253 9.38227 22.9598C9.27891 22.791 9.17015 22.6221 9.06679 22.4424C8.84385 22.0831 8.61489 21.6967 8.39736 21.2995C8.28859 21.1036 8.18524 20.9023 8.08188 20.6956C8.01638 20.5706 7.95688 20.445 7.9022 20.32C7.84752 20.2112 7.79344 20.1025 7.74957 19.9931C7.66244 19.8026 7.58072 19.6067 7.5044 19.4108C7.2376 18.7198 7.09639 18.2132 7.03629 17.7998C6.89448 17.408 6.7857 16.9453 6.74785 16.5481C6.72081 16.2758 6.77489 15.9057 6.86743 15.5301C7.03629 14.8553 7.31391 14.1582 7.40105 13.9839C7.50981 13.7664 8.8108 12.433 9.6653 11.54L9.8011 11.5076C9.57275 11.9372 9.31677 12.3783 9.13169 12.6505C7.81448 14.5446 7.79824 17.1195 7.79824 17.1195C7.79824 17.1195 8.11914 18.2841 8.04884 18.9265C8.0272 19.1278 8.0218 19.2966 8.05425 19.3946C8.18464 19.808 9.92129 23.2861 10.0793 23.357C10.2314 23.4333 11.7607 26.748 11.7607 26.7751Z" fill="#6C91C4"/>
</svg>
