<svg width="136" height="119" viewBox="0 0 136 119" fill="none" xmlns="http://www.w3.org/2000/svg">
<path d="M78.8456 118.625L0.856934 73.2956V55.8397L78.8456 101.169V118.625Z" fill="#B0B8CF"/>
<path d="M78.8456 101.17L0.856934 55.8406L58.0111 22.8995L136 68.2287L78.8456 101.17Z" fill="#E3E7F0"/>
<path d="M136 68.2284V85.6844L78.8457 118.625V101.169L136 68.2284Z" fill="#C9CEE2"/>
<path d="M131.495 79.4907C131.495 76.6752 129.525 75.549 127.272 76.9567C126.428 77.5198 125.301 78.3645 124.738 79.4907L130.651 82.8692C131.214 82.0246 131.495 80.6168 131.495 79.4907Z" fill="#9EA9C9"/>
<path d="M124.738 79.4895C123.612 80.8973 123.049 82.8681 123.049 84.2758C123.049 87.0913 125.02 88.2175 127.272 86.8098C128.68 85.9651 129.806 84.5574 130.651 82.8681L124.738 79.4895Z" fill="#B0B8CF"/>
<path d="M118.263 87.0919C118.263 84.2765 116.292 83.1503 114.039 84.558C113.195 85.1211 112.068 85.9658 111.505 87.0919L117.418 90.4705C117.981 89.6259 118.263 88.2181 118.263 87.0919Z" fill="#9EA9C9"/>
<path d="M111.505 87.092C110.379 88.4997 109.816 90.4706 109.816 91.8783C109.816 94.6938 111.787 95.82 114.039 94.4122C115.447 93.5676 116.573 92.1598 117.418 90.4706L111.505 87.092Z" fill="#B0B8CF"/>
<path d="M105.03 94.694C105.03 91.8786 103.059 90.7524 100.806 92.1601C99.9618 92.7232 98.8356 93.5678 98.2725 94.694L104.185 98.0726C104.748 97.228 105.03 95.8202 105.03 94.694Z" fill="#9EA9C9"/>
<path d="M98.2723 94.9754C97.1461 96.3831 96.583 98.354 96.583 99.7617C96.583 102.577 98.5538 103.703 100.806 102.296C102.214 101.451 103.34 100.043 104.185 98.354L98.2723 94.9754Z" fill="#B0B8CF"/>
<path d="M91.7972 102.577C91.7972 99.7616 89.8263 98.6354 87.574 100.043C86.7293 100.606 85.6031 101.451 85.04 102.577L90.9525 105.956C91.5156 104.829 91.7972 103.703 91.7972 102.577Z" fill="#9EA9C9"/>
<path d="M85.0399 102.577C83.9137 103.985 83.3506 105.956 83.3506 107.363C83.3506 110.179 85.3214 111.305 87.5738 109.897C88.9815 109.053 90.1077 107.645 90.9524 105.956L85.0399 102.577Z" fill="#B0B8CF"/>
<path d="M79.4086 91.3147C79.9717 91.3147 80.2532 91.0331 80.2532 90.47C80.2532 88.4992 78.8455 86.2468 77.1562 85.4022C75.1854 84.276 73.4961 85.4022 73.4961 87.373C73.4961 87.6545 73.7776 88.2176 74.3407 88.2176C74.9038 88.2176 75.1854 87.9361 75.1854 87.373C75.1854 86.2468 75.7485 85.9653 76.5931 86.5283C77.7193 87.0914 78.8455 89.0623 78.8455 90.1885C78.8455 91.0331 79.127 91.3147 79.4086 91.3147Z" fill="#4C5C75"/>
<path d="M23.3808 58.6548C23.9439 58.6548 24.2254 58.3732 24.2254 57.8101C24.2254 55.8393 22.8177 53.5869 21.1284 52.7423C19.1575 51.6161 17.4683 52.7423 17.4683 54.7131C17.4683 54.9947 17.7498 55.5578 18.3129 55.5578C18.5945 55.5578 19.1575 55.2762 19.1575 54.7131C19.1575 53.5869 19.7206 53.3054 20.5653 53.8685C21.6915 54.4316 22.8177 56.4024 22.8177 57.5286C22.8177 58.3732 23.0992 58.6548 23.3808 58.6548Z" fill="#4C5C75"/>
<path d="M118.544 68.7912C119.107 68.7912 119.388 68.5097 119.388 67.9466C119.388 65.9757 117.981 63.7234 116.291 62.8787C115.447 62.3156 114.321 62.3156 113.758 62.5972C112.913 62.8787 112.631 63.7234 112.631 64.8495C112.631 65.1311 112.913 65.6942 113.476 65.6942C113.758 65.6942 114.321 65.4126 114.321 64.8495C114.321 64.2865 114.602 64.0049 114.602 63.7234C114.884 63.7234 115.165 63.7234 115.728 64.0049C116.855 64.568 117.981 66.5388 117.981 67.665C117.699 68.5097 117.981 68.7912 118.544 68.7912Z" fill="#4C5C75"/>
<path d="M62.516 36.4128C63.0791 36.4128 63.3607 36.1312 63.3607 35.5681C63.3607 33.5973 61.9529 31.3449 60.2636 30.5003C58.2928 29.3741 56.6035 30.5003 56.6035 32.4711C56.6035 32.7527 56.8851 33.3158 57.4482 33.3158C58.0113 33.3158 58.2928 33.0342 58.2928 32.4711C58.2928 31.3449 58.8559 31.0634 59.7005 31.6265C60.8267 32.1896 61.9529 34.1604 61.9529 35.2866C61.6714 35.8497 61.9529 36.4128 62.516 36.4128Z" fill="#4C5C75"/>
<path d="M54.6324 44.8596V48.2382L17.1865 69.9174V66.5388L54.6324 44.8596Z" fill="#BF7D5A"/>
<path d="M17.1867 66.5395V69.9181L3.67236 62.0348V58.6562L17.1867 66.5395Z" fill="#AA6256"/>
<path d="M54.6325 44.8596L17.1866 66.5388L3.67236 58.6554L41.1182 36.9763L54.6325 44.8596Z" fill="#DBA660"/>
<path d="M95.7383 68.7909V72.1694L58.2925 93.8486V90.47L95.7383 68.7909Z" fill="#BF7D5A"/>
<path d="M58.2924 90.4708V93.8494L44.4966 85.966L44.7781 82.5874L58.2924 90.4708Z" fill="#AA6256"/>
<path d="M95.7384 68.7916L58.2926 90.4708L44.7783 82.5875L82.2242 60.6268L95.7384 68.7916Z" fill="#DBA660"/>
<path d="M78.8456 96.101L0.856934 50.7718V33.3159L78.8456 78.645V96.101Z" fill="#B0B8CF"/>
<path d="M78.8456 78.6452L0.856934 33.3161L58.0111 0.375L136 45.7042L78.8456 78.6452Z" fill="#E3E7F0"/>
<path d="M136 45.7046V63.1606L78.8457 96.1016V78.6457L136 45.7046Z" fill="#C9CEE2"/>
<path d="M131.495 56.9657C131.495 54.1502 129.525 53.024 127.272 54.4317C126.428 54.9948 125.301 55.8395 124.738 56.9657L130.651 60.3442C131.214 59.2181 131.495 58.0919 131.495 56.9657Z" fill="#9EA9C9"/>
<path d="M124.738 56.9657C123.612 58.3734 123.049 60.3443 123.049 61.752C123.049 64.5675 125.02 65.6937 127.272 64.2859C128.68 63.4413 129.806 62.0336 130.651 60.3443L124.738 56.9657Z" fill="#B0B8CF"/>
<path d="M118.263 64.5673C118.263 61.7518 116.292 60.6256 114.039 62.0333C113.195 62.5964 112.068 63.4411 111.505 64.5673L117.418 67.9458C117.981 66.8196 118.263 65.6934 118.263 64.5673Z" fill="#9EA9C9"/>
<path d="M111.505 64.5685C110.379 65.9762 109.816 67.947 109.816 69.3548C109.816 72.1702 111.787 73.2964 114.039 71.8887C115.447 71.044 116.573 69.6363 117.418 67.947L111.505 64.5685Z" fill="#B0B8CF"/>
<path d="M105.03 72.1699C105.03 69.3544 103.059 68.2282 100.806 69.636C99.9618 70.1991 98.8356 71.0437 98.2725 72.1699L104.185 75.5485C104.748 74.4223 105.03 73.2961 105.03 72.1699Z" fill="#9EA9C9"/>
<path d="M98.2723 72.1699C97.1461 73.5777 96.583 75.5485 96.583 76.9562C96.583 79.7717 98.5538 80.8979 100.806 79.4902C102.214 78.6455 103.34 77.2378 104.185 75.5485L98.2723 72.1699Z" fill="#B0B8CF"/>
<path d="M91.7972 79.772C91.7972 76.9565 89.8263 75.8303 87.574 77.2381C86.7293 77.8011 85.6031 78.6458 85.04 79.772L90.9525 83.1506C91.5156 82.3059 91.7972 80.8982 91.7972 79.772Z" fill="#9EA9C9"/>
<path d="M85.0399 79.7716C83.9137 81.1794 83.3506 83.1502 83.3506 84.5579C83.3506 87.3734 85.3214 88.4996 87.5738 87.0919C88.9815 86.2472 90.1077 84.8395 90.9524 83.1502L85.0399 79.7716Z" fill="#B0B8CF"/>
<path d="M79.4086 68.7908C79.9717 68.7908 80.2532 68.5093 80.2532 67.9462C80.2532 65.9754 78.8455 63.723 77.1562 62.8783C75.1854 61.7522 73.4961 62.8783 73.4961 64.8492C73.4961 65.1307 73.7776 65.6938 74.3407 65.6938C74.9038 65.6938 75.1854 65.4123 75.1854 64.8492C75.1854 63.723 75.7485 63.4414 76.5931 64.0045C77.7193 64.5676 78.8455 66.5385 78.8455 67.6647C78.8455 68.2277 79.127 68.7908 79.4086 68.7908Z" fill="#4C5C75"/>
<path d="M23.3808 36.1313C23.9439 36.1313 24.2254 35.8498 24.2254 35.2867C24.2254 33.3159 22.8177 31.0635 21.1284 30.2188C19.1575 29.0927 17.4683 30.2188 17.4683 32.1897C17.4683 32.4712 17.7498 33.0343 18.3129 33.0343C18.5945 33.0343 19.1575 32.7528 19.1575 32.1897C19.1575 31.0635 19.7206 30.7819 20.5653 31.345C21.6915 31.9081 22.8177 33.879 22.8177 35.0052C22.8177 35.8498 23.0992 36.1313 23.3808 36.1313Z" fill="#4C5C75"/>
<path d="M118.544 46.2669C119.107 46.2669 119.388 45.9853 119.388 45.4223C119.388 43.4514 117.981 41.199 116.291 40.3544C114.321 39.2282 112.631 40.3544 112.631 42.3252C112.631 42.6068 112.913 43.1699 113.476 43.1699C113.758 43.1699 114.321 42.8883 114.321 42.3252C114.321 41.199 114.884 40.9175 115.728 41.4806C116.855 42.0437 117.981 44.0145 117.981 45.1407C117.699 45.9853 117.981 46.2669 118.544 46.2669Z" fill="#4C5C75"/>
<path d="M62.516 13.608C63.0791 13.608 63.3607 13.3264 63.3607 12.7634C63.3607 10.7925 61.9529 8.54014 60.2636 7.6955C58.2928 6.56931 56.6035 7.6955 56.6035 9.66633C56.6035 9.94788 56.8851 10.511 57.4482 10.511C58.0113 10.511 58.2928 10.2294 58.2928 9.66633C58.2928 8.54014 58.8559 8.25859 59.7005 8.82169C60.8267 9.38478 61.9529 11.3556 61.9529 12.4818C61.6714 13.3265 61.9529 13.608 62.516 13.608Z" fill="#4C5C75"/>
</svg>
