<svg width="63" height="55" viewBox="0 0 63 55" fill="none" xmlns="http://www.w3.org/2000/svg">
<path d="M36.2738 54.9997L0 33.9164V25.7974L36.2738 46.8807V54.9997Z" fill="#B0B8CF"/>
<path d="M36.2738 46.8813L0 25.798L26.5833 10.4766L62.8571 31.5599L36.2738 46.8813Z" fill="#E3E7F0"/>
<path d="M62.8571 31.5596V39.6786L36.2738 55V46.881L62.8571 31.5596Z" fill="#C9CEE2"/>
<path d="M60.762 36.7979C60.762 35.4883 59.8453 34.9645 58.7977 35.6193C58.4049 35.8812 57.881 36.274 57.6191 36.7979L60.3691 38.3693C60.631 37.9764 60.762 37.3217 60.762 36.7979Z" fill="#9EA9C9"/>
<path d="M57.6191 36.7974C57.0953 37.4521 56.8334 38.3688 56.8334 39.0236C56.8334 40.3331 57.75 40.8569 58.7977 40.2021C59.4524 39.8093 59.9762 39.1545 60.3691 38.3688L57.6191 36.7974Z" fill="#B0B8CF"/>
<path d="M54.6072 40.3335C54.6072 39.024 53.6905 38.5002 52.6429 39.1549C52.2501 39.4168 51.7263 39.8097 51.4644 40.3335L54.2144 41.9049C54.4763 41.5121 54.6072 40.8573 54.6072 40.3335Z" fill="#9EA9C9"/>
<path d="M51.4643 40.3335C50.9405 40.9883 50.6786 41.9049 50.6786 42.5597C50.6786 43.8692 51.5953 44.393 52.6429 43.7383C53.2976 43.3454 53.8214 42.6906 54.2143 41.9049L51.4643 40.3335Z" fill="#B0B8CF"/>
<path d="M48.4524 43.8691C48.4524 42.5596 47.5358 42.0358 46.4881 42.6906C46.0953 42.9525 45.5715 43.3453 45.3096 43.8691L48.0596 45.4406C48.3215 45.0477 48.4524 44.393 48.4524 43.8691Z" fill="#9EA9C9"/>
<path d="M45.3095 44C44.7857 44.6548 44.5238 45.5714 44.5238 46.2262C44.5238 47.5357 45.4405 48.0595 46.4881 47.4048C47.1429 47.0119 47.6667 46.3571 48.0595 45.5714L45.3095 44Z" fill="#B0B8CF"/>
<path d="M42.2976 47.5356C42.2976 46.2261 41.381 45.7023 40.3334 46.3571C39.9405 46.619 39.4167 47.0118 39.1548 47.5356L41.9048 49.1071C42.1667 48.5833 42.2976 48.0595 42.2976 47.5356Z" fill="#9EA9C9"/>
<path d="M39.1547 47.5356C38.6309 48.1904 38.369 49.1071 38.369 49.7618C38.369 51.0714 39.2857 51.5952 40.3333 50.9404C40.9881 50.5476 41.5119 49.8928 41.9047 49.1071L39.1547 47.5356Z" fill="#B0B8CF"/>
<path d="M36.5358 42.2974C36.7977 42.2974 36.9286 42.1665 36.9286 41.9046C36.9286 40.9879 36.2739 39.9403 35.4881 39.5474C34.5715 39.0236 33.7858 39.5474 33.7858 40.4641C33.7858 40.5951 33.9167 40.857 34.1786 40.857C34.4405 40.857 34.5715 40.726 34.5715 40.4641C34.5715 39.9403 34.8334 39.8093 35.2262 40.0713C35.7501 40.3332 36.2739 41.2498 36.2739 41.7736C36.2739 42.1665 36.4048 42.2974 36.5358 42.2974Z" fill="#4C5C75"/>
<path d="M10.4762 27.107C10.7381 27.107 10.8691 26.9761 10.8691 26.7142C10.8691 25.7975 10.2143 24.7499 9.42858 24.357C8.51191 23.8332 7.7262 24.357 7.7262 25.2737C7.7262 25.4046 7.85715 25.6665 8.11905 25.6665C8.25001 25.6665 8.51191 25.5356 8.51191 25.2737C8.51191 24.7499 8.77382 24.6189 9.16667 24.8808C9.69048 25.1427 10.2143 26.0594 10.2143 26.5832C10.2143 26.9761 10.3452 27.107 10.4762 27.107Z" fill="#4C5C75"/>
<path d="M54.738 31.8215C54.9999 31.8215 55.1309 31.6905 55.1309 31.4286C55.1309 30.5119 54.4761 29.4643 53.6904 29.0715C53.2976 28.8096 52.7737 28.8096 52.5118 28.9405C52.119 29.0715 51.988 29.4643 51.988 29.9881C51.988 30.1191 52.119 30.381 52.3809 30.381C52.5118 30.381 52.7737 30.25 52.7737 29.9881C52.7737 29.7262 52.9047 29.5953 52.9047 29.4643C53.0357 29.4643 53.1666 29.4643 53.4285 29.5953C53.9523 29.8572 54.4761 30.7738 54.4761 31.2976C54.3452 31.6905 54.4761 31.8215 54.738 31.8215Z" fill="#4C5C75"/>
<path d="M28.6786 16.7618C28.9405 16.7618 29.0714 16.6308 29.0714 16.3689C29.0714 15.4523 28.4167 14.4047 27.631 14.0118C26.7143 13.488 25.9286 14.0118 25.9286 14.9285C25.9286 15.0594 26.0595 15.3213 26.3214 15.3213C26.5834 15.3213 26.7143 15.1904 26.7143 14.9285C26.7143 14.4047 26.9762 14.2737 27.3691 14.5356C27.8929 14.7975 28.4167 15.7142 28.4167 16.238C28.2857 16.4999 28.4167 16.7618 28.6786 16.7618Z" fill="#4C5C75"/>
<path d="M25.0119 20.6904V22.2619L7.59521 32.3452V30.7738L25.0119 20.6904Z" fill="#BF7D5A"/>
<path d="M7.59528 30.7741V32.3455L1.30957 28.6788V27.1074L7.59528 30.7741Z" fill="#AA6256"/>
<path d="M25.0119 20.6906L7.59528 30.7739L1.30957 27.1073L18.7262 17.0239L25.0119 20.6906Z" fill="#DBA660"/>
<path d="M44.1309 31.8213V33.3927L26.7142 43.476V41.9046L44.1309 31.8213Z" fill="#BF7D5A"/>
<path d="M26.7143 41.9049V43.4764L20.2976 39.8097L20.4286 38.2383L26.7143 41.9049Z" fill="#AA6256"/>
<path d="M44.131 31.8215L26.7143 41.9049L20.4286 38.2382L37.8452 28.0239L44.131 31.8215Z" fill="#DBA660"/>
<path d="M36.2738 44.5237L0 23.4403V15.3213L36.2738 36.4046V44.5237Z" fill="#B0B8CF"/>
<path d="M36.2738 36.4048L0 15.3214L26.5833 0L62.8571 21.0833L36.2738 36.4048Z" fill="#E3E7F0"/>
<path d="M62.8571 21.0835V29.2025L36.2738 44.524V36.4049L62.8571 21.0835Z" fill="#C9CEE2"/>
<path d="M60.762 26.3213C60.762 25.0118 59.8453 24.488 58.7977 25.1427C58.4049 25.4046 57.881 25.7975 57.6191 26.3213L60.3691 27.8927C60.631 27.3689 60.762 26.8451 60.762 26.3213Z" fill="#9EA9C9"/>
<path d="M57.6191 26.3213C57.0953 26.9761 56.8334 27.8927 56.8334 28.5475C56.8334 29.857 57.75 30.3808 58.7977 29.7261C59.4524 29.3332 59.9762 28.6784 60.3691 27.8927L57.6191 26.3213Z" fill="#B0B8CF"/>
<path d="M54.6072 29.8569C54.6072 28.5474 53.6905 28.0236 52.6429 28.6784C52.2501 28.9403 51.7263 29.3331 51.4644 29.8569L54.2144 31.4284C54.4763 30.9046 54.6072 30.3807 54.6072 29.8569Z" fill="#9EA9C9"/>
<path d="M51.4643 29.8574C50.9405 30.5122 50.6786 31.4289 50.6786 32.0836C50.6786 33.3931 51.5953 33.9169 52.6429 33.2622C53.2976 32.8693 53.8214 32.2146 54.2143 31.4289L51.4643 29.8574Z" fill="#B0B8CF"/>
<path d="M48.4524 33.3931C48.4524 32.0835 47.5358 31.5597 46.4881 32.2145C46.0953 32.4764 45.5715 32.8693 45.3096 33.3931L48.0596 34.9645C48.3215 34.4407 48.4524 33.9169 48.4524 33.3931Z" fill="#9EA9C9"/>
<path d="M45.3095 33.3931C44.7857 34.0478 44.5238 34.9645 44.5238 35.6193C44.5238 36.9288 45.4405 37.4526 46.4881 36.7978C47.1429 36.405 47.6667 35.7502 48.0595 34.9645L45.3095 33.3931Z" fill="#B0B8CF"/>
<path d="M42.2976 36.9287C42.2976 35.6192 41.381 35.0954 40.3334 35.7501C39.9405 36.012 39.4167 36.4049 39.1548 36.9287L41.9048 38.5001C42.1667 38.1073 42.2976 37.4525 42.2976 36.9287Z" fill="#9EA9C9"/>
<path d="M39.1547 36.9287C38.6309 37.5835 38.369 38.5001 38.369 39.1549C38.369 40.4644 39.2857 40.9882 40.3333 40.3335C40.9881 39.9406 41.5119 39.2859 41.9047 38.5001L39.1547 36.9287Z" fill="#B0B8CF"/>
<path d="M36.5358 31.8214C36.7977 31.8214 36.9286 31.6904 36.9286 31.4285C36.9286 30.5118 36.2739 29.4642 35.4881 29.0714C34.5715 28.5476 33.7858 29.0714 33.7858 29.988C33.7858 30.119 33.9167 30.3809 34.1786 30.3809C34.4405 30.3809 34.5715 30.2499 34.5715 29.988C34.5715 29.4642 34.8334 29.3333 35.2262 29.5952C35.7501 29.8571 36.2739 30.7737 36.2739 31.2976C36.2739 31.5595 36.4048 31.8214 36.5358 31.8214Z" fill="#4C5C75"/>
<path d="M10.4762 16.6309C10.7381 16.6309 10.8691 16.5 10.8691 16.2381C10.8691 15.3214 10.2143 14.2738 9.42858 13.8809C8.51191 13.3571 7.7262 13.8809 7.7262 14.7976C7.7262 14.9286 7.85715 15.1905 8.11905 15.1905C8.25001 15.1905 8.51191 15.0595 8.51191 14.7976C8.51191 14.2738 8.77382 14.1428 9.16667 14.4047C9.69048 14.6667 10.2143 15.5833 10.2143 16.1071C10.2143 16.5 10.3452 16.6309 10.4762 16.6309Z" fill="#4C5C75"/>
<path d="M54.738 21.3453C54.9999 21.3453 55.1309 21.2143 55.1309 20.9524C55.1309 20.0358 54.4761 18.9882 53.6904 18.5953C52.7738 18.0715 51.988 18.5953 51.988 19.512C51.988 19.6429 52.119 19.9048 52.3809 19.9048C52.5118 19.9048 52.7737 19.7739 52.7737 19.512C52.7737 18.9882 53.0357 18.8572 53.4285 19.1191C53.9523 19.381 54.4761 20.2977 54.4761 20.8215C54.3452 21.2143 54.4761 21.3453 54.738 21.3453Z" fill="#4C5C75"/>
<path d="M28.6786 6.15486C28.9405 6.15486 29.0714 6.02391 29.0714 5.76201C29.0714 4.84534 28.4167 3.79772 27.631 3.40487C26.7143 2.88106 25.9286 3.40487 25.9286 4.32153C25.9286 4.45248 26.0595 4.71439 26.3214 4.71439C26.5834 4.71439 26.7143 4.58344 26.7143 4.32153C26.7143 3.79772 26.9762 3.66677 27.3691 3.92868C27.8929 4.19058 28.4167 5.10725 28.4167 5.63106C28.2857 6.02391 28.4167 6.15486 28.6786 6.15486Z" fill="#4C5C75"/>
</svg>
