<svg width="95" height="65" viewBox="0 0 95 65" fill="none" xmlns="http://www.w3.org/2000/svg">
<g clip-path="url(#clip0_1_999)">
<path d="M39.9906 47.163L36.8481 29.8496C36.8168 29.6768 36.7096 29.5271 36.556 29.4417L28.6465 25.0425C28.5438 24.9853 28.4287 24.9625 28.3157 24.9713L29.7547 43.5345L29.7065 43.556L39.1724 47.8027C39.2494 47.8371 39.3313 47.8542 39.4128 47.8542C39.5418 47.8542 39.6696 47.8117 39.7747 47.7295C39.9464 47.5954 40.0294 47.3773 39.9906 47.163Z" fill="#44C868"/>
<path d="M20 29.2481L11.9106 25.0347C11.8136 24.9842 11.7061 24.9636 11.6003 24.9707C11.6283 24.9689 11.6565 24.9691 11.6845 24.9713L10.2455 43.5344L19.7596 47.8027C19.8364 47.8371 19.9184 47.8542 20 47.8542V29.2481Z" fill="#44C868"/>
<path d="M11.6844 24.9714C11.5713 24.9626 11.4563 24.9853 11.3536 25.0425L3.44398 29.4417C3.29039 29.5271 3.1832 29.6767 3.15187 29.8496L0.00944358 47.163C-0.0294627 47.3772 0.0536624 47.5953 0.225303 47.7295C0.330538 47.8118 0.458273 47.8542 0.587179 47.8542C0.668664 47.8542 0.750617 47.8373 0.82757 47.8027L10.242 43.5792L11.6844 24.9714Z" fill="#4CE166"/>
<path d="M28.3156 24.971C28.2378 24.977 28.1608 24.9977 28.0895 25.0349L20 29.2482V47.8543H20.0001C20.0817 47.8543 20.1638 47.8373 20.2405 47.8028L29.7546 43.5345L28.3156 24.971Z" fill="#4CE166"/>
<path d="M2.19952 35.0964L1.56116 38.6135L11.0138 33.6208L11.2333 30.7897L11.2697 30.3201L2.19952 35.0964Z" fill="#FFDB56"/>
<path d="M11.0989 32.523L11.0138 33.6208L1.56117 38.6135L0.00944358 47.163C-0.0294627 47.3772 0.0536624 47.5953 0.225303 47.7295C0.330538 47.8118 0.458273 47.8542 0.587179 47.8542C0.668664 47.8542 0.750617 47.8373 0.82757 47.8027L10.242 43.5792L11.0989 32.523Z" fill="#A8EEFC"/>
<path d="M20.0024 31.5688L11.2697 30.3201L11.0139 33.6208L20 47.2676V42.3053L14.6378 33.8617L20.0024 34.5033V31.5688Z" fill="#FFBB24"/>
<path d="M35.9333 29.0954L32.1337 26.9821L28.5367 27.8225L28.5817 28.4035L28.7593 30.6952L35.9333 29.0954Z" fill="#FFBB24"/>
<path d="M29.0783 34.8107L28.7377 30.4162L28.5367 27.8225L20.0024 31.5688V34.5033L25.5771 32.0791L29.0783 34.8107Z" fill="#FFDB56"/>
<path d="M39.9906 47.163L39.2013 42.814L28.7593 30.6952L29.0784 34.8107L39.787 47.7186C39.9498 47.5837 40.0285 47.3718 39.9906 47.163Z" fill="#FFBB24"/>
<path d="M20.0376 12.1457C15.5092 12.1457 11.8251 15.8268 11.8251 20.3515C11.8251 23.1504 13.1539 26.1554 15.7748 29.2829C17.6997 31.5801 19.5984 33.0575 19.6784 33.1193C19.7842 33.2011 19.9109 33.2419 20.0377 33.2419C20.1644 33.2419 20.2912 33.2011 20.397 33.1193C20.4768 33.0575 22.3756 31.5801 24.3006 29.2829C26.9214 26.1554 28.2503 23.1505 28.2503 20.3515C28.2501 15.8268 24.566 12.1457 20.0376 12.1457ZM23.079 20.3514C23.079 22.0297 21.7173 23.3904 20.0376 23.3904C18.3579 23.3904 16.9962 22.0298 16.9962 20.3514C16.9962 18.6731 18.3579 17.3125 20.0376 17.3125C21.7173 17.3125 23.079 18.6732 23.079 20.3514Z" fill="#FF4A4A"/>
<path d="M20.0376 12.1457C19.6787 12.1457 19.3252 12.169 18.9783 12.2138C23.0083 12.7347 26.1316 16.1854 26.1316 20.3515C26.1316 23.1504 24.8028 26.1554 22.1819 29.2829C20.944 30.7601 19.7179 31.8976 18.9784 32.5383C19.3889 32.894 19.65 33.0972 19.6784 33.1193C19.7842 33.2011 19.9109 33.2419 20.0377 33.2419C20.1644 33.2419 20.2912 33.2011 20.397 33.1193C20.4769 33.0575 22.3757 31.5801 24.3006 29.2829C26.9215 26.1554 28.2503 23.1505 28.2503 20.3515C28.2501 15.8268 24.566 12.1457 20.0376 12.1457Z" fill="#E7343F"/>
<path d="M20.2405 47.8027L23.7784 46.2155L20.0001 42.3053V47.8542H20.0001C20.0818 47.8542 20.1637 47.8373 20.2405 47.8027Z" fill="#FFDB56"/>
<path d="M36.848 29.8496C36.8167 29.6767 36.7095 29.5271 36.5559 29.4417L35.9333 29.0953L28.7593 30.6951L39.2012 42.814L36.848 29.8496Z" fill="#1EA4E9"/>
<path d="M20 47.8542C20.0001 47.8542 20.0001 47.8542 20 47.8542V47.2676L11.0139 33.6208L10.2454 43.5345L19.7595 47.8028C19.8363 47.8373 19.9183 47.8542 20 47.8542Z" fill="#1EA4E9"/>
</g>
<path d="M83.9744 46.0714L56.562 61.9089L32.587 47.9713L32.4995 18.9213L59.9119 3.09637L83.8869 17.0213L83.9744 46.0714Z" fill="#FFD06C"/>
<path d="M32.5005 18.9211L56.4733 32.8525L56.5627 61.9037L32.5898 47.9722L32.5005 18.9211Z" fill="#F9A83D"/>
<path d="M83.8909 17.0231L56.4735 32.8525L32.5006 18.921L59.918 3.09158L83.8909 17.0231Z" fill="#FFD06C"/>
<path d="M83.8908 17.0231L83.9802 46.0742L56.5627 61.9037L56.4734 32.8525L83.8908 17.0231Z" fill="#FEBC1F"/>
<path d="M74.5119 51.5335L66.7869 56.0585L66.3619 27.146L42.3869 13.2084L50.1119 8.74591L74.087 22.6834L74.5119 51.5335Z" fill="#4C5C75"/>
<path d="M42.3905 13.21L50.1175 8.74881L74.0902 22.6804L66.3632 27.1416L42.3905 13.21Z" fill="#4C5C75"/>
<path d="M66.3632 27.1416L66.7897 56.059L74.5168 51.5379L74.0902 22.6804L66.3632 27.1416Z" fill="#1D2943"/>
<path d="M45.7974 11.243L46.7105 10.7158L70.6832 24.6474L69.7701 25.1746L45.7974 11.243Z" fill="#111D33"/>
<path d="M50.0354 54.6048L50.0336 55.244L53.8187 57.4293L53.8205 56.7902L50.0354 54.6048Z" fill="#1D2943"/>
<path d="M52.963 52.4851L52.1318 53.27L52.7016 53.599L52.6955 55.7503L53.2246 56.0558L53.2307 53.9045L53.787 54.2256L52.963 52.4851Z" fill="#1D2943"/>
<path d="M50.9145 51.3023L50.0833 52.0873L50.6395 52.4084L50.6334 54.5597L51.1625 54.8652L51.1686 52.7139L51.7384 53.0429L50.9145 51.3023Z" fill="#1D2943"/>
<path d="M44.4252 49.6615L44.3895 51.3387C44.3895 51.6599 44.6393 52.0881 44.9247 52.2665C45.2102 52.4092 45.4601 52.3023 45.4601 51.981C45.4601 51.874 45.3886 51.8026 45.3531 51.7669C45.2817 51.7312 45.2459 51.7669 45.2459 51.8383C45.2459 52.0167 45.1033 52.0881 44.9247 51.981C44.7463 51.9098 44.6393 51.6599 44.6393 51.4815V49.7685L46.1381 50.6606C46.1381 49.7328 45.5315 48.5553 44.7463 48.0199V47.8772C44.7463 47.7343 44.6393 47.5917 44.5322 47.5202C44.4252 47.4847 44.3181 47.5202 44.3181 47.6631V47.8058C43.997 47.5917 43.64 47.6274 43.3902 47.7701C43.1049 47.913 42.9263 48.2697 42.9263 48.8051L44.4252 49.6615Z" fill="#1D2943"/>
<path d="M54.3357 58.6042L49.3592 55.7308C49.3156 55.7047 49.2877 55.6576 49.2877 55.6071L49.3034 49.8935C49.3034 49.843 49.3313 49.7959 49.3748 49.7698C49.4201 49.7454 49.4724 49.7454 49.5177 49.7698L54.4942 52.6431C54.5378 52.6693 54.5657 52.7163 54.5657 52.7669L54.55 58.4804C54.55 58.531 54.5221 58.578 54.4786 58.6042C54.4559 58.6164 54.4315 58.6233 54.4071 58.6233C54.3827 58.6233 54.3583 58.6164 54.3357 58.6042ZM49.5892 50.1409L49.5735 55.5252L54.2642 58.233L54.2799 52.8488L49.5892 50.1409Z" fill="#1D2943"/>
<path d="M46.9406 54.3351L41.9641 51.4617C41.9205 51.4356 41.8926 51.3886 41.8926 51.338L41.9083 45.6244C41.9083 45.5739 41.9362 45.5269 41.9798 45.5007C42.0251 45.4763 42.0773 45.4763 42.1226 45.5007L47.1009 48.3741C47.1445 48.4002 47.1724 48.4473 47.1724 48.4978L47.1549 54.2114C47.1549 54.2619 47.127 54.309 47.0835 54.3351C47.0608 54.3473 47.0364 54.3543 47.012 54.3543C46.9876 54.3543 46.9633 54.3473 46.9406 54.3351ZM42.1941 45.8719L42.1784 51.2561L46.8709 53.9639L46.8866 48.5797L42.1941 45.8719Z" fill="#1D2943"/>
<path d="M39.5455 50.066L34.569 47.1927C34.5254 47.1665 34.4976 47.1195 34.4976 47.069L34.515 41.3554C34.515 41.3048 34.5429 41.2578 34.5864 41.2316C34.6317 41.2072 34.684 41.2072 34.7293 41.2316L39.7058 44.105C39.7494 44.1311 39.7773 44.1782 39.7773 44.2287L39.7598 49.9423C39.7598 49.9928 39.732 50.0399 39.6884 50.066C39.6658 50.0782 39.6414 50.0852 39.617 50.0852C39.5926 50.0852 39.5682 50.0782 39.5455 50.066ZM34.799 41.6028L34.7833 46.9871L39.4758 49.6949L39.4915 44.3106L34.799 41.6028Z" fill="#1D2943"/>
<path d="M35.9883 42.9427L35.9839 44.4896C35.9821 45.1386 36.3882 45.9129 36.9254 46.3346L36.9223 47.4393L36.6438 47.2785C36.5374 47.2171 36.4514 47.2661 36.451 47.389C36.4507 47.51 36.5362 47.6574 36.6425 47.7188L37.6134 48.2793C37.7187 48.3401 37.8047 48.2917 37.8051 48.1708C37.8054 48.0479 37.7199 47.8998 37.6146 47.839L37.3367 47.6785L37.3398 46.5739C37.5745 46.6612 37.7848 46.6526 37.9458 46.5589C38.1553 46.4395 38.2855 46.1832 38.2865 45.819L38.2909 44.2721L35.9883 42.9427Z" fill="#1D2943"/>
<path d="M84.6927 47.3136C86.0609 46.3391 87.3119 44.9995 88.3404 43.4774L89.6993 44.2671C88.6707 45.7892 87.4198 47.1288 86.0516 48.1033C85.644 47.8664 85.1004 47.5505 84.6927 47.3136Z" fill="#E9E7FC"/>
<path d="M79.2902 48.6963C80.324 49.0275 81.5783 48.9218 82.9466 48.3196L84.3055 49.1093C82.9372 49.7115 81.6829 49.8172 80.6491 49.486C80.2414 49.2491 79.6979 48.9332 79.2902 48.6963Z" fill="#E9E7FC"/>
<path d="M91.8369 50.9584L89.4369 51.0834L88.0744 54.4459L86.1994 53.3584L84.687 47.3085L86.0494 48.1085C87.4245 47.1334 88.6745 45.7834 89.6995 44.271L91.8369 50.9584Z" fill="#F45170"/>
<path d="M88.077 54.4521L86.205 53.3639L84.6927 47.3136L86.0516 48.1033L88.077 54.4521Z" fill="#E93565"/>
<path d="M89.6993 44.2671L91.8339 50.9583L89.4361 51.0817L88.077 54.4521L86.0516 48.1033C87.4198 47.1288 88.6707 45.7892 89.6993 44.2671Z" fill="#F45170"/>
<path d="M84.2995 49.1085L82.3245 57.771L80.962 56.9835L80.537 56.4335L78.562 58.621L76.687 57.5335L78.7745 48.396L80.6495 49.4835C81.687 49.821 82.937 49.7085 84.2995 49.1085Z" fill="#F45170"/>
<path d="M82.3221 57.7747L80.9632 56.985L79.5895 55.1924L80.9484 55.9821L82.3221 57.7747Z" fill="#DF3260"/>
<path d="M80.6491 49.486C81.6829 49.8172 82.9372 49.7115 84.3055 49.1093L82.3221 57.7746L80.9484 55.9821L78.5577 58.6233L80.6491 49.486Z" fill="#F45170"/>
<path d="M78.5577 58.6233L76.6857 57.5352L78.7771 48.3978L80.6491 49.486L78.5577 58.6233Z" fill="#E93565"/>
<path d="M92.4994 35.996C92.5119 38.6959 91.4119 41.7334 89.6994 44.271C88.6744 45.7834 87.4244 47.1334 86.0494 48.1085C85.7744 48.3084 85.4744 48.496 85.1869 48.6585C84.8869 48.8334 84.5994 48.9834 84.2994 49.1084C82.9369 49.7084 81.6869 49.821 80.6494 49.4834C80.3869 49.3959 80.1369 49.2835 79.9119 49.1459C79.8494 49.121 79.7994 49.0834 79.7494 49.046L78.0744 48.0834C76.7619 47.321 75.9369 45.6959 75.9369 43.3959C75.9244 38.7209 79.2119 33.0335 83.2619 30.6959C85.3119 29.5209 87.1494 29.4084 88.4869 30.1834L90.3494 31.2709C90.2869 31.2335 90.2119 31.1959 90.1369 31.1709C91.5869 31.8709 92.4869 33.5584 92.4994 35.996Z" fill="#497BFE"/>
<path d="M90.3534 31.2741C89.023 30.5029 87.1818 30.609 85.138 31.785C81.0795 34.1276 77.7922 39.8154 77.8114 44.4813C77.8114 46.7853 78.6309 48.4145 79.9516 49.1761L78.0792 48.0871C76.7584 47.3255 75.939 45.6964 75.939 43.3923C75.9198 38.7264 79.2071 33.0387 83.2656 30.6961C85.3094 29.52 87.1507 29.4139 88.481 30.1852L90.3534 31.2741Z" fill="#497BFE"/>
<path d="M85.1398 31.7856C89.1959 29.4438 92.4873 31.3335 92.5005 35.9943C92.5081 38.6924 91.4122 41.7322 89.6993 44.2671C88.6707 45.7892 87.4198 47.1288 86.0516 48.1033C85.7684 48.3051 85.48 48.4918 85.1877 48.6606C84.8891 48.833 84.5948 48.982 84.3055 49.1093C82.9372 49.7115 81.6829 49.8172 80.6491 49.486C78.9268 48.9342 77.8162 47.1711 77.8086 44.4767C77.7954 39.8159 81.0775 34.1309 85.1398 31.7856Z" fill="#57B3FE"/>
<path d="M85.1408 33.4095C88.402 31.5266 91.0733 33.0489 91.084 36.8091C91.0946 40.5629 88.4406 45.1534 85.1794 47.0363C81.907 48.9256 79.2357 47.4097 79.2251 43.6559C79.2144 39.8957 81.8684 35.2988 85.1408 33.4095Z" fill="white"/>
<path d="M88.7212 35.7621C88.7791 36.0519 88.6632 36.3127 88.5618 36.5155C88.5328 36.5879 88.4893 36.6459 88.4604 36.7039L84.8092 43.05C84.6788 43.2962 84.5339 43.5281 84.3745 43.7599L84.331 43.8034C84.2007 43.9918 84.0413 44.209 83.795 44.2525C83.7804 44.267 83.7515 44.267 83.7225 44.267C83.5632 44.267 83.4038 44.1801 83.2879 44.1076L81.9549 43.3397C81.8535 43.2818 81.7231 43.2093 81.6506 43.0935C81.5637 42.963 81.5492 42.7747 81.6071 42.5429C81.6796 42.2965 81.81 42.0647 81.9839 41.8764C82.0998 41.7604 82.2881 41.6156 82.5055 41.6156H82.5344C82.6794 41.6156 82.8097 41.688 82.9112 41.7604L83.8675 42.2965L84.447 41.2968C85.3598 39.7176 86.2726 38.1382 87.1854 36.559C87.3447 36.2837 87.4752 36.0374 87.649 35.8056C87.7504 35.6752 87.8663 35.5303 88.0112 35.4433C88.1706 35.3709 88.4024 35.3419 88.5618 35.4724C88.6632 35.5593 88.7067 35.6752 88.7212 35.7621Z" fill="#F45170"/>
<defs>
<clipPath id="clip0_1_999">
<rect width="40" height="40" fill="white" transform="translate(0 10)"/>
</clipPath>
</defs>
</svg>
