<svg width="68" height="68" viewBox="0 0 68 68" fill="none" xmlns="http://www.w3.org/2000/svg">
<path d="M65.3845 30.2077V35.4385L28.5075 56.8846L2.61523 41.8462V36.6154L39.4922 15.1692L65.3845 30.2077Z" fill="#E9E7FC"/>
<path d="M65.3843 30.2077V35.4385L28.5073 56.8846V51.5231L65.3843 30.2077Z" fill="#E9E7FC"/>
<path d="M28.5075 51.5231V56.8846L2.61523 41.8462V36.6154L28.5075 51.5231Z" fill="#DEDFFB"/>
<path d="M65.3845 30.2077L28.5075 51.5231L2.61523 36.6154L39.4922 15.1692L65.3845 30.2077Z" fill="#F3F1FC"/>
<path d="M52.1767 25.2385V27.2L22.492 44.4615L16.6074 41.0615V39.1L46.292 21.8385L52.1767 25.2385Z" fill="#1D2943"/>
<path d="M52.1768 25.2384V27.2L22.4922 44.4615V42.5L52.1768 25.2384Z" fill="#1D2943"/>
<path d="M22.492 42.5V44.4615L16.6074 41.0615V39.1L22.492 42.5Z" fill="#111D33"/>
<path d="M52.1767 25.2385L22.492 42.5L16.6074 39.1L46.292 21.8385L52.1767 25.2385Z" fill="#4C5C75"/>
<path d="M37.5305 31.5154L34.2612 29.6846L34.9151 26.4154L38.1843 28.2462L37.5305 31.5154Z" fill="#E9E7FC"/>
<path d="M34.2614 34.3923L30.9921 32.5615C30.469 32.3 30.3383 31.5154 30.469 30.6L33.7383 32.4308C33.4767 33.4769 33.7383 34.1308 34.2614 34.3923Z" fill="#E9E7FC"/>
<path d="M50.2152 25.2385L22.0998 41.4538L18.8306 39.6231L20.0075 36.0923C20.269 35.3077 20.9229 34.5231 21.5767 34.1308L30.8613 28.7692L32.6921 20.2692C33.2152 17.7846 34.9152 15.3 36.8767 14.1231L41.5844 11.3769C42.1075 11.1154 42.6306 10.9846 43.0229 11.2462L46.1613 13.0769C46.5536 13.2077 46.8152 13.7308 46.8152 14.3846C46.8152 15.6923 45.8998 17.1308 44.8536 17.7846L40.146 20.5308C39.8844 20.6615 39.7536 20.9231 39.7536 21.1846L39.0998 23.9308L44.3306 20.9231C44.8536 20.6615 45.246 20.6615 45.5075 20.7923L48.7767 22.6231C48.9075 22.7538 49.0383 22.8846 49.169 23.0154L50.2152 25.2385Z" fill="#FFD06C"/>
<path d="M48.7766 22.7538C48.515 22.6231 47.992 22.6231 47.5997 22.8846L38.1843 28.2461L34.915 26.4154L44.1997 21.0538C44.7227 20.7923 45.115 20.7923 45.3766 20.9231L48.7766 22.7538Z" fill="#F9A83D"/>
<path d="M34.1306 30.6L24.846 35.9615C24.1921 36.3538 23.5383 37.1385 23.2767 37.9231L22.0998 41.4538L18.8306 39.6231L20.0075 36.0923C20.269 35.3077 20.9229 34.5231 21.5767 34.1308L30.8613 28.7692L34.1306 30.6Z" fill="#F9A83D"/>
<path d="M46.1613 13.2077C45.769 12.9462 45.3767 13.0769 44.7229 13.3385L40.0152 16.0846C38.0536 17.2615 36.3536 19.7462 35.8306 22.2308L33.9998 30.7308L30.8613 28.7692L32.6921 20.2692C33.2152 17.7846 34.9152 15.3 36.8767 14.1231L41.5844 11.3769C42.1075 11.1154 42.6306 10.9846 43.0229 11.2462L46.1613 13.2077Z" fill="#FEBC1F"/>
<path d="M49.0381 23.1462L50.215 25.2385L22.0996 41.4538L23.2765 37.9231C23.5381 37.1385 24.1919 36.2231 24.8458 35.9615L34.1304 30.6L35.9611 22.1C36.4842 19.6154 38.1842 17.1308 40.1458 15.9539L44.8535 13.2077C45.8996 12.5539 46.815 13.0769 46.815 14.3846C46.815 15.6923 45.8996 17.1308 44.8535 17.7846L40.1458 20.5308C39.8842 20.6615 39.7535 20.9231 39.7535 21.1846L38.1842 28.2462L47.5996 22.8846C48.2535 22.4923 48.7765 22.6231 49.0381 23.1462Z" fill="#FFD06C"/>
</svg>
