<svg width="24" height="24" viewBox="0 0 24 24" fill="none" xmlns="http://www.w3.org/2000/svg">
<path d="M13.8378 12L10.3028 15.536C10.1206 15.7246 10.0198 15.9772 10.0221 16.2394C10.0244 16.5016 10.1295 16.7524 10.3149 16.9378C10.5004 17.1232 10.7512 17.2284 11.0134 17.2307C11.2756 17.233 11.5282 17.1322 11.7168 16.95L15.9598 12.707C16.1472 12.5195 16.2526 12.2652 16.2526 12C16.2526 11.7348 16.1472 11.4805 15.9598 11.293L11.7168 7.05C11.5282 6.86784 11.2756 6.76705 11.0134 6.76933C10.7512 6.7716 10.5004 6.87677 10.3149 7.06218C10.1295 7.24759 10.0244 7.4984 10.0221 7.7606C10.0198 8.0228 10.1206 8.2754 10.3028 8.464L13.8378 12ZM12.0098 22C6.48677 22 2.00977 17.523 2.00977 12C2.00977 6.477 6.48677 2 12.0098 2C17.5328 2 22.0098 6.477 22.0098 12C22.0098 17.523 17.5328 22 12.0098 22Z" fill="#0D34FF"/>
</svg>
