<svg width="32" height="32" viewBox="0 0 32 32" fill="none" xmlns="http://www.w3.org/2000/svg">
<path d="M17.7518 15.8667L22.4651 11.152C22.5924 11.029 22.694 10.8819 22.7639 10.7192C22.8338 10.5565 22.8706 10.3816 22.8721 10.2045C22.8736 10.0275 22.8399 9.85193 22.7729 9.68806C22.7058 9.5242 22.6068 9.37533 22.4816 9.25014C22.3564 9.12495 22.2076 9.02595 22.0437 8.95891C21.8798 8.89187 21.7043 8.85813 21.5272 8.85967C21.3502 8.86121 21.1752 8.89799 21.0126 8.96787C20.8499 9.03775 20.7028 9.13932 20.5798 9.26667L15.8651 13.98L11.1518 9.26667C11.0288 9.13932 10.8816 9.03775 10.719 8.96787C10.5563 8.89799 10.3813 8.86121 10.2043 8.85967C10.0273 8.85813 9.85168 8.89187 9.68782 8.95891C9.52396 9.02595 9.37509 9.12495 9.2499 9.25014C9.12471 9.37533 9.0257 9.5242 8.95866 9.68806C8.89162 9.85193 8.85789 10.0275 8.85943 10.2045C8.86096 10.3816 8.89775 10.5565 8.96762 10.7192C9.0375 10.8819 9.13908 11.029 9.26643 11.152L13.9798 15.8653L9.26643 20.58C9.13908 20.703 9.0375 20.8501 8.96762 21.0128C8.89775 21.1755 8.86096 21.3504 8.85943 21.5275C8.85789 21.7045 8.89162 21.8801 8.95866 22.0439C9.0257 22.2078 9.12471 22.3567 9.2499 22.4819C9.37509 22.6071 9.52396 22.7061 9.68782 22.7731C9.85168 22.8401 10.0273 22.8739 10.2043 22.8723C10.3813 22.8708 10.5563 22.834 10.719 22.7641C10.8816 22.6943 11.0288 22.5927 11.1518 22.4653L15.8651 17.752L20.5798 22.4653C20.7028 22.5927 20.8499 22.6943 21.0126 22.7641C21.1752 22.834 21.3502 22.8708 21.5272 22.8723C21.7043 22.8739 21.8798 22.8401 22.0437 22.7731C22.2076 22.7061 22.3564 22.6071 22.4816 22.4819C22.6068 22.3567 22.7058 22.2078 22.7729 22.0439C22.8399 21.8801 22.8736 21.7045 22.8721 21.5275C22.8706 21.3504 22.8338 21.1755 22.7639 21.0128C22.694 20.8501 22.5924 20.703 22.4651 20.58L17.7518 15.8653V15.8667Z" fill="white"/>
</svg>
