<svg width="24" height="24" viewBox="0 0 24 24" fill="none" xmlns="http://www.w3.org/2000/svg">
<path fill-rule="evenodd" clip-rule="evenodd" d="M12 19.9998C16.418 19.9998 20 16.4188 20 11.9998C20 7.5818 16.418 3.9998 12 3.9998C7.582 3.9998 4 7.5818 4 11.9998C4 16.4188 7.582 19.9998 12 19.9998ZM12 21.9998C9.348 21.9998 6.805 20.9468 4.929 19.0708C3.054 17.1958 2 14.6518 2 11.9998C2 6.4778 6.478 1.9998 12 1.9998C17.522 1.9998 22 6.4778 22 11.9998C22 17.5228 17.522 21.9998 12 21.9998ZM12 9.9998C12.553 9.9998 13 10.4478 13 10.9998V15.9998C13 16.5528 12.553 16.9998 12 16.9998C11.447 16.9998 11 16.5528 11 15.9998V10.9998C11 10.4478 11.447 9.9998 12 9.9998ZM12 8.9998C11.447 8.9998 11 8.5528 11 7.9998C11 7.4478 11.447 6.9998 12 6.9998C12.553 6.9998 13 7.4478 13 7.9998C13 8.5528 12.553 8.9998 12 8.9998Z" fill="#002A8D"/>
</svg>
