<svg width="33" height="69" viewBox="0 0 33 69" fill="none" xmlns="http://www.w3.org/2000/svg">
<path d="M18.1886 32.5411V55.1664L16.7697 55.9916L16.3062 56.2608L10.6935 59.5284L7.81747 61.2043L0.00180054 65.7524V10.5816L18.1842 0L18.1886 32.5411Z" fill="#D7D3C2"/>
<path d="M0 44.9148L0.727335 37.9703L1.56969 39.2087L2.2011 36.2822L3.28916 37.9703L3.4125 34.0131L2.52365 29.2281L3.4125 26.1749L2.85012 22.8774L3.28916 20.7017L2.7625 18.3156L3.4125 16.14L4.51721 19.738L4.97779 19.2167L5.57004 16.6182L6.51714 18.1752L7.32426 17.07L8.12061 17.3343L8.95122 15.8243L10.1944 19.0175L10.4822 16.14L10.8767 15.3936L11.0549 17.7023L11.6667 16.0171L12.445 15.629L13.1532 17.9123L12.8576 20.456L13.5526 22.6669L12.9956 25.0511L13.5526 27.1415V30.8184L14.163 32.3871L15.3249 30.069H16.3073H17.6342L18.1868 28.7333V55.1679L0 65.7539V44.9148Z" fill="#A5A5A5"/>
<path d="M14.0406 36.5626C14.0406 36.5626 12.5164 28.0695 12.0191 27.1429C11.725 26.5962 10.5209 26.094 9.48864 25.8224L7.92237 18.3738C9.8802 17.4365 11.8738 16.4732 11.8738 16.4732C11.8738 16.4732 12.1165 14.9554 11.6677 14.3504C11.2189 13.745 3.41495 17.298 3.41495 17.298C3.41495 17.298 2.78844 17.7179 2.81879 18.574C2.84962 19.43 3.21818 20.5617 4.34981 20.0614C4.79228 19.8662 6.03942 19.2744 7.39326 18.6273L8.86751 25.6839C8.42064 25.6036 8.06774 25.5869 7.94293 25.6609C7.50927 25.9134 6.27143 30.5916 6.27143 30.5916L8.00851 37.7426C8.00851 37.7426 7.46326 46.7531 7.46326 47.4393C7.46326 48.7026 7.81714 61.2048 7.81714 61.2048L10.6932 59.5289L16.3063 56.2613V46.5216L14.0406 36.5626Z" fill="#919191"/>
<path d="M31.2475 62.2292C29.993 61.0026 27.7822 60.2831 25.4871 60.2048C25.0059 59.9615 24.4773 59.757 23.913 59.5974L23.9154 59.5959L16.3063 56.2607L10.6932 59.5284L7.81714 61.2043L15.0048 65.0152L15.0053 65.0147C16.2598 66.2403 18.4697 66.9593 20.7643 67.0376C22.9536 68.1438 26.1802 68.415 28.8051 67.578C32.1006 66.5276 33.1941 64.1327 31.2475 62.2292Z" fill="#CCC0BC"/>
<path d="M14.5614 45.1476C14.5913 45.1574 15.0225 48.0232 14.9921 48.0633C14.9623 48.1034 14.4718 48.1534 14.4718 48.1534L13.9799 44.8867L14.5614 45.1476Z" fill="#4A2727"/>
<path d="M25.3285 62.1924L25.1034 62.3035C25.1034 62.3035 24.983 62.5683 24.983 62.7337C24.983 62.8992 25.0358 63.1395 25.0471 63.2599C25.0583 63.3803 26.2306 65.0033 26.3657 65.274C26.5008 65.5447 27.0269 66.2661 27.5081 66.4164C27.9892 66.5667 28.5903 66.0106 28.5903 66.0106V65.3792L26.8767 63.7998L25.3285 62.1924Z" fill="#2F2720"/>
<path d="M28.3495 63.6653C28.3495 63.6653 28.5898 65.1684 28.5898 65.3789C28.5898 65.5893 28.3495 65.815 27.7929 65.8747C27.2369 65.9349 26.6657 65.4239 26.6657 65.4239L25.8424 63.8757C25.8424 63.8757 25.1778 62.7935 25.0725 62.6731C24.9673 62.5527 25.2145 62.0168 25.2145 62.0168C25.2145 62.0168 26.4553 61.7412 26.5458 61.7412C26.6359 61.7412 28.3495 63.6653 28.3495 63.6653Z" fill="#D6A94F"/>
<path d="M28.6803 63.6951C28.6803 63.975 28.4601 64.6368 28.4601 64.6368C28.4601 64.6368 27.8879 64.9168 27.5497 65.0504C27.4533 65.0876 27.3764 65.113 27.3368 65.1179C27.1566 65.1385 26.2149 64.838 26.2149 64.838C26.2149 64.838 25.6271 63.9364 25.5502 63.5957C25.4734 63.2541 25.1929 61.9521 25.1929 61.8919C25.1929 61.8317 24.492 58.1642 24.492 58.1642C24.492 58.1642 24.3716 55.1785 24.2312 54.737C24.0907 54.2955 23.3496 51.7107 23.1284 51.2501C23.0682 51.1238 23.0276 50.6804 23.0119 50.0876C22.9723 48.515 23.1176 45.8935 23.5905 45.3981C24.24 44.7178 27.3373 44.7065 27.3373 44.7065C27.3373 44.7065 27.395 44.7535 27.467 44.9146C27.604 45.2175 27.7915 45.9248 27.7386 47.4828C27.6579 49.8674 27.7797 52.1121 27.7386 52.4522C27.7327 52.5017 27.7445 52.6446 27.7685 52.8565C27.9138 54.0973 28.4997 57.6748 28.4997 58.104C28.4997 58.6057 28.6402 62.0926 28.6402 62.0926C28.6402 62.0926 28.6803 63.4151 28.6803 63.6951Z" fill="#355FA3"/>
<path d="M27.5497 65.0505C27.4532 65.0877 27.3764 65.1131 27.3368 65.118C27.1566 65.1386 26.2149 64.8381 26.2149 64.8381C26.2149 64.8381 25.6271 63.9365 25.5502 63.5958C25.4734 63.2542 25.1929 61.9522 25.1929 61.892C25.1929 61.8318 24.492 58.1643 24.492 58.1643C24.492 58.1643 24.3716 55.1786 24.2311 54.7371C24.0907 54.2956 23.3496 51.7108 23.1284 51.2502C23.0682 51.1239 23.0276 50.6805 23.0119 50.0877C23.4172 49.6296 23.8655 49.1269 24.2962 48.6473C25.2918 47.5386 25.6667 46.7315 25.6941 46.7012C25.6653 46.7721 25.2531 48.8479 25.2326 48.9659C25.2135 49.0863 24.191 51.0099 24.0711 51.211C23.9507 51.4107 23.7104 51.7519 23.7104 51.7519L24.0109 53.094C24.0109 53.094 24.3814 54.2173 24.5268 54.2364C24.6721 54.2569 24.9825 55.9196 24.9825 55.9196L25.7137 56.9225L24.9825 56.5412L24.7118 56.4605C24.7118 56.4605 25.1327 57.8241 25.213 58.2245C25.2923 58.6249 25.2923 59.4868 25.2923 59.4868L25.5497 60.3889L26.0128 59.5098C26.002 59.571 25.7925 60.6615 25.8419 61.0707C25.8938 61.4916 26.0137 62.1925 26.0137 62.1925L26.8179 60.5293L26.1337 62.1925C26.1337 62.1925 26.468 62.9561 26.4151 63.1112C26.3608 63.2664 27.1968 61.8318 27.1968 61.8318L26.675 63.1112L26.7856 63.8112C26.7856 63.8112 27.5418 64.2297 27.5369 64.3173C27.5355 64.3711 27.5438 64.7597 27.5497 65.0505Z" fill="#6C91C4"/>
<path d="M27.7685 52.8567C27.4993 53.1211 27.4777 55.3985 27.4175 55.3784C27.3573 55.3594 27.3573 54.0559 27.3573 53.7554C27.3573 53.5209 27.4425 51.4153 27.5051 50.6277C27.3333 51.2518 26.7558 52.5939 26.7558 52.5939C26.7558 52.5939 27.2766 50.8695 27.3368 50.5088C27.397 50.1481 27.5497 48.5657 27.5497 48.5657L26.7127 49.3508C26.7778 49.2871 27.0304 49.0331 27.1165 48.8256C27.2164 48.5852 27.5492 47.7037 27.5492 47.7037L26.4753 48.5852C26.4753 48.5852 27.4371 47.503 27.5492 47.1281C27.6608 46.7527 27.1762 45.042 27.1762 45.042C27.1762 45.042 27.0994 44.9902 27.277 44.9158C27.4141 45.2187 27.7905 45.926 27.7376 47.484C27.6569 49.8686 27.7787 52.1133 27.7376 52.4534C27.7327 52.5019 27.7445 52.6453 27.7685 52.8567Z" fill="#6C91C4"/>
<path d="M17.6352 61.8318L17.3846 62.1005L17.5099 62.6281C17.5099 62.6281 18.5192 63.3795 19.0757 63.6653C19.6317 63.9507 20.3233 64.3417 20.5788 64.3868C20.8343 64.4318 21.4505 64.0559 21.4804 63.9658C21.5103 63.8758 21.6605 63.8616 21.5925 63.6051C21.5245 63.3486 19.5142 62.8538 19.5142 62.8538L17.6352 61.8318Z" fill="#2F2720"/>
<path d="M21.661 62.7785C21.6909 62.9439 21.593 63.6052 21.593 63.6052C21.593 63.6052 21.0149 64.1162 20.684 64.1314C20.3537 64.1465 18.8804 63.3345 18.7003 63.2596C18.5201 63.1843 17.6333 62.5533 17.4977 62.3727C17.3626 62.1926 17.3626 61.9371 17.3626 61.8319C17.3626 61.7267 17.4526 61.1256 17.4977 61.0806C17.5427 61.0355 17.738 60.78 18.0087 60.78C18.2793 60.78 19.8123 60.9905 19.8725 61.0806C19.9322 61.1701 21.661 62.7785 21.661 62.7785Z" fill="#D6A94F"/>
<path d="M24.8924 48.9859C24.5043 49.8782 23.3819 51.2599 23.3124 51.3461L23.309 51.3495C23.309 51.3505 23.3076 51.3505 23.3076 51.3519C23.2845 51.4386 22.6678 53.7449 22.6678 54.2559C22.6678 54.7767 22.1064 59.5861 22.1064 59.5861L22.3673 61.9306L22.2268 62.6521C22.2268 62.6521 21.938 62.9766 21.6414 63.2473C21.5475 63.3314 21.4525 63.4122 21.3659 63.4744C21.0051 63.7343 19.9229 63.8953 19.5211 63.7343C19.3586 63.6692 19.1902 63.536 19.0439 63.3926C18.8261 63.1797 18.6552 62.9453 18.6195 62.8733C18.5593 62.7529 18.6195 61.8102 18.6195 61.5097C18.6195 61.2091 18.48 58.3042 18.48 58.0634C18.48 57.8226 18.4389 56.6396 18.2999 56.179C18.1594 55.7184 17.7385 52.371 17.6577 50.2668C17.5784 48.1626 17.7385 46.0389 17.7385 46.0389L18.3014 45.9596L22.2826 45.3967C22.2826 45.3967 25.1543 45.0169 25.4548 45.7985C25.7548 46.5812 25.2928 48.0638 24.8924 48.9859Z" fill="#355FA3"/>
<path d="M19.0405 60.4883C19.109 60.9093 19.2162 62.4784 19.1883 62.6767C19.1692 62.8152 19.0546 63.0869 19.0439 63.3933C18.8261 63.1803 18.6552 62.9459 18.6195 62.8739C18.5593 62.7535 18.6195 61.8108 18.6195 61.5103C18.6195 61.2098 18.48 58.3048 18.48 58.064C18.48 57.8232 18.4389 56.6402 18.2999 56.1796C18.1594 55.719 17.7385 52.3716 17.6577 50.2674C17.5784 48.1633 17.7385 46.0395 17.7385 46.0395L18.3014 45.9602C18.3014 45.9602 17.9793 47.9885 17.9935 48.1535C18.0092 48.3184 18.1208 51.9409 18.1472 52.166C18.1736 52.3922 18.5344 55.533 18.5344 55.533L18.7605 56.3749C18.7605 56.3749 18.9807 58.9059 18.9807 59.0057C18.9802 59.1056 18.9719 60.0679 19.0405 60.4883Z" fill="#6C91C4"/>
<path d="M22.6678 54.2562C22.6678 54.777 22.1064 59.5865 22.1064 59.5865L22.3673 61.931L22.2268 62.6524C22.2268 62.6524 21.938 62.9769 21.6414 63.2476C21.7305 62.9627 21.8064 62.7126 21.8064 62.7126L21.9268 61.9515L21.6669 59.9472L22.1877 56.6404C22.1877 56.6404 22.6889 53.0742 22.7491 52.873C22.8093 52.6724 23.1122 51.6009 23.308 51.3518C23.2845 51.4389 22.6678 53.7448 22.6678 54.2562Z" fill="#6C91C4"/>
<path d="M27.6985 45.0425C27.6588 45.1394 27.5922 45.2853 27.5174 45.3606C27.3979 45.4801 26.3735 46.1423 24.8322 46.9019C23.2909 47.666 20.6013 48.0062 19.9215 47.944C19.2416 47.8823 18.5216 47.1007 18.3581 47.1403C18.3405 47.1447 18.3185 47.1403 18.292 47.1271C18.0933 47.0253 17.7399 46.5221 17.6518 46.3939L17.6342 46.3675C17.6342 46.3675 17.6474 45.8506 17.6695 45.321L17.6783 45.043L17.6827 44.9637C17.6915 44.6813 17.7047 44.4292 17.7179 44.297C17.7311 44.1556 17.7752 43.5506 17.8373 42.791L17.8946 42.0225C17.9343 41.4616 17.9788 40.8698 18.0184 40.3491C18.0757 39.6291 18.1202 39.0373 18.1379 38.8254C18.1995 38.1632 18.2793 33.0493 18.4159 32.6871C18.5485 32.3293 19.1667 31.8922 19.3742 31.6979C19.5862 31.4992 20.0986 30.7968 20.4741 30.2672C20.8495 29.7415 23.4945 28.7039 23.4945 28.7039C23.4945 28.7039 24.307 28.6907 24.5189 28.7039C24.5542 28.7083 24.6026 28.7171 24.6516 28.7347C24.8635 28.8008 25.1195 28.9599 25.1195 28.9599C26.2149 29.8698 26.2369 30.9118 26.2942 32.0337C26.3559 33.1555 26.4973 36.6042 26.2546 37.6022C26.0691 38.3883 26.3206 39.5278 26.6344 40.6095C26.7225 40.91 26.8111 41.21 26.8992 41.4924C27.2966 42.7954 27.5482 44.9373 27.5482 44.9373C27.5482 44.9373 27.7249 44.9803 27.6985 45.0425Z" fill="#F9551A"/>
<path d="M26.631 40.6023L26.3867 40.661L26.117 39.684C26.117 39.684 26.0412 39.8441 25.9276 40.0839C25.839 39.8397 25.7255 39.5827 25.5737 39.4104L25.5948 39.2841L25.5483 39.3767C25.4558 39.2758 25.3545 39.2083 25.2409 39.2083C25.3589 38.9303 25.4347 38.7452 25.4347 38.7452C25.8346 38.244 26.117 36.762 26.117 36.762C26.117 36.762 26.0328 35.1154 26.0328 34.6774C26.0328 34.2393 25.9741 31.9697 25.9531 30.816C25.9364 29.7255 24.7823 28.8283 24.6604 28.7402C24.8709 28.8078 25.1195 28.959 25.1195 28.959C26.2144 29.8684 26.2355 30.9085 26.2942 32.0328C26.3574 33.1527 26.4964 36.6014 26.2565 37.6038C26.0666 38.383 26.3192 39.524 26.631 40.6023Z" fill="#F09F69"/>
<path d="M19.2671 31.7896C19.2671 31.7896 20.0977 31.3349 21.1167 32.3084C22.1358 33.2824 24.9164 40.311 24.9164 40.311L25.7054 39.6488C25.7054 39.6488 22.4852 32.4949 21.731 31.6834C20.9767 30.8718 19.803 31.1836 19.803 31.1836L19.2671 31.7896Z" fill="#355FA3"/>
<path d="M23.9987 28.7332C23.9987 28.7332 24.2884 31.2245 24.0858 32.3086C23.8836 33.3928 21.9581 40.4635 21.9581 40.4635L22.963 40.3113C22.963 40.3113 24.6966 33.1564 24.9154 32.3086C25.1342 31.4609 24.9756 29.0963 24.6501 28.7332C23.9987 28.7332 23.9987 28.7332 23.9987 28.7332Z" fill="#355FA3"/>
<path d="M27.7004 45.0404C27.6583 45.1373 27.5908 45.2846 27.5193 45.3605C27.397 45.4785 26.374 46.1436 24.8327 46.9018C23.2914 47.6639 20.6008 48.005 19.9229 47.9419C19.2406 47.8832 18.5206 47.0996 18.3567 47.1416C18.34 47.146 18.3229 47.1416 18.2979 47.125H18.2935C18.2681 47.1123 18.2431 47.0956 18.2137 47.0702C18.2093 47.0702 18.2054 47.0658 18.201 47.0619C18.1002 46.9733 17.9861 46.8387 17.8853 46.7124C17.8809 46.708 17.877 46.708 17.877 46.7041C17.8515 46.6703 17.8266 46.6326 17.8011 46.5988C17.7169 46.4892 17.6577 46.4011 17.6411 46.3756L17.6328 46.3673L17.6411 46.1608C17.6455 46.0511 17.6494 45.9038 17.6538 45.7437L17.6704 45.3184C17.6704 45.2004 17.6788 45.0786 17.6832 44.9606L17.8388 42.7918L17.8809 42.1937C17.8853 42.1389 17.8892 42.0802 17.8936 42.0209C17.8936 42.0209 18.8202 42.0209 19.7085 41.9916C20.5127 41.9622 21.2831 41.9118 21.3169 41.8105C21.3845 41.5956 21.9361 40.0337 22.6688 39.8526C23.4015 39.6676 24.6859 39.2085 25.2375 39.2085H25.2419C25.3554 39.2085 25.4567 39.276 25.5493 39.3769C25.562 39.3896 25.5703 39.3979 25.5747 39.4106C25.7264 39.5834 25.84 39.8404 25.9286 40.0841C26.051 40.4209 26.1141 40.7327 26.1141 40.7327L26.3877 40.6612L26.6319 40.6025C26.6319 40.6025 26.6319 40.6025 26.6363 40.6069C26.7249 40.9099 26.813 41.2089 26.9016 41.4913C26.9271 41.5711 26.952 41.6597 26.9731 41.7439C27.0196 41.9206 27.0656 42.1061 27.1077 42.2911C27.3813 43.5206 27.5497 44.9356 27.5497 44.9356C27.5497 44.9356 27.7254 44.9817 27.7004 45.0404Z" fill="#355FA3"/>
<path d="M23.8846 28.8478C23.8846 28.8478 23.5694 29.2159 23.0657 29.419C22.5621 29.6212 20.6512 30.095 20.6512 30.095L20.2401 30.5928C20.2401 30.5928 20.2592 30.4195 20.2822 30.2115C20.3145 29.9168 20.3532 29.5487 20.3532 29.5008C20.3532 29.419 20.2259 28.4945 20.128 28.3138C20.0296 28.1337 19.5642 27.9301 19.5642 27.9301C19.5642 27.9301 18.737 27.6824 18.4291 27.5248C18.2754 27.4465 18.2353 27.2904 18.2343 27.1411C18.2343 26.9908 18.2715 26.8479 18.2715 26.7951C18.2715 26.6903 18.3244 26.2322 18.3244 26.0589C18.3244 25.8856 18.5647 25.3746 18.5647 25.3746C18.5647 25.3746 18.2279 25.104 18.2338 24.9694C18.2412 24.8333 18.4516 24.6459 18.4516 24.6459L18.9925 24.315C18.9925 24.315 19.0527 23.781 19.0742 23.7208C19.0972 23.6606 19.7413 22.481 20.4031 22.0698C21.0643 21.6597 22.8474 21.4888 23.6497 22.6014C24.4504 23.7134 23.6198 27.5616 23.6198 27.5616C23.6198 27.5616 23.539 28.3682 23.6898 28.5331C23.8401 28.7 23.9644 28.7646 23.8846 28.8478Z" fill="#FCC7AA"/>
<path d="M21.3052 25.5884C21.3052 25.5884 20.9146 25.3579 20.6738 25.4984C20.4334 25.6388 20.383 25.8792 20.383 25.8792L20.2626 26.3001L19.8921 25.8767C19.8921 25.8767 20.0424 25.3383 19.8921 24.9071C19.7418 24.4764 19.8319 24.0251 19.8921 23.915C19.9523 23.8048 20.2528 22.8029 20.2528 22.8029C20.2528 22.8029 20.0125 22.382 19.9122 22.3218C19.8118 22.2616 19.6116 22.0413 19.6116 22.0413L20.4584 21.4403C20.4584 21.4403 21.7359 21.0898 22.5675 21.2298C23.3991 21.3703 23.8699 21.5905 24.6017 22.3619C25.3329 23.1333 25.353 23.7848 25.3128 24.446C25.2727 25.1073 24.6516 25.8987 24.401 26.35C24.1504 26.8008 23.7294 27.6324 23.6996 27.7029C23.6697 27.7729 23.4691 27.813 23.3888 27.8732C23.3085 27.9334 22.8396 28.0235 22.4681 27.7929C22.0961 27.5624 21.9361 27.1919 21.9057 26.9413C21.8764 26.6902 21.8064 25.8689 21.3052 25.5884Z" fill="#4A2727"/>
<path d="M21.3052 25.9688C21.3052 25.9688 21.4554 26.2595 21.2249 26.7602C20.9943 27.2614 20.6439 27.3813 20.5935 27.3211C20.5436 27.2609 20.4834 26.8341 20.5132 26.652C20.5431 26.47 20.6233 25.8684 20.6933 25.7279C20.7633 25.5875 21.1148 25.6584 21.3052 25.9688Z" fill="#FFD6BF"/>
<path d="M18.8202 24.5688L18.3767 24.8341C18.3767 24.8341 18.5422 25.2022 18.6322 25.2928C18.7223 25.3828 18.8349 25.3755 18.8202 25.3378C18.805 25.3001 18.7903 24.7216 18.7903 24.7216L18.8202 24.5688Z" fill="#FFD6BF"/>
<path d="M20.5842 29.2152L20.4736 30.2675L20.2822 30.2112C20.3145 29.9166 20.3532 29.5485 20.3532 29.5005C20.3532 29.4188 20.2259 28.4942 20.128 28.3136C20.0296 28.1335 19.5642 27.9299 19.5642 27.9299C19.5642 27.9299 18.737 27.6822 18.4291 27.5246C18.2754 27.4463 18.2353 27.2902 18.2343 27.1409C18.2343 27.1409 18.3087 27.3117 18.9005 27.4918C19.4908 27.6724 20.0923 27.8525 20.0923 27.8525H20.4036V28.2529L20.5842 29.2152Z" fill="#FAD3BE"/>
<path d="M21.2831 38.4842C21.2034 38.5855 20.9254 39.8654 20.9254 39.8654L21.2831 40.7078L20.5842 40.8512C20.5842 40.8512 20.243 40.9902 20.1633 41.1292C20.1256 41.2007 19.919 41.5922 19.7086 41.9926C18.8202 42.022 17.8936 42.022 17.8936 42.022C17.9357 41.462 17.9778 40.8683 18.0199 40.3461C18.3146 39.651 18.5211 39.167 18.5211 39.167L21.2836 34.918C21.2836 34.918 21.3629 38.3833 21.2831 38.4842Z" fill="#F09F69"/>
<path d="M19.7081 41.9922C19.5015 42.3921 19.2911 42.8008 19.2406 42.9143C19.1398 43.1331 18.3772 44.2574 18.3396 44.3377C18.2975 44.4175 18.0576 45.8408 18.0576 45.8408C18.0576 45.8408 18.3185 46.944 18.3396 47.041C18.3396 47.0537 18.3268 47.083 18.2975 47.1251H18.2931V47.1295C18.2676 47.1168 18.2426 47.1002 18.2133 47.0708C18.2089 47.0708 18.205 47.0664 18.2005 47.0625C18.0997 46.9783 17.9818 46.8437 17.8848 46.713C17.8804 46.7086 17.8765 46.7086 17.8765 46.7047C17.8511 46.6709 17.8261 46.6332 17.8007 46.5995C17.7165 46.4898 17.6572 46.4017 17.6406 46.3763C17.6362 46.3719 17.6362 46.3679 17.6362 46.3679C17.6362 46.3679 17.6406 46.2877 17.6406 46.1614C17.645 46.0517 17.6489 45.9044 17.6533 45.7444L17.67 45.319C17.67 45.2011 17.6783 45.0792 17.6827 44.9612C17.6954 44.6788 17.7082 44.4263 17.7165 44.2961C17.7331 44.115 17.8007 43.2183 17.8809 42.1948C17.8853 42.14 17.8893 42.0813 17.8937 42.022C17.8937 42.022 18.8197 42.0216 19.7081 41.9922Z" fill="#6C91C4"/>
<path d="M20.0761 30.8181C20.0761 30.8181 19.9826 29.8162 19.9929 29.7765C20.0027 29.7364 20.6444 29.5259 20.7844 29.546C20.9248 29.5661 22.4887 29.4897 22.7182 29.476C22.9478 29.4623 23.6599 28.9748 23.6599 28.9748L23.8533 28.6992L23.6506 28.4619L23.6276 28.3821C23.6276 28.3821 24.1611 28.4535 24.2013 28.524C24.2414 28.594 24.3016 28.8549 24.3016 28.8549C24.3016 28.8549 24.239 29.3306 23.6134 29.6909C22.7681 30.1774 21.2087 30.3277 21.1167 30.4182C21.0247 30.5078 20.0761 30.8181 20.0761 30.8181Z" fill="#FF882A"/>
<path d="M20.4941 38.4042C20.4041 39.2553 19.4746 41.4726 19.3243 41.7961C19.1741 42.1182 18.6773 42.7579 18.3395 43.1632C18.0018 43.5685 16.37 44.4705 15.7689 44.7422C15.1679 45.0114 15.2207 45.1475 14.7626 45.2904C14.3044 45.4323 13.9809 45.4034 13.838 45.3721C13.696 45.3432 13.3955 45.0427 13.3955 45.0427C13.3955 45.0427 13.2751 44.7867 13.2751 44.7109C13.2751 44.6678 13.21 44.54 13.1537 44.4177C13.1513 44.4128 13.1503 44.4103 13.1503 44.4103C13.1107 44.3227 13.0744 44.2395 13.072 44.1925C13.0637 44.0804 13.0265 43.7716 13.0035 43.6742C12.9819 43.5768 13.0118 43.4192 13.072 43.3433C13.1322 43.2674 13.4846 43.0198 13.5375 43.0056C13.5903 42.9899 14.0641 42.7051 14.0641 42.7051C14.0641 42.7051 14.3867 42.5847 14.4851 42.5778C14.5825 42.5695 14.6725 42.6825 14.7474 42.7354C14.8233 42.7873 15.0636 43.1333 15.0636 43.1333C15.0636 43.1333 15.1032 43.1333 15.1634 43.0731C15.2236 43.0129 15.6446 42.5523 15.8149 42.3311C15.9857 42.1113 16.5966 40.9293 16.6661 40.7981C16.7371 40.6684 17.2779 39.4453 17.3577 39.1859C17.4384 38.925 17.7292 37.2319 17.7292 37.2319C17.7292 37.2319 18.0503 37.2682 18.4737 37.3484C19.2167 37.4879 20.2788 37.7645 20.4672 38.2201C20.4902 38.2779 20.501 38.3396 20.4941 38.4042Z" fill="#FCC7AA"/>
<path d="M20.1632 38.4742C20.1632 38.4742 19.6111 38.6749 19.5211 38.6944C19.431 38.715 17.9685 38.2735 17.9685 38.2735L17.4717 39.4364C17.4717 39.4364 16.6455 41.3003 16.6455 41.316C16.6455 41.3302 16.0033 42.5533 15.9544 42.6434C15.904 42.7334 15.5129 43.1113 15.5129 43.1113C15.5129 43.1113 15.2217 43.7148 15.1918 43.8651C15.162 44.0153 15.0822 44.2366 15.0822 44.2664C15.0822 44.2963 14.951 44.7064 14.951 44.7064L14.7816 44.3961L14.7914 43.6845L14.9936 43.2033L15.0621 43.1338C15.0621 43.1338 15.1018 43.1338 15.162 43.0736C15.2222 43.0134 15.6431 42.5528 15.8134 42.3316C15.9842 42.1118 16.5951 40.9298 16.6646 40.7986C16.7356 40.6689 17.2764 39.4457 17.3562 39.1863C17.437 38.9254 17.7277 37.2324 17.7277 37.2324C17.7277 37.2324 18.0488 37.2686 18.4722 37.3489C19.2744 37.8442 20.1632 38.4742 20.1632 38.4742Z" fill="#FAD3BE"/>
<path d="M20.4941 38.4045C20.4041 39.2557 19.4746 41.4729 19.3243 41.7964C19.1741 42.1185 18.6773 42.7582 18.3395 43.1635C18.0018 43.5688 16.3699 44.4709 15.7689 44.7425C15.1678 45.0117 15.2207 45.1478 14.7626 45.2907C14.3044 45.4326 13.9809 45.4038 13.838 45.3724C13.696 45.3435 13.3955 45.043 13.3955 45.043C13.3955 45.043 13.2751 44.787 13.2751 44.7112C13.2751 44.6681 13.21 44.5404 13.1537 44.418C13.1909 44.4831 13.4929 45.0097 13.5203 45.0371C13.5502 45.067 14.0362 45.2559 14.0362 45.2559L14.652 45.1776L14.8428 44.8326C14.8428 44.8326 14.9823 44.9373 15.0832 44.9373C15.183 44.9373 16.0449 44.3568 16.0753 44.3568C16.1052 44.3568 17.1575 43.5849 17.1575 43.5849L17.5975 43.2937C17.5975 43.2937 17.0865 43.094 17.1575 43.0039C17.2275 42.9139 17.7478 42.6829 17.7478 42.6829L18.4394 42.4327C18.4394 42.4327 18.9611 41.9712 19.0311 41.911C19.1011 41.8508 19.732 40.4886 19.8823 39.9473C20.0326 39.4064 20.479 38.4481 20.4667 38.2205C20.4902 38.2782 20.501 38.3399 20.4941 38.4045Z" fill="#FAD3BE"/>
<path d="M19.3708 34.5156C19.2387 34.9654 18.9318 35.4436 18.6131 35.7143C18.4208 35.8778 18.2245 35.9654 18.061 35.9258C17.6244 35.821 13.8443 34.9336 13.6349 34.8592C13.4234 34.7834 13.1155 34.8592 12.9878 34.8592C12.8605 34.8592 12.4323 34.8064 12.2962 34.7834C12.1601 34.7618 11.3413 34.6331 11.3413 34.6331L11.1983 34.2073L11.1695 34.1221C11.1695 34.1221 11.1695 34.1221 11.1009 34.0619C11.0334 34.0017 11.0637 33.7242 11.0637 33.7242L10.8905 33.4236L10.936 32.9729L10.7931 32.5974C10.7931 32.5974 10.8533 32.3185 10.8978 32.2739C10.9433 32.2284 11.3789 32.0776 11.3789 32.0776C11.3789 32.0776 11.9957 32.1765 12.1317 32.198C12.2663 32.221 12.7401 32.3943 12.7773 32.4384C12.8145 32.4839 13.4689 33.1623 13.6094 33.1623C13.7489 33.1623 15.3421 33.5132 16.1443 33.5132C16.9465 33.5132 18.5696 33.2523 18.5696 33.2523C18.5696 33.2523 19.5813 33.7942 19.3708 34.5156Z" fill="#FCC7AA"/>
<path d="M12.0187 32.3041C12.0187 32.3041 11.8611 32.3868 11.703 32.3868C11.5454 32.3868 11.4176 32.3041 11.4176 32.3041L8.37024 17.7148H8.95123L12.0187 32.3041Z" fill="#A5A4A9"/>
<path d="M18.6132 35.7148C18.4208 35.8782 18.2245 35.9659 18.061 35.9262C17.6244 35.8215 13.8444 34.9341 13.6349 34.8597C13.4234 34.7838 13.1156 34.8597 12.9878 34.8597C12.8605 34.8597 12.4323 34.8068 12.2962 34.7838C12.1601 34.7623 11.3413 34.6335 11.3413 34.6335L11.1983 34.2077L11.4245 33.3634L11.054 32.9332L11.2537 32.8299C11.2537 32.8299 11.8454 32.7276 12.1254 32.8299C12.4068 32.9332 12.6868 33.1534 12.7264 33.2641C12.7671 33.3737 12.5111 33.5744 12.5111 33.5744C12.5111 33.5744 12.6564 33.9145 12.701 33.9557C12.7465 33.9953 12.8968 34.0506 12.8968 34.0506L12.5111 34.2307C12.5111 34.2307 12.516 34.4857 12.5111 34.5107C12.5062 34.5362 12.5664 34.6668 12.6011 34.6791C12.6359 34.6913 13.093 34.6791 13.093 34.6791L13.2878 34.5009L13.7592 34.7858L14.0548 34.5562C14.0548 34.5562 14.3602 34.8758 14.4997 34.9218C14.6402 34.9664 17.9974 35.7285 18.4281 35.6878C18.4932 35.682 18.5569 35.6918 18.6132 35.7148Z" fill="#FAD3BE"/>
<path d="M12.1567 33.053L14.163 42.8931C14.163 42.8931 13.9001 43.0233 13.79 43.0835C13.6799 43.1437 13.5996 43.0835 13.5996 43.0835L11.5532 32.8303L12.1567 33.053Z" fill="#4A2727"/>
<path d="M12.5375 33.9122C12.5375 34.013 12.5375 34.013 12.5375 34.013C12.5375 34.013 12.5351 34.0179 12.5316 34.0252C12.516 34.0551 12.4763 34.1324 12.445 34.1902C12.422 34.2308 12.4029 34.2636 12.4019 34.2577C12.4029 34.2612 12.4044 34.27 12.4053 34.2817C12.4127 34.3321 12.4284 34.4452 12.4284 34.5029C12.4284 34.522 12.4161 34.5401 12.397 34.5558C12.3368 34.6077 12.2105 34.6424 12.2105 34.6424C12.2105 34.6424 11.6369 34.6797 11.6335 34.6797C11.631 34.6797 11.4254 34.6606 11.3422 34.6341C11.2595 34.6077 11.1509 34.1422 11.1509 34.1422C11.1509 34.1422 11.027 34.0101 11.027 33.921C11.027 33.8295 11.051 33.7022 11.051 33.7022L10.891 33.4242L10.9365 32.9734L11.2708 33.0708C11.2708 33.0708 11.4548 33.2401 11.5977 33.2886C11.7397 33.338 12.1787 33.3116 12.1787 33.3116C12.1787 33.3116 12.1944 33.3248 12.2159 33.3454C12.2727 33.3982 12.3735 33.5005 12.3677 33.5524C12.3652 33.5789 12.3544 33.6068 12.3412 33.6307C12.3182 33.6753 12.2893 33.7091 12.2893 33.7091C12.2893 33.7091 12.3481 33.7345 12.4098 33.7717C12.4107 33.7717 12.4107 33.7717 12.4107 33.7717C12.4739 33.8099 12.5375 33.8618 12.5375 33.9122Z" fill="#FFD6BF"/>
<path d="M12.4014 34.2572C12.4024 34.2607 12.4039 34.2695 12.4049 34.2812C12.211 34.3184 11.9673 34.363 11.9012 34.3605C11.7857 34.3556 11.3251 34.2308 11.3251 34.2308L11.2649 34.1853C11.2649 34.1853 11.4152 34.4667 11.4299 34.4858C11.4455 34.5064 11.6858 34.6106 11.6858 34.6106C11.6858 34.6106 12.2257 34.6033 12.3965 34.5553C12.3363 34.6072 12.2101 34.642 12.2101 34.642C12.2101 34.642 11.6364 34.6791 11.633 34.6791C11.6305 34.6791 11.425 34.6601 11.3418 34.6336C11.259 34.6072 11.1504 34.1417 11.1504 34.1417C11.1504 34.1417 11.0265 34.0096 11.0265 33.9205C11.0265 33.829 11.0505 33.7017 11.0505 33.7017L10.8905 33.4237L10.936 32.9729L11.2703 33.0703C11.2703 33.0703 11.4543 33.2396 11.5973 33.2881C11.7392 33.3375 12.1782 33.3111 12.1782 33.3111C12.1782 33.3111 12.1939 33.3243 12.2154 33.3449C12.2154 33.3449 11.8151 33.3747 11.7392 33.3845C11.6648 33.3929 11.2786 33.2534 11.2786 33.2534L11.0295 33.1344C11.0378 33.1599 11.1944 33.5661 11.2184 33.6092C11.2439 33.6547 11.5997 33.7497 11.6247 33.7497C11.6496 33.7497 12.2164 33.7017 12.28 33.663C12.2933 33.6547 12.3148 33.6425 12.3402 33.6293C12.3172 33.6738 12.2884 33.7076 12.2884 33.7076C12.2884 33.7076 12.3471 33.733 12.4088 33.7702C12.3833 33.7785 11.9878 33.9073 11.9144 33.9038C11.84 33.9004 11.5669 33.8652 11.5669 33.8652L11.2385 33.7893C11.2385 33.7893 11.2732 34.0154 11.3178 34.06C11.3633 34.1055 11.6638 34.2259 11.8997 34.2357C12.0476 34.2416 12.2737 34.2127 12.4435 34.1902C12.422 34.2308 12.4029 34.2636 12.4014 34.2572Z" fill="#FAD3BE"/>
<path d="M12.9658 34.0075C12.9658 34.0075 12.6501 33.8152 12.4773 33.5969C12.3045 33.3791 12.117 33.0389 12.117 33.0389L11.6672 32.873C11.6672 32.873 11.1694 32.87 11.0642 32.873C10.959 32.8759 10.7377 32.5157 10.8258 32.4667C10.9139 32.4173 11.467 32.3316 11.4861 32.3395C11.5057 32.3478 11.7387 32.268 11.9389 32.339C12.1391 32.41 12.6726 32.6053 12.6726 32.6053C12.6726 32.6053 13.1234 32.966 13.1836 33.0184C13.2438 33.0712 13.537 33.4917 13.5516 33.6272C13.5668 33.7623 13.349 34.057 12.9658 34.0075Z" fill="#FFD6BF"/>
<path d="M18.7086 32.2807C18.7086 32.2807 18.2387 32.6424 18.1085 33.3536C17.9783 34.0648 17.6176 35.3173 17.5975 35.6281C17.5774 35.9389 17.4673 37.5722 17.457 37.6422C17.4468 37.7122 17.7174 38.2134 19.0302 38.4738C20.3429 38.7342 20.6835 38.5238 20.6835 38.5238C20.6835 38.5238 21.2547 36.4896 21.2547 35.8283C21.2547 35.167 21.4148 33.7339 20.9743 33.1226C20.5338 32.5122 19.8999 31.8089 18.7086 32.2807Z" fill="#FF882A"/>
<path d="M12.1905 14.1316C12.1709 14.3509 12.0911 14.509 11.9731 14.5961C11.8111 14.7155 4.6802 18.7614 4.6802 18.7614L3.69296 16.6611C3.69296 16.6611 10.7368 12.6544 10.8591 12.5688C11.0206 12.4557 11.2507 12.4723 11.4954 12.6441C11.9257 12.9456 12.2365 13.6118 12.1905 14.1316Z" fill="#388BC9"/>
<path d="M4.9734 18.2535C4.92739 18.7733 4.5417 18.95 4.11195 18.6485C3.68221 18.3465 3.37091 17.6808 3.41741 17.161C3.46342 16.6412 3.84911 16.4645 4.27935 16.766C4.7086 17.0675 5.01941 17.7337 4.9734 18.2535Z" fill="#63474B"/>
<path d="M8.35455 17.3769C8.29484 17.4327 8.43091 17.884 8.63257 17.91C8.83422 17.9364 8.9512 17.7147 8.9512 17.7147C8.9512 17.7147 8.73193 17.0255 8.35455 17.3769Z" fill="#A5A4A9"/>
<path d="M3.56277 20.0311L3.04492 18.2348L4.08404 17.528L4.32094 17.876L3.53389 18.412L3.83148 19.4442L8.39177 17.3552L8.56748 17.7375L3.56277 20.0311Z" fill="#A5A4A9"/>
<path d="M4.19516 16.3754C4.19516 16.3754 4.77615 16.4297 4.97781 17.0479C5.17946 17.6666 5.17946 18.1404 5.17946 18.1404L5.39727 18.3543L5.70563 17.715L6.10062 17.9123L6.52156 17.7023L11.8743 14.6569C11.8743 14.6569 11.746 13.9296 11.6408 13.6139C11.5356 13.2982 11.3119 12.864 11.3119 12.864L10.7079 12.6594L4.19516 16.3754Z" fill="#5C5C5C"/>
</svg>
