<svg width="40" height="40" viewBox="0 0 40 40" fill="none" xmlns="http://www.w3.org/2000/svg">
<path d="M36.006 13.2331H17.2361C16.6106 13.233 16.0131 12.9742 15.5853 12.5179L13.1662 9.9388C12.7377 9.48213 12.1392 9.22338 11.5129 9.22412H3.63312C2.38305 9.22412 1.36963 10.2375 1.36963 11.4876V36.7315C1.36963 37.983 2.38412 38.9975 3.6356 38.9975H36.0016C37.2531 38.9975 38.2676 37.983 38.2676 36.7315V15.4967C38.2676 14.2473 37.2554 13.2342 36.006 13.2331Z" fill="#EAB54E"/>
<path d="M6.78711 1.00244H34.2955V25.6326H6.78711V1.00244Z" fill="#DBD8DD"/>
<path d="M5.34326 3.28955H32.014V27.0826H5.34326V3.28955Z" fill="#EEEFEE"/>
<path d="M8.35889 6.31494H28.9992V7.39789H8.35889V6.31494Z" fill="#DBD8DD"/>
<path d="M8.35889 9.75488H28.9992V10.8378H8.35889V9.75488Z" fill="#DBD8DD"/>
<path d="M8.35889 13.1953H28.9992V14.2783H8.35889V13.1953Z" fill="#DBD8DD"/>
<path d="M37.7377 16.8647H17.2335C16.6096 16.8647 16.0134 17.1223 15.5856 17.5764L13.1655 20.1458C12.7378 20.6 12.1416 20.8575 11.5176 20.8575H2.26357C1.0135 20.8576 8.27753e-05 21.8709 0 23.121C0 23.1898 0.00314546 23.2585 0.00935361 23.3269L1.18013 36.9372C1.28658 38.1041 2.26506 38.9973 3.43683 38.9973H36.199C37.3709 38.9973 38.3495 38.1038 38.4557 36.9368L39.9904 19.3346C40.1044 18.0897 39.1876 16.9882 37.9427 16.8742C37.8745 16.868 37.8061 16.8648 37.7377 16.8647Z" fill="#F6C863"/>
</svg>
