<svg width="37" height="37" viewBox="0 0 37 37" fill="none" xmlns="http://www.w3.org/2000/svg">
<path d="M18.5 3.46875C10.2119 3.46875 3.46875 10.2119 3.46875 18.5C3.46875 26.7881 10.2119 33.5312 18.5 33.5312C26.7881 33.5312 33.5312 26.7881 33.5312 18.5C33.5312 10.2119 26.7881 3.46875 18.5 3.46875ZM26.3228 13.4624L16.6103 25.0249C16.5037 25.1518 16.3711 25.2543 16.2215 25.3255C16.0719 25.3967 15.9087 25.4349 15.7431 25.4375H15.7236C15.5615 25.4374 15.4012 25.4033 15.2532 25.3373C15.1052 25.2713 14.9727 25.175 14.8643 25.0545L10.7018 20.4295C10.5961 20.3174 10.5139 20.1852 10.4599 20.0409C10.406 19.8965 10.3815 19.7429 10.3878 19.5889C10.3941 19.4349 10.4312 19.2838 10.4968 19.1443C10.5623 19.0049 10.6551 18.8799 10.7697 18.7768C10.8842 18.6737 11.0182 18.5946 11.1638 18.5441C11.3093 18.4935 11.4635 18.4725 11.6173 18.4824C11.7711 18.4923 11.9214 18.5329 12.0593 18.6017C12.1971 18.6704 12.3199 18.7661 12.4203 18.883L15.6932 22.5194L24.5522 11.9751C24.751 11.7454 25.0321 11.6031 25.3349 11.5789C25.6377 11.5548 25.9379 11.6508 26.1705 11.8462C26.403 12.0416 26.5494 12.3206 26.5779 12.6231C26.6064 12.9255 26.5148 13.227 26.3228 13.4624Z" fill="#0D34FF"/>
</svg>
