<svg width="122" height="124" viewBox="0 0 122 124" fill="none" xmlns="http://www.w3.org/2000/svg">
<path d="M120.876 79.1629V88.1835L59.0205 124.008L0 89.9876L0.257731 80.967L61.8556 45.1423L120.876 79.1629Z" fill="#BF7D5A"/>
<path d="M120.876 79.1631V88.1837L59.0205 124.008V114.988L120.876 79.1631Z" fill="#BF7D5A"/>
<path d="M59.0205 114.987V124.008L0 89.9875L0.257731 80.9669L59.0205 114.987Z" fill="#AA6256"/>
<path d="M120.876 79.1631L59.0205 114.988L0.25769 80.9672L61.8555 45.1425L120.876 79.1631Z" fill="#DBA660"/>
<path d="M24.2268 21.4307V80.9667L12.1134 87.9254L0 80.9667L0.257731 21.4307L12.3711 14.4719L24.2268 21.4307Z" fill="#C9CEE2"/>
<path d="M24.2268 21.4309V80.9669L12.1134 87.9257L12.3711 28.3897L24.2268 21.4309Z" fill="#C9CEE2"/>
<path d="M12.3711 28.3897L12.1134 87.9257L0 80.9669L0.257731 21.4309L12.3711 28.3897Z" fill="#B0B8CF"/>
<path d="M24.2267 21.4307L12.3711 28.3894L0.25769 21.4307L12.3711 14.4719L24.2267 21.4307Z" fill="#E3E7F0"/>
<path d="M14.1753 1.06973V17.5646C14.1753 18.08 14.1753 18.08 13.6598 18.3377C13.1444 18.5955 12.1134 18.5955 11.598 18.3377C11.3403 18.08 11.0825 18.08 11.0825 17.8223V1.32746L14.1753 1.06973Z" fill="#111D33"/>
<path d="M13.9176 0.554444C14.4331 0.812175 14.4331 1.58537 13.9176 1.8431C13.1444 2.10083 12.3712 2.10083 11.598 1.8431C11.0826 1.58537 11.0826 0.812175 11.598 0.554444C12.3712 0.296712 13.1444 0.296712 13.9176 0.554444Z" fill="#4C5C75"/>
<path d="M20.8764 4.93585V21.4307C20.8764 21.6884 20.6186 21.9461 20.3609 21.9461C19.8454 22.2039 18.8145 22.2039 18.299 21.9461C18.0413 21.6884 17.7836 21.4307 17.7836 21.4307V4.93585H20.8764Z" fill="#1D2943"/>
<path d="M20.3609 4.42053C20.8764 4.67826 20.8764 5.45146 20.3609 5.70919C19.8455 5.96692 18.8145 5.96692 18.2991 5.70919C17.7836 5.45146 17.7836 4.67826 18.2991 4.42053C18.8145 3.90507 19.8455 3.90507 20.3609 4.42053Z" fill="#4C5C75"/>
<path d="M6.95875 5.4516V21.9464C6.95875 22.2042 6.70101 22.4619 6.44328 22.4619C5.92782 22.7196 4.89689 22.7196 4.38143 22.4619C3.86597 22.4619 3.86597 22.2042 3.86597 21.9464V5.4516H6.95875Z" fill="#1D2943"/>
<path d="M6.44332 4.93591C6.95879 5.19365 6.95879 5.96684 6.44332 6.22457C5.92786 6.4823 4.89693 6.4823 4.38147 6.22457C3.86601 5.96684 3.86601 5.19365 4.38147 4.93591C4.89693 4.42045 5.92786 4.42045 6.44332 4.93591Z" fill="#4C5C75"/>
<path d="M13.4021 9.31757V25.8124C13.4021 26.0701 13.1444 26.3279 12.8866 26.3279C12.3712 26.5856 11.3403 26.5856 10.8248 26.3279C10.5671 26.0701 10.3093 25.8124 10.3093 25.8124V9.31757H13.4021Z" fill="#1D2943"/>
<path d="M13.1444 8.54419C13.6599 8.80192 13.6599 9.57512 13.1444 9.83285C12.3712 10.3483 11.598 10.3483 10.8248 9.83285C10.3094 9.57512 10.3094 8.80192 10.8248 8.54419C11.598 8.28646 12.3712 8.28646 13.1444 8.54419Z" fill="#4C5C75"/>
<path d="M62.1133 20.9154L50.2576 27.8742L49.9999 52.1009L62.1133 59.0597L73.9689 52.1009L74.2266 27.8742L62.1133 20.9154Z" fill="#E3E7F0"/>
<path d="M74.2267 27.8745L73.9689 52.1012L62.1133 59.06L62.371 34.8332L74.2267 27.8745Z" fill="#C9CEE2"/>
<path d="M62.371 34.8332L62.1133 59.06L49.9999 52.1012L50.2576 27.8745L62.371 34.8332Z" fill="#B0B8CF"/>
<path d="M74.2266 27.8742L62.371 34.8329L50.2576 27.8742L62.1132 20.9154L74.2266 27.8742Z" fill="#E3E7F0"/>
<path d="M64.1752 7.51343V24.0082C64.1752 24.266 63.9174 24.5237 63.6597 24.5237C63.1443 24.7814 62.1133 24.7814 61.5979 24.5237C61.3401 24.266 61.0824 24.0082 61.0824 24.0082V7.51343H64.1752Z" fill="#111D33"/>
<path d="M63.6598 6.74036C64.1752 6.99809 64.1752 7.77128 63.6598 8.02901C63.1443 8.28675 62.1134 8.28675 61.5979 8.02901C61.0824 7.77128 61.0824 6.99809 61.5979 6.74036C62.1134 6.48263 63.1443 6.48263 63.6598 6.74036Z" fill="#4C5C75"/>
<path d="M70.8762 11.1219V27.6168C70.8762 27.8745 70.6185 28.1322 70.3608 28.1322C69.8453 28.39 68.8144 28.39 68.2989 28.1322C68.0412 27.8745 67.7834 27.6168 67.7834 27.6168V11.1219H70.8762Z" fill="#1D2943"/>
<path d="M70.3608 10.6063C70.8763 10.8641 70.8763 11.6372 70.3608 11.895C69.8453 12.1527 68.8144 12.1527 68.299 11.895C67.7835 11.6372 67.7835 10.8641 68.299 10.6063C68.8144 10.3486 69.8453 10.3486 70.3608 10.6063Z" fill="#4C5C75"/>
<path d="M56.9586 11.6375V28.1323C56.9586 28.3901 56.7009 28.6478 56.4432 28.6478C55.9277 28.9055 54.8968 28.9055 54.3813 28.6478C54.1236 28.3901 53.8658 28.1323 53.8658 28.1323V11.6375H56.9586Z" fill="#1D2943"/>
<path d="M56.4432 11.1218C56.9587 11.3796 56.9587 12.1528 56.4432 12.4105C55.9277 12.6682 54.8968 12.6682 54.3813 12.4105C53.8659 12.1528 53.8659 11.3796 54.3813 11.1218C54.8968 10.6064 55.67 10.6064 56.4432 11.1218Z" fill="#4C5C75"/>
<path d="M63.4019 15.5036V31.9984C63.4019 32.2562 63.1441 32.5139 62.8864 32.5139C62.3709 32.7716 61.34 32.7716 60.8245 32.5139C60.5668 32.2562 60.3091 31.9984 60.3091 31.9984V15.5036H63.4019Z" fill="#1D2943"/>
<path d="M62.8864 14.9879C63.4019 15.2456 63.4019 16.0188 62.8864 16.2766C62.371 16.5343 61.34 16.5343 60.8246 16.2766C60.3091 16.0188 60.3091 15.2456 60.8246 14.9879C61.34 14.4725 62.371 14.4725 62.8864 14.9879Z" fill="#4C5C75"/>
<path d="M109.02 47.9773L96.907 54.936V79.1628L108.763 86.1216L120.876 79.1628L121.134 54.936L109.02 47.9773Z" fill="#E3E7F0"/>
<path d="M121.134 54.9359L120.876 79.1627L108.763 86.1214L109.02 61.8947L121.134 54.9359Z" fill="#C9CEE2"/>
<path d="M109.02 61.8947L108.763 86.1214L96.907 79.1627V54.9359L109.02 61.8947Z" fill="#B0B8CF"/>
<path d="M121.134 54.936L109.02 61.8948L96.907 54.936L109.02 47.9773L121.134 54.936Z" fill="#E3E7F0"/>
<path d="M111.082 34.5751V51.0699C111.082 51.3276 110.825 51.5854 110.567 51.5854C110.051 51.8431 109.02 51.8431 108.505 51.5854C108.247 51.3276 107.99 51.0699 107.99 51.0699V34.5751H111.082Z" fill="#111D33"/>
<path d="M110.567 33.802C111.082 34.0597 111.082 34.8329 110.567 35.0907C110.051 35.3484 109.02 35.3484 108.505 35.0907C107.99 34.8329 107.99 34.0597 108.505 33.802C109.02 33.5443 109.794 33.5443 110.567 33.802Z" fill="#4C5C75"/>
<path d="M117.526 38.441V54.9358C117.526 55.1935 117.268 55.4513 117.01 55.4513C116.495 55.709 115.464 55.709 114.948 55.4513C114.691 55.1935 114.433 54.9358 114.433 54.9358V38.441H117.526Z" fill="#1D2943"/>
<path d="M117.01 37.6679C117.526 37.9256 117.526 38.6988 117.01 38.9566C116.495 39.2143 115.464 39.2143 114.948 38.9566C114.433 38.6988 114.433 37.9256 114.948 37.6679C115.464 37.4102 116.495 37.4102 117.01 37.6679Z" fill="#4C5C75"/>
<path d="M103.608 38.9565V55.4514C103.608 55.7091 103.35 55.9668 103.093 55.9668C102.577 56.2246 101.546 56.2246 101.031 55.9668C100.773 55.7091 100.515 55.4514 100.515 55.4514V38.9565H103.608Z" fill="#1D2943"/>
<path d="M103.093 38.1835C103.608 38.4412 103.608 39.2144 103.093 39.4721C102.577 39.7299 101.546 39.7299 101.031 39.4721C100.515 39.2144 100.515 38.4412 101.031 38.1835C101.546 37.9257 102.577 37.9257 103.093 38.1835Z" fill="#4C5C75"/>
<path d="M110.309 42.5648V59.0596C110.309 59.3173 110.051 59.575 109.794 59.575C109.278 59.8328 108.247 59.8328 107.732 59.575C107.216 59.575 106.958 59.3173 106.958 59.3173V42.8225L110.309 42.5648Z" fill="#1D2943"/>
<path d="M109.794 42.0494C110.309 42.3072 110.309 43.0804 109.794 43.3381C109.278 43.5958 108.247 43.5958 107.732 43.3381C107.216 43.0804 107.216 42.3072 107.732 42.0494C108.247 41.7917 109.02 41.7917 109.794 42.0494Z" fill="#4C5C75"/>
<path d="M73.1958 99.5233L64.1752 104.678L32.7319 86.6368V84.5749L41.7525 79.1625L73.1958 97.4615V99.5233Z" fill="#B0B8CF"/>
<path d="M32.7319 84.575V86.6369L64.1752 104.678V102.616L32.7319 84.575Z" fill="#B0B8CF"/>
<path d="M64.1753 102.616V104.678L73.1959 99.5233V97.4615L64.1753 102.616Z" fill="#C9CEE2"/>
<path d="M32.7319 84.5749L64.1752 102.616L73.1958 97.4615L41.7525 79.1625L32.7319 84.5749Z" fill="#E3E7F0"/>
<path d="M74.9999 94.3689L65.9793 99.5235L34.536 81.2246V79.1627L43.8143 74.0081L74.9999 92.3071V94.3689Z" fill="#C9CEE2"/>
<path d="M34.536 79.1631V81.225L65.9793 99.5239V97.4621L34.536 79.1631Z" fill="#B0B8CF"/>
<path d="M65.9792 97.4621V99.5239L74.9999 94.3693V92.3074L65.9792 97.4621Z" fill="#C9CEE2"/>
<path d="M34.536 79.1627L65.9793 97.4617L74.9999 92.3071L43.8143 74.0081L34.536 79.1627Z" fill="#E3E7F0"/>
<path d="M90.7215 85.8638L81.7009 91.0185L50.2577 72.7195V70.6577L59.2783 65.5031L90.7215 83.802V85.8638Z" fill="#C9CEE2"/>
<path d="M50.2577 70.6575V72.7194L81.7009 91.0183V88.9565L50.2577 70.6575Z" fill="#B0B8CF"/>
<path d="M81.7009 88.9565V91.0183L90.7215 85.8637V83.8018L81.7009 88.9565Z" fill="#C9CEE2"/>
<path d="M50.2577 70.6577L81.7009 88.9566L90.7215 83.802L59.2783 65.5031L50.2577 70.6577Z" fill="#E3E7F0"/>
</svg>
