<svg width="136" height="119" viewBox="0 0 136 119" fill="none" xmlns="http://www.w3.org/2000/svg">
<path d="M77.9887 118.625L0 73.2957V55.8397L77.9887 101.169V118.625Z" fill="#B0B8CF"/>
<path d="M77.9887 101.17L0 55.8406L57.1542 22.8995L135.143 68.2287L77.9887 101.17Z" fill="#E3E7F0"/>
<path d="M135.143 68.2285V85.6844L77.9887 118.625V101.17L135.143 68.2285Z" fill="#C9CEE2"/>
<path d="M130.638 79.4907C130.638 76.6752 128.667 75.549 126.415 76.9568C125.57 77.5199 124.444 78.3645 123.881 79.4907L129.793 82.8693C130.357 82.0246 130.638 80.6169 130.638 79.4907Z" fill="#9EA9C9"/>
<path d="M123.881 79.4896C122.755 80.8973 122.192 82.8681 122.192 84.2759C122.192 87.0914 124.162 88.2175 126.415 86.8098C127.823 85.9652 128.949 84.5574 129.793 82.8681L123.881 79.4896Z" fill="#B0B8CF"/>
<path d="M117.405 87.092C117.405 84.2765 115.435 83.1503 113.182 84.5581C112.337 85.1212 111.211 85.9658 110.648 87.092L116.561 90.4706C117.124 89.6259 117.405 88.2182 117.405 87.092Z" fill="#9EA9C9"/>
<path d="M110.648 87.092C109.522 88.4998 108.959 90.4706 108.959 91.8784C108.959 94.6938 110.93 95.82 113.182 94.4123C114.59 93.5676 115.716 92.1599 116.561 90.4706L110.648 87.092Z" fill="#B0B8CF"/>
<path d="M104.173 94.6941C104.173 91.8786 102.202 90.7524 99.9495 92.1601C99.1048 92.7232 97.9786 93.5679 97.4155 94.6941L103.328 98.0726C103.891 97.228 104.173 95.8202 104.173 94.6941Z" fill="#9EA9C9"/>
<path d="M97.4155 94.9754C96.2893 96.3831 95.7262 98.354 95.7262 99.7617C95.7262 102.577 97.697 103.703 99.9494 102.296C101.357 101.451 102.483 100.043 103.328 98.354L97.4155 94.9754Z" fill="#B0B8CF"/>
<path d="M90.9399 102.577C90.9399 99.7616 88.969 98.6354 86.7167 100.043C85.872 100.606 84.7458 101.451 84.1827 102.577L90.0952 105.956C90.6583 104.829 90.9399 103.703 90.9399 102.577Z" fill="#9EA9C9"/>
<path d="M84.1827 102.577C83.0565 103.985 82.4934 105.956 82.4934 107.363C82.4934 110.179 84.4642 111.305 86.7166 109.897C88.1244 109.053 89.2506 107.645 90.0952 105.956L84.1827 102.577Z" fill="#B0B8CF"/>
<path d="M78.5518 91.3147C79.1149 91.3147 79.3964 91.0331 79.3964 90.47C79.3964 88.4992 77.9887 86.2468 76.2994 85.4022C74.3286 84.276 72.6393 85.4022 72.6393 87.373C72.6393 87.6545 72.9208 88.2176 73.4839 88.2176C74.047 88.2176 74.3286 87.9361 74.3286 87.373C74.3286 86.2468 74.8917 85.9653 75.7363 86.5283C76.8625 87.0914 77.9887 89.0623 77.9887 90.1885C77.9887 91.0331 78.2702 91.3147 78.5518 91.3147Z" fill="#4C5C75"/>
<path d="M22.5238 58.6548C23.0869 58.6548 23.3685 58.3733 23.3685 57.8102C23.3685 55.8393 21.9607 53.587 20.2714 52.7423C18.3006 51.6161 16.6113 52.7423 16.6113 54.7131C16.6113 54.9947 16.8929 55.5578 17.456 55.5578C17.7375 55.5578 18.3006 55.2762 18.3006 54.7131C18.3006 53.587 18.8637 53.3054 19.7084 53.8685C20.8345 54.4316 21.9607 56.4024 21.9607 57.5286C21.9607 58.3733 22.2423 58.6548 22.5238 58.6548Z" fill="#4C5C75"/>
<path d="M117.687 68.7912C118.25 68.7912 118.531 68.5096 118.531 67.9465C118.531 65.9757 117.124 63.7233 115.434 62.8787C114.59 62.3156 113.464 62.3156 112.9 62.5971C112.056 62.8787 111.774 63.7233 111.774 64.8495C111.774 65.131 112.056 65.6941 112.619 65.6941C112.9 65.6941 113.464 65.4126 113.464 64.8495C113.464 64.2864 113.745 64.0048 113.745 63.7233C114.027 63.7233 114.308 63.7233 114.871 64.0048C115.998 64.5679 117.124 66.5388 117.124 67.665C116.842 68.5096 117.124 68.7912 117.687 68.7912Z" fill="#4C5C75"/>
<path d="M61.6589 36.4127C62.222 36.4127 62.5035 36.1312 62.5035 35.5681C62.5035 33.5973 61.0958 31.3449 59.4065 30.5002C57.4357 29.3741 55.7464 30.5002 55.7464 32.4711C55.7464 32.7526 56.0279 33.3157 56.591 33.3157C57.1541 33.3157 57.4357 33.0342 57.4357 32.4711C57.4357 31.3449 57.9988 31.0633 58.8434 31.6264C59.9696 32.1895 61.0958 34.1604 61.0958 35.2866C60.8143 35.8497 61.0958 36.4127 61.6589 36.4127Z" fill="#4C5C75"/>
<path d="M53.7756 44.8596V48.2382L16.3297 69.9174V66.5388L53.7756 44.8596Z" fill="#BF7D5A"/>
<path d="M16.3297 66.5395V69.9181L2.81543 62.0348V58.6562L16.3297 66.5395Z" fill="#AA6256"/>
<path d="M53.7756 44.8596L16.3298 66.5388L2.81549 58.6554L40.2613 36.9763L53.7756 44.8596Z" fill="#DBA660"/>
<path d="M94.8814 68.7909V72.1695L57.4355 93.8486V90.4701L94.8814 68.7909Z" fill="#BF7D5A"/>
<path d="M57.4355 90.4708V93.8494L43.6397 85.966L43.9213 82.5875L57.4355 90.4708Z" fill="#AA6256"/>
<path d="M94.8813 68.7917L57.4355 90.4708L43.9212 82.5875L81.367 60.6268L94.8813 68.7917Z" fill="#DBA660"/>
<path d="M77.9887 96.101L0 50.7718V33.3159L77.9887 78.645V96.101Z" fill="#B0B8CF"/>
<path d="M77.9887 78.6452L0 33.3161L57.1542 0.375L135.143 45.7042L77.9887 78.6452Z" fill="#E3E7F0"/>
<path d="M135.143 45.7046V63.1605L77.9887 96.1016V78.6457L135.143 45.7046Z" fill="#C9CEE2"/>
<path d="M130.638 56.9657C130.638 54.1502 128.667 53.024 126.415 54.4317C125.57 54.9948 124.444 55.8395 123.881 56.9657L129.793 60.3442C130.357 59.218 130.638 58.0919 130.638 56.9657Z" fill="#9EA9C9"/>
<path d="M123.881 56.9657C122.755 58.3734 122.192 60.3443 122.192 61.752C122.192 64.5675 124.162 65.6937 126.415 64.2859C127.823 63.4413 128.949 62.0336 129.793 60.3443L123.881 56.9657Z" fill="#B0B8CF"/>
<path d="M117.405 64.5672C117.405 61.7517 115.435 60.6256 113.182 62.0333C112.337 62.5964 111.211 63.441 110.648 64.5672L116.561 67.9458C117.124 66.8196 117.405 65.6934 117.405 64.5672Z" fill="#9EA9C9"/>
<path d="M110.648 64.5684C109.522 65.9762 108.959 67.947 108.959 69.3547C108.959 72.1702 110.93 73.2964 113.182 71.8887C114.59 71.044 115.716 69.6363 116.561 67.947L110.648 64.5684Z" fill="#B0B8CF"/>
<path d="M104.173 72.1699C104.173 69.3544 102.202 68.2282 99.9495 69.636C99.1048 70.1991 97.9786 71.0437 97.4155 72.1699L103.328 75.5485C103.891 74.4223 104.173 73.2961 104.173 72.1699Z" fill="#9EA9C9"/>
<path d="M97.4155 72.1699C96.2893 73.5777 95.7262 75.5485 95.7262 76.9562C95.7262 79.7717 97.697 80.8979 99.9494 79.4902C101.357 78.6455 102.483 77.2378 103.328 75.5485L97.4155 72.1699Z" fill="#B0B8CF"/>
<path d="M90.9399 79.7719C90.9399 76.9565 88.969 75.8303 86.7167 77.238C85.872 77.8011 84.7458 78.6457 84.1827 79.7719L90.0952 83.1505C90.6583 82.3059 90.9399 80.8981 90.9399 79.7719Z" fill="#9EA9C9"/>
<path d="M84.1827 79.7716C83.0565 81.1793 82.4934 83.1502 82.4934 84.5579C82.4934 87.3734 84.4642 88.4996 86.7166 87.0918C88.1244 86.2472 89.2506 84.8395 90.0952 83.1502L84.1827 79.7716Z" fill="#B0B8CF"/>
<path d="M78.5518 68.7909C79.1149 68.7909 79.3964 68.5093 79.3964 67.9462C79.3964 65.9754 77.9887 63.723 76.2994 62.8784C74.3286 61.7522 72.6393 62.8784 72.6393 64.8492C72.6393 65.1307 72.9208 65.6938 73.4839 65.6938C74.047 65.6938 74.3286 65.4123 74.3286 64.8492C74.3286 63.723 74.8917 63.4415 75.7363 64.0045C76.8625 64.5676 77.9887 66.5385 77.9887 67.6647C77.9887 68.2278 78.2702 68.7909 78.5518 68.7909Z" fill="#4C5C75"/>
<path d="M22.5238 36.1314C23.0869 36.1314 23.3685 35.8498 23.3685 35.2867C23.3685 33.3159 21.9607 31.0635 20.2714 30.2189C18.3006 29.0927 16.6113 30.2189 16.6113 32.1897C16.6113 32.4713 16.8929 33.0344 17.456 33.0344C17.7375 33.0344 18.3006 32.7528 18.3006 32.1897C18.3006 31.0635 18.8637 30.782 19.7084 31.3451C20.8345 31.9082 21.9607 33.879 21.9607 35.0052C21.9607 35.8498 22.2423 36.1314 22.5238 36.1314Z" fill="#4C5C75"/>
<path d="M117.687 46.2669C118.25 46.2669 118.531 45.9854 118.531 45.4223C118.531 43.4515 117.124 41.1991 115.434 40.3544C113.464 39.2282 111.774 40.3544 111.774 42.3253C111.774 42.6068 112.056 43.1699 112.619 43.1699C112.9 43.1699 113.464 42.8884 113.464 42.3253C113.464 41.1991 114.027 40.9175 114.871 41.4806C115.998 42.0437 117.124 44.0146 117.124 45.1407C116.842 45.9854 117.124 46.2669 117.687 46.2669Z" fill="#4C5C75"/>
<path d="M61.6589 13.6081C62.222 13.6081 62.5035 13.3265 62.5035 12.7634C62.5035 10.7926 61.0958 8.5402 59.4065 7.69556C57.4357 6.56937 55.7464 7.69556 55.7464 9.66639C55.7464 9.94794 56.0279 10.511 56.591 10.511C57.1541 10.511 57.4357 10.2295 57.4357 9.66639C57.4357 8.5402 57.9988 8.25865 58.8434 8.82175C59.9696 9.38485 61.0958 11.3557 61.0958 12.4819C60.8143 13.3265 61.0958 13.6081 61.6589 13.6081Z" fill="#4C5C75"/>
</svg>
