<svg width="46" height="41" viewBox="0 0 46 41" fill="none" xmlns="http://www.w3.org/2000/svg">
<path d="M45.2855 32.3707L27.6898 2.74931C26.7195 1.02422 24.9675 0 23 0C21.0325 0 19.2804 1.02422 18.3101 2.72227L0.691051 32.3977C-0.252398 34.0958 -0.225445 36.0903 0.745047 37.7614C1.71536 39.4325 3.46713 40.4298 5.38089 40.4298H40.6227C42.5365 40.4298 44.2884 39.4325 45.2586 37.7614C46.229 36.0902 46.2559 34.0958 45.2855 32.3707Z" fill="#FFD400"/>
<path d="M45.2585 37.7613C44.2882 39.4324 42.5364 40.4297 40.6227 40.4297H23V0C24.9675 0 26.7195 1.02422 27.6898 2.74931L45.2856 32.3708C46.256 34.0958 46.229 36.0902 45.2585 37.7613Z" fill="#FDBF00"/>
<path d="M25.6953 28.3008H20.3047V33.6914H25.6953V28.3008Z" fill="#4A696F"/>
<path d="M25.6953 12.1289H20.3047V25.6055H25.6953V12.1289Z" fill="#4A696F"/>
<path d="M25.6953 12.1289H23V25.6055H25.6953V12.1289Z" fill="#3E5959"/>
<path d="M25.6953 28.3008H23V33.6914H25.6953V28.3008Z" fill="#3E5959"/>
</svg>
